G04 EAGLE Gerber RS-274X export*
G75*
%MOMM*%
%FSLAX34Y34*%
%LPD*%
%INSoldermask Top*%
%IPPOS*%
%AMOC8*
5,1,8,0,0,1.08239X$1,22.5*%
G01*
%ADD10C,0.252575*%
%ADD11C,0.257147*%
%ADD12C,2.032000*%
%ADD13C,3.454400*%
%ADD14C,0.253344*%
%ADD15C,0.255816*%
%ADD16C,0.802400*%
%ADD17C,0.253525*%
%ADD18C,0.245334*%
%ADD19C,0.243431*%
%ADD20C,0.252862*%
%ADD21C,0.250366*%
%ADD22C,0.449434*%
%ADD23R,0.840000X0.440000*%
%ADD24R,0.940000X1.520000*%
%ADD25C,0.255719*%
%ADD26C,0.787400*%
%ADD27C,1.152400*%
%ADD28C,1.270000*%
%ADD29C,1.652400*%

G36*
X539744Y42883D02*
X539744Y42883D01*
X539750Y42889D01*
X539755Y42885D01*
X540985Y43250D01*
X540990Y43257D01*
X540995Y43255D01*
X542114Y43885D01*
X542117Y43892D01*
X542123Y43891D01*
X543073Y44754D01*
X543074Y44762D01*
X543080Y44762D01*
X543814Y45815D01*
X543814Y45823D01*
X543819Y45825D01*
X544301Y47015D01*
X544299Y47020D01*
X544303Y47023D01*
X544302Y47024D01*
X544304Y47025D01*
X544509Y48292D01*
X544506Y48297D01*
X544509Y48300D01*
X544509Y60300D01*
X544506Y60304D01*
X544509Y60307D01*
X544354Y61429D01*
X544349Y61434D01*
X544352Y61438D01*
X543981Y62509D01*
X543975Y62513D01*
X543977Y62518D01*
X543404Y63495D01*
X543398Y63498D01*
X543399Y63503D01*
X542646Y64350D01*
X542639Y64352D01*
X542639Y64357D01*
X541736Y65041D01*
X541729Y65041D01*
X541728Y65046D01*
X540709Y65541D01*
X540702Y65539D01*
X540700Y65544D01*
X539603Y65831D01*
X539597Y65828D01*
X539594Y65832D01*
X538463Y65899D01*
X538457Y65899D01*
X537326Y65832D01*
X537321Y65827D01*
X537317Y65831D01*
X536220Y65544D01*
X536216Y65538D01*
X536211Y65541D01*
X535192Y65046D01*
X535189Y65040D01*
X535184Y65041D01*
X534281Y64357D01*
X534279Y64350D01*
X534274Y64350D01*
X533521Y63503D01*
X533521Y63496D01*
X533516Y63495D01*
X532943Y62518D01*
X532944Y62515D01*
X532943Y62514D01*
X532944Y62513D01*
X532944Y62511D01*
X532939Y62509D01*
X532568Y61438D01*
X532570Y61433D01*
X532567Y61431D01*
X532567Y61430D01*
X532566Y61429D01*
X532411Y60307D01*
X532414Y60302D01*
X532411Y60300D01*
X532411Y48300D01*
X532414Y48295D01*
X532411Y48292D01*
X532616Y47025D01*
X532622Y47019D01*
X532619Y47015D01*
X533101Y45825D01*
X533108Y45821D01*
X533106Y45815D01*
X533840Y44762D01*
X533848Y44760D01*
X533847Y44754D01*
X534797Y43891D01*
X534806Y43890D01*
X534806Y43885D01*
X535925Y43255D01*
X535933Y43256D01*
X535935Y43250D01*
X537165Y42885D01*
X537173Y42888D01*
X537176Y42883D01*
X538457Y42801D01*
X538461Y42804D01*
X538463Y42801D01*
X539744Y42883D01*
G37*
G36*
X72384Y42883D02*
X72384Y42883D01*
X72390Y42889D01*
X72395Y42885D01*
X73625Y43250D01*
X73630Y43257D01*
X73635Y43255D01*
X74754Y43885D01*
X74757Y43892D01*
X74763Y43891D01*
X75713Y44754D01*
X75714Y44762D01*
X75720Y44762D01*
X76454Y45815D01*
X76454Y45823D01*
X76459Y45825D01*
X76941Y47015D01*
X76939Y47020D01*
X76943Y47023D01*
X76942Y47024D01*
X76944Y47025D01*
X77149Y48292D01*
X77146Y48297D01*
X77149Y48300D01*
X77149Y60300D01*
X77146Y60304D01*
X77149Y60307D01*
X76994Y61429D01*
X76989Y61434D01*
X76992Y61438D01*
X76621Y62509D01*
X76615Y62513D01*
X76617Y62518D01*
X76044Y63495D01*
X76038Y63498D01*
X76039Y63503D01*
X75286Y64350D01*
X75279Y64352D01*
X75279Y64357D01*
X74376Y65041D01*
X74369Y65041D01*
X74368Y65046D01*
X73349Y65541D01*
X73342Y65539D01*
X73340Y65544D01*
X72243Y65831D01*
X72237Y65828D01*
X72234Y65832D01*
X71103Y65899D01*
X71097Y65899D01*
X69966Y65832D01*
X69961Y65827D01*
X69957Y65831D01*
X68860Y65544D01*
X68856Y65538D01*
X68851Y65541D01*
X67832Y65046D01*
X67829Y65040D01*
X67824Y65041D01*
X66921Y64357D01*
X66919Y64350D01*
X66914Y64350D01*
X66161Y63503D01*
X66161Y63496D01*
X66156Y63495D01*
X65583Y62518D01*
X65584Y62515D01*
X65583Y62514D01*
X65584Y62513D01*
X65584Y62511D01*
X65579Y62509D01*
X65208Y61438D01*
X65210Y61433D01*
X65207Y61431D01*
X65207Y61430D01*
X65206Y61429D01*
X65051Y60307D01*
X65054Y60302D01*
X65051Y60300D01*
X65051Y48300D01*
X65054Y48295D01*
X65051Y48292D01*
X65256Y47025D01*
X65262Y47019D01*
X65259Y47015D01*
X65741Y45825D01*
X65748Y45821D01*
X65746Y45815D01*
X66480Y44762D01*
X66488Y44760D01*
X66487Y44754D01*
X67437Y43891D01*
X67446Y43890D01*
X67446Y43885D01*
X68565Y43255D01*
X68573Y43256D01*
X68575Y43250D01*
X69805Y42885D01*
X69813Y42888D01*
X69816Y42883D01*
X71097Y42801D01*
X71101Y42804D01*
X71103Y42801D01*
X72384Y42883D01*
G37*
G36*
X626144Y42883D02*
X626144Y42883D01*
X626150Y42889D01*
X626155Y42885D01*
X627385Y43250D01*
X627390Y43257D01*
X627395Y43255D01*
X628514Y43885D01*
X628517Y43892D01*
X628523Y43891D01*
X629473Y44754D01*
X629474Y44762D01*
X629480Y44762D01*
X630214Y45815D01*
X630214Y45823D01*
X630219Y45825D01*
X630701Y47015D01*
X630699Y47020D01*
X630703Y47023D01*
X630702Y47024D01*
X630704Y47025D01*
X630909Y48292D01*
X630906Y48297D01*
X630909Y48300D01*
X630909Y60300D01*
X630906Y60304D01*
X630909Y60307D01*
X630754Y61429D01*
X630749Y61434D01*
X630752Y61438D01*
X630381Y62509D01*
X630375Y62513D01*
X630377Y62518D01*
X629804Y63495D01*
X629798Y63498D01*
X629799Y63503D01*
X629046Y64350D01*
X629039Y64352D01*
X629039Y64357D01*
X628136Y65041D01*
X628129Y65041D01*
X628128Y65046D01*
X627109Y65541D01*
X627102Y65539D01*
X627100Y65544D01*
X626003Y65831D01*
X625997Y65828D01*
X625994Y65832D01*
X624863Y65899D01*
X624857Y65899D01*
X623726Y65832D01*
X623721Y65827D01*
X623717Y65831D01*
X622620Y65544D01*
X622616Y65538D01*
X622611Y65541D01*
X621592Y65046D01*
X621589Y65040D01*
X621584Y65041D01*
X620681Y64357D01*
X620679Y64350D01*
X620674Y64350D01*
X619921Y63503D01*
X619921Y63496D01*
X619916Y63495D01*
X619343Y62518D01*
X619344Y62515D01*
X619343Y62514D01*
X619344Y62513D01*
X619344Y62511D01*
X619339Y62509D01*
X618968Y61438D01*
X618970Y61433D01*
X618967Y61431D01*
X618967Y61430D01*
X618966Y61429D01*
X618811Y60307D01*
X618814Y60302D01*
X618811Y60300D01*
X618811Y48300D01*
X618814Y48295D01*
X618811Y48292D01*
X619016Y47025D01*
X619022Y47019D01*
X619019Y47015D01*
X619501Y45825D01*
X619508Y45821D01*
X619506Y45815D01*
X620240Y44762D01*
X620248Y44760D01*
X620247Y44754D01*
X621197Y43891D01*
X621206Y43890D01*
X621206Y43885D01*
X622325Y43255D01*
X622333Y43256D01*
X622335Y43250D01*
X623565Y42885D01*
X623573Y42888D01*
X623576Y42883D01*
X624857Y42801D01*
X624861Y42804D01*
X624863Y42801D01*
X626144Y42883D01*
G37*
G36*
X306064Y42883D02*
X306064Y42883D01*
X306070Y42889D01*
X306075Y42885D01*
X307305Y43250D01*
X307310Y43257D01*
X307315Y43255D01*
X308434Y43885D01*
X308437Y43892D01*
X308443Y43891D01*
X309393Y44754D01*
X309394Y44762D01*
X309400Y44762D01*
X310134Y45815D01*
X310134Y45823D01*
X310139Y45825D01*
X310621Y47015D01*
X310619Y47020D01*
X310623Y47023D01*
X310622Y47024D01*
X310624Y47025D01*
X310829Y48292D01*
X310826Y48297D01*
X310829Y48300D01*
X310829Y60300D01*
X310826Y60304D01*
X310829Y60307D01*
X310674Y61429D01*
X310669Y61434D01*
X310672Y61438D01*
X310301Y62509D01*
X310295Y62513D01*
X310297Y62518D01*
X309724Y63495D01*
X309718Y63498D01*
X309719Y63503D01*
X308966Y64350D01*
X308959Y64352D01*
X308959Y64357D01*
X308056Y65041D01*
X308049Y65041D01*
X308048Y65046D01*
X307029Y65541D01*
X307022Y65539D01*
X307020Y65544D01*
X305923Y65831D01*
X305917Y65828D01*
X305914Y65832D01*
X304783Y65899D01*
X304777Y65899D01*
X303646Y65832D01*
X303641Y65827D01*
X303637Y65831D01*
X302540Y65544D01*
X302536Y65538D01*
X302531Y65541D01*
X301512Y65046D01*
X301509Y65040D01*
X301504Y65041D01*
X300601Y64357D01*
X300599Y64350D01*
X300594Y64350D01*
X299841Y63503D01*
X299841Y63496D01*
X299836Y63495D01*
X299263Y62518D01*
X299264Y62515D01*
X299263Y62514D01*
X299264Y62513D01*
X299264Y62511D01*
X299259Y62509D01*
X298888Y61438D01*
X298890Y61433D01*
X298887Y61431D01*
X298887Y61430D01*
X298886Y61429D01*
X298731Y60307D01*
X298734Y60302D01*
X298731Y60300D01*
X298731Y48300D01*
X298734Y48295D01*
X298731Y48292D01*
X298936Y47025D01*
X298942Y47019D01*
X298939Y47015D01*
X299421Y45825D01*
X299428Y45821D01*
X299426Y45815D01*
X300160Y44762D01*
X300168Y44760D01*
X300167Y44754D01*
X301117Y43891D01*
X301126Y43890D01*
X301126Y43885D01*
X302245Y43255D01*
X302253Y43256D01*
X302255Y43250D01*
X303485Y42885D01*
X303493Y42888D01*
X303496Y42883D01*
X304777Y42801D01*
X304781Y42804D01*
X304783Y42801D01*
X306064Y42883D01*
G37*
G36*
X392464Y42883D02*
X392464Y42883D01*
X392470Y42889D01*
X392475Y42885D01*
X393705Y43250D01*
X393710Y43257D01*
X393715Y43255D01*
X394834Y43885D01*
X394837Y43892D01*
X394843Y43891D01*
X395793Y44754D01*
X395794Y44762D01*
X395800Y44762D01*
X396534Y45815D01*
X396534Y45823D01*
X396539Y45825D01*
X397021Y47015D01*
X397019Y47020D01*
X397023Y47023D01*
X397022Y47024D01*
X397024Y47025D01*
X397229Y48292D01*
X397226Y48297D01*
X397229Y48300D01*
X397229Y60300D01*
X397226Y60304D01*
X397229Y60307D01*
X397074Y61429D01*
X397069Y61434D01*
X397072Y61438D01*
X396701Y62509D01*
X396695Y62513D01*
X396697Y62518D01*
X396124Y63495D01*
X396118Y63498D01*
X396119Y63503D01*
X395366Y64350D01*
X395359Y64352D01*
X395359Y64357D01*
X394456Y65041D01*
X394449Y65041D01*
X394448Y65046D01*
X393429Y65541D01*
X393422Y65539D01*
X393420Y65544D01*
X392323Y65831D01*
X392317Y65828D01*
X392314Y65832D01*
X391183Y65899D01*
X391177Y65899D01*
X390046Y65832D01*
X390041Y65827D01*
X390037Y65831D01*
X388940Y65544D01*
X388936Y65538D01*
X388931Y65541D01*
X387912Y65046D01*
X387909Y65040D01*
X387904Y65041D01*
X387001Y64357D01*
X386999Y64350D01*
X386994Y64350D01*
X386241Y63503D01*
X386241Y63496D01*
X386236Y63495D01*
X385663Y62518D01*
X385664Y62515D01*
X385663Y62514D01*
X385664Y62513D01*
X385664Y62511D01*
X385659Y62509D01*
X385288Y61438D01*
X385290Y61433D01*
X385287Y61431D01*
X385287Y61430D01*
X385286Y61429D01*
X385131Y60307D01*
X385134Y60302D01*
X385131Y60300D01*
X385131Y48300D01*
X385134Y48295D01*
X385131Y48292D01*
X385336Y47025D01*
X385342Y47019D01*
X385339Y47015D01*
X385821Y45825D01*
X385828Y45821D01*
X385826Y45815D01*
X386560Y44762D01*
X386568Y44760D01*
X386567Y44754D01*
X387517Y43891D01*
X387526Y43890D01*
X387526Y43885D01*
X388645Y43255D01*
X388653Y43256D01*
X388655Y43250D01*
X389885Y42885D01*
X389893Y42888D01*
X389896Y42883D01*
X391177Y42801D01*
X391181Y42804D01*
X391183Y42801D01*
X392464Y42883D01*
G37*
G36*
X158784Y42883D02*
X158784Y42883D01*
X158790Y42889D01*
X158795Y42885D01*
X160025Y43250D01*
X160030Y43257D01*
X160035Y43255D01*
X161154Y43885D01*
X161157Y43892D01*
X161163Y43891D01*
X162113Y44754D01*
X162114Y44762D01*
X162120Y44762D01*
X162854Y45815D01*
X162854Y45823D01*
X162859Y45825D01*
X163341Y47015D01*
X163339Y47020D01*
X163343Y47023D01*
X163342Y47024D01*
X163344Y47025D01*
X163549Y48292D01*
X163546Y48297D01*
X163549Y48300D01*
X163549Y60300D01*
X163546Y60304D01*
X163549Y60307D01*
X163394Y61429D01*
X163389Y61434D01*
X163392Y61438D01*
X163021Y62509D01*
X163015Y62513D01*
X163017Y62518D01*
X162444Y63495D01*
X162438Y63498D01*
X162439Y63503D01*
X161686Y64350D01*
X161679Y64352D01*
X161679Y64357D01*
X160776Y65041D01*
X160769Y65041D01*
X160768Y65046D01*
X159749Y65541D01*
X159742Y65539D01*
X159740Y65544D01*
X158643Y65831D01*
X158637Y65828D01*
X158634Y65832D01*
X157503Y65899D01*
X157497Y65899D01*
X156366Y65832D01*
X156361Y65827D01*
X156357Y65831D01*
X155260Y65544D01*
X155256Y65538D01*
X155251Y65541D01*
X154232Y65046D01*
X154229Y65040D01*
X154224Y65041D01*
X153321Y64357D01*
X153319Y64350D01*
X153314Y64350D01*
X152561Y63503D01*
X152561Y63496D01*
X152556Y63495D01*
X151983Y62518D01*
X151984Y62515D01*
X151983Y62514D01*
X151984Y62513D01*
X151984Y62511D01*
X151979Y62509D01*
X151608Y61438D01*
X151610Y61433D01*
X151607Y61431D01*
X151607Y61430D01*
X151606Y61429D01*
X151451Y60307D01*
X151454Y60302D01*
X151451Y60300D01*
X151451Y48300D01*
X151454Y48295D01*
X151451Y48292D01*
X151656Y47025D01*
X151662Y47019D01*
X151659Y47015D01*
X152141Y45825D01*
X152148Y45821D01*
X152146Y45815D01*
X152880Y44762D01*
X152888Y44760D01*
X152887Y44754D01*
X153837Y43891D01*
X153846Y43890D01*
X153846Y43885D01*
X154965Y43255D01*
X154973Y43256D01*
X154975Y43250D01*
X156205Y42885D01*
X156213Y42888D01*
X156216Y42883D01*
X157497Y42801D01*
X157501Y42804D01*
X157503Y42801D01*
X158784Y42883D01*
G37*
G36*
X305951Y3611D02*
X305951Y3611D01*
X305956Y3616D01*
X305960Y3613D01*
X307083Y3948D01*
X307087Y3954D01*
X307091Y3952D01*
X308127Y4500D01*
X308130Y4506D01*
X308135Y4505D01*
X309043Y5244D01*
X309045Y5251D01*
X309050Y5251D01*
X309797Y6153D01*
X309797Y6161D01*
X309803Y6161D01*
X310359Y7192D01*
X310358Y7199D01*
X310363Y7201D01*
X310707Y8320D01*
X310705Y8327D01*
X310709Y8330D01*
X310829Y9495D01*
X310827Y9498D01*
X310829Y9500D01*
X310829Y15500D01*
X310827Y15503D01*
X310829Y15505D01*
X310718Y16681D01*
X310713Y16686D01*
X310716Y16690D01*
X310378Y17822D01*
X310372Y17826D01*
X310374Y17831D01*
X309822Y18875D01*
X309815Y18878D01*
X309817Y18883D01*
X309071Y19799D01*
X309064Y19800D01*
X309064Y19806D01*
X308155Y20559D01*
X308147Y20559D01*
X308147Y20564D01*
X307107Y21125D01*
X307100Y21124D01*
X307098Y21129D01*
X305969Y21476D01*
X305963Y21474D01*
X305960Y21478D01*
X304785Y21599D01*
X304778Y21595D01*
X304774Y21599D01*
X303434Y21442D01*
X303428Y21437D01*
X303423Y21440D01*
X302152Y20989D01*
X302147Y20982D01*
X302142Y20984D01*
X301003Y20262D01*
X301000Y20254D01*
X300994Y20255D01*
X300044Y19297D01*
X300043Y19289D01*
X300037Y19288D01*
X299324Y18143D01*
X299325Y18135D01*
X299319Y18133D01*
X298879Y16857D01*
X298881Y16850D01*
X298877Y16847D01*
X298731Y15505D01*
X298733Y15502D01*
X298731Y15500D01*
X298731Y9500D01*
X298733Y9497D01*
X298731Y9494D01*
X298886Y8165D01*
X298892Y8159D01*
X298889Y8155D01*
X299336Y6894D01*
X299343Y6889D01*
X299341Y6884D01*
X300058Y5754D01*
X300065Y5751D01*
X300064Y5745D01*
X301015Y4803D01*
X301023Y4802D01*
X301023Y4796D01*
X302159Y4089D01*
X302167Y4090D01*
X302169Y4084D01*
X303434Y3648D01*
X303439Y3649D01*
X303440Y3649D01*
X303443Y3649D01*
X303445Y3645D01*
X304775Y3501D01*
X304781Y3505D01*
X304785Y3501D01*
X305951Y3611D01*
G37*
G36*
X539631Y3611D02*
X539631Y3611D01*
X539636Y3616D01*
X539640Y3613D01*
X540763Y3948D01*
X540767Y3954D01*
X540771Y3952D01*
X541807Y4500D01*
X541810Y4506D01*
X541815Y4505D01*
X542723Y5244D01*
X542725Y5251D01*
X542730Y5251D01*
X543477Y6153D01*
X543477Y6161D01*
X543483Y6161D01*
X544039Y7192D01*
X544038Y7199D01*
X544043Y7201D01*
X544387Y8320D01*
X544385Y8327D01*
X544389Y8330D01*
X544509Y9495D01*
X544507Y9498D01*
X544509Y9500D01*
X544509Y15500D01*
X544507Y15503D01*
X544509Y15505D01*
X544398Y16681D01*
X544393Y16686D01*
X544396Y16690D01*
X544058Y17822D01*
X544052Y17826D01*
X544054Y17831D01*
X543502Y18875D01*
X543495Y18878D01*
X543497Y18883D01*
X542751Y19799D01*
X542744Y19800D01*
X542744Y19806D01*
X541835Y20559D01*
X541827Y20559D01*
X541827Y20564D01*
X540787Y21125D01*
X540780Y21124D01*
X540778Y21129D01*
X539649Y21476D01*
X539643Y21474D01*
X539640Y21478D01*
X538465Y21599D01*
X538458Y21595D01*
X538454Y21599D01*
X537114Y21442D01*
X537108Y21437D01*
X537103Y21440D01*
X535832Y20989D01*
X535827Y20982D01*
X535822Y20984D01*
X534683Y20262D01*
X534680Y20254D01*
X534674Y20255D01*
X533724Y19297D01*
X533723Y19289D01*
X533717Y19288D01*
X533004Y18143D01*
X533005Y18135D01*
X532999Y18133D01*
X532559Y16857D01*
X532561Y16850D01*
X532557Y16847D01*
X532411Y15505D01*
X532413Y15502D01*
X532411Y15500D01*
X532411Y9500D01*
X532413Y9497D01*
X532411Y9494D01*
X532566Y8165D01*
X532572Y8159D01*
X532569Y8155D01*
X533016Y6894D01*
X533023Y6889D01*
X533021Y6884D01*
X533738Y5754D01*
X533745Y5751D01*
X533744Y5745D01*
X534695Y4803D01*
X534703Y4802D01*
X534703Y4796D01*
X535839Y4089D01*
X535847Y4090D01*
X535849Y4084D01*
X537114Y3648D01*
X537119Y3649D01*
X537120Y3649D01*
X537123Y3649D01*
X537125Y3645D01*
X538455Y3501D01*
X538461Y3505D01*
X538465Y3501D01*
X539631Y3611D01*
G37*
G36*
X392351Y3611D02*
X392351Y3611D01*
X392356Y3616D01*
X392360Y3613D01*
X393483Y3948D01*
X393487Y3954D01*
X393491Y3952D01*
X394527Y4500D01*
X394530Y4506D01*
X394535Y4505D01*
X395443Y5244D01*
X395445Y5251D01*
X395450Y5251D01*
X396197Y6153D01*
X396197Y6161D01*
X396203Y6161D01*
X396759Y7192D01*
X396758Y7199D01*
X396763Y7201D01*
X397107Y8320D01*
X397105Y8327D01*
X397109Y8330D01*
X397229Y9495D01*
X397227Y9498D01*
X397229Y9500D01*
X397229Y15500D01*
X397227Y15503D01*
X397229Y15505D01*
X397118Y16681D01*
X397113Y16686D01*
X397116Y16690D01*
X396778Y17822D01*
X396772Y17826D01*
X396774Y17831D01*
X396222Y18875D01*
X396215Y18878D01*
X396217Y18883D01*
X395471Y19799D01*
X395464Y19800D01*
X395464Y19806D01*
X394555Y20559D01*
X394547Y20559D01*
X394547Y20564D01*
X393507Y21125D01*
X393500Y21124D01*
X393498Y21129D01*
X392369Y21476D01*
X392363Y21474D01*
X392360Y21478D01*
X391185Y21599D01*
X391178Y21595D01*
X391174Y21599D01*
X389834Y21442D01*
X389828Y21437D01*
X389823Y21440D01*
X388552Y20989D01*
X388547Y20982D01*
X388542Y20984D01*
X387403Y20262D01*
X387400Y20254D01*
X387394Y20255D01*
X386444Y19297D01*
X386443Y19289D01*
X386437Y19288D01*
X385724Y18143D01*
X385725Y18135D01*
X385719Y18133D01*
X385279Y16857D01*
X385281Y16850D01*
X385277Y16847D01*
X385131Y15505D01*
X385133Y15502D01*
X385131Y15500D01*
X385131Y9500D01*
X385133Y9497D01*
X385131Y9494D01*
X385286Y8165D01*
X385292Y8159D01*
X385289Y8155D01*
X385736Y6894D01*
X385743Y6889D01*
X385741Y6884D01*
X386458Y5754D01*
X386465Y5751D01*
X386464Y5745D01*
X387415Y4803D01*
X387423Y4802D01*
X387423Y4796D01*
X388559Y4089D01*
X388567Y4090D01*
X388569Y4084D01*
X389834Y3648D01*
X389839Y3649D01*
X389840Y3649D01*
X389843Y3649D01*
X389845Y3645D01*
X391175Y3501D01*
X391181Y3505D01*
X391185Y3501D01*
X392351Y3611D01*
G37*
G36*
X72271Y3611D02*
X72271Y3611D01*
X72276Y3616D01*
X72280Y3613D01*
X73403Y3948D01*
X73407Y3954D01*
X73411Y3952D01*
X74447Y4500D01*
X74450Y4506D01*
X74455Y4505D01*
X75363Y5244D01*
X75365Y5251D01*
X75370Y5251D01*
X76117Y6153D01*
X76117Y6161D01*
X76123Y6161D01*
X76679Y7192D01*
X76678Y7199D01*
X76683Y7201D01*
X77027Y8320D01*
X77025Y8327D01*
X77029Y8330D01*
X77149Y9495D01*
X77147Y9498D01*
X77149Y9500D01*
X77149Y15500D01*
X77147Y15503D01*
X77149Y15505D01*
X77038Y16681D01*
X77033Y16686D01*
X77036Y16690D01*
X76698Y17822D01*
X76692Y17826D01*
X76694Y17831D01*
X76142Y18875D01*
X76135Y18878D01*
X76137Y18883D01*
X75391Y19799D01*
X75384Y19800D01*
X75384Y19806D01*
X74475Y20559D01*
X74467Y20559D01*
X74467Y20564D01*
X73427Y21125D01*
X73420Y21124D01*
X73418Y21129D01*
X72289Y21476D01*
X72283Y21474D01*
X72280Y21478D01*
X71105Y21599D01*
X71098Y21595D01*
X71094Y21599D01*
X69754Y21442D01*
X69748Y21437D01*
X69743Y21440D01*
X68472Y20989D01*
X68467Y20982D01*
X68462Y20984D01*
X67323Y20262D01*
X67320Y20254D01*
X67314Y20255D01*
X66364Y19297D01*
X66363Y19289D01*
X66357Y19288D01*
X65644Y18143D01*
X65645Y18135D01*
X65639Y18133D01*
X65199Y16857D01*
X65201Y16850D01*
X65197Y16847D01*
X65051Y15505D01*
X65053Y15502D01*
X65051Y15500D01*
X65051Y9500D01*
X65053Y9497D01*
X65051Y9494D01*
X65206Y8165D01*
X65212Y8159D01*
X65209Y8155D01*
X65656Y6894D01*
X65663Y6889D01*
X65661Y6884D01*
X66378Y5754D01*
X66385Y5751D01*
X66384Y5745D01*
X67335Y4803D01*
X67343Y4802D01*
X67343Y4796D01*
X68479Y4089D01*
X68487Y4090D01*
X68489Y4084D01*
X69754Y3648D01*
X69759Y3649D01*
X69760Y3649D01*
X69763Y3649D01*
X69765Y3645D01*
X71095Y3501D01*
X71101Y3505D01*
X71105Y3501D01*
X72271Y3611D01*
G37*
G36*
X158671Y3611D02*
X158671Y3611D01*
X158676Y3616D01*
X158680Y3613D01*
X159803Y3948D01*
X159807Y3954D01*
X159811Y3952D01*
X160847Y4500D01*
X160850Y4506D01*
X160855Y4505D01*
X161763Y5244D01*
X161765Y5251D01*
X161770Y5251D01*
X162517Y6153D01*
X162517Y6161D01*
X162523Y6161D01*
X163079Y7192D01*
X163078Y7199D01*
X163083Y7201D01*
X163427Y8320D01*
X163425Y8327D01*
X163429Y8330D01*
X163549Y9495D01*
X163547Y9498D01*
X163549Y9500D01*
X163549Y15500D01*
X163547Y15503D01*
X163549Y15505D01*
X163438Y16681D01*
X163433Y16686D01*
X163436Y16690D01*
X163098Y17822D01*
X163092Y17826D01*
X163094Y17831D01*
X162542Y18875D01*
X162535Y18878D01*
X162537Y18883D01*
X161791Y19799D01*
X161784Y19800D01*
X161784Y19806D01*
X160875Y20559D01*
X160867Y20559D01*
X160867Y20564D01*
X159827Y21125D01*
X159820Y21124D01*
X159818Y21129D01*
X158689Y21476D01*
X158683Y21474D01*
X158680Y21478D01*
X157505Y21599D01*
X157498Y21595D01*
X157494Y21599D01*
X156154Y21442D01*
X156148Y21437D01*
X156143Y21440D01*
X154872Y20989D01*
X154867Y20982D01*
X154862Y20984D01*
X153723Y20262D01*
X153720Y20254D01*
X153714Y20255D01*
X152764Y19297D01*
X152763Y19289D01*
X152757Y19288D01*
X152044Y18143D01*
X152045Y18135D01*
X152039Y18133D01*
X151599Y16857D01*
X151601Y16850D01*
X151597Y16847D01*
X151451Y15505D01*
X151453Y15502D01*
X151451Y15500D01*
X151451Y9500D01*
X151453Y9497D01*
X151451Y9494D01*
X151606Y8165D01*
X151612Y8159D01*
X151609Y8155D01*
X152056Y6894D01*
X152063Y6889D01*
X152061Y6884D01*
X152778Y5754D01*
X152785Y5751D01*
X152784Y5745D01*
X153735Y4803D01*
X153743Y4802D01*
X153743Y4796D01*
X154879Y4089D01*
X154887Y4090D01*
X154889Y4084D01*
X156154Y3648D01*
X156159Y3649D01*
X156160Y3649D01*
X156163Y3649D01*
X156165Y3645D01*
X157495Y3501D01*
X157501Y3505D01*
X157505Y3501D01*
X158671Y3611D01*
G37*
G36*
X626031Y3611D02*
X626031Y3611D01*
X626036Y3616D01*
X626040Y3613D01*
X627163Y3948D01*
X627167Y3954D01*
X627171Y3952D01*
X628207Y4500D01*
X628210Y4506D01*
X628215Y4505D01*
X629123Y5244D01*
X629125Y5251D01*
X629130Y5251D01*
X629877Y6153D01*
X629877Y6161D01*
X629883Y6161D01*
X630439Y7192D01*
X630438Y7199D01*
X630443Y7201D01*
X630787Y8320D01*
X630785Y8327D01*
X630789Y8330D01*
X630909Y9495D01*
X630907Y9498D01*
X630909Y9500D01*
X630909Y15500D01*
X630907Y15503D01*
X630909Y15505D01*
X630798Y16681D01*
X630793Y16686D01*
X630796Y16690D01*
X630458Y17822D01*
X630452Y17826D01*
X630454Y17831D01*
X629902Y18875D01*
X629895Y18878D01*
X629897Y18883D01*
X629151Y19799D01*
X629144Y19800D01*
X629144Y19806D01*
X628235Y20559D01*
X628227Y20559D01*
X628227Y20564D01*
X627187Y21125D01*
X627180Y21124D01*
X627178Y21129D01*
X626049Y21476D01*
X626043Y21474D01*
X626040Y21478D01*
X624865Y21599D01*
X624858Y21595D01*
X624854Y21599D01*
X623514Y21442D01*
X623508Y21437D01*
X623503Y21440D01*
X622232Y20989D01*
X622227Y20982D01*
X622222Y20984D01*
X621083Y20262D01*
X621080Y20254D01*
X621074Y20255D01*
X620124Y19297D01*
X620123Y19289D01*
X620117Y19288D01*
X619404Y18143D01*
X619405Y18135D01*
X619399Y18133D01*
X618959Y16857D01*
X618961Y16850D01*
X618957Y16847D01*
X618811Y15505D01*
X618813Y15502D01*
X618811Y15500D01*
X618811Y9500D01*
X618813Y9497D01*
X618811Y9494D01*
X618966Y8165D01*
X618972Y8159D01*
X618969Y8155D01*
X619416Y6894D01*
X619423Y6889D01*
X619421Y6884D01*
X620138Y5754D01*
X620145Y5751D01*
X620144Y5745D01*
X621095Y4803D01*
X621103Y4802D01*
X621103Y4796D01*
X622239Y4089D01*
X622247Y4090D01*
X622249Y4084D01*
X623514Y3648D01*
X623519Y3649D01*
X623520Y3649D01*
X623523Y3649D01*
X623525Y3645D01*
X624855Y3501D01*
X624861Y3505D01*
X624865Y3501D01*
X626031Y3611D01*
G37*
D10*
X38799Y505801D02*
X24801Y505801D01*
X24801Y513799D01*
X38799Y513799D01*
X38799Y505801D01*
X38799Y508201D02*
X24801Y508201D01*
X24801Y510601D02*
X38799Y510601D01*
X38799Y513001D02*
X24801Y513001D01*
X24801Y493101D02*
X38799Y493101D01*
X24801Y493101D02*
X24801Y501099D01*
X38799Y501099D01*
X38799Y493101D01*
X38799Y495501D02*
X24801Y495501D01*
X24801Y497901D02*
X38799Y497901D01*
X38799Y500301D02*
X24801Y500301D01*
X24801Y480401D02*
X38799Y480401D01*
X24801Y480401D02*
X24801Y488399D01*
X38799Y488399D01*
X38799Y480401D01*
X38799Y482801D02*
X24801Y482801D01*
X24801Y485201D02*
X38799Y485201D01*
X38799Y487601D02*
X24801Y487601D01*
X24801Y467701D02*
X38799Y467701D01*
X24801Y467701D02*
X24801Y475699D01*
X38799Y475699D01*
X38799Y467701D01*
X38799Y470101D02*
X24801Y470101D01*
X24801Y472501D02*
X38799Y472501D01*
X38799Y474901D02*
X24801Y474901D01*
X24801Y455001D02*
X38799Y455001D01*
X24801Y455001D02*
X24801Y462999D01*
X38799Y462999D01*
X38799Y455001D01*
X38799Y457401D02*
X24801Y457401D01*
X24801Y459801D02*
X38799Y459801D01*
X38799Y462201D02*
X24801Y462201D01*
X24801Y442301D02*
X38799Y442301D01*
X24801Y442301D02*
X24801Y450299D01*
X38799Y450299D01*
X38799Y442301D01*
X38799Y444701D02*
X24801Y444701D01*
X24801Y447101D02*
X38799Y447101D01*
X38799Y449501D02*
X24801Y449501D01*
X24801Y429601D02*
X38799Y429601D01*
X24801Y429601D02*
X24801Y437599D01*
X38799Y437599D01*
X38799Y429601D01*
X38799Y432001D02*
X24801Y432001D01*
X24801Y434401D02*
X38799Y434401D01*
X38799Y436801D02*
X24801Y436801D01*
X24801Y416901D02*
X38799Y416901D01*
X24801Y416901D02*
X24801Y424899D01*
X38799Y424899D01*
X38799Y416901D01*
X38799Y419301D02*
X24801Y419301D01*
X24801Y421701D02*
X38799Y421701D01*
X38799Y424101D02*
X24801Y424101D01*
X24801Y404201D02*
X38799Y404201D01*
X24801Y404201D02*
X24801Y412199D01*
X38799Y412199D01*
X38799Y404201D01*
X38799Y406601D02*
X24801Y406601D01*
X24801Y409001D02*
X38799Y409001D01*
X38799Y411401D02*
X24801Y411401D01*
X24801Y391501D02*
X38799Y391501D01*
X24801Y391501D02*
X24801Y399499D01*
X38799Y399499D01*
X38799Y391501D01*
X38799Y393901D02*
X24801Y393901D01*
X24801Y396301D02*
X38799Y396301D01*
X38799Y398701D02*
X24801Y398701D01*
X24801Y378801D02*
X38799Y378801D01*
X24801Y378801D02*
X24801Y386799D01*
X38799Y386799D01*
X38799Y378801D01*
X38799Y381201D02*
X24801Y381201D01*
X24801Y383601D02*
X38799Y383601D01*
X38799Y386001D02*
X24801Y386001D01*
X24801Y366101D02*
X38799Y366101D01*
X24801Y366101D02*
X24801Y374099D01*
X38799Y374099D01*
X38799Y366101D01*
X38799Y368501D02*
X24801Y368501D01*
X24801Y370901D02*
X38799Y370901D01*
X38799Y373301D02*
X24801Y373301D01*
X24801Y353401D02*
X38799Y353401D01*
X24801Y353401D02*
X24801Y361399D01*
X38799Y361399D01*
X38799Y353401D01*
X38799Y355801D02*
X24801Y355801D01*
X24801Y358201D02*
X38799Y358201D01*
X38799Y360601D02*
X24801Y360601D01*
X24801Y340701D02*
X38799Y340701D01*
X24801Y340701D02*
X24801Y348699D01*
X38799Y348699D01*
X38799Y340701D01*
X38799Y343101D02*
X24801Y343101D01*
X24801Y345501D02*
X38799Y345501D01*
X38799Y347901D02*
X24801Y347901D01*
X189801Y340701D02*
X203799Y340701D01*
X189801Y340701D02*
X189801Y348699D01*
X203799Y348699D01*
X203799Y340701D01*
X203799Y343101D02*
X189801Y343101D01*
X189801Y345501D02*
X203799Y345501D01*
X203799Y347901D02*
X189801Y347901D01*
X189801Y353401D02*
X203799Y353401D01*
X189801Y353401D02*
X189801Y361399D01*
X203799Y361399D01*
X203799Y353401D01*
X203799Y355801D02*
X189801Y355801D01*
X189801Y358201D02*
X203799Y358201D01*
X203799Y360601D02*
X189801Y360601D01*
X189801Y366101D02*
X203799Y366101D01*
X189801Y366101D02*
X189801Y374099D01*
X203799Y374099D01*
X203799Y366101D01*
X203799Y368501D02*
X189801Y368501D01*
X189801Y370901D02*
X203799Y370901D01*
X203799Y373301D02*
X189801Y373301D01*
X189801Y378801D02*
X203799Y378801D01*
X189801Y378801D02*
X189801Y386799D01*
X203799Y386799D01*
X203799Y378801D01*
X203799Y381201D02*
X189801Y381201D01*
X189801Y383601D02*
X203799Y383601D01*
X203799Y386001D02*
X189801Y386001D01*
X189801Y391501D02*
X203799Y391501D01*
X189801Y391501D02*
X189801Y399499D01*
X203799Y399499D01*
X203799Y391501D01*
X203799Y393901D02*
X189801Y393901D01*
X189801Y396301D02*
X203799Y396301D01*
X203799Y398701D02*
X189801Y398701D01*
X189801Y404201D02*
X203799Y404201D01*
X189801Y404201D02*
X189801Y412199D01*
X203799Y412199D01*
X203799Y404201D01*
X203799Y406601D02*
X189801Y406601D01*
X189801Y409001D02*
X203799Y409001D01*
X203799Y411401D02*
X189801Y411401D01*
X189801Y416901D02*
X203799Y416901D01*
X189801Y416901D02*
X189801Y424899D01*
X203799Y424899D01*
X203799Y416901D01*
X203799Y419301D02*
X189801Y419301D01*
X189801Y421701D02*
X203799Y421701D01*
X203799Y424101D02*
X189801Y424101D01*
X189801Y429601D02*
X203799Y429601D01*
X189801Y429601D02*
X189801Y437599D01*
X203799Y437599D01*
X203799Y429601D01*
X203799Y432001D02*
X189801Y432001D01*
X189801Y434401D02*
X203799Y434401D01*
X203799Y436801D02*
X189801Y436801D01*
X189801Y442301D02*
X203799Y442301D01*
X189801Y442301D02*
X189801Y450299D01*
X203799Y450299D01*
X203799Y442301D01*
X203799Y444701D02*
X189801Y444701D01*
X189801Y447101D02*
X203799Y447101D01*
X203799Y449501D02*
X189801Y449501D01*
X189801Y455001D02*
X203799Y455001D01*
X189801Y455001D02*
X189801Y462999D01*
X203799Y462999D01*
X203799Y455001D01*
X203799Y457401D02*
X189801Y457401D01*
X189801Y459801D02*
X203799Y459801D01*
X203799Y462201D02*
X189801Y462201D01*
X189801Y467701D02*
X203799Y467701D01*
X189801Y467701D02*
X189801Y475699D01*
X203799Y475699D01*
X203799Y467701D01*
X203799Y470101D02*
X189801Y470101D01*
X189801Y472501D02*
X203799Y472501D01*
X203799Y474901D02*
X189801Y474901D01*
X189801Y480401D02*
X203799Y480401D01*
X189801Y480401D02*
X189801Y488399D01*
X203799Y488399D01*
X203799Y480401D01*
X203799Y482801D02*
X189801Y482801D01*
X189801Y485201D02*
X203799Y485201D01*
X203799Y487601D02*
X189801Y487601D01*
X189801Y493101D02*
X203799Y493101D01*
X189801Y493101D02*
X189801Y501099D01*
X203799Y501099D01*
X203799Y493101D01*
X203799Y495501D02*
X189801Y495501D01*
X189801Y497901D02*
X203799Y497901D01*
X203799Y500301D02*
X189801Y500301D01*
X189801Y505801D02*
X203799Y505801D01*
X189801Y505801D02*
X189801Y513799D01*
X203799Y513799D01*
X203799Y505801D01*
X203799Y508201D02*
X189801Y508201D01*
X189801Y510601D02*
X203799Y510601D01*
X203799Y513001D02*
X189801Y513001D01*
D11*
X90227Y461623D02*
X83273Y461623D01*
X83273Y468577D01*
X90227Y468577D01*
X90227Y461623D01*
X90227Y464065D02*
X83273Y464065D01*
X83273Y466507D02*
X90227Y466507D01*
X90227Y449123D02*
X83273Y449123D01*
X83273Y456077D01*
X90227Y456077D01*
X90227Y449123D01*
X90227Y451565D02*
X83273Y451565D01*
X83273Y454007D02*
X90227Y454007D01*
X90227Y436623D02*
X83273Y436623D01*
X83273Y443577D01*
X90227Y443577D01*
X90227Y436623D01*
X90227Y439065D02*
X83273Y439065D01*
X83273Y441507D02*
X90227Y441507D01*
X95773Y436623D02*
X102727Y436623D01*
X95773Y436623D02*
X95773Y443577D01*
X102727Y443577D01*
X102727Y436623D01*
X102727Y439065D02*
X95773Y439065D01*
X95773Y441507D02*
X102727Y441507D01*
X108273Y436623D02*
X115227Y436623D01*
X108273Y436623D02*
X108273Y443577D01*
X115227Y443577D01*
X115227Y436623D01*
X115227Y439065D02*
X108273Y439065D01*
X108273Y441507D02*
X115227Y441507D01*
X115227Y449123D02*
X108273Y449123D01*
X108273Y456077D01*
X115227Y456077D01*
X115227Y449123D01*
X115227Y451565D02*
X108273Y451565D01*
X108273Y454007D02*
X115227Y454007D01*
X115227Y461623D02*
X108273Y461623D01*
X108273Y468577D01*
X115227Y468577D01*
X115227Y461623D01*
X115227Y464065D02*
X108273Y464065D01*
X108273Y466507D02*
X115227Y466507D01*
X102727Y461623D02*
X95773Y461623D01*
X95773Y468577D01*
X102727Y468577D01*
X102727Y461623D01*
X102727Y464065D02*
X95773Y464065D01*
X95773Y466507D02*
X102727Y466507D01*
X102727Y449123D02*
X95773Y449123D01*
X95773Y456077D01*
X102727Y456077D01*
X102727Y449123D01*
X102727Y451565D02*
X95773Y451565D01*
X95773Y454007D02*
X102727Y454007D01*
D12*
X215900Y520700D03*
X215900Y495300D03*
X215900Y469900D03*
X215900Y444500D03*
X215900Y419100D03*
X215900Y393700D03*
X215900Y368300D03*
X215900Y342900D03*
X215900Y317500D03*
X215900Y292100D03*
X215900Y266700D03*
X215900Y241300D03*
X215900Y215900D03*
X215900Y190500D03*
X215900Y165100D03*
X215900Y139700D03*
X12700Y241300D03*
X12700Y266700D03*
X12700Y292100D03*
X12700Y317500D03*
X12700Y342900D03*
X12700Y368300D03*
X12700Y393700D03*
X12700Y419100D03*
X12700Y444500D03*
X12700Y469900D03*
X12700Y495300D03*
X12700Y520700D03*
D13*
X25400Y25400D03*
X203200Y25400D03*
D14*
X122796Y55604D02*
X120804Y55604D01*
X120804Y64596D01*
X122796Y64596D01*
X122796Y55604D01*
X122796Y58010D02*
X120804Y58010D01*
X120804Y60416D02*
X122796Y60416D01*
X122796Y62822D02*
X120804Y62822D01*
X117796Y55604D02*
X115804Y55604D01*
X115804Y64596D01*
X117796Y64596D01*
X117796Y55604D01*
X117796Y58010D02*
X115804Y58010D01*
X115804Y60416D02*
X117796Y60416D01*
X117796Y62822D02*
X115804Y62822D01*
D15*
X144067Y55617D02*
X149033Y55617D01*
X144067Y55617D02*
X144067Y64583D01*
X149033Y64583D01*
X149033Y55617D01*
X149033Y58047D02*
X144067Y58047D01*
X144067Y60477D02*
X149033Y60477D01*
X149033Y62907D02*
X144067Y62907D01*
X141283Y55617D02*
X136317Y55617D01*
X136317Y64583D01*
X141283Y64583D01*
X141283Y55617D01*
X141283Y58047D02*
X136317Y58047D01*
X136317Y60477D02*
X141283Y60477D01*
X141283Y62907D02*
X136317Y62907D01*
D14*
X132796Y55604D02*
X130804Y55604D01*
X130804Y64596D01*
X132796Y64596D01*
X132796Y55604D01*
X132796Y58010D02*
X130804Y58010D01*
X130804Y60416D02*
X132796Y60416D01*
X132796Y62822D02*
X130804Y62822D01*
X127796Y55604D02*
X125804Y55604D01*
X125804Y64596D01*
X127796Y64596D01*
X127796Y55604D01*
X127796Y58010D02*
X125804Y58010D01*
X125804Y60416D02*
X127796Y60416D01*
X127796Y62822D02*
X125804Y62822D01*
X107796Y64596D02*
X105804Y64596D01*
X107796Y64596D02*
X107796Y55604D01*
X105804Y55604D01*
X105804Y64596D01*
X105804Y58010D02*
X107796Y58010D01*
X107796Y60416D02*
X105804Y60416D01*
X105804Y62822D02*
X107796Y62822D01*
X110804Y64596D02*
X112796Y64596D01*
X112796Y55604D01*
X110804Y55604D01*
X110804Y64596D01*
X110804Y58010D02*
X112796Y58010D01*
X112796Y60416D02*
X110804Y60416D01*
X110804Y62822D02*
X112796Y62822D01*
D15*
X84533Y64583D02*
X79567Y64583D01*
X84533Y64583D02*
X84533Y55617D01*
X79567Y55617D01*
X79567Y64583D01*
X79567Y58047D02*
X84533Y58047D01*
X84533Y60477D02*
X79567Y60477D01*
X79567Y62907D02*
X84533Y62907D01*
X87317Y64583D02*
X92283Y64583D01*
X92283Y55617D01*
X87317Y55617D01*
X87317Y64583D01*
X87317Y58047D02*
X92283Y58047D01*
X92283Y60477D02*
X87317Y60477D01*
X87317Y62907D02*
X92283Y62907D01*
D14*
X95804Y64596D02*
X97796Y64596D01*
X97796Y55604D01*
X95804Y55604D01*
X95804Y64596D01*
X95804Y58010D02*
X97796Y58010D01*
X97796Y60416D02*
X95804Y60416D01*
X95804Y62822D02*
X97796Y62822D01*
X100804Y64596D02*
X102796Y64596D01*
X102796Y55604D01*
X100804Y55604D01*
X100804Y64596D01*
X100804Y58010D02*
X102796Y58010D01*
X102796Y60416D02*
X100804Y60416D01*
X100804Y62822D02*
X102796Y62822D01*
D16*
X85400Y49050D03*
X143200Y49050D03*
D17*
X143205Y80695D02*
X153195Y80695D01*
X153195Y71705D01*
X143205Y71705D01*
X143205Y80695D01*
X143205Y74113D02*
X153195Y74113D01*
X153195Y76521D02*
X143205Y76521D01*
X143205Y78929D02*
X153195Y78929D01*
X136195Y80695D02*
X126205Y80695D01*
X136195Y80695D02*
X136195Y71705D01*
X126205Y71705D01*
X126205Y80695D01*
X126205Y74113D02*
X136195Y74113D01*
X136195Y76521D02*
X126205Y76521D01*
X126205Y78929D02*
X136195Y78929D01*
X85395Y71705D02*
X75405Y71705D01*
X75405Y80695D01*
X85395Y80695D01*
X85395Y71705D01*
X85395Y74113D02*
X75405Y74113D01*
X75405Y76521D02*
X85395Y76521D01*
X85395Y78929D02*
X75405Y78929D01*
X92405Y71705D02*
X102395Y71705D01*
X92405Y71705D02*
X92405Y80695D01*
X102395Y80695D01*
X102395Y71705D01*
X102395Y74113D02*
X92405Y74113D01*
X92405Y76521D02*
X102395Y76521D01*
X102395Y78929D02*
X92405Y78929D01*
X95055Y163305D02*
X95055Y172295D01*
X95055Y163305D02*
X50065Y163305D01*
X50065Y172295D01*
X95055Y172295D01*
X95055Y165713D02*
X50065Y165713D01*
X50065Y168121D02*
X95055Y168121D01*
X95055Y170529D02*
X50065Y170529D01*
X95055Y183305D02*
X95055Y192295D01*
X95055Y183305D02*
X50065Y183305D01*
X50065Y192295D01*
X95055Y192295D01*
X95055Y185713D02*
X50065Y185713D01*
X50065Y188121D02*
X95055Y188121D01*
X95055Y190529D02*
X50065Y190529D01*
D18*
X37096Y151336D02*
X4024Y151336D01*
X37096Y151336D02*
X37096Y136264D01*
X4024Y136264D01*
X4024Y151336D01*
X4024Y138594D02*
X37096Y138594D01*
X37096Y140924D02*
X4024Y140924D01*
X4024Y143254D02*
X37096Y143254D01*
X37096Y145584D02*
X4024Y145584D01*
X4024Y147914D02*
X37096Y147914D01*
X37096Y150244D02*
X4024Y150244D01*
X4024Y219336D02*
X37096Y219336D01*
X37096Y204264D01*
X4024Y204264D01*
X4024Y219336D01*
X4024Y206594D02*
X37096Y206594D01*
X37096Y208924D02*
X4024Y208924D01*
X4024Y211254D02*
X37096Y211254D01*
X37096Y213584D02*
X4024Y213584D01*
X4024Y215914D02*
X37096Y215914D01*
X37096Y218244D02*
X4024Y218244D01*
D19*
X4505Y122445D02*
X4505Y111355D01*
X4505Y122445D02*
X23595Y122445D01*
X23595Y111355D01*
X4505Y111355D01*
X4505Y113667D02*
X23595Y113667D01*
X23595Y115979D02*
X4505Y115979D01*
X4505Y118291D02*
X23595Y118291D01*
X23595Y120603D02*
X4505Y120603D01*
X4505Y66445D02*
X4505Y55355D01*
X4505Y66445D02*
X23595Y66445D01*
X23595Y55355D01*
X4505Y55355D01*
X4505Y57667D02*
X23595Y57667D01*
X23595Y59979D02*
X4505Y59979D01*
X4505Y62291D02*
X23595Y62291D01*
X23595Y64603D02*
X4505Y64603D01*
D15*
X44567Y101417D02*
X44567Y106383D01*
X57033Y106383D01*
X57033Y101417D01*
X44567Y101417D01*
X44567Y103847D02*
X57033Y103847D01*
X57033Y106277D02*
X44567Y106277D01*
X44567Y96383D02*
X44567Y91417D01*
X44567Y96383D02*
X57033Y96383D01*
X57033Y91417D01*
X44567Y91417D01*
X44567Y93847D02*
X57033Y93847D01*
X57033Y96277D02*
X44567Y96277D01*
X44567Y86383D02*
X44567Y81417D01*
X44567Y86383D02*
X57033Y86383D01*
X57033Y81417D01*
X44567Y81417D01*
X44567Y83847D02*
X57033Y83847D01*
X57033Y86277D02*
X44567Y86277D01*
X44567Y76383D02*
X44567Y71417D01*
X44567Y76383D02*
X57033Y76383D01*
X57033Y71417D01*
X44567Y71417D01*
X44567Y73847D02*
X57033Y73847D01*
X57033Y76277D02*
X44567Y76277D01*
D10*
X207001Y117801D02*
X214999Y117801D01*
X207001Y117801D02*
X207001Y126799D01*
X214999Y126799D01*
X214999Y117801D01*
X214999Y120201D02*
X207001Y120201D01*
X207001Y122601D02*
X214999Y122601D01*
X214999Y125001D02*
X207001Y125001D01*
X207001Y101801D02*
X214999Y101801D01*
X207001Y101801D02*
X207001Y110799D01*
X214999Y110799D01*
X214999Y101801D01*
X214999Y104201D02*
X207001Y104201D01*
X207001Y106601D02*
X214999Y106601D01*
X214999Y109001D02*
X207001Y109001D01*
X173999Y101801D02*
X166001Y101801D01*
X166001Y110799D01*
X173999Y110799D01*
X173999Y101801D01*
X173999Y104201D02*
X166001Y104201D01*
X166001Y106601D02*
X173999Y106601D01*
X173999Y109001D02*
X166001Y109001D01*
X166001Y117801D02*
X173999Y117801D01*
X166001Y117801D02*
X166001Y126799D01*
X173999Y126799D01*
X173999Y117801D01*
X173999Y120201D02*
X166001Y120201D01*
X166001Y122601D02*
X173999Y122601D01*
X173999Y125001D02*
X166001Y125001D01*
X207001Y79701D02*
X214999Y79701D01*
X207001Y79701D02*
X207001Y88699D01*
X214999Y88699D01*
X214999Y79701D01*
X214999Y82101D02*
X207001Y82101D01*
X207001Y84501D02*
X214999Y84501D01*
X214999Y86901D02*
X207001Y86901D01*
X207001Y63701D02*
X214999Y63701D01*
X207001Y63701D02*
X207001Y72699D01*
X214999Y72699D01*
X214999Y63701D01*
X214999Y66101D02*
X207001Y66101D01*
X207001Y68501D02*
X214999Y68501D01*
X214999Y70901D02*
X207001Y70901D01*
X173999Y63701D02*
X166001Y63701D01*
X166001Y72699D01*
X173999Y72699D01*
X173999Y63701D01*
X173999Y66101D02*
X166001Y66101D01*
X166001Y68501D02*
X173999Y68501D01*
X173999Y70901D02*
X166001Y70901D01*
X166001Y79701D02*
X173999Y79701D01*
X166001Y79701D02*
X166001Y88699D01*
X173999Y88699D01*
X173999Y79701D01*
X173999Y82101D02*
X166001Y82101D01*
X166001Y84501D02*
X173999Y84501D01*
X173999Y86901D02*
X166001Y86901D01*
D20*
X107048Y260901D02*
X102552Y260901D01*
X102552Y271897D01*
X107048Y271897D01*
X107048Y260901D01*
X107048Y263304D02*
X102552Y263304D01*
X102552Y265707D02*
X107048Y265707D01*
X107048Y268110D02*
X102552Y268110D01*
X102552Y270513D02*
X107048Y270513D01*
X112052Y260901D02*
X116548Y260901D01*
X112052Y260901D02*
X112052Y271897D01*
X116548Y271897D01*
X116548Y260901D01*
X116548Y263304D02*
X112052Y263304D01*
X112052Y265707D02*
X116548Y265707D01*
X116548Y268110D02*
X112052Y268110D01*
X112052Y270513D02*
X116548Y270513D01*
X121552Y260901D02*
X126048Y260901D01*
X121552Y260901D02*
X121552Y271897D01*
X126048Y271897D01*
X126048Y260901D01*
X126048Y263304D02*
X121552Y263304D01*
X121552Y265707D02*
X126048Y265707D01*
X126048Y268110D02*
X121552Y268110D01*
X121552Y270513D02*
X126048Y270513D01*
X126048Y286903D02*
X121552Y286903D01*
X121552Y297899D01*
X126048Y297899D01*
X126048Y286903D01*
X126048Y289306D02*
X121552Y289306D01*
X121552Y291709D02*
X126048Y291709D01*
X126048Y294112D02*
X121552Y294112D01*
X121552Y296515D02*
X126048Y296515D01*
X107048Y286903D02*
X102552Y286903D01*
X102552Y297899D01*
X107048Y297899D01*
X107048Y286903D01*
X107048Y289306D02*
X102552Y289306D01*
X102552Y291709D02*
X107048Y291709D01*
X107048Y294112D02*
X102552Y294112D01*
X102552Y296515D02*
X107048Y296515D01*
D11*
X108277Y163823D02*
X101323Y163823D01*
X101323Y171777D01*
X108277Y171777D01*
X108277Y163823D01*
X108277Y166265D02*
X101323Y166265D01*
X101323Y168707D02*
X108277Y168707D01*
X108277Y171149D02*
X101323Y171149D01*
X120323Y163823D02*
X127277Y163823D01*
X120323Y163823D02*
X120323Y171777D01*
X127277Y171777D01*
X127277Y163823D01*
X127277Y166265D02*
X120323Y166265D01*
X120323Y168707D02*
X127277Y168707D01*
X127277Y171149D02*
X120323Y171149D01*
X117777Y184823D02*
X110823Y184823D01*
X110823Y192777D01*
X117777Y192777D01*
X117777Y184823D01*
X117777Y187265D02*
X110823Y187265D01*
X110823Y189707D02*
X117777Y189707D01*
X117777Y192149D02*
X110823Y192149D01*
D21*
X123140Y156060D02*
X128460Y156060D01*
X128460Y148740D01*
X123140Y148740D01*
X123140Y156060D01*
X123140Y151119D02*
X128460Y151119D01*
X128460Y153498D02*
X123140Y153498D01*
X123140Y155877D02*
X128460Y155877D01*
X105460Y156060D02*
X100140Y156060D01*
X105460Y156060D02*
X105460Y148740D01*
X100140Y148740D01*
X100140Y156060D01*
X100140Y151119D02*
X105460Y151119D01*
X105460Y153498D02*
X100140Y153498D01*
X100140Y155877D02*
X105460Y155877D01*
D20*
X159652Y183599D02*
X164148Y183599D01*
X164148Y172603D01*
X159652Y172603D01*
X159652Y183599D01*
X159652Y175006D02*
X164148Y175006D01*
X164148Y177409D02*
X159652Y177409D01*
X159652Y179812D02*
X164148Y179812D01*
X164148Y182215D02*
X159652Y182215D01*
X154648Y183599D02*
X150152Y183599D01*
X154648Y183599D02*
X154648Y172603D01*
X150152Y172603D01*
X150152Y183599D01*
X150152Y175006D02*
X154648Y175006D01*
X154648Y177409D02*
X150152Y177409D01*
X150152Y179812D02*
X154648Y179812D01*
X154648Y182215D02*
X150152Y182215D01*
X145148Y183599D02*
X140652Y183599D01*
X145148Y183599D02*
X145148Y172603D01*
X140652Y172603D01*
X140652Y183599D01*
X140652Y175006D02*
X145148Y175006D01*
X145148Y177409D02*
X140652Y177409D01*
X140652Y179812D02*
X145148Y179812D01*
X145148Y182215D02*
X140652Y182215D01*
X140652Y157597D02*
X145148Y157597D01*
X145148Y146601D01*
X140652Y146601D01*
X140652Y157597D01*
X140652Y149004D02*
X145148Y149004D01*
X145148Y151407D02*
X140652Y151407D01*
X140652Y153810D02*
X145148Y153810D01*
X145148Y156213D02*
X140652Y156213D01*
X159652Y157597D02*
X164148Y157597D01*
X164148Y146601D01*
X159652Y146601D01*
X159652Y157597D01*
X159652Y149004D02*
X164148Y149004D01*
X164148Y151407D02*
X159652Y151407D01*
X159652Y153810D02*
X164148Y153810D01*
X164148Y156213D02*
X159652Y156213D01*
D17*
X146845Y137845D02*
X136855Y137845D01*
X146845Y137845D02*
X146845Y128855D01*
X136855Y128855D01*
X136855Y137845D01*
X136855Y131263D02*
X146845Y131263D01*
X146845Y133671D02*
X136855Y133671D01*
X136855Y136079D02*
X146845Y136079D01*
X129845Y137845D02*
X119855Y137845D01*
X129845Y137845D02*
X129845Y128855D01*
X119855Y128855D01*
X119855Y137845D01*
X119855Y131263D02*
X129845Y131263D01*
X129845Y133671D02*
X119855Y133671D01*
X119855Y136079D02*
X129845Y136079D01*
X138905Y192355D02*
X148895Y192355D01*
X138905Y192355D02*
X138905Y201345D01*
X148895Y201345D01*
X148895Y192355D01*
X148895Y194763D02*
X138905Y194763D01*
X138905Y197171D02*
X148895Y197171D01*
X148895Y199579D02*
X138905Y199579D01*
X155905Y192355D02*
X165895Y192355D01*
X155905Y192355D02*
X155905Y201345D01*
X165895Y201345D01*
X165895Y192355D01*
X165895Y194763D02*
X155905Y194763D01*
X155905Y197171D02*
X165895Y197171D01*
X165895Y199579D02*
X155905Y199579D01*
D22*
X155235Y223345D02*
X162265Y223345D01*
X162265Y216315D01*
X155235Y216315D01*
X155235Y223345D01*
X155235Y220584D02*
X162265Y220584D01*
X162265Y240885D02*
X155235Y240885D01*
X162265Y240885D02*
X162265Y233855D01*
X155235Y233855D01*
X155235Y240885D01*
X155235Y238124D02*
X162265Y238124D01*
X87805Y307635D02*
X87805Y314665D01*
X94835Y314665D01*
X94835Y307635D01*
X87805Y307635D01*
X87805Y311904D02*
X94835Y311904D01*
X70265Y314665D02*
X70265Y307635D01*
X70265Y314665D02*
X77295Y314665D01*
X77295Y307635D01*
X70265Y307635D01*
X70265Y311904D02*
X77295Y311904D01*
D17*
X124155Y315645D02*
X134145Y315645D01*
X134145Y306655D01*
X124155Y306655D01*
X124155Y315645D01*
X124155Y309063D02*
X134145Y309063D01*
X134145Y311471D02*
X124155Y311471D01*
X124155Y313879D02*
X134145Y313879D01*
X117145Y315645D02*
X107155Y315645D01*
X117145Y315645D02*
X117145Y306655D01*
X107155Y306655D01*
X107155Y315645D01*
X107155Y309063D02*
X117145Y309063D01*
X117145Y311471D02*
X107155Y311471D01*
X107155Y313879D02*
X117145Y313879D01*
D23*
X53600Y259200D03*
X53600Y264200D03*
X53600Y269200D03*
X53600Y274200D03*
X73600Y274200D03*
X73600Y269200D03*
X73600Y264200D03*
X73600Y259200D03*
D24*
X63500Y266700D03*
D25*
X158566Y307316D02*
X164534Y307316D01*
X158566Y307316D02*
X158566Y313284D01*
X164534Y313284D01*
X164534Y307316D01*
X164534Y309745D02*
X158566Y309745D01*
X158566Y312174D02*
X164534Y312174D01*
X164534Y296316D02*
X158566Y296316D01*
X158566Y302284D01*
X164534Y302284D01*
X164534Y296316D01*
X164534Y298745D02*
X158566Y298745D01*
X158566Y301174D02*
X164534Y301174D01*
X146234Y296316D02*
X140266Y296316D01*
X140266Y302284D01*
X146234Y302284D01*
X146234Y296316D01*
X146234Y298745D02*
X140266Y298745D01*
X140266Y301174D02*
X146234Y301174D01*
X146234Y307316D02*
X140266Y307316D01*
X140266Y313284D01*
X146234Y313284D01*
X146234Y307316D01*
X146234Y309745D02*
X140266Y309745D01*
X140266Y312174D02*
X146234Y312174D01*
D17*
X148895Y274905D02*
X138905Y274905D01*
X138905Y283895D01*
X148895Y283895D01*
X148895Y274905D01*
X148895Y277313D02*
X138905Y277313D01*
X138905Y279721D02*
X148895Y279721D01*
X148895Y282129D02*
X138905Y282129D01*
X155905Y274905D02*
X165895Y274905D01*
X155905Y274905D02*
X155905Y283895D01*
X165895Y283895D01*
X165895Y274905D01*
X165895Y277313D02*
X155905Y277313D01*
X155905Y279721D02*
X165895Y279721D01*
X165895Y282129D02*
X155905Y282129D01*
D12*
X127000Y215900D03*
X101600Y215900D03*
D13*
X25400Y558800D03*
X203200Y558800D03*
D26*
X222250Y539750D03*
X6350Y44450D03*
D11*
X82273Y113023D02*
X89227Y113023D01*
X82273Y113023D02*
X82273Y120977D01*
X89227Y120977D01*
X89227Y113023D01*
X89227Y115465D02*
X82273Y115465D01*
X82273Y117907D02*
X89227Y117907D01*
X89227Y120349D02*
X82273Y120349D01*
X101273Y113023D02*
X108227Y113023D01*
X101273Y113023D02*
X101273Y120977D01*
X108227Y120977D01*
X108227Y113023D01*
X108227Y115465D02*
X101273Y115465D01*
X101273Y117907D02*
X108227Y117907D01*
X108227Y120349D02*
X101273Y120349D01*
X98727Y134023D02*
X91773Y134023D01*
X91773Y141977D01*
X98727Y141977D01*
X98727Y134023D01*
X98727Y136465D02*
X91773Y136465D01*
X91773Y138907D02*
X98727Y138907D01*
X98727Y141349D02*
X91773Y141349D01*
D17*
X119855Y113615D02*
X129845Y113615D01*
X119855Y113615D02*
X119855Y122605D01*
X129845Y122605D01*
X129845Y113615D01*
X129845Y116023D02*
X119855Y116023D01*
X119855Y118431D02*
X129845Y118431D01*
X129845Y120839D02*
X119855Y120839D01*
X136855Y113615D02*
X146845Y113615D01*
X136855Y113615D02*
X136855Y122605D01*
X146845Y122605D01*
X146845Y113615D01*
X146845Y116023D02*
X136855Y116023D01*
X136855Y118431D02*
X146845Y118431D01*
X146845Y120839D02*
X136855Y120839D01*
D10*
X258481Y505801D02*
X272479Y505801D01*
X258481Y505801D02*
X258481Y513799D01*
X272479Y513799D01*
X272479Y505801D01*
X272479Y508201D02*
X258481Y508201D01*
X258481Y510601D02*
X272479Y510601D01*
X272479Y513001D02*
X258481Y513001D01*
X258481Y493101D02*
X272479Y493101D01*
X258481Y493101D02*
X258481Y501099D01*
X272479Y501099D01*
X272479Y493101D01*
X272479Y495501D02*
X258481Y495501D01*
X258481Y497901D02*
X272479Y497901D01*
X272479Y500301D02*
X258481Y500301D01*
X258481Y480401D02*
X272479Y480401D01*
X258481Y480401D02*
X258481Y488399D01*
X272479Y488399D01*
X272479Y480401D01*
X272479Y482801D02*
X258481Y482801D01*
X258481Y485201D02*
X272479Y485201D01*
X272479Y487601D02*
X258481Y487601D01*
X258481Y467701D02*
X272479Y467701D01*
X258481Y467701D02*
X258481Y475699D01*
X272479Y475699D01*
X272479Y467701D01*
X272479Y470101D02*
X258481Y470101D01*
X258481Y472501D02*
X272479Y472501D01*
X272479Y474901D02*
X258481Y474901D01*
X258481Y455001D02*
X272479Y455001D01*
X258481Y455001D02*
X258481Y462999D01*
X272479Y462999D01*
X272479Y455001D01*
X272479Y457401D02*
X258481Y457401D01*
X258481Y459801D02*
X272479Y459801D01*
X272479Y462201D02*
X258481Y462201D01*
X258481Y442301D02*
X272479Y442301D01*
X258481Y442301D02*
X258481Y450299D01*
X272479Y450299D01*
X272479Y442301D01*
X272479Y444701D02*
X258481Y444701D01*
X258481Y447101D02*
X272479Y447101D01*
X272479Y449501D02*
X258481Y449501D01*
X258481Y429601D02*
X272479Y429601D01*
X258481Y429601D02*
X258481Y437599D01*
X272479Y437599D01*
X272479Y429601D01*
X272479Y432001D02*
X258481Y432001D01*
X258481Y434401D02*
X272479Y434401D01*
X272479Y436801D02*
X258481Y436801D01*
X258481Y416901D02*
X272479Y416901D01*
X258481Y416901D02*
X258481Y424899D01*
X272479Y424899D01*
X272479Y416901D01*
X272479Y419301D02*
X258481Y419301D01*
X258481Y421701D02*
X272479Y421701D01*
X272479Y424101D02*
X258481Y424101D01*
X258481Y404201D02*
X272479Y404201D01*
X258481Y404201D02*
X258481Y412199D01*
X272479Y412199D01*
X272479Y404201D01*
X272479Y406601D02*
X258481Y406601D01*
X258481Y409001D02*
X272479Y409001D01*
X272479Y411401D02*
X258481Y411401D01*
X258481Y391501D02*
X272479Y391501D01*
X258481Y391501D02*
X258481Y399499D01*
X272479Y399499D01*
X272479Y391501D01*
X272479Y393901D02*
X258481Y393901D01*
X258481Y396301D02*
X272479Y396301D01*
X272479Y398701D02*
X258481Y398701D01*
X258481Y378801D02*
X272479Y378801D01*
X258481Y378801D02*
X258481Y386799D01*
X272479Y386799D01*
X272479Y378801D01*
X272479Y381201D02*
X258481Y381201D01*
X258481Y383601D02*
X272479Y383601D01*
X272479Y386001D02*
X258481Y386001D01*
X258481Y366101D02*
X272479Y366101D01*
X258481Y366101D02*
X258481Y374099D01*
X272479Y374099D01*
X272479Y366101D01*
X272479Y368501D02*
X258481Y368501D01*
X258481Y370901D02*
X272479Y370901D01*
X272479Y373301D02*
X258481Y373301D01*
X258481Y353401D02*
X272479Y353401D01*
X258481Y353401D02*
X258481Y361399D01*
X272479Y361399D01*
X272479Y353401D01*
X272479Y355801D02*
X258481Y355801D01*
X258481Y358201D02*
X272479Y358201D01*
X272479Y360601D02*
X258481Y360601D01*
X258481Y340701D02*
X272479Y340701D01*
X258481Y340701D02*
X258481Y348699D01*
X272479Y348699D01*
X272479Y340701D01*
X272479Y343101D02*
X258481Y343101D01*
X258481Y345501D02*
X272479Y345501D01*
X272479Y347901D02*
X258481Y347901D01*
X423481Y340701D02*
X437479Y340701D01*
X423481Y340701D02*
X423481Y348699D01*
X437479Y348699D01*
X437479Y340701D01*
X437479Y343101D02*
X423481Y343101D01*
X423481Y345501D02*
X437479Y345501D01*
X437479Y347901D02*
X423481Y347901D01*
X423481Y353401D02*
X437479Y353401D01*
X423481Y353401D02*
X423481Y361399D01*
X437479Y361399D01*
X437479Y353401D01*
X437479Y355801D02*
X423481Y355801D01*
X423481Y358201D02*
X437479Y358201D01*
X437479Y360601D02*
X423481Y360601D01*
X423481Y366101D02*
X437479Y366101D01*
X423481Y366101D02*
X423481Y374099D01*
X437479Y374099D01*
X437479Y366101D01*
X437479Y368501D02*
X423481Y368501D01*
X423481Y370901D02*
X437479Y370901D01*
X437479Y373301D02*
X423481Y373301D01*
X423481Y378801D02*
X437479Y378801D01*
X423481Y378801D02*
X423481Y386799D01*
X437479Y386799D01*
X437479Y378801D01*
X437479Y381201D02*
X423481Y381201D01*
X423481Y383601D02*
X437479Y383601D01*
X437479Y386001D02*
X423481Y386001D01*
X423481Y391501D02*
X437479Y391501D01*
X423481Y391501D02*
X423481Y399499D01*
X437479Y399499D01*
X437479Y391501D01*
X437479Y393901D02*
X423481Y393901D01*
X423481Y396301D02*
X437479Y396301D01*
X437479Y398701D02*
X423481Y398701D01*
X423481Y404201D02*
X437479Y404201D01*
X423481Y404201D02*
X423481Y412199D01*
X437479Y412199D01*
X437479Y404201D01*
X437479Y406601D02*
X423481Y406601D01*
X423481Y409001D02*
X437479Y409001D01*
X437479Y411401D02*
X423481Y411401D01*
X423481Y416901D02*
X437479Y416901D01*
X423481Y416901D02*
X423481Y424899D01*
X437479Y424899D01*
X437479Y416901D01*
X437479Y419301D02*
X423481Y419301D01*
X423481Y421701D02*
X437479Y421701D01*
X437479Y424101D02*
X423481Y424101D01*
X423481Y429601D02*
X437479Y429601D01*
X423481Y429601D02*
X423481Y437599D01*
X437479Y437599D01*
X437479Y429601D01*
X437479Y432001D02*
X423481Y432001D01*
X423481Y434401D02*
X437479Y434401D01*
X437479Y436801D02*
X423481Y436801D01*
X423481Y442301D02*
X437479Y442301D01*
X423481Y442301D02*
X423481Y450299D01*
X437479Y450299D01*
X437479Y442301D01*
X437479Y444701D02*
X423481Y444701D01*
X423481Y447101D02*
X437479Y447101D01*
X437479Y449501D02*
X423481Y449501D01*
X423481Y455001D02*
X437479Y455001D01*
X423481Y455001D02*
X423481Y462999D01*
X437479Y462999D01*
X437479Y455001D01*
X437479Y457401D02*
X423481Y457401D01*
X423481Y459801D02*
X437479Y459801D01*
X437479Y462201D02*
X423481Y462201D01*
X423481Y467701D02*
X437479Y467701D01*
X423481Y467701D02*
X423481Y475699D01*
X437479Y475699D01*
X437479Y467701D01*
X437479Y470101D02*
X423481Y470101D01*
X423481Y472501D02*
X437479Y472501D01*
X437479Y474901D02*
X423481Y474901D01*
X423481Y480401D02*
X437479Y480401D01*
X423481Y480401D02*
X423481Y488399D01*
X437479Y488399D01*
X437479Y480401D01*
X437479Y482801D02*
X423481Y482801D01*
X423481Y485201D02*
X437479Y485201D01*
X437479Y487601D02*
X423481Y487601D01*
X423481Y493101D02*
X437479Y493101D01*
X423481Y493101D02*
X423481Y501099D01*
X437479Y501099D01*
X437479Y493101D01*
X437479Y495501D02*
X423481Y495501D01*
X423481Y497901D02*
X437479Y497901D01*
X437479Y500301D02*
X423481Y500301D01*
X423481Y505801D02*
X437479Y505801D01*
X423481Y505801D02*
X423481Y513799D01*
X437479Y513799D01*
X437479Y505801D01*
X437479Y508201D02*
X423481Y508201D01*
X423481Y510601D02*
X437479Y510601D01*
X437479Y513001D02*
X423481Y513001D01*
D11*
X323907Y461623D02*
X316953Y461623D01*
X316953Y468577D01*
X323907Y468577D01*
X323907Y461623D01*
X323907Y464065D02*
X316953Y464065D01*
X316953Y466507D02*
X323907Y466507D01*
X323907Y449123D02*
X316953Y449123D01*
X316953Y456077D01*
X323907Y456077D01*
X323907Y449123D01*
X323907Y451565D02*
X316953Y451565D01*
X316953Y454007D02*
X323907Y454007D01*
X323907Y436623D02*
X316953Y436623D01*
X316953Y443577D01*
X323907Y443577D01*
X323907Y436623D01*
X323907Y439065D02*
X316953Y439065D01*
X316953Y441507D02*
X323907Y441507D01*
X329453Y436623D02*
X336407Y436623D01*
X329453Y436623D02*
X329453Y443577D01*
X336407Y443577D01*
X336407Y436623D01*
X336407Y439065D02*
X329453Y439065D01*
X329453Y441507D02*
X336407Y441507D01*
X341953Y436623D02*
X348907Y436623D01*
X341953Y436623D02*
X341953Y443577D01*
X348907Y443577D01*
X348907Y436623D01*
X348907Y439065D02*
X341953Y439065D01*
X341953Y441507D02*
X348907Y441507D01*
X348907Y449123D02*
X341953Y449123D01*
X341953Y456077D01*
X348907Y456077D01*
X348907Y449123D01*
X348907Y451565D02*
X341953Y451565D01*
X341953Y454007D02*
X348907Y454007D01*
X348907Y461623D02*
X341953Y461623D01*
X341953Y468577D01*
X348907Y468577D01*
X348907Y461623D01*
X348907Y464065D02*
X341953Y464065D01*
X341953Y466507D02*
X348907Y466507D01*
X336407Y461623D02*
X329453Y461623D01*
X329453Y468577D01*
X336407Y468577D01*
X336407Y461623D01*
X336407Y464065D02*
X329453Y464065D01*
X329453Y466507D02*
X336407Y466507D01*
X336407Y449123D02*
X329453Y449123D01*
X329453Y456077D01*
X336407Y456077D01*
X336407Y449123D01*
X336407Y451565D02*
X329453Y451565D01*
X329453Y454007D02*
X336407Y454007D01*
D12*
X449580Y520700D03*
X449580Y495300D03*
X449580Y469900D03*
X449580Y444500D03*
X449580Y419100D03*
X449580Y393700D03*
X449580Y368300D03*
X449580Y342900D03*
X449580Y317500D03*
X449580Y292100D03*
X449580Y266700D03*
X449580Y241300D03*
X449580Y215900D03*
X449580Y190500D03*
X449580Y165100D03*
X449580Y139700D03*
X246380Y241300D03*
X246380Y266700D03*
X246380Y292100D03*
X246380Y317500D03*
X246380Y342900D03*
X246380Y368300D03*
X246380Y393700D03*
X246380Y419100D03*
X246380Y444500D03*
X246380Y469900D03*
X246380Y495300D03*
X246380Y520700D03*
D13*
X259080Y25400D03*
X436880Y25400D03*
D14*
X356476Y55604D02*
X354484Y55604D01*
X354484Y64596D01*
X356476Y64596D01*
X356476Y55604D01*
X356476Y58010D02*
X354484Y58010D01*
X354484Y60416D02*
X356476Y60416D01*
X356476Y62822D02*
X354484Y62822D01*
X351476Y55604D02*
X349484Y55604D01*
X349484Y64596D01*
X351476Y64596D01*
X351476Y55604D01*
X351476Y58010D02*
X349484Y58010D01*
X349484Y60416D02*
X351476Y60416D01*
X351476Y62822D02*
X349484Y62822D01*
D15*
X377747Y55617D02*
X382713Y55617D01*
X377747Y55617D02*
X377747Y64583D01*
X382713Y64583D01*
X382713Y55617D01*
X382713Y58047D02*
X377747Y58047D01*
X377747Y60477D02*
X382713Y60477D01*
X382713Y62907D02*
X377747Y62907D01*
X374963Y55617D02*
X369997Y55617D01*
X369997Y64583D01*
X374963Y64583D01*
X374963Y55617D01*
X374963Y58047D02*
X369997Y58047D01*
X369997Y60477D02*
X374963Y60477D01*
X374963Y62907D02*
X369997Y62907D01*
D14*
X366476Y55604D02*
X364484Y55604D01*
X364484Y64596D01*
X366476Y64596D01*
X366476Y55604D01*
X366476Y58010D02*
X364484Y58010D01*
X364484Y60416D02*
X366476Y60416D01*
X366476Y62822D02*
X364484Y62822D01*
X361476Y55604D02*
X359484Y55604D01*
X359484Y64596D01*
X361476Y64596D01*
X361476Y55604D01*
X361476Y58010D02*
X359484Y58010D01*
X359484Y60416D02*
X361476Y60416D01*
X361476Y62822D02*
X359484Y62822D01*
X341476Y64596D02*
X339484Y64596D01*
X341476Y64596D02*
X341476Y55604D01*
X339484Y55604D01*
X339484Y64596D01*
X339484Y58010D02*
X341476Y58010D01*
X341476Y60416D02*
X339484Y60416D01*
X339484Y62822D02*
X341476Y62822D01*
X344484Y64596D02*
X346476Y64596D01*
X346476Y55604D01*
X344484Y55604D01*
X344484Y64596D01*
X344484Y58010D02*
X346476Y58010D01*
X346476Y60416D02*
X344484Y60416D01*
X344484Y62822D02*
X346476Y62822D01*
D15*
X318213Y64583D02*
X313247Y64583D01*
X318213Y64583D02*
X318213Y55617D01*
X313247Y55617D01*
X313247Y64583D01*
X313247Y58047D02*
X318213Y58047D01*
X318213Y60477D02*
X313247Y60477D01*
X313247Y62907D02*
X318213Y62907D01*
X320997Y64583D02*
X325963Y64583D01*
X325963Y55617D01*
X320997Y55617D01*
X320997Y64583D01*
X320997Y58047D02*
X325963Y58047D01*
X325963Y60477D02*
X320997Y60477D01*
X320997Y62907D02*
X325963Y62907D01*
D14*
X329484Y64596D02*
X331476Y64596D01*
X331476Y55604D01*
X329484Y55604D01*
X329484Y64596D01*
X329484Y58010D02*
X331476Y58010D01*
X331476Y60416D02*
X329484Y60416D01*
X329484Y62822D02*
X331476Y62822D01*
X334484Y64596D02*
X336476Y64596D01*
X336476Y55604D01*
X334484Y55604D01*
X334484Y64596D01*
X334484Y58010D02*
X336476Y58010D01*
X336476Y60416D02*
X334484Y60416D01*
X334484Y62822D02*
X336476Y62822D01*
D16*
X319080Y49050D03*
X376880Y49050D03*
D17*
X376885Y80695D02*
X386875Y80695D01*
X386875Y71705D01*
X376885Y71705D01*
X376885Y80695D01*
X376885Y74113D02*
X386875Y74113D01*
X386875Y76521D02*
X376885Y76521D01*
X376885Y78929D02*
X386875Y78929D01*
X369875Y80695D02*
X359885Y80695D01*
X369875Y80695D02*
X369875Y71705D01*
X359885Y71705D01*
X359885Y80695D01*
X359885Y74113D02*
X369875Y74113D01*
X369875Y76521D02*
X359885Y76521D01*
X359885Y78929D02*
X369875Y78929D01*
X319075Y71705D02*
X309085Y71705D01*
X309085Y80695D01*
X319075Y80695D01*
X319075Y71705D01*
X319075Y74113D02*
X309085Y74113D01*
X309085Y76521D02*
X319075Y76521D01*
X319075Y78929D02*
X309085Y78929D01*
X326085Y71705D02*
X336075Y71705D01*
X326085Y71705D02*
X326085Y80695D01*
X336075Y80695D01*
X336075Y71705D01*
X336075Y74113D02*
X326085Y74113D01*
X326085Y76521D02*
X336075Y76521D01*
X336075Y78929D02*
X326085Y78929D01*
X328735Y163305D02*
X328735Y172295D01*
X328735Y163305D02*
X283745Y163305D01*
X283745Y172295D01*
X328735Y172295D01*
X328735Y165713D02*
X283745Y165713D01*
X283745Y168121D02*
X328735Y168121D01*
X328735Y170529D02*
X283745Y170529D01*
X328735Y183305D02*
X328735Y192295D01*
X328735Y183305D02*
X283745Y183305D01*
X283745Y192295D01*
X328735Y192295D01*
X328735Y185713D02*
X283745Y185713D01*
X283745Y188121D02*
X328735Y188121D01*
X328735Y190529D02*
X283745Y190529D01*
D18*
X270776Y151336D02*
X237704Y151336D01*
X270776Y151336D02*
X270776Y136264D01*
X237704Y136264D01*
X237704Y151336D01*
X237704Y138594D02*
X270776Y138594D01*
X270776Y140924D02*
X237704Y140924D01*
X237704Y143254D02*
X270776Y143254D01*
X270776Y145584D02*
X237704Y145584D01*
X237704Y147914D02*
X270776Y147914D01*
X270776Y150244D02*
X237704Y150244D01*
X237704Y219336D02*
X270776Y219336D01*
X270776Y204264D01*
X237704Y204264D01*
X237704Y219336D01*
X237704Y206594D02*
X270776Y206594D01*
X270776Y208924D02*
X237704Y208924D01*
X237704Y211254D02*
X270776Y211254D01*
X270776Y213584D02*
X237704Y213584D01*
X237704Y215914D02*
X270776Y215914D01*
X270776Y218244D02*
X237704Y218244D01*
D19*
X238185Y122445D02*
X238185Y111355D01*
X238185Y122445D02*
X257275Y122445D01*
X257275Y111355D01*
X238185Y111355D01*
X238185Y113667D02*
X257275Y113667D01*
X257275Y115979D02*
X238185Y115979D01*
X238185Y118291D02*
X257275Y118291D01*
X257275Y120603D02*
X238185Y120603D01*
X238185Y66445D02*
X238185Y55355D01*
X238185Y66445D02*
X257275Y66445D01*
X257275Y55355D01*
X238185Y55355D01*
X238185Y57667D02*
X257275Y57667D01*
X257275Y59979D02*
X238185Y59979D01*
X238185Y62291D02*
X257275Y62291D01*
X257275Y64603D02*
X238185Y64603D01*
D15*
X278247Y101417D02*
X278247Y106383D01*
X290713Y106383D01*
X290713Y101417D01*
X278247Y101417D01*
X278247Y103847D02*
X290713Y103847D01*
X290713Y106277D02*
X278247Y106277D01*
X278247Y96383D02*
X278247Y91417D01*
X278247Y96383D02*
X290713Y96383D01*
X290713Y91417D01*
X278247Y91417D01*
X278247Y93847D02*
X290713Y93847D01*
X290713Y96277D02*
X278247Y96277D01*
X278247Y86383D02*
X278247Y81417D01*
X278247Y86383D02*
X290713Y86383D01*
X290713Y81417D01*
X278247Y81417D01*
X278247Y83847D02*
X290713Y83847D01*
X290713Y86277D02*
X278247Y86277D01*
X278247Y76383D02*
X278247Y71417D01*
X278247Y76383D02*
X290713Y76383D01*
X290713Y71417D01*
X278247Y71417D01*
X278247Y73847D02*
X290713Y73847D01*
X290713Y76277D02*
X278247Y76277D01*
D10*
X440681Y117801D02*
X448679Y117801D01*
X440681Y117801D02*
X440681Y126799D01*
X448679Y126799D01*
X448679Y117801D01*
X448679Y120201D02*
X440681Y120201D01*
X440681Y122601D02*
X448679Y122601D01*
X448679Y125001D02*
X440681Y125001D01*
X440681Y101801D02*
X448679Y101801D01*
X440681Y101801D02*
X440681Y110799D01*
X448679Y110799D01*
X448679Y101801D01*
X448679Y104201D02*
X440681Y104201D01*
X440681Y106601D02*
X448679Y106601D01*
X448679Y109001D02*
X440681Y109001D01*
X407679Y101801D02*
X399681Y101801D01*
X399681Y110799D01*
X407679Y110799D01*
X407679Y101801D01*
X407679Y104201D02*
X399681Y104201D01*
X399681Y106601D02*
X407679Y106601D01*
X407679Y109001D02*
X399681Y109001D01*
X399681Y117801D02*
X407679Y117801D01*
X399681Y117801D02*
X399681Y126799D01*
X407679Y126799D01*
X407679Y117801D01*
X407679Y120201D02*
X399681Y120201D01*
X399681Y122601D02*
X407679Y122601D01*
X407679Y125001D02*
X399681Y125001D01*
X440681Y79701D02*
X448679Y79701D01*
X440681Y79701D02*
X440681Y88699D01*
X448679Y88699D01*
X448679Y79701D01*
X448679Y82101D02*
X440681Y82101D01*
X440681Y84501D02*
X448679Y84501D01*
X448679Y86901D02*
X440681Y86901D01*
X440681Y63701D02*
X448679Y63701D01*
X440681Y63701D02*
X440681Y72699D01*
X448679Y72699D01*
X448679Y63701D01*
X448679Y66101D02*
X440681Y66101D01*
X440681Y68501D02*
X448679Y68501D01*
X448679Y70901D02*
X440681Y70901D01*
X407679Y63701D02*
X399681Y63701D01*
X399681Y72699D01*
X407679Y72699D01*
X407679Y63701D01*
X407679Y66101D02*
X399681Y66101D01*
X399681Y68501D02*
X407679Y68501D01*
X407679Y70901D02*
X399681Y70901D01*
X399681Y79701D02*
X407679Y79701D01*
X399681Y79701D02*
X399681Y88699D01*
X407679Y88699D01*
X407679Y79701D01*
X407679Y82101D02*
X399681Y82101D01*
X399681Y84501D02*
X407679Y84501D01*
X407679Y86901D02*
X399681Y86901D01*
D20*
X340728Y260901D02*
X336232Y260901D01*
X336232Y271897D01*
X340728Y271897D01*
X340728Y260901D01*
X340728Y263304D02*
X336232Y263304D01*
X336232Y265707D02*
X340728Y265707D01*
X340728Y268110D02*
X336232Y268110D01*
X336232Y270513D02*
X340728Y270513D01*
X345732Y260901D02*
X350228Y260901D01*
X345732Y260901D02*
X345732Y271897D01*
X350228Y271897D01*
X350228Y260901D01*
X350228Y263304D02*
X345732Y263304D01*
X345732Y265707D02*
X350228Y265707D01*
X350228Y268110D02*
X345732Y268110D01*
X345732Y270513D02*
X350228Y270513D01*
X355232Y260901D02*
X359728Y260901D01*
X355232Y260901D02*
X355232Y271897D01*
X359728Y271897D01*
X359728Y260901D01*
X359728Y263304D02*
X355232Y263304D01*
X355232Y265707D02*
X359728Y265707D01*
X359728Y268110D02*
X355232Y268110D01*
X355232Y270513D02*
X359728Y270513D01*
X359728Y286903D02*
X355232Y286903D01*
X355232Y297899D01*
X359728Y297899D01*
X359728Y286903D01*
X359728Y289306D02*
X355232Y289306D01*
X355232Y291709D02*
X359728Y291709D01*
X359728Y294112D02*
X355232Y294112D01*
X355232Y296515D02*
X359728Y296515D01*
X340728Y286903D02*
X336232Y286903D01*
X336232Y297899D01*
X340728Y297899D01*
X340728Y286903D01*
X340728Y289306D02*
X336232Y289306D01*
X336232Y291709D02*
X340728Y291709D01*
X340728Y294112D02*
X336232Y294112D01*
X336232Y296515D02*
X340728Y296515D01*
D11*
X341957Y163823D02*
X335003Y163823D01*
X335003Y171777D01*
X341957Y171777D01*
X341957Y163823D01*
X341957Y166265D02*
X335003Y166265D01*
X335003Y168707D02*
X341957Y168707D01*
X341957Y171149D02*
X335003Y171149D01*
X354003Y163823D02*
X360957Y163823D01*
X354003Y163823D02*
X354003Y171777D01*
X360957Y171777D01*
X360957Y163823D01*
X360957Y166265D02*
X354003Y166265D01*
X354003Y168707D02*
X360957Y168707D01*
X360957Y171149D02*
X354003Y171149D01*
X351457Y184823D02*
X344503Y184823D01*
X344503Y192777D01*
X351457Y192777D01*
X351457Y184823D01*
X351457Y187265D02*
X344503Y187265D01*
X344503Y189707D02*
X351457Y189707D01*
X351457Y192149D02*
X344503Y192149D01*
D21*
X356820Y156060D02*
X362140Y156060D01*
X362140Y148740D01*
X356820Y148740D01*
X356820Y156060D01*
X356820Y151119D02*
X362140Y151119D01*
X362140Y153498D02*
X356820Y153498D01*
X356820Y155877D02*
X362140Y155877D01*
X339140Y156060D02*
X333820Y156060D01*
X339140Y156060D02*
X339140Y148740D01*
X333820Y148740D01*
X333820Y156060D01*
X333820Y151119D02*
X339140Y151119D01*
X339140Y153498D02*
X333820Y153498D01*
X333820Y155877D02*
X339140Y155877D01*
D20*
X393332Y183599D02*
X397828Y183599D01*
X397828Y172603D01*
X393332Y172603D01*
X393332Y183599D01*
X393332Y175006D02*
X397828Y175006D01*
X397828Y177409D02*
X393332Y177409D01*
X393332Y179812D02*
X397828Y179812D01*
X397828Y182215D02*
X393332Y182215D01*
X388328Y183599D02*
X383832Y183599D01*
X388328Y183599D02*
X388328Y172603D01*
X383832Y172603D01*
X383832Y183599D01*
X383832Y175006D02*
X388328Y175006D01*
X388328Y177409D02*
X383832Y177409D01*
X383832Y179812D02*
X388328Y179812D01*
X388328Y182215D02*
X383832Y182215D01*
X378828Y183599D02*
X374332Y183599D01*
X378828Y183599D02*
X378828Y172603D01*
X374332Y172603D01*
X374332Y183599D01*
X374332Y175006D02*
X378828Y175006D01*
X378828Y177409D02*
X374332Y177409D01*
X374332Y179812D02*
X378828Y179812D01*
X378828Y182215D02*
X374332Y182215D01*
X374332Y157597D02*
X378828Y157597D01*
X378828Y146601D01*
X374332Y146601D01*
X374332Y157597D01*
X374332Y149004D02*
X378828Y149004D01*
X378828Y151407D02*
X374332Y151407D01*
X374332Y153810D02*
X378828Y153810D01*
X378828Y156213D02*
X374332Y156213D01*
X393332Y157597D02*
X397828Y157597D01*
X397828Y146601D01*
X393332Y146601D01*
X393332Y157597D01*
X393332Y149004D02*
X397828Y149004D01*
X397828Y151407D02*
X393332Y151407D01*
X393332Y153810D02*
X397828Y153810D01*
X397828Y156213D02*
X393332Y156213D01*
D17*
X380525Y137845D02*
X370535Y137845D01*
X380525Y137845D02*
X380525Y128855D01*
X370535Y128855D01*
X370535Y137845D01*
X370535Y131263D02*
X380525Y131263D01*
X380525Y133671D02*
X370535Y133671D01*
X370535Y136079D02*
X380525Y136079D01*
X363525Y137845D02*
X353535Y137845D01*
X363525Y137845D02*
X363525Y128855D01*
X353535Y128855D01*
X353535Y137845D01*
X353535Y131263D02*
X363525Y131263D01*
X363525Y133671D02*
X353535Y133671D01*
X353535Y136079D02*
X363525Y136079D01*
X372585Y192355D02*
X382575Y192355D01*
X372585Y192355D02*
X372585Y201345D01*
X382575Y201345D01*
X382575Y192355D01*
X382575Y194763D02*
X372585Y194763D01*
X372585Y197171D02*
X382575Y197171D01*
X382575Y199579D02*
X372585Y199579D01*
X389585Y192355D02*
X399575Y192355D01*
X389585Y192355D02*
X389585Y201345D01*
X399575Y201345D01*
X399575Y192355D01*
X399575Y194763D02*
X389585Y194763D01*
X389585Y197171D02*
X399575Y197171D01*
X399575Y199579D02*
X389585Y199579D01*
D22*
X388915Y223345D02*
X395945Y223345D01*
X395945Y216315D01*
X388915Y216315D01*
X388915Y223345D01*
X388915Y220584D02*
X395945Y220584D01*
X395945Y240885D02*
X388915Y240885D01*
X395945Y240885D02*
X395945Y233855D01*
X388915Y233855D01*
X388915Y240885D01*
X388915Y238124D02*
X395945Y238124D01*
X321485Y307635D02*
X321485Y314665D01*
X328515Y314665D01*
X328515Y307635D01*
X321485Y307635D01*
X321485Y311904D02*
X328515Y311904D01*
X303945Y314665D02*
X303945Y307635D01*
X303945Y314665D02*
X310975Y314665D01*
X310975Y307635D01*
X303945Y307635D01*
X303945Y311904D02*
X310975Y311904D01*
D17*
X357835Y315645D02*
X367825Y315645D01*
X367825Y306655D01*
X357835Y306655D01*
X357835Y315645D01*
X357835Y309063D02*
X367825Y309063D01*
X367825Y311471D02*
X357835Y311471D01*
X357835Y313879D02*
X367825Y313879D01*
X350825Y315645D02*
X340835Y315645D01*
X350825Y315645D02*
X350825Y306655D01*
X340835Y306655D01*
X340835Y315645D01*
X340835Y309063D02*
X350825Y309063D01*
X350825Y311471D02*
X340835Y311471D01*
X340835Y313879D02*
X350825Y313879D01*
D23*
X287280Y259200D03*
X287280Y264200D03*
X287280Y269200D03*
X287280Y274200D03*
X307280Y274200D03*
X307280Y269200D03*
X307280Y264200D03*
X307280Y259200D03*
D24*
X297180Y266700D03*
D25*
X392246Y307316D02*
X398214Y307316D01*
X392246Y307316D02*
X392246Y313284D01*
X398214Y313284D01*
X398214Y307316D01*
X398214Y309745D02*
X392246Y309745D01*
X392246Y312174D02*
X398214Y312174D01*
X398214Y296316D02*
X392246Y296316D01*
X392246Y302284D01*
X398214Y302284D01*
X398214Y296316D01*
X398214Y298745D02*
X392246Y298745D01*
X392246Y301174D02*
X398214Y301174D01*
X379914Y296316D02*
X373946Y296316D01*
X373946Y302284D01*
X379914Y302284D01*
X379914Y296316D01*
X379914Y298745D02*
X373946Y298745D01*
X373946Y301174D02*
X379914Y301174D01*
X379914Y307316D02*
X373946Y307316D01*
X373946Y313284D01*
X379914Y313284D01*
X379914Y307316D01*
X379914Y309745D02*
X373946Y309745D01*
X373946Y312174D02*
X379914Y312174D01*
D17*
X382575Y274905D02*
X372585Y274905D01*
X372585Y283895D01*
X382575Y283895D01*
X382575Y274905D01*
X382575Y277313D02*
X372585Y277313D01*
X372585Y279721D02*
X382575Y279721D01*
X382575Y282129D02*
X372585Y282129D01*
X389585Y274905D02*
X399575Y274905D01*
X389585Y274905D02*
X389585Y283895D01*
X399575Y283895D01*
X399575Y274905D01*
X399575Y277313D02*
X389585Y277313D01*
X389585Y279721D02*
X399575Y279721D01*
X399575Y282129D02*
X389585Y282129D01*
D12*
X360680Y215900D03*
X335280Y215900D03*
D13*
X259080Y558800D03*
X436880Y558800D03*
D26*
X455930Y539750D03*
X240030Y44450D03*
D11*
X315953Y113023D02*
X322907Y113023D01*
X315953Y113023D02*
X315953Y120977D01*
X322907Y120977D01*
X322907Y113023D01*
X322907Y115465D02*
X315953Y115465D01*
X315953Y117907D02*
X322907Y117907D01*
X322907Y120349D02*
X315953Y120349D01*
X334953Y113023D02*
X341907Y113023D01*
X334953Y113023D02*
X334953Y120977D01*
X341907Y120977D01*
X341907Y113023D01*
X341907Y115465D02*
X334953Y115465D01*
X334953Y117907D02*
X341907Y117907D01*
X341907Y120349D02*
X334953Y120349D01*
X332407Y134023D02*
X325453Y134023D01*
X325453Y141977D01*
X332407Y141977D01*
X332407Y134023D01*
X332407Y136465D02*
X325453Y136465D01*
X325453Y138907D02*
X332407Y138907D01*
X332407Y141349D02*
X325453Y141349D01*
D17*
X353535Y113615D02*
X363525Y113615D01*
X353535Y113615D02*
X353535Y122605D01*
X363525Y122605D01*
X363525Y113615D01*
X363525Y116023D02*
X353535Y116023D01*
X353535Y118431D02*
X363525Y118431D01*
X363525Y120839D02*
X353535Y120839D01*
X370535Y113615D02*
X380525Y113615D01*
X370535Y113615D02*
X370535Y122605D01*
X380525Y122605D01*
X380525Y113615D01*
X380525Y116023D02*
X370535Y116023D01*
X370535Y118431D02*
X380525Y118431D01*
X380525Y120839D02*
X370535Y120839D01*
D10*
X492161Y505801D02*
X506159Y505801D01*
X492161Y505801D02*
X492161Y513799D01*
X506159Y513799D01*
X506159Y505801D01*
X506159Y508201D02*
X492161Y508201D01*
X492161Y510601D02*
X506159Y510601D01*
X506159Y513001D02*
X492161Y513001D01*
X492161Y493101D02*
X506159Y493101D01*
X492161Y493101D02*
X492161Y501099D01*
X506159Y501099D01*
X506159Y493101D01*
X506159Y495501D02*
X492161Y495501D01*
X492161Y497901D02*
X506159Y497901D01*
X506159Y500301D02*
X492161Y500301D01*
X492161Y480401D02*
X506159Y480401D01*
X492161Y480401D02*
X492161Y488399D01*
X506159Y488399D01*
X506159Y480401D01*
X506159Y482801D02*
X492161Y482801D01*
X492161Y485201D02*
X506159Y485201D01*
X506159Y487601D02*
X492161Y487601D01*
X492161Y467701D02*
X506159Y467701D01*
X492161Y467701D02*
X492161Y475699D01*
X506159Y475699D01*
X506159Y467701D01*
X506159Y470101D02*
X492161Y470101D01*
X492161Y472501D02*
X506159Y472501D01*
X506159Y474901D02*
X492161Y474901D01*
X492161Y455001D02*
X506159Y455001D01*
X492161Y455001D02*
X492161Y462999D01*
X506159Y462999D01*
X506159Y455001D01*
X506159Y457401D02*
X492161Y457401D01*
X492161Y459801D02*
X506159Y459801D01*
X506159Y462201D02*
X492161Y462201D01*
X492161Y442301D02*
X506159Y442301D01*
X492161Y442301D02*
X492161Y450299D01*
X506159Y450299D01*
X506159Y442301D01*
X506159Y444701D02*
X492161Y444701D01*
X492161Y447101D02*
X506159Y447101D01*
X506159Y449501D02*
X492161Y449501D01*
X492161Y429601D02*
X506159Y429601D01*
X492161Y429601D02*
X492161Y437599D01*
X506159Y437599D01*
X506159Y429601D01*
X506159Y432001D02*
X492161Y432001D01*
X492161Y434401D02*
X506159Y434401D01*
X506159Y436801D02*
X492161Y436801D01*
X492161Y416901D02*
X506159Y416901D01*
X492161Y416901D02*
X492161Y424899D01*
X506159Y424899D01*
X506159Y416901D01*
X506159Y419301D02*
X492161Y419301D01*
X492161Y421701D02*
X506159Y421701D01*
X506159Y424101D02*
X492161Y424101D01*
X492161Y404201D02*
X506159Y404201D01*
X492161Y404201D02*
X492161Y412199D01*
X506159Y412199D01*
X506159Y404201D01*
X506159Y406601D02*
X492161Y406601D01*
X492161Y409001D02*
X506159Y409001D01*
X506159Y411401D02*
X492161Y411401D01*
X492161Y391501D02*
X506159Y391501D01*
X492161Y391501D02*
X492161Y399499D01*
X506159Y399499D01*
X506159Y391501D01*
X506159Y393901D02*
X492161Y393901D01*
X492161Y396301D02*
X506159Y396301D01*
X506159Y398701D02*
X492161Y398701D01*
X492161Y378801D02*
X506159Y378801D01*
X492161Y378801D02*
X492161Y386799D01*
X506159Y386799D01*
X506159Y378801D01*
X506159Y381201D02*
X492161Y381201D01*
X492161Y383601D02*
X506159Y383601D01*
X506159Y386001D02*
X492161Y386001D01*
X492161Y366101D02*
X506159Y366101D01*
X492161Y366101D02*
X492161Y374099D01*
X506159Y374099D01*
X506159Y366101D01*
X506159Y368501D02*
X492161Y368501D01*
X492161Y370901D02*
X506159Y370901D01*
X506159Y373301D02*
X492161Y373301D01*
X492161Y353401D02*
X506159Y353401D01*
X492161Y353401D02*
X492161Y361399D01*
X506159Y361399D01*
X506159Y353401D01*
X506159Y355801D02*
X492161Y355801D01*
X492161Y358201D02*
X506159Y358201D01*
X506159Y360601D02*
X492161Y360601D01*
X492161Y340701D02*
X506159Y340701D01*
X492161Y340701D02*
X492161Y348699D01*
X506159Y348699D01*
X506159Y340701D01*
X506159Y343101D02*
X492161Y343101D01*
X492161Y345501D02*
X506159Y345501D01*
X506159Y347901D02*
X492161Y347901D01*
X657161Y340701D02*
X671159Y340701D01*
X657161Y340701D02*
X657161Y348699D01*
X671159Y348699D01*
X671159Y340701D01*
X671159Y343101D02*
X657161Y343101D01*
X657161Y345501D02*
X671159Y345501D01*
X671159Y347901D02*
X657161Y347901D01*
X657161Y353401D02*
X671159Y353401D01*
X657161Y353401D02*
X657161Y361399D01*
X671159Y361399D01*
X671159Y353401D01*
X671159Y355801D02*
X657161Y355801D01*
X657161Y358201D02*
X671159Y358201D01*
X671159Y360601D02*
X657161Y360601D01*
X657161Y366101D02*
X671159Y366101D01*
X657161Y366101D02*
X657161Y374099D01*
X671159Y374099D01*
X671159Y366101D01*
X671159Y368501D02*
X657161Y368501D01*
X657161Y370901D02*
X671159Y370901D01*
X671159Y373301D02*
X657161Y373301D01*
X657161Y378801D02*
X671159Y378801D01*
X657161Y378801D02*
X657161Y386799D01*
X671159Y386799D01*
X671159Y378801D01*
X671159Y381201D02*
X657161Y381201D01*
X657161Y383601D02*
X671159Y383601D01*
X671159Y386001D02*
X657161Y386001D01*
X657161Y391501D02*
X671159Y391501D01*
X657161Y391501D02*
X657161Y399499D01*
X671159Y399499D01*
X671159Y391501D01*
X671159Y393901D02*
X657161Y393901D01*
X657161Y396301D02*
X671159Y396301D01*
X671159Y398701D02*
X657161Y398701D01*
X657161Y404201D02*
X671159Y404201D01*
X657161Y404201D02*
X657161Y412199D01*
X671159Y412199D01*
X671159Y404201D01*
X671159Y406601D02*
X657161Y406601D01*
X657161Y409001D02*
X671159Y409001D01*
X671159Y411401D02*
X657161Y411401D01*
X657161Y416901D02*
X671159Y416901D01*
X657161Y416901D02*
X657161Y424899D01*
X671159Y424899D01*
X671159Y416901D01*
X671159Y419301D02*
X657161Y419301D01*
X657161Y421701D02*
X671159Y421701D01*
X671159Y424101D02*
X657161Y424101D01*
X657161Y429601D02*
X671159Y429601D01*
X657161Y429601D02*
X657161Y437599D01*
X671159Y437599D01*
X671159Y429601D01*
X671159Y432001D02*
X657161Y432001D01*
X657161Y434401D02*
X671159Y434401D01*
X671159Y436801D02*
X657161Y436801D01*
X657161Y442301D02*
X671159Y442301D01*
X657161Y442301D02*
X657161Y450299D01*
X671159Y450299D01*
X671159Y442301D01*
X671159Y444701D02*
X657161Y444701D01*
X657161Y447101D02*
X671159Y447101D01*
X671159Y449501D02*
X657161Y449501D01*
X657161Y455001D02*
X671159Y455001D01*
X657161Y455001D02*
X657161Y462999D01*
X671159Y462999D01*
X671159Y455001D01*
X671159Y457401D02*
X657161Y457401D01*
X657161Y459801D02*
X671159Y459801D01*
X671159Y462201D02*
X657161Y462201D01*
X657161Y467701D02*
X671159Y467701D01*
X657161Y467701D02*
X657161Y475699D01*
X671159Y475699D01*
X671159Y467701D01*
X671159Y470101D02*
X657161Y470101D01*
X657161Y472501D02*
X671159Y472501D01*
X671159Y474901D02*
X657161Y474901D01*
X657161Y480401D02*
X671159Y480401D01*
X657161Y480401D02*
X657161Y488399D01*
X671159Y488399D01*
X671159Y480401D01*
X671159Y482801D02*
X657161Y482801D01*
X657161Y485201D02*
X671159Y485201D01*
X671159Y487601D02*
X657161Y487601D01*
X657161Y493101D02*
X671159Y493101D01*
X657161Y493101D02*
X657161Y501099D01*
X671159Y501099D01*
X671159Y493101D01*
X671159Y495501D02*
X657161Y495501D01*
X657161Y497901D02*
X671159Y497901D01*
X671159Y500301D02*
X657161Y500301D01*
X657161Y505801D02*
X671159Y505801D01*
X657161Y505801D02*
X657161Y513799D01*
X671159Y513799D01*
X671159Y505801D01*
X671159Y508201D02*
X657161Y508201D01*
X657161Y510601D02*
X671159Y510601D01*
X671159Y513001D02*
X657161Y513001D01*
D11*
X557587Y461623D02*
X550633Y461623D01*
X550633Y468577D01*
X557587Y468577D01*
X557587Y461623D01*
X557587Y464065D02*
X550633Y464065D01*
X550633Y466507D02*
X557587Y466507D01*
X557587Y449123D02*
X550633Y449123D01*
X550633Y456077D01*
X557587Y456077D01*
X557587Y449123D01*
X557587Y451565D02*
X550633Y451565D01*
X550633Y454007D02*
X557587Y454007D01*
X557587Y436623D02*
X550633Y436623D01*
X550633Y443577D01*
X557587Y443577D01*
X557587Y436623D01*
X557587Y439065D02*
X550633Y439065D01*
X550633Y441507D02*
X557587Y441507D01*
X563133Y436623D02*
X570087Y436623D01*
X563133Y436623D02*
X563133Y443577D01*
X570087Y443577D01*
X570087Y436623D01*
X570087Y439065D02*
X563133Y439065D01*
X563133Y441507D02*
X570087Y441507D01*
X575633Y436623D02*
X582587Y436623D01*
X575633Y436623D02*
X575633Y443577D01*
X582587Y443577D01*
X582587Y436623D01*
X582587Y439065D02*
X575633Y439065D01*
X575633Y441507D02*
X582587Y441507D01*
X582587Y449123D02*
X575633Y449123D01*
X575633Y456077D01*
X582587Y456077D01*
X582587Y449123D01*
X582587Y451565D02*
X575633Y451565D01*
X575633Y454007D02*
X582587Y454007D01*
X582587Y461623D02*
X575633Y461623D01*
X575633Y468577D01*
X582587Y468577D01*
X582587Y461623D01*
X582587Y464065D02*
X575633Y464065D01*
X575633Y466507D02*
X582587Y466507D01*
X570087Y461623D02*
X563133Y461623D01*
X563133Y468577D01*
X570087Y468577D01*
X570087Y461623D01*
X570087Y464065D02*
X563133Y464065D01*
X563133Y466507D02*
X570087Y466507D01*
X570087Y449123D02*
X563133Y449123D01*
X563133Y456077D01*
X570087Y456077D01*
X570087Y449123D01*
X570087Y451565D02*
X563133Y451565D01*
X563133Y454007D02*
X570087Y454007D01*
D12*
X683260Y520700D03*
X683260Y495300D03*
X683260Y469900D03*
X683260Y444500D03*
X683260Y419100D03*
X683260Y393700D03*
X683260Y368300D03*
X683260Y342900D03*
X683260Y317500D03*
X683260Y292100D03*
X683260Y266700D03*
X683260Y241300D03*
X683260Y215900D03*
X683260Y190500D03*
X683260Y165100D03*
X683260Y139700D03*
X480060Y241300D03*
X480060Y266700D03*
X480060Y292100D03*
X480060Y317500D03*
X480060Y342900D03*
X480060Y368300D03*
X480060Y393700D03*
X480060Y419100D03*
X480060Y444500D03*
X480060Y469900D03*
X480060Y495300D03*
X480060Y520700D03*
D13*
X492760Y25400D03*
X670560Y25400D03*
D14*
X590156Y55604D02*
X588164Y55604D01*
X588164Y64596D01*
X590156Y64596D01*
X590156Y55604D01*
X590156Y58010D02*
X588164Y58010D01*
X588164Y60416D02*
X590156Y60416D01*
X590156Y62822D02*
X588164Y62822D01*
X585156Y55604D02*
X583164Y55604D01*
X583164Y64596D01*
X585156Y64596D01*
X585156Y55604D01*
X585156Y58010D02*
X583164Y58010D01*
X583164Y60416D02*
X585156Y60416D01*
X585156Y62822D02*
X583164Y62822D01*
D15*
X611427Y55617D02*
X616393Y55617D01*
X611427Y55617D02*
X611427Y64583D01*
X616393Y64583D01*
X616393Y55617D01*
X616393Y58047D02*
X611427Y58047D01*
X611427Y60477D02*
X616393Y60477D01*
X616393Y62907D02*
X611427Y62907D01*
X608643Y55617D02*
X603677Y55617D01*
X603677Y64583D01*
X608643Y64583D01*
X608643Y55617D01*
X608643Y58047D02*
X603677Y58047D01*
X603677Y60477D02*
X608643Y60477D01*
X608643Y62907D02*
X603677Y62907D01*
D14*
X600156Y55604D02*
X598164Y55604D01*
X598164Y64596D01*
X600156Y64596D01*
X600156Y55604D01*
X600156Y58010D02*
X598164Y58010D01*
X598164Y60416D02*
X600156Y60416D01*
X600156Y62822D02*
X598164Y62822D01*
X595156Y55604D02*
X593164Y55604D01*
X593164Y64596D01*
X595156Y64596D01*
X595156Y55604D01*
X595156Y58010D02*
X593164Y58010D01*
X593164Y60416D02*
X595156Y60416D01*
X595156Y62822D02*
X593164Y62822D01*
X575156Y64596D02*
X573164Y64596D01*
X575156Y64596D02*
X575156Y55604D01*
X573164Y55604D01*
X573164Y64596D01*
X573164Y58010D02*
X575156Y58010D01*
X575156Y60416D02*
X573164Y60416D01*
X573164Y62822D02*
X575156Y62822D01*
X578164Y64596D02*
X580156Y64596D01*
X580156Y55604D01*
X578164Y55604D01*
X578164Y64596D01*
X578164Y58010D02*
X580156Y58010D01*
X580156Y60416D02*
X578164Y60416D01*
X578164Y62822D02*
X580156Y62822D01*
D15*
X551893Y64583D02*
X546927Y64583D01*
X551893Y64583D02*
X551893Y55617D01*
X546927Y55617D01*
X546927Y64583D01*
X546927Y58047D02*
X551893Y58047D01*
X551893Y60477D02*
X546927Y60477D01*
X546927Y62907D02*
X551893Y62907D01*
X554677Y64583D02*
X559643Y64583D01*
X559643Y55617D01*
X554677Y55617D01*
X554677Y64583D01*
X554677Y58047D02*
X559643Y58047D01*
X559643Y60477D02*
X554677Y60477D01*
X554677Y62907D02*
X559643Y62907D01*
D14*
X563164Y64596D02*
X565156Y64596D01*
X565156Y55604D01*
X563164Y55604D01*
X563164Y64596D01*
X563164Y58010D02*
X565156Y58010D01*
X565156Y60416D02*
X563164Y60416D01*
X563164Y62822D02*
X565156Y62822D01*
X568164Y64596D02*
X570156Y64596D01*
X570156Y55604D01*
X568164Y55604D01*
X568164Y64596D01*
X568164Y58010D02*
X570156Y58010D01*
X570156Y60416D02*
X568164Y60416D01*
X568164Y62822D02*
X570156Y62822D01*
D16*
X552760Y49050D03*
X610560Y49050D03*
D17*
X610565Y80695D02*
X620555Y80695D01*
X620555Y71705D01*
X610565Y71705D01*
X610565Y80695D01*
X610565Y74113D02*
X620555Y74113D01*
X620555Y76521D02*
X610565Y76521D01*
X610565Y78929D02*
X620555Y78929D01*
X603555Y80695D02*
X593565Y80695D01*
X603555Y80695D02*
X603555Y71705D01*
X593565Y71705D01*
X593565Y80695D01*
X593565Y74113D02*
X603555Y74113D01*
X603555Y76521D02*
X593565Y76521D01*
X593565Y78929D02*
X603555Y78929D01*
X552755Y71705D02*
X542765Y71705D01*
X542765Y80695D01*
X552755Y80695D01*
X552755Y71705D01*
X552755Y74113D02*
X542765Y74113D01*
X542765Y76521D02*
X552755Y76521D01*
X552755Y78929D02*
X542765Y78929D01*
X559765Y71705D02*
X569755Y71705D01*
X559765Y71705D02*
X559765Y80695D01*
X569755Y80695D01*
X569755Y71705D01*
X569755Y74113D02*
X559765Y74113D01*
X559765Y76521D02*
X569755Y76521D01*
X569755Y78929D02*
X559765Y78929D01*
X562415Y163305D02*
X562415Y172295D01*
X562415Y163305D02*
X517425Y163305D01*
X517425Y172295D01*
X562415Y172295D01*
X562415Y165713D02*
X517425Y165713D01*
X517425Y168121D02*
X562415Y168121D01*
X562415Y170529D02*
X517425Y170529D01*
X562415Y183305D02*
X562415Y192295D01*
X562415Y183305D02*
X517425Y183305D01*
X517425Y192295D01*
X562415Y192295D01*
X562415Y185713D02*
X517425Y185713D01*
X517425Y188121D02*
X562415Y188121D01*
X562415Y190529D02*
X517425Y190529D01*
D18*
X504456Y151336D02*
X471384Y151336D01*
X504456Y151336D02*
X504456Y136264D01*
X471384Y136264D01*
X471384Y151336D01*
X471384Y138594D02*
X504456Y138594D01*
X504456Y140924D02*
X471384Y140924D01*
X471384Y143254D02*
X504456Y143254D01*
X504456Y145584D02*
X471384Y145584D01*
X471384Y147914D02*
X504456Y147914D01*
X504456Y150244D02*
X471384Y150244D01*
X471384Y219336D02*
X504456Y219336D01*
X504456Y204264D01*
X471384Y204264D01*
X471384Y219336D01*
X471384Y206594D02*
X504456Y206594D01*
X504456Y208924D02*
X471384Y208924D01*
X471384Y211254D02*
X504456Y211254D01*
X504456Y213584D02*
X471384Y213584D01*
X471384Y215914D02*
X504456Y215914D01*
X504456Y218244D02*
X471384Y218244D01*
D19*
X471865Y122445D02*
X471865Y111355D01*
X471865Y122445D02*
X490955Y122445D01*
X490955Y111355D01*
X471865Y111355D01*
X471865Y113667D02*
X490955Y113667D01*
X490955Y115979D02*
X471865Y115979D01*
X471865Y118291D02*
X490955Y118291D01*
X490955Y120603D02*
X471865Y120603D01*
X471865Y66445D02*
X471865Y55355D01*
X471865Y66445D02*
X490955Y66445D01*
X490955Y55355D01*
X471865Y55355D01*
X471865Y57667D02*
X490955Y57667D01*
X490955Y59979D02*
X471865Y59979D01*
X471865Y62291D02*
X490955Y62291D01*
X490955Y64603D02*
X471865Y64603D01*
D15*
X511927Y101417D02*
X511927Y106383D01*
X524393Y106383D01*
X524393Y101417D01*
X511927Y101417D01*
X511927Y103847D02*
X524393Y103847D01*
X524393Y106277D02*
X511927Y106277D01*
X511927Y96383D02*
X511927Y91417D01*
X511927Y96383D02*
X524393Y96383D01*
X524393Y91417D01*
X511927Y91417D01*
X511927Y93847D02*
X524393Y93847D01*
X524393Y96277D02*
X511927Y96277D01*
X511927Y86383D02*
X511927Y81417D01*
X511927Y86383D02*
X524393Y86383D01*
X524393Y81417D01*
X511927Y81417D01*
X511927Y83847D02*
X524393Y83847D01*
X524393Y86277D02*
X511927Y86277D01*
X511927Y76383D02*
X511927Y71417D01*
X511927Y76383D02*
X524393Y76383D01*
X524393Y71417D01*
X511927Y71417D01*
X511927Y73847D02*
X524393Y73847D01*
X524393Y76277D02*
X511927Y76277D01*
D10*
X674361Y117801D02*
X682359Y117801D01*
X674361Y117801D02*
X674361Y126799D01*
X682359Y126799D01*
X682359Y117801D01*
X682359Y120201D02*
X674361Y120201D01*
X674361Y122601D02*
X682359Y122601D01*
X682359Y125001D02*
X674361Y125001D01*
X674361Y101801D02*
X682359Y101801D01*
X674361Y101801D02*
X674361Y110799D01*
X682359Y110799D01*
X682359Y101801D01*
X682359Y104201D02*
X674361Y104201D01*
X674361Y106601D02*
X682359Y106601D01*
X682359Y109001D02*
X674361Y109001D01*
X641359Y101801D02*
X633361Y101801D01*
X633361Y110799D01*
X641359Y110799D01*
X641359Y101801D01*
X641359Y104201D02*
X633361Y104201D01*
X633361Y106601D02*
X641359Y106601D01*
X641359Y109001D02*
X633361Y109001D01*
X633361Y117801D02*
X641359Y117801D01*
X633361Y117801D02*
X633361Y126799D01*
X641359Y126799D01*
X641359Y117801D01*
X641359Y120201D02*
X633361Y120201D01*
X633361Y122601D02*
X641359Y122601D01*
X641359Y125001D02*
X633361Y125001D01*
X674361Y79701D02*
X682359Y79701D01*
X674361Y79701D02*
X674361Y88699D01*
X682359Y88699D01*
X682359Y79701D01*
X682359Y82101D02*
X674361Y82101D01*
X674361Y84501D02*
X682359Y84501D01*
X682359Y86901D02*
X674361Y86901D01*
X674361Y63701D02*
X682359Y63701D01*
X674361Y63701D02*
X674361Y72699D01*
X682359Y72699D01*
X682359Y63701D01*
X682359Y66101D02*
X674361Y66101D01*
X674361Y68501D02*
X682359Y68501D01*
X682359Y70901D02*
X674361Y70901D01*
X641359Y63701D02*
X633361Y63701D01*
X633361Y72699D01*
X641359Y72699D01*
X641359Y63701D01*
X641359Y66101D02*
X633361Y66101D01*
X633361Y68501D02*
X641359Y68501D01*
X641359Y70901D02*
X633361Y70901D01*
X633361Y79701D02*
X641359Y79701D01*
X633361Y79701D02*
X633361Y88699D01*
X641359Y88699D01*
X641359Y79701D01*
X641359Y82101D02*
X633361Y82101D01*
X633361Y84501D02*
X641359Y84501D01*
X641359Y86901D02*
X633361Y86901D01*
D20*
X574408Y260901D02*
X569912Y260901D01*
X569912Y271897D01*
X574408Y271897D01*
X574408Y260901D01*
X574408Y263304D02*
X569912Y263304D01*
X569912Y265707D02*
X574408Y265707D01*
X574408Y268110D02*
X569912Y268110D01*
X569912Y270513D02*
X574408Y270513D01*
X579412Y260901D02*
X583908Y260901D01*
X579412Y260901D02*
X579412Y271897D01*
X583908Y271897D01*
X583908Y260901D01*
X583908Y263304D02*
X579412Y263304D01*
X579412Y265707D02*
X583908Y265707D01*
X583908Y268110D02*
X579412Y268110D01*
X579412Y270513D02*
X583908Y270513D01*
X588912Y260901D02*
X593408Y260901D01*
X588912Y260901D02*
X588912Y271897D01*
X593408Y271897D01*
X593408Y260901D01*
X593408Y263304D02*
X588912Y263304D01*
X588912Y265707D02*
X593408Y265707D01*
X593408Y268110D02*
X588912Y268110D01*
X588912Y270513D02*
X593408Y270513D01*
X593408Y286903D02*
X588912Y286903D01*
X588912Y297899D01*
X593408Y297899D01*
X593408Y286903D01*
X593408Y289306D02*
X588912Y289306D01*
X588912Y291709D02*
X593408Y291709D01*
X593408Y294112D02*
X588912Y294112D01*
X588912Y296515D02*
X593408Y296515D01*
X574408Y286903D02*
X569912Y286903D01*
X569912Y297899D01*
X574408Y297899D01*
X574408Y286903D01*
X574408Y289306D02*
X569912Y289306D01*
X569912Y291709D02*
X574408Y291709D01*
X574408Y294112D02*
X569912Y294112D01*
X569912Y296515D02*
X574408Y296515D01*
D11*
X575637Y163823D02*
X568683Y163823D01*
X568683Y171777D01*
X575637Y171777D01*
X575637Y163823D01*
X575637Y166265D02*
X568683Y166265D01*
X568683Y168707D02*
X575637Y168707D01*
X575637Y171149D02*
X568683Y171149D01*
X587683Y163823D02*
X594637Y163823D01*
X587683Y163823D02*
X587683Y171777D01*
X594637Y171777D01*
X594637Y163823D01*
X594637Y166265D02*
X587683Y166265D01*
X587683Y168707D02*
X594637Y168707D01*
X594637Y171149D02*
X587683Y171149D01*
X585137Y184823D02*
X578183Y184823D01*
X578183Y192777D01*
X585137Y192777D01*
X585137Y184823D01*
X585137Y187265D02*
X578183Y187265D01*
X578183Y189707D02*
X585137Y189707D01*
X585137Y192149D02*
X578183Y192149D01*
D21*
X590500Y156060D02*
X595820Y156060D01*
X595820Y148740D01*
X590500Y148740D01*
X590500Y156060D01*
X590500Y151119D02*
X595820Y151119D01*
X595820Y153498D02*
X590500Y153498D01*
X590500Y155877D02*
X595820Y155877D01*
X572820Y156060D02*
X567500Y156060D01*
X572820Y156060D02*
X572820Y148740D01*
X567500Y148740D01*
X567500Y156060D01*
X567500Y151119D02*
X572820Y151119D01*
X572820Y153498D02*
X567500Y153498D01*
X567500Y155877D02*
X572820Y155877D01*
D20*
X627012Y183599D02*
X631508Y183599D01*
X631508Y172603D01*
X627012Y172603D01*
X627012Y183599D01*
X627012Y175006D02*
X631508Y175006D01*
X631508Y177409D02*
X627012Y177409D01*
X627012Y179812D02*
X631508Y179812D01*
X631508Y182215D02*
X627012Y182215D01*
X622008Y183599D02*
X617512Y183599D01*
X622008Y183599D02*
X622008Y172603D01*
X617512Y172603D01*
X617512Y183599D01*
X617512Y175006D02*
X622008Y175006D01*
X622008Y177409D02*
X617512Y177409D01*
X617512Y179812D02*
X622008Y179812D01*
X622008Y182215D02*
X617512Y182215D01*
X612508Y183599D02*
X608012Y183599D01*
X612508Y183599D02*
X612508Y172603D01*
X608012Y172603D01*
X608012Y183599D01*
X608012Y175006D02*
X612508Y175006D01*
X612508Y177409D02*
X608012Y177409D01*
X608012Y179812D02*
X612508Y179812D01*
X612508Y182215D02*
X608012Y182215D01*
X608012Y157597D02*
X612508Y157597D01*
X612508Y146601D01*
X608012Y146601D01*
X608012Y157597D01*
X608012Y149004D02*
X612508Y149004D01*
X612508Y151407D02*
X608012Y151407D01*
X608012Y153810D02*
X612508Y153810D01*
X612508Y156213D02*
X608012Y156213D01*
X627012Y157597D02*
X631508Y157597D01*
X631508Y146601D01*
X627012Y146601D01*
X627012Y157597D01*
X627012Y149004D02*
X631508Y149004D01*
X631508Y151407D02*
X627012Y151407D01*
X627012Y153810D02*
X631508Y153810D01*
X631508Y156213D02*
X627012Y156213D01*
D17*
X614205Y137845D02*
X604215Y137845D01*
X614205Y137845D02*
X614205Y128855D01*
X604215Y128855D01*
X604215Y137845D01*
X604215Y131263D02*
X614205Y131263D01*
X614205Y133671D02*
X604215Y133671D01*
X604215Y136079D02*
X614205Y136079D01*
X597205Y137845D02*
X587215Y137845D01*
X597205Y137845D02*
X597205Y128855D01*
X587215Y128855D01*
X587215Y137845D01*
X587215Y131263D02*
X597205Y131263D01*
X597205Y133671D02*
X587215Y133671D01*
X587215Y136079D02*
X597205Y136079D01*
X606265Y192355D02*
X616255Y192355D01*
X606265Y192355D02*
X606265Y201345D01*
X616255Y201345D01*
X616255Y192355D01*
X616255Y194763D02*
X606265Y194763D01*
X606265Y197171D02*
X616255Y197171D01*
X616255Y199579D02*
X606265Y199579D01*
X623265Y192355D02*
X633255Y192355D01*
X623265Y192355D02*
X623265Y201345D01*
X633255Y201345D01*
X633255Y192355D01*
X633255Y194763D02*
X623265Y194763D01*
X623265Y197171D02*
X633255Y197171D01*
X633255Y199579D02*
X623265Y199579D01*
D22*
X622595Y223345D02*
X629625Y223345D01*
X629625Y216315D01*
X622595Y216315D01*
X622595Y223345D01*
X622595Y220584D02*
X629625Y220584D01*
X629625Y240885D02*
X622595Y240885D01*
X629625Y240885D02*
X629625Y233855D01*
X622595Y233855D01*
X622595Y240885D01*
X622595Y238124D02*
X629625Y238124D01*
X555165Y307635D02*
X555165Y314665D01*
X562195Y314665D01*
X562195Y307635D01*
X555165Y307635D01*
X555165Y311904D02*
X562195Y311904D01*
X537625Y314665D02*
X537625Y307635D01*
X537625Y314665D02*
X544655Y314665D01*
X544655Y307635D01*
X537625Y307635D01*
X537625Y311904D02*
X544655Y311904D01*
D17*
X591515Y315645D02*
X601505Y315645D01*
X601505Y306655D01*
X591515Y306655D01*
X591515Y315645D01*
X591515Y309063D02*
X601505Y309063D01*
X601505Y311471D02*
X591515Y311471D01*
X591515Y313879D02*
X601505Y313879D01*
X584505Y315645D02*
X574515Y315645D01*
X584505Y315645D02*
X584505Y306655D01*
X574515Y306655D01*
X574515Y315645D01*
X574515Y309063D02*
X584505Y309063D01*
X584505Y311471D02*
X574515Y311471D01*
X574515Y313879D02*
X584505Y313879D01*
D23*
X520960Y259200D03*
X520960Y264200D03*
X520960Y269200D03*
X520960Y274200D03*
X540960Y274200D03*
X540960Y269200D03*
X540960Y264200D03*
X540960Y259200D03*
D24*
X530860Y266700D03*
D25*
X625926Y307316D02*
X631894Y307316D01*
X625926Y307316D02*
X625926Y313284D01*
X631894Y313284D01*
X631894Y307316D01*
X631894Y309745D02*
X625926Y309745D01*
X625926Y312174D02*
X631894Y312174D01*
X631894Y296316D02*
X625926Y296316D01*
X625926Y302284D01*
X631894Y302284D01*
X631894Y296316D01*
X631894Y298745D02*
X625926Y298745D01*
X625926Y301174D02*
X631894Y301174D01*
X613594Y296316D02*
X607626Y296316D01*
X607626Y302284D01*
X613594Y302284D01*
X613594Y296316D01*
X613594Y298745D02*
X607626Y298745D01*
X607626Y301174D02*
X613594Y301174D01*
X613594Y307316D02*
X607626Y307316D01*
X607626Y313284D01*
X613594Y313284D01*
X613594Y307316D01*
X613594Y309745D02*
X607626Y309745D01*
X607626Y312174D02*
X613594Y312174D01*
D17*
X616255Y274905D02*
X606265Y274905D01*
X606265Y283895D01*
X616255Y283895D01*
X616255Y274905D01*
X616255Y277313D02*
X606265Y277313D01*
X606265Y279721D02*
X616255Y279721D01*
X616255Y282129D02*
X606265Y282129D01*
X623265Y274905D02*
X633255Y274905D01*
X623265Y274905D02*
X623265Y283895D01*
X633255Y283895D01*
X633255Y274905D01*
X633255Y277313D02*
X623265Y277313D01*
X623265Y279721D02*
X633255Y279721D01*
X633255Y282129D02*
X623265Y282129D01*
D12*
X594360Y215900D03*
X568960Y215900D03*
D13*
X492760Y558800D03*
X670560Y558800D03*
D26*
X689610Y539750D03*
X473710Y44450D03*
D11*
X549633Y113023D02*
X556587Y113023D01*
X549633Y113023D02*
X549633Y120977D01*
X556587Y120977D01*
X556587Y113023D01*
X556587Y115465D02*
X549633Y115465D01*
X549633Y117907D02*
X556587Y117907D01*
X556587Y120349D02*
X549633Y120349D01*
X568633Y113023D02*
X575587Y113023D01*
X568633Y113023D02*
X568633Y120977D01*
X575587Y120977D01*
X575587Y113023D01*
X575587Y115465D02*
X568633Y115465D01*
X568633Y117907D02*
X575587Y117907D01*
X575587Y120349D02*
X568633Y120349D01*
X566087Y134023D02*
X559133Y134023D01*
X559133Y141977D01*
X566087Y141977D01*
X566087Y134023D01*
X566087Y136465D02*
X559133Y136465D01*
X559133Y138907D02*
X566087Y138907D01*
X566087Y141349D02*
X559133Y141349D01*
D17*
X587215Y113615D02*
X597205Y113615D01*
X587215Y113615D02*
X587215Y122605D01*
X597205Y122605D01*
X597205Y113615D01*
X597205Y116023D02*
X587215Y116023D01*
X587215Y118431D02*
X597205Y118431D01*
X597205Y120839D02*
X587215Y120839D01*
X604215Y113615D02*
X614205Y113615D01*
X604215Y113615D02*
X604215Y122605D01*
X614205Y122605D01*
X614205Y113615D01*
X614205Y116023D02*
X604215Y116023D01*
X604215Y118431D02*
X614205Y118431D01*
X614205Y120839D02*
X604215Y120839D01*
D27*
X-26238Y557530D03*
X722198Y557530D03*
D28*
X-35293Y63500D02*
X-35290Y63722D01*
X-35282Y63944D01*
X-35268Y64166D01*
X-35249Y64388D01*
X-35225Y64608D01*
X-35195Y64829D01*
X-35160Y65048D01*
X-35119Y65267D01*
X-35073Y65484D01*
X-35022Y65700D01*
X-34965Y65915D01*
X-34903Y66129D01*
X-34836Y66340D01*
X-34764Y66551D01*
X-34686Y66759D01*
X-34604Y66965D01*
X-34516Y67169D01*
X-34424Y67372D01*
X-34326Y67571D01*
X-34224Y67768D01*
X-34117Y67963D01*
X-34005Y68155D01*
X-33888Y68344D01*
X-33767Y68531D01*
X-33641Y68714D01*
X-33511Y68894D01*
X-33376Y69071D01*
X-33238Y69244D01*
X-33095Y69414D01*
X-32947Y69581D01*
X-32796Y69744D01*
X-32641Y69903D01*
X-32482Y70058D01*
X-32319Y70209D01*
X-32152Y70357D01*
X-31982Y70500D01*
X-31809Y70638D01*
X-31632Y70773D01*
X-31452Y70903D01*
X-31269Y71029D01*
X-31082Y71150D01*
X-30893Y71267D01*
X-30701Y71379D01*
X-30506Y71486D01*
X-30309Y71588D01*
X-30110Y71686D01*
X-29907Y71778D01*
X-29703Y71866D01*
X-29497Y71948D01*
X-29289Y72026D01*
X-29078Y72098D01*
X-28867Y72165D01*
X-28653Y72227D01*
X-28438Y72284D01*
X-28222Y72335D01*
X-28005Y72381D01*
X-27786Y72422D01*
X-27567Y72457D01*
X-27346Y72487D01*
X-27126Y72511D01*
X-26904Y72530D01*
X-26682Y72544D01*
X-26460Y72552D01*
X-26238Y72555D01*
X-26016Y72552D01*
X-25794Y72544D01*
X-25572Y72530D01*
X-25350Y72511D01*
X-25130Y72487D01*
X-24909Y72457D01*
X-24690Y72422D01*
X-24471Y72381D01*
X-24254Y72335D01*
X-24038Y72284D01*
X-23823Y72227D01*
X-23609Y72165D01*
X-23398Y72098D01*
X-23187Y72026D01*
X-22979Y71948D01*
X-22773Y71866D01*
X-22569Y71778D01*
X-22366Y71686D01*
X-22167Y71588D01*
X-21970Y71486D01*
X-21775Y71379D01*
X-21583Y71267D01*
X-21394Y71150D01*
X-21207Y71029D01*
X-21024Y70903D01*
X-20844Y70773D01*
X-20667Y70638D01*
X-20494Y70500D01*
X-20324Y70357D01*
X-20157Y70209D01*
X-19994Y70058D01*
X-19835Y69903D01*
X-19680Y69744D01*
X-19529Y69581D01*
X-19381Y69414D01*
X-19238Y69244D01*
X-19100Y69071D01*
X-18965Y68894D01*
X-18835Y68714D01*
X-18709Y68531D01*
X-18588Y68344D01*
X-18471Y68155D01*
X-18359Y67963D01*
X-18252Y67768D01*
X-18150Y67571D01*
X-18052Y67372D01*
X-17960Y67169D01*
X-17872Y66965D01*
X-17790Y66759D01*
X-17712Y66551D01*
X-17640Y66340D01*
X-17573Y66129D01*
X-17511Y65915D01*
X-17454Y65700D01*
X-17403Y65484D01*
X-17357Y65267D01*
X-17316Y65048D01*
X-17281Y64829D01*
X-17251Y64608D01*
X-17227Y64388D01*
X-17208Y64166D01*
X-17194Y63944D01*
X-17186Y63722D01*
X-17183Y63500D01*
X-17186Y63278D01*
X-17194Y63056D01*
X-17208Y62834D01*
X-17227Y62612D01*
X-17251Y62392D01*
X-17281Y62171D01*
X-17316Y61952D01*
X-17357Y61733D01*
X-17403Y61516D01*
X-17454Y61300D01*
X-17511Y61085D01*
X-17573Y60871D01*
X-17640Y60660D01*
X-17712Y60449D01*
X-17790Y60241D01*
X-17872Y60035D01*
X-17960Y59831D01*
X-18052Y59628D01*
X-18150Y59429D01*
X-18252Y59232D01*
X-18359Y59037D01*
X-18471Y58845D01*
X-18588Y58656D01*
X-18709Y58469D01*
X-18835Y58286D01*
X-18965Y58106D01*
X-19100Y57929D01*
X-19238Y57756D01*
X-19381Y57586D01*
X-19529Y57419D01*
X-19680Y57256D01*
X-19835Y57097D01*
X-19994Y56942D01*
X-20157Y56791D01*
X-20324Y56643D01*
X-20494Y56500D01*
X-20667Y56362D01*
X-20844Y56227D01*
X-21024Y56097D01*
X-21207Y55971D01*
X-21394Y55850D01*
X-21583Y55733D01*
X-21775Y55621D01*
X-21970Y55514D01*
X-22167Y55412D01*
X-22366Y55314D01*
X-22569Y55222D01*
X-22773Y55134D01*
X-22979Y55052D01*
X-23187Y54974D01*
X-23398Y54902D01*
X-23609Y54835D01*
X-23823Y54773D01*
X-24038Y54716D01*
X-24254Y54665D01*
X-24471Y54619D01*
X-24690Y54578D01*
X-24909Y54543D01*
X-25130Y54513D01*
X-25350Y54489D01*
X-25572Y54470D01*
X-25794Y54456D01*
X-26016Y54448D01*
X-26238Y54445D01*
X-26460Y54448D01*
X-26682Y54456D01*
X-26904Y54470D01*
X-27126Y54489D01*
X-27346Y54513D01*
X-27567Y54543D01*
X-27786Y54578D01*
X-28005Y54619D01*
X-28222Y54665D01*
X-28438Y54716D01*
X-28653Y54773D01*
X-28867Y54835D01*
X-29078Y54902D01*
X-29289Y54974D01*
X-29497Y55052D01*
X-29703Y55134D01*
X-29907Y55222D01*
X-30110Y55314D01*
X-30309Y55412D01*
X-30506Y55514D01*
X-30701Y55621D01*
X-30893Y55733D01*
X-31082Y55850D01*
X-31269Y55971D01*
X-31452Y56097D01*
X-31632Y56227D01*
X-31809Y56362D01*
X-31982Y56500D01*
X-32152Y56643D01*
X-32319Y56791D01*
X-32482Y56942D01*
X-32641Y57097D01*
X-32796Y57256D01*
X-32947Y57419D01*
X-33095Y57586D01*
X-33238Y57756D01*
X-33376Y57929D01*
X-33511Y58106D01*
X-33641Y58286D01*
X-33767Y58469D01*
X-33888Y58656D01*
X-34005Y58845D01*
X-34117Y59037D01*
X-34224Y59232D01*
X-34326Y59429D01*
X-34424Y59628D01*
X-34516Y59831D01*
X-34604Y60035D01*
X-34686Y60241D01*
X-34764Y60449D01*
X-34836Y60660D01*
X-34903Y60871D01*
X-34965Y61085D01*
X-35022Y61300D01*
X-35073Y61516D01*
X-35119Y61733D01*
X-35160Y61952D01*
X-35195Y62171D01*
X-35225Y62392D01*
X-35249Y62612D01*
X-35268Y62834D01*
X-35282Y63056D01*
X-35290Y63278D01*
X-35293Y63500D01*
D29*
X-26238Y63500D03*
M02*
