M48
;GenerationSoftware,Autodesk,EAGLE,9.6.2*%
;CreationDate,2023-06-29T22:10:28Z*%
FMAT,2
ICI,OFF
METRIC,TZ,000.000
T5C0.305
T4C0.400
T3C0.650
T2C1.016
T1C3.302
%
G90
M71
T1
X43688Y55880
X2540Y2540
X20320Y2540
X49276Y2540
X67056Y2540
X2540Y55880
X20320Y55880
X25908Y2540
X43688Y2540
X49276Y55880
X67056Y55880
X25908Y55880
T2
X24638Y24130
X48006Y34290
X48006Y36830
X48006Y39370
X48006Y41910
X21590Y24130
X48006Y44450
X21590Y52070
X21590Y49530
X21590Y46990
X21590Y44450
X21590Y41910
X21590Y39370
X21590Y36830
X21590Y34290
X21590Y31750
X21590Y29210
X21590Y26670
X48006Y46990
X21590Y21590
X21590Y19050
X21590Y16510
X21590Y13970
X1270Y24130
X1270Y26670
X1270Y29210
X1270Y31750
X1270Y34290
X1270Y36830
X1270Y39370
X1270Y41910
X1270Y44450
X1270Y46990
X1270Y49530
X1270Y52070
X48006Y49530
X48006Y52070
X59436Y21590
X56896Y21590
X12700Y21590
X10160Y21590
X44958Y52070
X44958Y49530
X44958Y46990
X44958Y44450
X44958Y41910
X44958Y39370
X44958Y36830
X44958Y34290
X44958Y31750
X44958Y29210
X44958Y26670
X44958Y24130
X44958Y21590
X44958Y19050
X44958Y16510
X44958Y13970
X24638Y26670
X24638Y29210
X24638Y31750
X24638Y34290
X24638Y36830
X24638Y39370
X24638Y41910
X24638Y44450
X24638Y46990
X24638Y49530
X24638Y52070
X36068Y21590
X33528Y21590
X68326Y52070
X68326Y49530
X68326Y46990
X68326Y44450
X68326Y41910
X68326Y39370
X68326Y36830
X68326Y34290
X68326Y31750
X68326Y29210
X68326Y26670
X68326Y24130
X68326Y21590
X68326Y19050
X68326Y16510
X68326Y13970
X48006Y24130
X48006Y26670
X48006Y29210
X48006Y31750
T3
X8540Y4905
X14320Y4905
X31908Y4905
X37688Y4905
X61056Y4905
X55276Y4905
T4
X7112Y1255
X15748Y1255
X15748Y5435
X7112Y5435
X30480Y1255
X39116Y1255
X53848Y1255
X62484Y1255
X62484Y5435
X53848Y5435
X39116Y5435
X30480Y5435
T5
X36703Y29210
X41148Y27940
X45593Y4445
X41783Y635
X27813Y635
X24892Y4826
X24003Y22606
X32258Y23876
X26543Y30480
X29718Y41275
X42418Y33401
X34798Y27559
X33528Y19939
X37719Y10541
X41402Y14986
X34696Y13614
X29083Y6350
X34798Y16764
X38735Y20828
X37338Y635
X45593Y9525
X33909Y32131
X35433Y39370
X32893Y3175
X36703Y3175
X37338Y24130
X32258Y635
X28448Y43180
X25908Y7620
X27178Y27559
X29718Y44450
X25908Y8890
X27813Y25781
X38608Y48514
X42799Y11112
X41783Y35052
X42799Y7302
X39624Y32766
X41783Y37719
X39878Y47879
X41148Y40894
X40513Y45720
X41783Y48768
X41783Y47879
X27813Y35941
X34163Y35941
X27813Y36830
X34798Y36830
X27813Y37719
X35433Y37719
X29718Y39370
X32258Y24765
X34798Y19939
X37846Y20828
X32893Y4826
X36703Y4826
X36703Y15875
X35103Y14834
X39370Y40894
X40005Y40259
X27813Y38608
X38608Y33020
X38608Y38608
X36703Y24765
X33909Y27567
X40132Y22860
X36703Y17780
X33528Y41910
X34798Y41910
X34163Y41275
X34798Y32385
X41783Y22860
X40513Y29210
X33782Y13081
X33782Y8890
X31399Y13746
X57785Y4826
X59055Y4826
X51816Y50800
X66167Y13081
X54356Y42545
X53721Y46736
X53086Y7239
X58166Y29591
X56134Y15621
X62611Y8255
X59436Y43180
X3810Y27559
X53086Y35306
X49911Y25400
X49911Y33020
X64516Y50800
X58166Y51435
X53086Y50800
X54356Y45085
X60071Y46355
X63246Y43180
X55626Y41910
X60071Y29210
X64516Y27940
X68961Y4445
X65151Y635
X51181Y635
X48260Y4826
X47371Y22606
X55626Y23876
X49911Y30480
X53086Y41275
X65786Y33401
X58166Y27559
X56896Y19939
X61087Y10541
X64770Y14986
X58064Y13614
X52451Y6350
X58166Y16764
X62103Y20828
X60706Y635
X68961Y9525
X57277Y32131
X58801Y39370
X56261Y3175
X60071Y3175
X60706Y24130
X55626Y635
X51816Y43180
X49276Y7620
X50546Y27559
X53086Y44450
X49276Y8890
X51181Y25781
X61976Y48514
X66167Y11112
X65151Y35052
X66167Y7302
X62992Y32766
X65151Y37719
X63246Y47879
X64516Y40894
X63881Y45720
X65151Y48768
X65151Y47879
X51181Y35941
X57531Y35941
X51181Y36830
X58166Y36830
X51181Y37719
X58801Y37719
X53086Y39370
X55626Y24765
X58166Y19939
X61214Y20828
X56261Y4826
X60071Y4826
X60071Y15875
X58471Y14834
X62738Y40894
X63373Y40259
X51181Y38608
X61976Y33020
X61976Y38608
X60071Y24765
X57277Y27567
X63500Y22860
X60071Y17780
X56896Y41910
X58166Y41910
X57531Y41275
X58166Y32385
X65151Y22860
X63881Y29210
X57150Y13081
X57150Y8890
X54767Y13746
X11049Y4826
X12319Y4826
X5080Y50800
X19431Y13081
X7620Y42545
X6985Y46736
X6350Y7239
X11430Y29591
X9398Y15621
X15875Y8255
X12700Y43180
X6477Y12446
X6350Y35306
X3175Y25400
X3175Y33020
X17780Y50800
X11430Y51435
X6350Y50800
X7620Y45085
X13335Y46355
X16510Y43180
X8890Y41910
X13335Y29210
X17780Y27940
X22225Y4445
X18415Y635
X4445Y635
X1524Y4826
X635Y22606
X8890Y23876
X3175Y30480
X6350Y41275
X19050Y33401
X11430Y27559
X10160Y19939
X14351Y10541
X18034Y14986
X11328Y13614
X5715Y6350
X11430Y16764
X15367Y20828
X13970Y635
X22225Y9525
X10541Y32131
X12065Y39370
X9525Y3175
X13335Y3175
X13970Y24130
X8890Y635
X5080Y43180
X2540Y7620
X6350Y44450
X2540Y8890
X4445Y25781
X15240Y48514
X19431Y11112
X18415Y35052
X19431Y7302
X16256Y32766
X18415Y37719
X16510Y47879
X17780Y40894
X17145Y45720
X18415Y48768
X18415Y47879
X4445Y35941
X10795Y35941
X4445Y36830
X53213Y12446
X11430Y36830
X4445Y37719
X12065Y37719
X6350Y39370
X8890Y24765
X11430Y19939
X14478Y20828
X9525Y4826
X13335Y4826
X13335Y15875
X11735Y14834
X16002Y40894
X16637Y40259
X4445Y38608
X15240Y33020
X15240Y38608
X13335Y24765
X10541Y27567
X16764Y22860
X13335Y17780
X10160Y41910
X11430Y41910
X10795Y41275
X11430Y32385
X18415Y22860
X17145Y29210
X10414Y13081
X10414Y8890
X8031Y13746
X34417Y4826
X35687Y4826
X28448Y50800
X42799Y13081
X30988Y42545
X30353Y46736
X29718Y7239
X34798Y29591
X32766Y15621
X39243Y8255
X36068Y43180
X29845Y12446
X29718Y35306
X26543Y25400
X26543Y33020
X41148Y50800
X34798Y51435
X29718Y50800
X30988Y45085
X36703Y46355
X39878Y43180
X32258Y41910
M30