G04 EAGLE Gerber RS-274X export*
G75*
%MOMM*%
%FSLAX34Y34*%
%LPD*%
%INSolderpaste Top*%
%IPPOS*%
%AMOC8*
5,1,8,0,0,1.08239X$1,22.5*%
G01*
%ADD10C,0.099000*%
%ADD11C,0.104000*%
%ADD12C,0.102000*%
%ADD13C,0.100000*%
%ADD14C,0.096000*%
%ADD15C,0.100800*%
%ADD16C,0.300000*%
%ADD17R,0.637500X0.250000*%
%ADD18R,0.640000X0.500000*%
%ADD19C,0.105000*%

G36*
X390980Y43951D02*
X390980Y43951D01*
X390981Y43951D01*
X392049Y43970D01*
X392056Y43975D01*
X392060Y43971D01*
X393097Y44227D01*
X393102Y44234D01*
X393108Y44231D01*
X394062Y44712D01*
X394066Y44719D01*
X394071Y44718D01*
X394895Y45399D01*
X394896Y45407D01*
X394902Y45407D01*
X395553Y46254D01*
X395553Y46262D01*
X395559Y46263D01*
X396006Y47234D01*
X396004Y47242D01*
X396009Y47244D01*
X396228Y48290D01*
X396225Y48297D01*
X396229Y48300D01*
X396229Y60300D01*
X396226Y60305D01*
X396229Y60308D01*
X396049Y61403D01*
X396043Y61409D01*
X396046Y61414D01*
X395627Y62442D01*
X395620Y62446D01*
X395622Y62451D01*
X394985Y63360D01*
X394977Y63363D01*
X394977Y63368D01*
X394154Y64112D01*
X394146Y64113D01*
X394145Y64119D01*
X393177Y64661D01*
X393168Y64660D01*
X393166Y64666D01*
X392102Y64979D01*
X392097Y64977D01*
X392093Y64977D01*
X392091Y64981D01*
X390983Y65049D01*
X390977Y65045D01*
X390973Y65049D01*
X389865Y64879D01*
X389859Y64873D01*
X389854Y64876D01*
X388812Y64464D01*
X388808Y64457D01*
X388803Y64459D01*
X387878Y63825D01*
X387876Y63817D01*
X387870Y63818D01*
X387110Y62995D01*
X387109Y62986D01*
X387103Y62986D01*
X386546Y62014D01*
X386547Y62006D01*
X386541Y62004D01*
X386214Y60932D01*
X386217Y60924D01*
X386212Y60921D01*
X386131Y59804D01*
X386132Y59801D01*
X386131Y59800D01*
X386131Y47800D01*
X386136Y47793D01*
X386132Y47789D01*
X386351Y46845D01*
X386357Y46839D01*
X386355Y46834D01*
X386779Y45962D01*
X386786Y45959D01*
X386784Y45953D01*
X387391Y45197D01*
X387399Y45195D01*
X387399Y45189D01*
X388159Y44588D01*
X388168Y44588D01*
X388169Y44582D01*
X389044Y44164D01*
X389052Y44166D01*
X389054Y44161D01*
X390000Y43949D01*
X390007Y43952D01*
X390011Y43947D01*
X390980Y43951D01*
G37*
G36*
X157300Y43951D02*
X157300Y43951D01*
X157301Y43951D01*
X158369Y43970D01*
X158376Y43975D01*
X158380Y43971D01*
X159417Y44227D01*
X159422Y44234D01*
X159428Y44231D01*
X160382Y44712D01*
X160386Y44719D01*
X160391Y44718D01*
X161215Y45399D01*
X161216Y45407D01*
X161222Y45407D01*
X161873Y46254D01*
X161873Y46262D01*
X161879Y46263D01*
X162326Y47234D01*
X162324Y47242D01*
X162329Y47244D01*
X162548Y48290D01*
X162545Y48297D01*
X162549Y48300D01*
X162549Y60300D01*
X162546Y60305D01*
X162549Y60308D01*
X162369Y61403D01*
X162363Y61409D01*
X162366Y61414D01*
X161947Y62442D01*
X161940Y62446D01*
X161942Y62451D01*
X161305Y63360D01*
X161297Y63363D01*
X161297Y63368D01*
X160474Y64112D01*
X160466Y64113D01*
X160465Y64119D01*
X159497Y64661D01*
X159488Y64660D01*
X159486Y64666D01*
X158422Y64979D01*
X158417Y64977D01*
X158413Y64977D01*
X158411Y64981D01*
X157303Y65049D01*
X157297Y65045D01*
X157293Y65049D01*
X156185Y64879D01*
X156179Y64873D01*
X156174Y64876D01*
X155132Y64464D01*
X155128Y64457D01*
X155123Y64459D01*
X154198Y63825D01*
X154196Y63817D01*
X154190Y63818D01*
X153430Y62995D01*
X153429Y62986D01*
X153423Y62986D01*
X152866Y62014D01*
X152867Y62006D01*
X152861Y62004D01*
X152534Y60932D01*
X152537Y60924D01*
X152532Y60921D01*
X152451Y59804D01*
X152452Y59801D01*
X152451Y59800D01*
X152451Y47800D01*
X152456Y47793D01*
X152452Y47789D01*
X152671Y46845D01*
X152677Y46839D01*
X152675Y46834D01*
X153099Y45962D01*
X153106Y45959D01*
X153104Y45953D01*
X153711Y45197D01*
X153719Y45195D01*
X153719Y45189D01*
X154479Y44588D01*
X154488Y44588D01*
X154489Y44582D01*
X155364Y44164D01*
X155372Y44166D01*
X155374Y44161D01*
X156320Y43949D01*
X156327Y43952D01*
X156331Y43947D01*
X157300Y43951D01*
G37*
G36*
X624660Y43951D02*
X624660Y43951D01*
X624661Y43951D01*
X625729Y43970D01*
X625736Y43975D01*
X625740Y43971D01*
X626777Y44227D01*
X626782Y44234D01*
X626788Y44231D01*
X627742Y44712D01*
X627746Y44719D01*
X627751Y44718D01*
X628575Y45399D01*
X628576Y45407D01*
X628582Y45407D01*
X629233Y46254D01*
X629233Y46262D01*
X629239Y46263D01*
X629686Y47234D01*
X629684Y47242D01*
X629689Y47244D01*
X629908Y48290D01*
X629905Y48297D01*
X629909Y48300D01*
X629909Y60300D01*
X629906Y60305D01*
X629909Y60308D01*
X629729Y61403D01*
X629723Y61409D01*
X629726Y61414D01*
X629307Y62442D01*
X629300Y62446D01*
X629302Y62451D01*
X628665Y63360D01*
X628657Y63363D01*
X628657Y63368D01*
X627834Y64112D01*
X627826Y64113D01*
X627825Y64119D01*
X626857Y64661D01*
X626848Y64660D01*
X626846Y64666D01*
X625782Y64979D01*
X625777Y64977D01*
X625773Y64977D01*
X625771Y64981D01*
X624663Y65049D01*
X624657Y65045D01*
X624653Y65049D01*
X623545Y64879D01*
X623539Y64873D01*
X623534Y64876D01*
X622492Y64464D01*
X622488Y64457D01*
X622483Y64459D01*
X621558Y63825D01*
X621556Y63817D01*
X621550Y63818D01*
X620790Y62995D01*
X620789Y62986D01*
X620783Y62986D01*
X620226Y62014D01*
X620227Y62006D01*
X620221Y62004D01*
X619894Y60932D01*
X619897Y60924D01*
X619892Y60921D01*
X619811Y59804D01*
X619812Y59801D01*
X619811Y59800D01*
X619811Y47800D01*
X619816Y47793D01*
X619812Y47789D01*
X620031Y46845D01*
X620037Y46839D01*
X620035Y46834D01*
X620459Y45962D01*
X620466Y45959D01*
X620464Y45953D01*
X621071Y45197D01*
X621079Y45195D01*
X621079Y45189D01*
X621839Y44588D01*
X621848Y44588D01*
X621849Y44582D01*
X622724Y44164D01*
X622732Y44166D01*
X622734Y44161D01*
X623680Y43949D01*
X623687Y43952D01*
X623691Y43947D01*
X624660Y43951D01*
G37*
G36*
X539241Y43960D02*
X539241Y43960D01*
X539248Y43965D01*
X539252Y43961D01*
X540304Y44211D01*
X540309Y44217D01*
X540314Y44214D01*
X541284Y44691D01*
X541287Y44699D01*
X541293Y44697D01*
X542132Y45378D01*
X542134Y45386D01*
X542140Y45386D01*
X542806Y46237D01*
X542807Y46245D01*
X542812Y46246D01*
X543273Y47223D01*
X543271Y47231D01*
X543277Y47234D01*
X543508Y48289D01*
X543505Y48297D01*
X543509Y48300D01*
X543509Y60300D01*
X543505Y60305D01*
X543509Y60308D01*
X543316Y61414D01*
X543310Y61419D01*
X543313Y61424D01*
X542880Y62459D01*
X542873Y62463D01*
X542875Y62468D01*
X542222Y63381D01*
X542214Y63383D01*
X542215Y63389D01*
X541376Y64133D01*
X541367Y64134D01*
X541367Y64139D01*
X540383Y64678D01*
X540375Y64677D01*
X540373Y64682D01*
X539294Y64989D01*
X539286Y64986D01*
X539283Y64991D01*
X538163Y65049D01*
X538158Y65046D01*
X538155Y65049D01*
X537109Y64931D01*
X537103Y64925D01*
X537098Y64929D01*
X536104Y64581D01*
X536100Y64574D01*
X536095Y64576D01*
X535203Y64016D01*
X535201Y64009D01*
X535195Y64009D01*
X534451Y63265D01*
X534449Y63257D01*
X534444Y63257D01*
X533884Y62365D01*
X533884Y62357D01*
X533879Y62356D01*
X533531Y61362D01*
X533534Y61354D01*
X533529Y61351D01*
X533411Y60306D01*
X533413Y60302D01*
X533411Y60300D01*
X533411Y48300D01*
X533414Y48295D01*
X533411Y48292D01*
X533569Y47296D01*
X533575Y47290D01*
X533572Y47285D01*
X533947Y46349D01*
X533954Y46345D01*
X533952Y46339D01*
X534526Y45510D01*
X534534Y45507D01*
X534533Y45502D01*
X535277Y44821D01*
X535286Y44820D01*
X535286Y44814D01*
X536163Y44316D01*
X536172Y44317D01*
X536174Y44312D01*
X537139Y44021D01*
X537147Y44024D01*
X537150Y44019D01*
X538157Y43951D01*
X538159Y43952D01*
X538160Y43951D01*
X539241Y43960D01*
G37*
G36*
X305561Y43960D02*
X305561Y43960D01*
X305568Y43965D01*
X305572Y43961D01*
X306624Y44211D01*
X306629Y44217D01*
X306634Y44214D01*
X307604Y44691D01*
X307607Y44699D01*
X307613Y44697D01*
X308452Y45378D01*
X308454Y45386D01*
X308460Y45386D01*
X309126Y46237D01*
X309127Y46245D01*
X309132Y46246D01*
X309593Y47223D01*
X309591Y47231D01*
X309597Y47234D01*
X309828Y48289D01*
X309825Y48297D01*
X309829Y48300D01*
X309829Y60300D01*
X309825Y60305D01*
X309829Y60308D01*
X309636Y61414D01*
X309630Y61419D01*
X309633Y61424D01*
X309200Y62459D01*
X309193Y62463D01*
X309195Y62468D01*
X308542Y63381D01*
X308534Y63383D01*
X308535Y63389D01*
X307696Y64133D01*
X307687Y64134D01*
X307687Y64139D01*
X306703Y64678D01*
X306695Y64677D01*
X306693Y64682D01*
X305614Y64989D01*
X305606Y64986D01*
X305603Y64991D01*
X304483Y65049D01*
X304478Y65046D01*
X304475Y65049D01*
X303429Y64931D01*
X303423Y64925D01*
X303418Y64929D01*
X302424Y64581D01*
X302420Y64574D01*
X302415Y64576D01*
X301523Y64016D01*
X301521Y64009D01*
X301515Y64009D01*
X300771Y63265D01*
X300769Y63257D01*
X300764Y63257D01*
X300204Y62365D01*
X300204Y62357D01*
X300199Y62356D01*
X299851Y61362D01*
X299854Y61354D01*
X299849Y61351D01*
X299731Y60306D01*
X299733Y60302D01*
X299731Y60300D01*
X299731Y48300D01*
X299734Y48295D01*
X299731Y48292D01*
X299889Y47296D01*
X299895Y47290D01*
X299892Y47285D01*
X300267Y46349D01*
X300274Y46345D01*
X300272Y46339D01*
X300846Y45510D01*
X300854Y45507D01*
X300853Y45502D01*
X301597Y44821D01*
X301606Y44820D01*
X301606Y44814D01*
X302483Y44316D01*
X302492Y44317D01*
X302494Y44312D01*
X303459Y44021D01*
X303467Y44024D01*
X303470Y44019D01*
X304477Y43951D01*
X304479Y43952D01*
X304480Y43951D01*
X305561Y43960D01*
G37*
G36*
X71881Y43960D02*
X71881Y43960D01*
X71888Y43965D01*
X71892Y43961D01*
X72944Y44211D01*
X72949Y44217D01*
X72954Y44214D01*
X73924Y44691D01*
X73927Y44699D01*
X73933Y44697D01*
X74772Y45378D01*
X74774Y45386D01*
X74780Y45386D01*
X75446Y46237D01*
X75447Y46245D01*
X75452Y46246D01*
X75913Y47223D01*
X75911Y47231D01*
X75917Y47234D01*
X76148Y48289D01*
X76145Y48297D01*
X76149Y48300D01*
X76149Y60300D01*
X76145Y60305D01*
X76149Y60308D01*
X75956Y61414D01*
X75950Y61419D01*
X75953Y61424D01*
X75520Y62459D01*
X75513Y62463D01*
X75515Y62468D01*
X74862Y63381D01*
X74854Y63383D01*
X74855Y63389D01*
X74016Y64133D01*
X74007Y64134D01*
X74007Y64139D01*
X73023Y64678D01*
X73015Y64677D01*
X73013Y64682D01*
X71934Y64989D01*
X71926Y64986D01*
X71923Y64991D01*
X70803Y65049D01*
X70798Y65046D01*
X70795Y65049D01*
X69749Y64931D01*
X69743Y64925D01*
X69738Y64929D01*
X68744Y64581D01*
X68740Y64574D01*
X68735Y64576D01*
X67843Y64016D01*
X67841Y64009D01*
X67835Y64009D01*
X67091Y63265D01*
X67089Y63257D01*
X67084Y63257D01*
X66524Y62365D01*
X66524Y62357D01*
X66519Y62356D01*
X66171Y61362D01*
X66174Y61354D01*
X66169Y61351D01*
X66051Y60306D01*
X66053Y60302D01*
X66051Y60300D01*
X66051Y48300D01*
X66054Y48295D01*
X66051Y48292D01*
X66209Y47296D01*
X66215Y47290D01*
X66212Y47285D01*
X66587Y46349D01*
X66594Y46345D01*
X66592Y46339D01*
X67166Y45510D01*
X67174Y45507D01*
X67173Y45502D01*
X67917Y44821D01*
X67926Y44820D01*
X67926Y44814D01*
X68803Y44316D01*
X68812Y44317D01*
X68814Y44312D01*
X69779Y44021D01*
X69787Y44024D01*
X69790Y44019D01*
X70797Y43951D01*
X70799Y43952D01*
X70800Y43951D01*
X71881Y43960D01*
G37*
G36*
X625164Y4455D02*
X625164Y4455D01*
X625167Y4451D01*
X626243Y4606D01*
X626248Y4612D01*
X626253Y4609D01*
X627267Y4999D01*
X627271Y5006D01*
X627277Y5005D01*
X628179Y5611D01*
X628181Y5619D01*
X628187Y5618D01*
X628931Y6410D01*
X628932Y6418D01*
X628938Y6418D01*
X629487Y7356D01*
X629486Y7364D01*
X629492Y7366D01*
X629819Y8402D01*
X629816Y8410D01*
X629821Y8413D01*
X629909Y9496D01*
X629907Y9499D01*
X629909Y9500D01*
X629909Y15500D01*
X629906Y15504D01*
X629909Y15506D01*
X629759Y16639D01*
X629753Y16645D01*
X629756Y16650D01*
X629358Y17720D01*
X629351Y17724D01*
X629353Y17730D01*
X628726Y18685D01*
X628718Y18688D01*
X628719Y18693D01*
X627896Y19485D01*
X627888Y19486D01*
X627887Y19492D01*
X626908Y20081D01*
X626900Y20080D01*
X626898Y20085D01*
X625813Y20441D01*
X625805Y20439D01*
X625802Y20443D01*
X624665Y20549D01*
X624656Y20544D01*
X624651Y20548D01*
X623514Y20341D01*
X623508Y20335D01*
X623503Y20338D01*
X622441Y19883D01*
X622437Y19876D01*
X622431Y19878D01*
X621496Y19198D01*
X621494Y19190D01*
X621488Y19191D01*
X620728Y18320D01*
X620728Y18312D01*
X620722Y18311D01*
X620175Y17292D01*
X620176Y17284D01*
X620171Y17282D01*
X620167Y17269D01*
X620154Y17220D01*
X620153Y17220D01*
X620154Y17220D01*
X620140Y17171D01*
X620126Y17121D01*
X620113Y17072D01*
X620099Y17023D01*
X620086Y16974D01*
X620072Y16924D01*
X620059Y16875D01*
X620045Y16826D01*
X620031Y16777D01*
X620018Y16727D01*
X620004Y16678D01*
X619991Y16629D01*
X619977Y16580D01*
X619964Y16530D01*
X619950Y16481D01*
X619937Y16432D01*
X619936Y16432D01*
X619923Y16383D01*
X619909Y16333D01*
X619864Y16168D01*
X619867Y16160D01*
X619862Y16157D01*
X619811Y15002D01*
X619812Y15001D01*
X619811Y15000D01*
X619811Y9000D01*
X619815Y8994D01*
X619812Y8991D01*
X620024Y7910D01*
X620030Y7905D01*
X620027Y7900D01*
X620474Y6894D01*
X620481Y6890D01*
X620479Y6884D01*
X621139Y6003D01*
X621147Y6000D01*
X621147Y5995D01*
X621986Y5282D01*
X621994Y5282D01*
X621995Y5276D01*
X622972Y4768D01*
X622980Y4769D01*
X622982Y4764D01*
X624047Y4486D01*
X624055Y4489D01*
X624058Y4485D01*
X625159Y4451D01*
X625164Y4455D01*
G37*
G36*
X157804Y4455D02*
X157804Y4455D01*
X157807Y4451D01*
X158883Y4606D01*
X158888Y4612D01*
X158893Y4609D01*
X159907Y4999D01*
X159911Y5006D01*
X159917Y5005D01*
X160819Y5611D01*
X160821Y5619D01*
X160827Y5618D01*
X161571Y6410D01*
X161572Y6418D01*
X161578Y6418D01*
X162127Y7356D01*
X162126Y7364D01*
X162132Y7366D01*
X162459Y8402D01*
X162456Y8410D01*
X162461Y8413D01*
X162549Y9496D01*
X162547Y9499D01*
X162549Y9500D01*
X162549Y15500D01*
X162546Y15504D01*
X162549Y15506D01*
X162399Y16639D01*
X162393Y16645D01*
X162396Y16650D01*
X161998Y17720D01*
X161991Y17724D01*
X161993Y17730D01*
X161366Y18685D01*
X161358Y18688D01*
X161359Y18693D01*
X160536Y19485D01*
X160528Y19486D01*
X160527Y19492D01*
X159548Y20081D01*
X159540Y20080D01*
X159538Y20085D01*
X158453Y20441D01*
X158445Y20439D01*
X158442Y20443D01*
X157305Y20549D01*
X157296Y20544D01*
X157291Y20548D01*
X156154Y20341D01*
X156148Y20335D01*
X156143Y20338D01*
X155081Y19883D01*
X155077Y19876D01*
X155071Y19878D01*
X154136Y19198D01*
X154134Y19190D01*
X154128Y19191D01*
X153368Y18320D01*
X153368Y18312D01*
X153362Y18311D01*
X152815Y17292D01*
X152816Y17284D01*
X152811Y17282D01*
X152807Y17269D01*
X152794Y17220D01*
X152793Y17220D01*
X152794Y17220D01*
X152780Y17171D01*
X152766Y17121D01*
X152753Y17072D01*
X152739Y17023D01*
X152726Y16974D01*
X152712Y16924D01*
X152699Y16875D01*
X152685Y16826D01*
X152671Y16777D01*
X152658Y16727D01*
X152644Y16678D01*
X152631Y16629D01*
X152617Y16580D01*
X152604Y16530D01*
X152590Y16481D01*
X152577Y16432D01*
X152576Y16432D01*
X152563Y16383D01*
X152549Y16333D01*
X152504Y16168D01*
X152507Y16160D01*
X152502Y16157D01*
X152451Y15002D01*
X152452Y15001D01*
X152451Y15000D01*
X152451Y9000D01*
X152455Y8994D01*
X152452Y8991D01*
X152664Y7910D01*
X152670Y7905D01*
X152667Y7900D01*
X153114Y6894D01*
X153121Y6890D01*
X153119Y6884D01*
X153779Y6003D01*
X153787Y6000D01*
X153787Y5995D01*
X154626Y5282D01*
X154634Y5282D01*
X154635Y5276D01*
X155612Y4768D01*
X155620Y4769D01*
X155622Y4764D01*
X156687Y4486D01*
X156695Y4489D01*
X156698Y4485D01*
X157799Y4451D01*
X157804Y4455D01*
G37*
G36*
X391484Y4455D02*
X391484Y4455D01*
X391487Y4451D01*
X392563Y4606D01*
X392568Y4612D01*
X392573Y4609D01*
X393587Y4999D01*
X393591Y5006D01*
X393597Y5005D01*
X394499Y5611D01*
X394501Y5619D01*
X394507Y5618D01*
X395251Y6410D01*
X395252Y6418D01*
X395258Y6418D01*
X395807Y7356D01*
X395806Y7364D01*
X395812Y7366D01*
X396139Y8402D01*
X396136Y8410D01*
X396141Y8413D01*
X396229Y9496D01*
X396227Y9499D01*
X396229Y9500D01*
X396229Y15500D01*
X396226Y15504D01*
X396229Y15506D01*
X396079Y16639D01*
X396073Y16645D01*
X396076Y16650D01*
X395678Y17720D01*
X395671Y17724D01*
X395673Y17730D01*
X395046Y18685D01*
X395038Y18688D01*
X395039Y18693D01*
X394216Y19485D01*
X394208Y19486D01*
X394207Y19492D01*
X393228Y20081D01*
X393220Y20080D01*
X393218Y20085D01*
X392133Y20441D01*
X392125Y20439D01*
X392122Y20443D01*
X390985Y20549D01*
X390976Y20544D01*
X390971Y20548D01*
X389834Y20341D01*
X389828Y20335D01*
X389823Y20338D01*
X388761Y19883D01*
X388757Y19876D01*
X388751Y19878D01*
X387816Y19198D01*
X387814Y19190D01*
X387808Y19191D01*
X387048Y18320D01*
X387048Y18312D01*
X387042Y18311D01*
X386495Y17292D01*
X386496Y17284D01*
X386491Y17282D01*
X386487Y17269D01*
X386474Y17220D01*
X386473Y17220D01*
X386474Y17220D01*
X386460Y17171D01*
X386446Y17121D01*
X386433Y17072D01*
X386419Y17023D01*
X386406Y16974D01*
X386392Y16924D01*
X386379Y16875D01*
X386365Y16826D01*
X386351Y16777D01*
X386338Y16727D01*
X386324Y16678D01*
X386311Y16629D01*
X386297Y16580D01*
X386284Y16530D01*
X386270Y16481D01*
X386257Y16432D01*
X386256Y16432D01*
X386243Y16383D01*
X386229Y16333D01*
X386184Y16168D01*
X386187Y16160D01*
X386182Y16157D01*
X386131Y15002D01*
X386132Y15001D01*
X386131Y15000D01*
X386131Y9000D01*
X386135Y8994D01*
X386132Y8991D01*
X386344Y7910D01*
X386350Y7905D01*
X386347Y7900D01*
X386794Y6894D01*
X386801Y6890D01*
X386799Y6884D01*
X387459Y6003D01*
X387467Y6000D01*
X387467Y5995D01*
X388306Y5282D01*
X388314Y5282D01*
X388315Y5276D01*
X389292Y4768D01*
X389300Y4769D01*
X389302Y4764D01*
X390367Y4486D01*
X390375Y4489D01*
X390378Y4485D01*
X391479Y4451D01*
X391484Y4455D01*
G37*
G36*
X304982Y4455D02*
X304982Y4455D01*
X304987Y4451D01*
X306074Y4596D01*
X306080Y4602D01*
X306085Y4599D01*
X307113Y4983D01*
X307118Y4989D01*
X307123Y4988D01*
X308040Y5590D01*
X308043Y5598D01*
X308049Y5597D01*
X308809Y6389D01*
X308810Y6397D01*
X308816Y6398D01*
X309380Y7339D01*
X309380Y7342D01*
X309381Y7343D01*
X309380Y7345D01*
X309379Y7347D01*
X309385Y7349D01*
X309726Y8392D01*
X309724Y8400D01*
X309728Y8403D01*
X309829Y9496D01*
X309827Y9498D01*
X309829Y9500D01*
X309829Y15500D01*
X309827Y15503D01*
X309829Y15505D01*
X309728Y16597D01*
X309723Y16603D01*
X309726Y16608D01*
X309385Y17651D01*
X309378Y17656D01*
X309380Y17661D01*
X308816Y18602D01*
X308808Y18605D01*
X308809Y18611D01*
X308049Y19403D01*
X308041Y19404D01*
X308040Y19410D01*
X307123Y20013D01*
X307115Y20012D01*
X307113Y20018D01*
X306085Y20401D01*
X306077Y20399D01*
X306074Y20404D01*
X304987Y20549D01*
X304979Y20545D01*
X304975Y20549D01*
X303838Y20443D01*
X303832Y20438D01*
X303827Y20441D01*
X302742Y20085D01*
X302737Y20078D01*
X302732Y20081D01*
X301753Y19492D01*
X301750Y19484D01*
X301744Y19485D01*
X300921Y18693D01*
X300920Y18685D01*
X300914Y18685D01*
X300287Y17730D01*
X300288Y17722D01*
X300282Y17720D01*
X299884Y16650D01*
X299886Y16642D01*
X299881Y16639D01*
X299731Y15506D01*
X299734Y15502D01*
X299731Y15500D01*
X299731Y9500D01*
X299734Y9496D01*
X299731Y9494D01*
X299881Y8361D01*
X299887Y8355D01*
X299884Y8350D01*
X300282Y7280D01*
X300289Y7276D01*
X300287Y7270D01*
X300914Y6315D01*
X300922Y6312D01*
X300921Y6307D01*
X301744Y5515D01*
X301752Y5514D01*
X301753Y5508D01*
X302732Y4919D01*
X302740Y4920D01*
X302742Y4915D01*
X303827Y4559D01*
X303835Y4562D01*
X303838Y4557D01*
X304975Y4451D01*
X304982Y4455D01*
G37*
G36*
X71302Y4455D02*
X71302Y4455D01*
X71307Y4451D01*
X72394Y4596D01*
X72400Y4602D01*
X72405Y4599D01*
X73433Y4983D01*
X73438Y4989D01*
X73443Y4988D01*
X74360Y5590D01*
X74363Y5598D01*
X74369Y5597D01*
X75129Y6389D01*
X75130Y6397D01*
X75136Y6398D01*
X75700Y7339D01*
X75700Y7342D01*
X75701Y7343D01*
X75700Y7345D01*
X75699Y7347D01*
X75705Y7349D01*
X76046Y8392D01*
X76044Y8400D01*
X76048Y8403D01*
X76149Y9496D01*
X76147Y9498D01*
X76149Y9500D01*
X76149Y15500D01*
X76147Y15503D01*
X76149Y15505D01*
X76048Y16597D01*
X76043Y16603D01*
X76046Y16608D01*
X75705Y17651D01*
X75698Y17656D01*
X75700Y17661D01*
X75136Y18602D01*
X75128Y18605D01*
X75129Y18611D01*
X74369Y19403D01*
X74361Y19404D01*
X74360Y19410D01*
X73443Y20013D01*
X73435Y20012D01*
X73433Y20018D01*
X72405Y20401D01*
X72397Y20399D01*
X72394Y20404D01*
X71307Y20549D01*
X71299Y20545D01*
X71295Y20549D01*
X70158Y20443D01*
X70152Y20438D01*
X70147Y20441D01*
X69062Y20085D01*
X69057Y20078D01*
X69052Y20081D01*
X68073Y19492D01*
X68070Y19484D01*
X68064Y19485D01*
X67241Y18693D01*
X67240Y18685D01*
X67234Y18685D01*
X66607Y17730D01*
X66608Y17722D01*
X66602Y17720D01*
X66204Y16650D01*
X66206Y16642D01*
X66201Y16639D01*
X66051Y15506D01*
X66054Y15502D01*
X66051Y15500D01*
X66051Y9500D01*
X66054Y9496D01*
X66051Y9494D01*
X66201Y8361D01*
X66207Y8355D01*
X66204Y8350D01*
X66602Y7280D01*
X66609Y7276D01*
X66607Y7270D01*
X67234Y6315D01*
X67242Y6312D01*
X67241Y6307D01*
X68064Y5515D01*
X68072Y5514D01*
X68073Y5508D01*
X69052Y4919D01*
X69060Y4920D01*
X69062Y4915D01*
X70147Y4559D01*
X70155Y4562D01*
X70158Y4557D01*
X71295Y4451D01*
X71302Y4455D01*
G37*
G36*
X538662Y4455D02*
X538662Y4455D01*
X538667Y4451D01*
X539754Y4596D01*
X539760Y4602D01*
X539765Y4599D01*
X540793Y4983D01*
X540798Y4989D01*
X540803Y4988D01*
X541720Y5590D01*
X541723Y5598D01*
X541729Y5597D01*
X542489Y6389D01*
X542490Y6397D01*
X542496Y6398D01*
X543060Y7339D01*
X543060Y7342D01*
X543061Y7343D01*
X543060Y7345D01*
X543059Y7347D01*
X543065Y7349D01*
X543406Y8392D01*
X543404Y8400D01*
X543408Y8403D01*
X543509Y9496D01*
X543507Y9498D01*
X543509Y9500D01*
X543509Y15500D01*
X543507Y15503D01*
X543509Y15505D01*
X543408Y16597D01*
X543403Y16603D01*
X543406Y16608D01*
X543065Y17651D01*
X543058Y17656D01*
X543060Y17661D01*
X542496Y18602D01*
X542488Y18605D01*
X542489Y18611D01*
X541729Y19403D01*
X541721Y19404D01*
X541720Y19410D01*
X540803Y20013D01*
X540795Y20012D01*
X540793Y20018D01*
X539765Y20401D01*
X539757Y20399D01*
X539754Y20404D01*
X538667Y20549D01*
X538659Y20545D01*
X538655Y20549D01*
X537518Y20443D01*
X537512Y20438D01*
X537507Y20441D01*
X536422Y20085D01*
X536417Y20078D01*
X536412Y20081D01*
X535433Y19492D01*
X535430Y19484D01*
X535424Y19485D01*
X534601Y18693D01*
X534600Y18685D01*
X534594Y18685D01*
X533967Y17730D01*
X533968Y17722D01*
X533962Y17720D01*
X533564Y16650D01*
X533566Y16642D01*
X533561Y16639D01*
X533411Y15506D01*
X533414Y15502D01*
X533411Y15500D01*
X533411Y9500D01*
X533414Y9496D01*
X533411Y9494D01*
X533561Y8361D01*
X533567Y8355D01*
X533564Y8350D01*
X533962Y7280D01*
X533969Y7276D01*
X533967Y7270D01*
X534594Y6315D01*
X534602Y6312D01*
X534601Y6307D01*
X535424Y5515D01*
X535432Y5514D01*
X535433Y5508D01*
X536412Y4919D01*
X536420Y4920D01*
X536422Y4915D01*
X537507Y4559D01*
X537515Y4562D01*
X537518Y4557D01*
X538655Y4451D01*
X538662Y4455D01*
G37*
D10*
X38805Y505795D02*
X24795Y505795D01*
X24795Y513805D01*
X38805Y513805D01*
X38805Y505795D01*
X38805Y506735D02*
X24795Y506735D01*
X24795Y507675D02*
X38805Y507675D01*
X38805Y508615D02*
X24795Y508615D01*
X24795Y509555D02*
X38805Y509555D01*
X38805Y510495D02*
X24795Y510495D01*
X24795Y511435D02*
X38805Y511435D01*
X38805Y512375D02*
X24795Y512375D01*
X24795Y513315D02*
X38805Y513315D01*
X38805Y493095D02*
X24795Y493095D01*
X24795Y501105D01*
X38805Y501105D01*
X38805Y493095D01*
X38805Y494035D02*
X24795Y494035D01*
X24795Y494975D02*
X38805Y494975D01*
X38805Y495915D02*
X24795Y495915D01*
X24795Y496855D02*
X38805Y496855D01*
X38805Y497795D02*
X24795Y497795D01*
X24795Y498735D02*
X38805Y498735D01*
X38805Y499675D02*
X24795Y499675D01*
X24795Y500615D02*
X38805Y500615D01*
X38805Y480395D02*
X24795Y480395D01*
X24795Y488405D01*
X38805Y488405D01*
X38805Y480395D01*
X38805Y481335D02*
X24795Y481335D01*
X24795Y482275D02*
X38805Y482275D01*
X38805Y483215D02*
X24795Y483215D01*
X24795Y484155D02*
X38805Y484155D01*
X38805Y485095D02*
X24795Y485095D01*
X24795Y486035D02*
X38805Y486035D01*
X38805Y486975D02*
X24795Y486975D01*
X24795Y487915D02*
X38805Y487915D01*
X38805Y467695D02*
X24795Y467695D01*
X24795Y475705D01*
X38805Y475705D01*
X38805Y467695D01*
X38805Y468635D02*
X24795Y468635D01*
X24795Y469575D02*
X38805Y469575D01*
X38805Y470515D02*
X24795Y470515D01*
X24795Y471455D02*
X38805Y471455D01*
X38805Y472395D02*
X24795Y472395D01*
X24795Y473335D02*
X38805Y473335D01*
X38805Y474275D02*
X24795Y474275D01*
X24795Y475215D02*
X38805Y475215D01*
X38805Y454995D02*
X24795Y454995D01*
X24795Y463005D01*
X38805Y463005D01*
X38805Y454995D01*
X38805Y455935D02*
X24795Y455935D01*
X24795Y456875D02*
X38805Y456875D01*
X38805Y457815D02*
X24795Y457815D01*
X24795Y458755D02*
X38805Y458755D01*
X38805Y459695D02*
X24795Y459695D01*
X24795Y460635D02*
X38805Y460635D01*
X38805Y461575D02*
X24795Y461575D01*
X24795Y462515D02*
X38805Y462515D01*
X38805Y442295D02*
X24795Y442295D01*
X24795Y450305D01*
X38805Y450305D01*
X38805Y442295D01*
X38805Y443235D02*
X24795Y443235D01*
X24795Y444175D02*
X38805Y444175D01*
X38805Y445115D02*
X24795Y445115D01*
X24795Y446055D02*
X38805Y446055D01*
X38805Y446995D02*
X24795Y446995D01*
X24795Y447935D02*
X38805Y447935D01*
X38805Y448875D02*
X24795Y448875D01*
X24795Y449815D02*
X38805Y449815D01*
X38805Y429595D02*
X24795Y429595D01*
X24795Y437605D01*
X38805Y437605D01*
X38805Y429595D01*
X38805Y430535D02*
X24795Y430535D01*
X24795Y431475D02*
X38805Y431475D01*
X38805Y432415D02*
X24795Y432415D01*
X24795Y433355D02*
X38805Y433355D01*
X38805Y434295D02*
X24795Y434295D01*
X24795Y435235D02*
X38805Y435235D01*
X38805Y436175D02*
X24795Y436175D01*
X24795Y437115D02*
X38805Y437115D01*
X38805Y416895D02*
X24795Y416895D01*
X24795Y424905D01*
X38805Y424905D01*
X38805Y416895D01*
X38805Y417835D02*
X24795Y417835D01*
X24795Y418775D02*
X38805Y418775D01*
X38805Y419715D02*
X24795Y419715D01*
X24795Y420655D02*
X38805Y420655D01*
X38805Y421595D02*
X24795Y421595D01*
X24795Y422535D02*
X38805Y422535D01*
X38805Y423475D02*
X24795Y423475D01*
X24795Y424415D02*
X38805Y424415D01*
X38805Y404195D02*
X24795Y404195D01*
X24795Y412205D01*
X38805Y412205D01*
X38805Y404195D01*
X38805Y405135D02*
X24795Y405135D01*
X24795Y406075D02*
X38805Y406075D01*
X38805Y407015D02*
X24795Y407015D01*
X24795Y407955D02*
X38805Y407955D01*
X38805Y408895D02*
X24795Y408895D01*
X24795Y409835D02*
X38805Y409835D01*
X38805Y410775D02*
X24795Y410775D01*
X24795Y411715D02*
X38805Y411715D01*
X38805Y391495D02*
X24795Y391495D01*
X24795Y399505D01*
X38805Y399505D01*
X38805Y391495D01*
X38805Y392435D02*
X24795Y392435D01*
X24795Y393375D02*
X38805Y393375D01*
X38805Y394315D02*
X24795Y394315D01*
X24795Y395255D02*
X38805Y395255D01*
X38805Y396195D02*
X24795Y396195D01*
X24795Y397135D02*
X38805Y397135D01*
X38805Y398075D02*
X24795Y398075D01*
X24795Y399015D02*
X38805Y399015D01*
X38805Y378795D02*
X24795Y378795D01*
X24795Y386805D01*
X38805Y386805D01*
X38805Y378795D01*
X38805Y379735D02*
X24795Y379735D01*
X24795Y380675D02*
X38805Y380675D01*
X38805Y381615D02*
X24795Y381615D01*
X24795Y382555D02*
X38805Y382555D01*
X38805Y383495D02*
X24795Y383495D01*
X24795Y384435D02*
X38805Y384435D01*
X38805Y385375D02*
X24795Y385375D01*
X24795Y386315D02*
X38805Y386315D01*
X38805Y366095D02*
X24795Y366095D01*
X24795Y374105D01*
X38805Y374105D01*
X38805Y366095D01*
X38805Y367035D02*
X24795Y367035D01*
X24795Y367975D02*
X38805Y367975D01*
X38805Y368915D02*
X24795Y368915D01*
X24795Y369855D02*
X38805Y369855D01*
X38805Y370795D02*
X24795Y370795D01*
X24795Y371735D02*
X38805Y371735D01*
X38805Y372675D02*
X24795Y372675D01*
X24795Y373615D02*
X38805Y373615D01*
X38805Y353395D02*
X24795Y353395D01*
X24795Y361405D01*
X38805Y361405D01*
X38805Y353395D01*
X38805Y354335D02*
X24795Y354335D01*
X24795Y355275D02*
X38805Y355275D01*
X38805Y356215D02*
X24795Y356215D01*
X24795Y357155D02*
X38805Y357155D01*
X38805Y358095D02*
X24795Y358095D01*
X24795Y359035D02*
X38805Y359035D01*
X38805Y359975D02*
X24795Y359975D01*
X24795Y360915D02*
X38805Y360915D01*
X38805Y340695D02*
X24795Y340695D01*
X24795Y348705D01*
X38805Y348705D01*
X38805Y340695D01*
X38805Y341635D02*
X24795Y341635D01*
X24795Y342575D02*
X38805Y342575D01*
X38805Y343515D02*
X24795Y343515D01*
X24795Y344455D02*
X38805Y344455D01*
X38805Y345395D02*
X24795Y345395D01*
X24795Y346335D02*
X38805Y346335D01*
X38805Y347275D02*
X24795Y347275D01*
X24795Y348215D02*
X38805Y348215D01*
X189795Y340695D02*
X203805Y340695D01*
X189795Y340695D02*
X189795Y348705D01*
X203805Y348705D01*
X203805Y340695D01*
X203805Y341635D02*
X189795Y341635D01*
X189795Y342575D02*
X203805Y342575D01*
X203805Y343515D02*
X189795Y343515D01*
X189795Y344455D02*
X203805Y344455D01*
X203805Y345395D02*
X189795Y345395D01*
X189795Y346335D02*
X203805Y346335D01*
X203805Y347275D02*
X189795Y347275D01*
X189795Y348215D02*
X203805Y348215D01*
X203805Y353395D02*
X189795Y353395D01*
X189795Y361405D01*
X203805Y361405D01*
X203805Y353395D01*
X203805Y354335D02*
X189795Y354335D01*
X189795Y355275D02*
X203805Y355275D01*
X203805Y356215D02*
X189795Y356215D01*
X189795Y357155D02*
X203805Y357155D01*
X203805Y358095D02*
X189795Y358095D01*
X189795Y359035D02*
X203805Y359035D01*
X203805Y359975D02*
X189795Y359975D01*
X189795Y360915D02*
X203805Y360915D01*
X203805Y366095D02*
X189795Y366095D01*
X189795Y374105D01*
X203805Y374105D01*
X203805Y366095D01*
X203805Y367035D02*
X189795Y367035D01*
X189795Y367975D02*
X203805Y367975D01*
X203805Y368915D02*
X189795Y368915D01*
X189795Y369855D02*
X203805Y369855D01*
X203805Y370795D02*
X189795Y370795D01*
X189795Y371735D02*
X203805Y371735D01*
X203805Y372675D02*
X189795Y372675D01*
X189795Y373615D02*
X203805Y373615D01*
X203805Y378795D02*
X189795Y378795D01*
X189795Y386805D01*
X203805Y386805D01*
X203805Y378795D01*
X203805Y379735D02*
X189795Y379735D01*
X189795Y380675D02*
X203805Y380675D01*
X203805Y381615D02*
X189795Y381615D01*
X189795Y382555D02*
X203805Y382555D01*
X203805Y383495D02*
X189795Y383495D01*
X189795Y384435D02*
X203805Y384435D01*
X203805Y385375D02*
X189795Y385375D01*
X189795Y386315D02*
X203805Y386315D01*
X203805Y391495D02*
X189795Y391495D01*
X189795Y399505D01*
X203805Y399505D01*
X203805Y391495D01*
X203805Y392435D02*
X189795Y392435D01*
X189795Y393375D02*
X203805Y393375D01*
X203805Y394315D02*
X189795Y394315D01*
X189795Y395255D02*
X203805Y395255D01*
X203805Y396195D02*
X189795Y396195D01*
X189795Y397135D02*
X203805Y397135D01*
X203805Y398075D02*
X189795Y398075D01*
X189795Y399015D02*
X203805Y399015D01*
X203805Y404195D02*
X189795Y404195D01*
X189795Y412205D01*
X203805Y412205D01*
X203805Y404195D01*
X203805Y405135D02*
X189795Y405135D01*
X189795Y406075D02*
X203805Y406075D01*
X203805Y407015D02*
X189795Y407015D01*
X189795Y407955D02*
X203805Y407955D01*
X203805Y408895D02*
X189795Y408895D01*
X189795Y409835D02*
X203805Y409835D01*
X203805Y410775D02*
X189795Y410775D01*
X189795Y411715D02*
X203805Y411715D01*
X203805Y416895D02*
X189795Y416895D01*
X189795Y424905D01*
X203805Y424905D01*
X203805Y416895D01*
X203805Y417835D02*
X189795Y417835D01*
X189795Y418775D02*
X203805Y418775D01*
X203805Y419715D02*
X189795Y419715D01*
X189795Y420655D02*
X203805Y420655D01*
X203805Y421595D02*
X189795Y421595D01*
X189795Y422535D02*
X203805Y422535D01*
X203805Y423475D02*
X189795Y423475D01*
X189795Y424415D02*
X203805Y424415D01*
X203805Y429595D02*
X189795Y429595D01*
X189795Y437605D01*
X203805Y437605D01*
X203805Y429595D01*
X203805Y430535D02*
X189795Y430535D01*
X189795Y431475D02*
X203805Y431475D01*
X203805Y432415D02*
X189795Y432415D01*
X189795Y433355D02*
X203805Y433355D01*
X203805Y434295D02*
X189795Y434295D01*
X189795Y435235D02*
X203805Y435235D01*
X203805Y436175D02*
X189795Y436175D01*
X189795Y437115D02*
X203805Y437115D01*
X203805Y442295D02*
X189795Y442295D01*
X189795Y450305D01*
X203805Y450305D01*
X203805Y442295D01*
X203805Y443235D02*
X189795Y443235D01*
X189795Y444175D02*
X203805Y444175D01*
X203805Y445115D02*
X189795Y445115D01*
X189795Y446055D02*
X203805Y446055D01*
X203805Y446995D02*
X189795Y446995D01*
X189795Y447935D02*
X203805Y447935D01*
X203805Y448875D02*
X189795Y448875D01*
X189795Y449815D02*
X203805Y449815D01*
X203805Y454995D02*
X189795Y454995D01*
X189795Y463005D01*
X203805Y463005D01*
X203805Y454995D01*
X203805Y455935D02*
X189795Y455935D01*
X189795Y456875D02*
X203805Y456875D01*
X203805Y457815D02*
X189795Y457815D01*
X189795Y458755D02*
X203805Y458755D01*
X203805Y459695D02*
X189795Y459695D01*
X189795Y460635D02*
X203805Y460635D01*
X203805Y461575D02*
X189795Y461575D01*
X189795Y462515D02*
X203805Y462515D01*
X203805Y467695D02*
X189795Y467695D01*
X189795Y475705D01*
X203805Y475705D01*
X203805Y467695D01*
X203805Y468635D02*
X189795Y468635D01*
X189795Y469575D02*
X203805Y469575D01*
X203805Y470515D02*
X189795Y470515D01*
X189795Y471455D02*
X203805Y471455D01*
X203805Y472395D02*
X189795Y472395D01*
X189795Y473335D02*
X203805Y473335D01*
X203805Y474275D02*
X189795Y474275D01*
X189795Y475215D02*
X203805Y475215D01*
X203805Y480395D02*
X189795Y480395D01*
X189795Y488405D01*
X203805Y488405D01*
X203805Y480395D01*
X203805Y481335D02*
X189795Y481335D01*
X189795Y482275D02*
X203805Y482275D01*
X203805Y483215D02*
X189795Y483215D01*
X189795Y484155D02*
X203805Y484155D01*
X203805Y485095D02*
X189795Y485095D01*
X189795Y486035D02*
X203805Y486035D01*
X203805Y486975D02*
X189795Y486975D01*
X189795Y487915D02*
X203805Y487915D01*
X203805Y493095D02*
X189795Y493095D01*
X189795Y501105D01*
X203805Y501105D01*
X203805Y493095D01*
X203805Y494035D02*
X189795Y494035D01*
X189795Y494975D02*
X203805Y494975D01*
X203805Y495915D02*
X189795Y495915D01*
X189795Y496855D02*
X203805Y496855D01*
X203805Y497795D02*
X189795Y497795D01*
X189795Y498735D02*
X203805Y498735D01*
X203805Y499675D02*
X189795Y499675D01*
X189795Y500615D02*
X203805Y500615D01*
X203805Y505795D02*
X189795Y505795D01*
X189795Y513805D01*
X203805Y513805D01*
X203805Y505795D01*
X203805Y506735D02*
X189795Y506735D01*
X189795Y507675D02*
X203805Y507675D01*
X203805Y508615D02*
X189795Y508615D01*
X189795Y509555D02*
X203805Y509555D01*
X203805Y510495D02*
X189795Y510495D01*
X189795Y511435D02*
X203805Y511435D01*
X203805Y512375D02*
X189795Y512375D01*
X189795Y513315D02*
X203805Y513315D01*
D11*
X90230Y461620D02*
X83270Y461620D01*
X83270Y468580D01*
X90230Y468580D01*
X90230Y461620D01*
X90230Y462608D02*
X83270Y462608D01*
X83270Y463596D02*
X90230Y463596D01*
X90230Y464584D02*
X83270Y464584D01*
X83270Y465572D02*
X90230Y465572D01*
X90230Y466560D02*
X83270Y466560D01*
X83270Y467548D02*
X90230Y467548D01*
X90230Y468536D02*
X83270Y468536D01*
X83270Y449120D02*
X90230Y449120D01*
X83270Y449120D02*
X83270Y456080D01*
X90230Y456080D01*
X90230Y449120D01*
X90230Y450108D02*
X83270Y450108D01*
X83270Y451096D02*
X90230Y451096D01*
X90230Y452084D02*
X83270Y452084D01*
X83270Y453072D02*
X90230Y453072D01*
X90230Y454060D02*
X83270Y454060D01*
X83270Y455048D02*
X90230Y455048D01*
X90230Y456036D02*
X83270Y456036D01*
X83270Y436620D02*
X90230Y436620D01*
X83270Y436620D02*
X83270Y443580D01*
X90230Y443580D01*
X90230Y436620D01*
X90230Y437608D02*
X83270Y437608D01*
X83270Y438596D02*
X90230Y438596D01*
X90230Y439584D02*
X83270Y439584D01*
X83270Y440572D02*
X90230Y440572D01*
X90230Y441560D02*
X83270Y441560D01*
X83270Y442548D02*
X90230Y442548D01*
X90230Y443536D02*
X83270Y443536D01*
X95770Y436620D02*
X102730Y436620D01*
X95770Y436620D02*
X95770Y443580D01*
X102730Y443580D01*
X102730Y436620D01*
X102730Y437608D02*
X95770Y437608D01*
X95770Y438596D02*
X102730Y438596D01*
X102730Y439584D02*
X95770Y439584D01*
X95770Y440572D02*
X102730Y440572D01*
X102730Y441560D02*
X95770Y441560D01*
X95770Y442548D02*
X102730Y442548D01*
X102730Y443536D02*
X95770Y443536D01*
X108270Y436620D02*
X115230Y436620D01*
X108270Y436620D02*
X108270Y443580D01*
X115230Y443580D01*
X115230Y436620D01*
X115230Y437608D02*
X108270Y437608D01*
X108270Y438596D02*
X115230Y438596D01*
X115230Y439584D02*
X108270Y439584D01*
X108270Y440572D02*
X115230Y440572D01*
X115230Y441560D02*
X108270Y441560D01*
X108270Y442548D02*
X115230Y442548D01*
X115230Y443536D02*
X108270Y443536D01*
X108270Y449120D02*
X115230Y449120D01*
X108270Y449120D02*
X108270Y456080D01*
X115230Y456080D01*
X115230Y449120D01*
X115230Y450108D02*
X108270Y450108D01*
X108270Y451096D02*
X115230Y451096D01*
X115230Y452084D02*
X108270Y452084D01*
X108270Y453072D02*
X115230Y453072D01*
X115230Y454060D02*
X108270Y454060D01*
X108270Y455048D02*
X115230Y455048D01*
X115230Y456036D02*
X108270Y456036D01*
X108270Y461620D02*
X115230Y461620D01*
X108270Y461620D02*
X108270Y468580D01*
X115230Y468580D01*
X115230Y461620D01*
X115230Y462608D02*
X108270Y462608D01*
X108270Y463596D02*
X115230Y463596D01*
X115230Y464584D02*
X108270Y464584D01*
X108270Y465572D02*
X115230Y465572D01*
X115230Y466560D02*
X108270Y466560D01*
X108270Y467548D02*
X115230Y467548D01*
X115230Y468536D02*
X108270Y468536D01*
X102730Y461620D02*
X95770Y461620D01*
X95770Y468580D01*
X102730Y468580D01*
X102730Y461620D01*
X102730Y462608D02*
X95770Y462608D01*
X95770Y463596D02*
X102730Y463596D01*
X102730Y464584D02*
X95770Y464584D01*
X95770Y465572D02*
X102730Y465572D01*
X102730Y466560D02*
X95770Y466560D01*
X95770Y467548D02*
X102730Y467548D01*
X102730Y468536D02*
X95770Y468536D01*
X95770Y449120D02*
X102730Y449120D01*
X95770Y449120D02*
X95770Y456080D01*
X102730Y456080D01*
X102730Y449120D01*
X102730Y450108D02*
X95770Y450108D01*
X95770Y451096D02*
X102730Y451096D01*
X102730Y452084D02*
X95770Y452084D01*
X95770Y453072D02*
X102730Y453072D01*
X102730Y454060D02*
X95770Y454060D01*
X95770Y455048D02*
X102730Y455048D01*
X102730Y456036D02*
X95770Y456036D01*
D12*
X120810Y55610D02*
X122790Y55610D01*
X120810Y55610D02*
X120810Y64590D01*
X122790Y64590D01*
X122790Y55610D01*
X122790Y56579D02*
X120810Y56579D01*
X120810Y57548D02*
X122790Y57548D01*
X122790Y58517D02*
X120810Y58517D01*
X120810Y59486D02*
X122790Y59486D01*
X122790Y60455D02*
X120810Y60455D01*
X120810Y61424D02*
X122790Y61424D01*
X122790Y62393D02*
X120810Y62393D01*
X120810Y63362D02*
X122790Y63362D01*
X122790Y64331D02*
X120810Y64331D01*
X117790Y55610D02*
X115810Y55610D01*
X115810Y64590D01*
X117790Y64590D01*
X117790Y55610D01*
X117790Y56579D02*
X115810Y56579D01*
X115810Y57548D02*
X117790Y57548D01*
X117790Y58517D02*
X115810Y58517D01*
X115810Y59486D02*
X117790Y59486D01*
X117790Y60455D02*
X115810Y60455D01*
X115810Y61424D02*
X117790Y61424D01*
X117790Y62393D02*
X115810Y62393D01*
X115810Y63362D02*
X117790Y63362D01*
X117790Y64331D02*
X115810Y64331D01*
X144060Y55610D02*
X149040Y55610D01*
X144060Y55610D02*
X144060Y64590D01*
X149040Y64590D01*
X149040Y55610D01*
X149040Y56579D02*
X144060Y56579D01*
X144060Y57548D02*
X149040Y57548D01*
X149040Y58517D02*
X144060Y58517D01*
X144060Y59486D02*
X149040Y59486D01*
X149040Y60455D02*
X144060Y60455D01*
X144060Y61424D02*
X149040Y61424D01*
X149040Y62393D02*
X144060Y62393D01*
X144060Y63362D02*
X149040Y63362D01*
X149040Y64331D02*
X144060Y64331D01*
X141290Y55610D02*
X136310Y55610D01*
X136310Y64590D01*
X141290Y64590D01*
X141290Y55610D01*
X141290Y56579D02*
X136310Y56579D01*
X136310Y57548D02*
X141290Y57548D01*
X141290Y58517D02*
X136310Y58517D01*
X136310Y59486D02*
X141290Y59486D01*
X141290Y60455D02*
X136310Y60455D01*
X136310Y61424D02*
X141290Y61424D01*
X141290Y62393D02*
X136310Y62393D01*
X136310Y63362D02*
X141290Y63362D01*
X141290Y64331D02*
X136310Y64331D01*
X132790Y55610D02*
X130810Y55610D01*
X130810Y64590D01*
X132790Y64590D01*
X132790Y55610D01*
X132790Y56579D02*
X130810Y56579D01*
X130810Y57548D02*
X132790Y57548D01*
X132790Y58517D02*
X130810Y58517D01*
X130810Y59486D02*
X132790Y59486D01*
X132790Y60455D02*
X130810Y60455D01*
X130810Y61424D02*
X132790Y61424D01*
X132790Y62393D02*
X130810Y62393D01*
X130810Y63362D02*
X132790Y63362D01*
X132790Y64331D02*
X130810Y64331D01*
X127790Y55610D02*
X125810Y55610D01*
X125810Y64590D01*
X127790Y64590D01*
X127790Y55610D01*
X127790Y56579D02*
X125810Y56579D01*
X125810Y57548D02*
X127790Y57548D01*
X127790Y58517D02*
X125810Y58517D01*
X125810Y59486D02*
X127790Y59486D01*
X127790Y60455D02*
X125810Y60455D01*
X125810Y61424D02*
X127790Y61424D01*
X127790Y62393D02*
X125810Y62393D01*
X125810Y63362D02*
X127790Y63362D01*
X127790Y64331D02*
X125810Y64331D01*
X107790Y64590D02*
X105810Y64590D01*
X107790Y64590D02*
X107790Y55610D01*
X105810Y55610D01*
X105810Y64590D01*
X105810Y56579D02*
X107790Y56579D01*
X107790Y57548D02*
X105810Y57548D01*
X105810Y58517D02*
X107790Y58517D01*
X107790Y59486D02*
X105810Y59486D01*
X105810Y60455D02*
X107790Y60455D01*
X107790Y61424D02*
X105810Y61424D01*
X105810Y62393D02*
X107790Y62393D01*
X107790Y63362D02*
X105810Y63362D01*
X105810Y64331D02*
X107790Y64331D01*
X110810Y64590D02*
X112790Y64590D01*
X112790Y55610D01*
X110810Y55610D01*
X110810Y64590D01*
X110810Y56579D02*
X112790Y56579D01*
X112790Y57548D02*
X110810Y57548D01*
X110810Y58517D02*
X112790Y58517D01*
X112790Y59486D02*
X110810Y59486D01*
X110810Y60455D02*
X112790Y60455D01*
X112790Y61424D02*
X110810Y61424D01*
X110810Y62393D02*
X112790Y62393D01*
X112790Y63362D02*
X110810Y63362D01*
X110810Y64331D02*
X112790Y64331D01*
X84540Y64590D02*
X79560Y64590D01*
X84540Y64590D02*
X84540Y55610D01*
X79560Y55610D01*
X79560Y64590D01*
X79560Y56579D02*
X84540Y56579D01*
X84540Y57548D02*
X79560Y57548D01*
X79560Y58517D02*
X84540Y58517D01*
X84540Y59486D02*
X79560Y59486D01*
X79560Y60455D02*
X84540Y60455D01*
X84540Y61424D02*
X79560Y61424D01*
X79560Y62393D02*
X84540Y62393D01*
X84540Y63362D02*
X79560Y63362D01*
X79560Y64331D02*
X84540Y64331D01*
X87310Y64590D02*
X92290Y64590D01*
X92290Y55610D01*
X87310Y55610D01*
X87310Y64590D01*
X87310Y56579D02*
X92290Y56579D01*
X92290Y57548D02*
X87310Y57548D01*
X87310Y58517D02*
X92290Y58517D01*
X92290Y59486D02*
X87310Y59486D01*
X87310Y60455D02*
X92290Y60455D01*
X92290Y61424D02*
X87310Y61424D01*
X87310Y62393D02*
X92290Y62393D01*
X92290Y63362D02*
X87310Y63362D01*
X87310Y64331D02*
X92290Y64331D01*
X95810Y64590D02*
X97790Y64590D01*
X97790Y55610D01*
X95810Y55610D01*
X95810Y64590D01*
X95810Y56579D02*
X97790Y56579D01*
X97790Y57548D02*
X95810Y57548D01*
X95810Y58517D02*
X97790Y58517D01*
X97790Y59486D02*
X95810Y59486D01*
X95810Y60455D02*
X97790Y60455D01*
X97790Y61424D02*
X95810Y61424D01*
X95810Y62393D02*
X97790Y62393D01*
X97790Y63362D02*
X95810Y63362D01*
X95810Y64331D02*
X97790Y64331D01*
X100810Y64590D02*
X102790Y64590D01*
X102790Y55610D01*
X100810Y55610D01*
X100810Y64590D01*
X100810Y56579D02*
X102790Y56579D01*
X102790Y57548D02*
X100810Y57548D01*
X100810Y58517D02*
X102790Y58517D01*
X102790Y59486D02*
X100810Y59486D01*
X100810Y60455D02*
X102790Y60455D01*
X102790Y61424D02*
X100810Y61424D01*
X100810Y62393D02*
X102790Y62393D01*
X102790Y63362D02*
X100810Y63362D01*
X100810Y64331D02*
X102790Y64331D01*
D13*
X143200Y80700D02*
X153200Y80700D01*
X153200Y71700D01*
X143200Y71700D01*
X143200Y80700D01*
X143200Y72650D02*
X153200Y72650D01*
X153200Y73600D02*
X143200Y73600D01*
X143200Y74550D02*
X153200Y74550D01*
X153200Y75500D02*
X143200Y75500D01*
X143200Y76450D02*
X153200Y76450D01*
X153200Y77400D02*
X143200Y77400D01*
X143200Y78350D02*
X153200Y78350D01*
X153200Y79300D02*
X143200Y79300D01*
X143200Y80250D02*
X153200Y80250D01*
X136200Y80700D02*
X126200Y80700D01*
X136200Y80700D02*
X136200Y71700D01*
X126200Y71700D01*
X126200Y80700D01*
X126200Y72650D02*
X136200Y72650D01*
X136200Y73600D02*
X126200Y73600D01*
X126200Y74550D02*
X136200Y74550D01*
X136200Y75500D02*
X126200Y75500D01*
X126200Y76450D02*
X136200Y76450D01*
X136200Y77400D02*
X126200Y77400D01*
X126200Y78350D02*
X136200Y78350D01*
X136200Y79300D02*
X126200Y79300D01*
X126200Y80250D02*
X136200Y80250D01*
X85400Y71700D02*
X75400Y71700D01*
X75400Y80700D01*
X85400Y80700D01*
X85400Y71700D01*
X85400Y72650D02*
X75400Y72650D01*
X75400Y73600D02*
X85400Y73600D01*
X85400Y74550D02*
X75400Y74550D01*
X75400Y75500D02*
X85400Y75500D01*
X85400Y76450D02*
X75400Y76450D01*
X75400Y77400D02*
X85400Y77400D01*
X85400Y78350D02*
X75400Y78350D01*
X75400Y79300D02*
X85400Y79300D01*
X85400Y80250D02*
X75400Y80250D01*
X92400Y71700D02*
X102400Y71700D01*
X92400Y71700D02*
X92400Y80700D01*
X102400Y80700D01*
X102400Y71700D01*
X102400Y72650D02*
X92400Y72650D01*
X92400Y73600D02*
X102400Y73600D01*
X102400Y74550D02*
X92400Y74550D01*
X92400Y75500D02*
X102400Y75500D01*
X102400Y76450D02*
X92400Y76450D01*
X92400Y77400D02*
X102400Y77400D01*
X102400Y78350D02*
X92400Y78350D01*
X92400Y79300D02*
X102400Y79300D01*
X102400Y80250D02*
X92400Y80250D01*
X95060Y163300D02*
X95060Y172300D01*
X95060Y163300D02*
X50060Y163300D01*
X50060Y172300D01*
X95060Y172300D01*
X95060Y164250D02*
X50060Y164250D01*
X50060Y165200D02*
X95060Y165200D01*
X95060Y166150D02*
X50060Y166150D01*
X50060Y167100D02*
X95060Y167100D01*
X95060Y168050D02*
X50060Y168050D01*
X50060Y169000D02*
X95060Y169000D01*
X95060Y169950D02*
X50060Y169950D01*
X50060Y170900D02*
X95060Y170900D01*
X95060Y171850D02*
X50060Y171850D01*
X95060Y183300D02*
X95060Y192300D01*
X95060Y183300D02*
X50060Y183300D01*
X50060Y192300D01*
X95060Y192300D01*
X95060Y184250D02*
X50060Y184250D01*
X50060Y185200D02*
X95060Y185200D01*
X95060Y186150D02*
X50060Y186150D01*
X50060Y187100D02*
X95060Y187100D01*
X95060Y188050D02*
X50060Y188050D01*
X50060Y189000D02*
X95060Y189000D01*
X95060Y189950D02*
X50060Y189950D01*
X50060Y190900D02*
X95060Y190900D01*
X95060Y191850D02*
X50060Y191850D01*
D14*
X37080Y151320D02*
X4040Y151320D01*
X37080Y151320D02*
X37080Y136280D01*
X4040Y136280D01*
X4040Y151320D01*
X4040Y137192D02*
X37080Y137192D01*
X37080Y138104D02*
X4040Y138104D01*
X4040Y139016D02*
X37080Y139016D01*
X37080Y139928D02*
X4040Y139928D01*
X4040Y140840D02*
X37080Y140840D01*
X37080Y141752D02*
X4040Y141752D01*
X4040Y142664D02*
X37080Y142664D01*
X37080Y143576D02*
X4040Y143576D01*
X4040Y144488D02*
X37080Y144488D01*
X37080Y145400D02*
X4040Y145400D01*
X4040Y146312D02*
X37080Y146312D01*
X37080Y147224D02*
X4040Y147224D01*
X4040Y148136D02*
X37080Y148136D01*
X37080Y149048D02*
X4040Y149048D01*
X4040Y149960D02*
X37080Y149960D01*
X37080Y150872D02*
X4040Y150872D01*
X4040Y219320D02*
X37080Y219320D01*
X37080Y204280D01*
X4040Y204280D01*
X4040Y219320D01*
X4040Y205192D02*
X37080Y205192D01*
X37080Y206104D02*
X4040Y206104D01*
X4040Y207016D02*
X37080Y207016D01*
X37080Y207928D02*
X4040Y207928D01*
X4040Y208840D02*
X37080Y208840D01*
X37080Y209752D02*
X4040Y209752D01*
X4040Y210664D02*
X37080Y210664D01*
X37080Y211576D02*
X4040Y211576D01*
X4040Y212488D02*
X37080Y212488D01*
X37080Y213400D02*
X4040Y213400D01*
X4040Y214312D02*
X37080Y214312D01*
X37080Y215224D02*
X4040Y215224D01*
X4040Y216136D02*
X37080Y216136D01*
X37080Y217048D02*
X4040Y217048D01*
X4040Y217960D02*
X37080Y217960D01*
X37080Y218872D02*
X4040Y218872D01*
X4530Y122420D02*
X4530Y111380D01*
X4530Y122420D02*
X23570Y122420D01*
X23570Y111380D01*
X4530Y111380D01*
X4530Y112292D02*
X23570Y112292D01*
X23570Y113204D02*
X4530Y113204D01*
X4530Y114116D02*
X23570Y114116D01*
X23570Y115028D02*
X4530Y115028D01*
X4530Y115940D02*
X23570Y115940D01*
X23570Y116852D02*
X4530Y116852D01*
X4530Y117764D02*
X23570Y117764D01*
X23570Y118676D02*
X4530Y118676D01*
X4530Y119588D02*
X23570Y119588D01*
X23570Y120500D02*
X4530Y120500D01*
X4530Y121412D02*
X23570Y121412D01*
X23570Y122324D02*
X4530Y122324D01*
X4530Y66420D02*
X4530Y55380D01*
X4530Y66420D02*
X23570Y66420D01*
X23570Y55380D01*
X4530Y55380D01*
X4530Y56292D02*
X23570Y56292D01*
X23570Y57204D02*
X4530Y57204D01*
X4530Y58116D02*
X23570Y58116D01*
X23570Y59028D02*
X4530Y59028D01*
X4530Y59940D02*
X23570Y59940D01*
X23570Y60852D02*
X4530Y60852D01*
X4530Y61764D02*
X23570Y61764D01*
X23570Y62676D02*
X4530Y62676D01*
X4530Y63588D02*
X23570Y63588D01*
X23570Y64500D02*
X4530Y64500D01*
X4530Y65412D02*
X23570Y65412D01*
X23570Y66324D02*
X4530Y66324D01*
D12*
X44560Y101410D02*
X44560Y106390D01*
X57040Y106390D01*
X57040Y101410D01*
X44560Y101410D01*
X44560Y102379D02*
X57040Y102379D01*
X57040Y103348D02*
X44560Y103348D01*
X44560Y104317D02*
X57040Y104317D01*
X57040Y105286D02*
X44560Y105286D01*
X44560Y106255D02*
X57040Y106255D01*
X44560Y96390D02*
X44560Y91410D01*
X44560Y96390D02*
X57040Y96390D01*
X57040Y91410D01*
X44560Y91410D01*
X44560Y92379D02*
X57040Y92379D01*
X57040Y93348D02*
X44560Y93348D01*
X44560Y94317D02*
X57040Y94317D01*
X57040Y95286D02*
X44560Y95286D01*
X44560Y96255D02*
X57040Y96255D01*
X44560Y86390D02*
X44560Y81410D01*
X44560Y86390D02*
X57040Y86390D01*
X57040Y81410D01*
X44560Y81410D01*
X44560Y82379D02*
X57040Y82379D01*
X57040Y83348D02*
X44560Y83348D01*
X44560Y84317D02*
X57040Y84317D01*
X57040Y85286D02*
X44560Y85286D01*
X44560Y86255D02*
X57040Y86255D01*
X44560Y76390D02*
X44560Y71410D01*
X44560Y76390D02*
X57040Y76390D01*
X57040Y71410D01*
X44560Y71410D01*
X44560Y72379D02*
X57040Y72379D01*
X57040Y73348D02*
X44560Y73348D01*
X44560Y74317D02*
X57040Y74317D01*
X57040Y75286D02*
X44560Y75286D01*
X44560Y76255D02*
X57040Y76255D01*
D10*
X206995Y117795D02*
X215005Y117795D01*
X206995Y117795D02*
X206995Y126805D01*
X215005Y126805D01*
X215005Y117795D01*
X215005Y118735D02*
X206995Y118735D01*
X206995Y119675D02*
X215005Y119675D01*
X215005Y120615D02*
X206995Y120615D01*
X206995Y121555D02*
X215005Y121555D01*
X215005Y122495D02*
X206995Y122495D01*
X206995Y123435D02*
X215005Y123435D01*
X215005Y124375D02*
X206995Y124375D01*
X206995Y125315D02*
X215005Y125315D01*
X215005Y126255D02*
X206995Y126255D01*
X206995Y101795D02*
X215005Y101795D01*
X206995Y101795D02*
X206995Y110805D01*
X215005Y110805D01*
X215005Y101795D01*
X215005Y102735D02*
X206995Y102735D01*
X206995Y103675D02*
X215005Y103675D01*
X215005Y104615D02*
X206995Y104615D01*
X206995Y105555D02*
X215005Y105555D01*
X215005Y106495D02*
X206995Y106495D01*
X206995Y107435D02*
X215005Y107435D01*
X215005Y108375D02*
X206995Y108375D01*
X206995Y109315D02*
X215005Y109315D01*
X215005Y110255D02*
X206995Y110255D01*
X174005Y101795D02*
X165995Y101795D01*
X165995Y110805D01*
X174005Y110805D01*
X174005Y101795D01*
X174005Y102735D02*
X165995Y102735D01*
X165995Y103675D02*
X174005Y103675D01*
X174005Y104615D02*
X165995Y104615D01*
X165995Y105555D02*
X174005Y105555D01*
X174005Y106495D02*
X165995Y106495D01*
X165995Y107435D02*
X174005Y107435D01*
X174005Y108375D02*
X165995Y108375D01*
X165995Y109315D02*
X174005Y109315D01*
X174005Y110255D02*
X165995Y110255D01*
X165995Y117795D02*
X174005Y117795D01*
X165995Y117795D02*
X165995Y126805D01*
X174005Y126805D01*
X174005Y117795D01*
X174005Y118735D02*
X165995Y118735D01*
X165995Y119675D02*
X174005Y119675D01*
X174005Y120615D02*
X165995Y120615D01*
X165995Y121555D02*
X174005Y121555D01*
X174005Y122495D02*
X165995Y122495D01*
X165995Y123435D02*
X174005Y123435D01*
X174005Y124375D02*
X165995Y124375D01*
X165995Y125315D02*
X174005Y125315D01*
X174005Y126255D02*
X165995Y126255D01*
X206995Y79695D02*
X215005Y79695D01*
X206995Y79695D02*
X206995Y88705D01*
X215005Y88705D01*
X215005Y79695D01*
X215005Y80635D02*
X206995Y80635D01*
X206995Y81575D02*
X215005Y81575D01*
X215005Y82515D02*
X206995Y82515D01*
X206995Y83455D02*
X215005Y83455D01*
X215005Y84395D02*
X206995Y84395D01*
X206995Y85335D02*
X215005Y85335D01*
X215005Y86275D02*
X206995Y86275D01*
X206995Y87215D02*
X215005Y87215D01*
X215005Y88155D02*
X206995Y88155D01*
X206995Y63695D02*
X215005Y63695D01*
X206995Y63695D02*
X206995Y72705D01*
X215005Y72705D01*
X215005Y63695D01*
X215005Y64635D02*
X206995Y64635D01*
X206995Y65575D02*
X215005Y65575D01*
X215005Y66515D02*
X206995Y66515D01*
X206995Y67455D02*
X215005Y67455D01*
X215005Y68395D02*
X206995Y68395D01*
X206995Y69335D02*
X215005Y69335D01*
X215005Y70275D02*
X206995Y70275D01*
X206995Y71215D02*
X215005Y71215D01*
X215005Y72155D02*
X206995Y72155D01*
X174005Y63695D02*
X165995Y63695D01*
X165995Y72705D01*
X174005Y72705D01*
X174005Y63695D01*
X174005Y64635D02*
X165995Y64635D01*
X165995Y65575D02*
X174005Y65575D01*
X174005Y66515D02*
X165995Y66515D01*
X165995Y67455D02*
X174005Y67455D01*
X174005Y68395D02*
X165995Y68395D01*
X165995Y69335D02*
X174005Y69335D01*
X174005Y70275D02*
X165995Y70275D01*
X165995Y71215D02*
X174005Y71215D01*
X174005Y72155D02*
X165995Y72155D01*
X165995Y79695D02*
X174005Y79695D01*
X165995Y79695D02*
X165995Y88705D01*
X174005Y88705D01*
X174005Y79695D01*
X174005Y80635D02*
X165995Y80635D01*
X165995Y81575D02*
X174005Y81575D01*
X174005Y82515D02*
X165995Y82515D01*
X165995Y83455D02*
X174005Y83455D01*
X174005Y84395D02*
X165995Y84395D01*
X165995Y85335D02*
X174005Y85335D01*
X174005Y86275D02*
X165995Y86275D01*
X165995Y87215D02*
X174005Y87215D01*
X174005Y88155D02*
X165995Y88155D01*
X107055Y260894D02*
X102545Y260894D01*
X102545Y271904D01*
X107055Y271904D01*
X107055Y260894D01*
X107055Y261834D02*
X102545Y261834D01*
X102545Y262774D02*
X107055Y262774D01*
X107055Y263714D02*
X102545Y263714D01*
X102545Y264654D02*
X107055Y264654D01*
X107055Y265594D02*
X102545Y265594D01*
X102545Y266534D02*
X107055Y266534D01*
X107055Y267474D02*
X102545Y267474D01*
X102545Y268414D02*
X107055Y268414D01*
X107055Y269354D02*
X102545Y269354D01*
X102545Y270294D02*
X107055Y270294D01*
X107055Y271234D02*
X102545Y271234D01*
X112045Y260894D02*
X116555Y260894D01*
X112045Y260894D02*
X112045Y271904D01*
X116555Y271904D01*
X116555Y260894D01*
X116555Y261834D02*
X112045Y261834D01*
X112045Y262774D02*
X116555Y262774D01*
X116555Y263714D02*
X112045Y263714D01*
X112045Y264654D02*
X116555Y264654D01*
X116555Y265594D02*
X112045Y265594D01*
X112045Y266534D02*
X116555Y266534D01*
X116555Y267474D02*
X112045Y267474D01*
X112045Y268414D02*
X116555Y268414D01*
X116555Y269354D02*
X112045Y269354D01*
X112045Y270294D02*
X116555Y270294D01*
X116555Y271234D02*
X112045Y271234D01*
X121545Y260894D02*
X126055Y260894D01*
X121545Y260894D02*
X121545Y271904D01*
X126055Y271904D01*
X126055Y260894D01*
X126055Y261834D02*
X121545Y261834D01*
X121545Y262774D02*
X126055Y262774D01*
X126055Y263714D02*
X121545Y263714D01*
X121545Y264654D02*
X126055Y264654D01*
X126055Y265594D02*
X121545Y265594D01*
X121545Y266534D02*
X126055Y266534D01*
X126055Y267474D02*
X121545Y267474D01*
X121545Y268414D02*
X126055Y268414D01*
X126055Y269354D02*
X121545Y269354D01*
X121545Y270294D02*
X126055Y270294D01*
X126055Y271234D02*
X121545Y271234D01*
X121545Y286896D02*
X126055Y286896D01*
X121545Y286896D02*
X121545Y297906D01*
X126055Y297906D01*
X126055Y286896D01*
X126055Y287836D02*
X121545Y287836D01*
X121545Y288776D02*
X126055Y288776D01*
X126055Y289716D02*
X121545Y289716D01*
X121545Y290656D02*
X126055Y290656D01*
X126055Y291596D02*
X121545Y291596D01*
X121545Y292536D02*
X126055Y292536D01*
X126055Y293476D02*
X121545Y293476D01*
X121545Y294416D02*
X126055Y294416D01*
X126055Y295356D02*
X121545Y295356D01*
X121545Y296296D02*
X126055Y296296D01*
X126055Y297236D02*
X121545Y297236D01*
X107055Y286896D02*
X102545Y286896D01*
X102545Y297906D01*
X107055Y297906D01*
X107055Y286896D01*
X107055Y287836D02*
X102545Y287836D01*
X102545Y288776D02*
X107055Y288776D01*
X107055Y289716D02*
X102545Y289716D01*
X102545Y290656D02*
X107055Y290656D01*
X107055Y291596D02*
X102545Y291596D01*
X102545Y292536D02*
X107055Y292536D01*
X107055Y293476D02*
X102545Y293476D01*
X102545Y294416D02*
X107055Y294416D01*
X107055Y295356D02*
X102545Y295356D01*
X102545Y296296D02*
X107055Y296296D01*
X107055Y297236D02*
X102545Y297236D01*
D11*
X101320Y163820D02*
X108280Y163820D01*
X101320Y163820D02*
X101320Y171780D01*
X108280Y171780D01*
X108280Y163820D01*
X108280Y164808D02*
X101320Y164808D01*
X101320Y165796D02*
X108280Y165796D01*
X108280Y166784D02*
X101320Y166784D01*
X101320Y167772D02*
X108280Y167772D01*
X108280Y168760D02*
X101320Y168760D01*
X101320Y169748D02*
X108280Y169748D01*
X108280Y170736D02*
X101320Y170736D01*
X101320Y171724D02*
X108280Y171724D01*
X120320Y163820D02*
X127280Y163820D01*
X120320Y163820D02*
X120320Y171780D01*
X127280Y171780D01*
X127280Y163820D01*
X127280Y164808D02*
X120320Y164808D01*
X120320Y165796D02*
X127280Y165796D01*
X127280Y166784D02*
X120320Y166784D01*
X120320Y167772D02*
X127280Y167772D01*
X127280Y168760D02*
X120320Y168760D01*
X120320Y169748D02*
X127280Y169748D01*
X127280Y170736D02*
X120320Y170736D01*
X120320Y171724D02*
X127280Y171724D01*
X117780Y184820D02*
X110820Y184820D01*
X110820Y192780D01*
X117780Y192780D01*
X117780Y184820D01*
X117780Y185808D02*
X110820Y185808D01*
X110820Y186796D02*
X117780Y186796D01*
X117780Y187784D02*
X110820Y187784D01*
X110820Y188772D02*
X117780Y188772D01*
X117780Y189760D02*
X110820Y189760D01*
X110820Y190748D02*
X117780Y190748D01*
X117780Y191736D02*
X110820Y191736D01*
X110820Y192724D02*
X117780Y192724D01*
D15*
X123154Y156046D02*
X128446Y156046D01*
X128446Y148754D01*
X123154Y148754D01*
X123154Y156046D01*
X123154Y149712D02*
X128446Y149712D01*
X128446Y150670D02*
X123154Y150670D01*
X123154Y151628D02*
X128446Y151628D01*
X128446Y152586D02*
X123154Y152586D01*
X123154Y153544D02*
X128446Y153544D01*
X128446Y154502D02*
X123154Y154502D01*
X123154Y155460D02*
X128446Y155460D01*
X105446Y156046D02*
X100154Y156046D01*
X105446Y156046D02*
X105446Y148754D01*
X100154Y148754D01*
X100154Y156046D01*
X100154Y149712D02*
X105446Y149712D01*
X105446Y150670D02*
X100154Y150670D01*
X100154Y151628D02*
X105446Y151628D01*
X105446Y152586D02*
X100154Y152586D01*
X100154Y153544D02*
X105446Y153544D01*
X105446Y154502D02*
X100154Y154502D01*
X100154Y155460D02*
X105446Y155460D01*
D10*
X159645Y183606D02*
X164155Y183606D01*
X164155Y172596D01*
X159645Y172596D01*
X159645Y183606D01*
X159645Y173536D02*
X164155Y173536D01*
X164155Y174476D02*
X159645Y174476D01*
X159645Y175416D02*
X164155Y175416D01*
X164155Y176356D02*
X159645Y176356D01*
X159645Y177296D02*
X164155Y177296D01*
X164155Y178236D02*
X159645Y178236D01*
X159645Y179176D02*
X164155Y179176D01*
X164155Y180116D02*
X159645Y180116D01*
X159645Y181056D02*
X164155Y181056D01*
X164155Y181996D02*
X159645Y181996D01*
X159645Y182936D02*
X164155Y182936D01*
X154655Y183606D02*
X150145Y183606D01*
X154655Y183606D02*
X154655Y172596D01*
X150145Y172596D01*
X150145Y183606D01*
X150145Y173536D02*
X154655Y173536D01*
X154655Y174476D02*
X150145Y174476D01*
X150145Y175416D02*
X154655Y175416D01*
X154655Y176356D02*
X150145Y176356D01*
X150145Y177296D02*
X154655Y177296D01*
X154655Y178236D02*
X150145Y178236D01*
X150145Y179176D02*
X154655Y179176D01*
X154655Y180116D02*
X150145Y180116D01*
X150145Y181056D02*
X154655Y181056D01*
X154655Y181996D02*
X150145Y181996D01*
X150145Y182936D02*
X154655Y182936D01*
X145155Y183606D02*
X140645Y183606D01*
X145155Y183606D02*
X145155Y172596D01*
X140645Y172596D01*
X140645Y183606D01*
X140645Y173536D02*
X145155Y173536D01*
X145155Y174476D02*
X140645Y174476D01*
X140645Y175416D02*
X145155Y175416D01*
X145155Y176356D02*
X140645Y176356D01*
X140645Y177296D02*
X145155Y177296D01*
X145155Y178236D02*
X140645Y178236D01*
X140645Y179176D02*
X145155Y179176D01*
X145155Y180116D02*
X140645Y180116D01*
X140645Y181056D02*
X145155Y181056D01*
X145155Y181996D02*
X140645Y181996D01*
X140645Y182936D02*
X145155Y182936D01*
X145155Y157604D02*
X140645Y157604D01*
X145155Y157604D02*
X145155Y146594D01*
X140645Y146594D01*
X140645Y157604D01*
X140645Y147534D02*
X145155Y147534D01*
X145155Y148474D02*
X140645Y148474D01*
X140645Y149414D02*
X145155Y149414D01*
X145155Y150354D02*
X140645Y150354D01*
X140645Y151294D02*
X145155Y151294D01*
X145155Y152234D02*
X140645Y152234D01*
X140645Y153174D02*
X145155Y153174D01*
X145155Y154114D02*
X140645Y154114D01*
X140645Y155054D02*
X145155Y155054D01*
X145155Y155994D02*
X140645Y155994D01*
X140645Y156934D02*
X145155Y156934D01*
X159645Y157604D02*
X164155Y157604D01*
X164155Y146594D01*
X159645Y146594D01*
X159645Y157604D01*
X159645Y147534D02*
X164155Y147534D01*
X164155Y148474D02*
X159645Y148474D01*
X159645Y149414D02*
X164155Y149414D01*
X164155Y150354D02*
X159645Y150354D01*
X159645Y151294D02*
X164155Y151294D01*
X164155Y152234D02*
X159645Y152234D01*
X159645Y153174D02*
X164155Y153174D01*
X164155Y154114D02*
X159645Y154114D01*
X159645Y155054D02*
X164155Y155054D01*
X164155Y155994D02*
X159645Y155994D01*
X159645Y156934D02*
X164155Y156934D01*
D13*
X146850Y137850D02*
X136850Y137850D01*
X146850Y137850D02*
X146850Y128850D01*
X136850Y128850D01*
X136850Y137850D01*
X136850Y129800D02*
X146850Y129800D01*
X146850Y130750D02*
X136850Y130750D01*
X136850Y131700D02*
X146850Y131700D01*
X146850Y132650D02*
X136850Y132650D01*
X136850Y133600D02*
X146850Y133600D01*
X146850Y134550D02*
X136850Y134550D01*
X136850Y135500D02*
X146850Y135500D01*
X146850Y136450D02*
X136850Y136450D01*
X136850Y137400D02*
X146850Y137400D01*
X129850Y137850D02*
X119850Y137850D01*
X129850Y137850D02*
X129850Y128850D01*
X119850Y128850D01*
X119850Y137850D01*
X119850Y129800D02*
X129850Y129800D01*
X129850Y130750D02*
X119850Y130750D01*
X119850Y131700D02*
X129850Y131700D01*
X129850Y132650D02*
X119850Y132650D01*
X119850Y133600D02*
X129850Y133600D01*
X129850Y134550D02*
X119850Y134550D01*
X119850Y135500D02*
X129850Y135500D01*
X129850Y136450D02*
X119850Y136450D01*
X119850Y137400D02*
X129850Y137400D01*
X138900Y192350D02*
X148900Y192350D01*
X138900Y192350D02*
X138900Y201350D01*
X148900Y201350D01*
X148900Y192350D01*
X148900Y193300D02*
X138900Y193300D01*
X138900Y194250D02*
X148900Y194250D01*
X148900Y195200D02*
X138900Y195200D01*
X138900Y196150D02*
X148900Y196150D01*
X148900Y197100D02*
X138900Y197100D01*
X138900Y198050D02*
X148900Y198050D01*
X148900Y199000D02*
X138900Y199000D01*
X138900Y199950D02*
X148900Y199950D01*
X148900Y200900D02*
X138900Y200900D01*
X155900Y192350D02*
X165900Y192350D01*
X155900Y192350D02*
X155900Y201350D01*
X165900Y201350D01*
X165900Y192350D01*
X165900Y193300D02*
X155900Y193300D01*
X155900Y194250D02*
X165900Y194250D01*
X165900Y195200D02*
X155900Y195200D01*
X155900Y196150D02*
X165900Y196150D01*
X165900Y197100D02*
X155900Y197100D01*
X155900Y198050D02*
X165900Y198050D01*
X165900Y199000D02*
X155900Y199000D01*
X155900Y199950D02*
X165900Y199950D01*
X165900Y200900D02*
X155900Y200900D01*
D16*
X155250Y223330D02*
X162250Y223330D01*
X162250Y216330D01*
X155250Y216330D01*
X155250Y223330D01*
X155250Y219180D02*
X162250Y219180D01*
X162250Y222030D02*
X155250Y222030D01*
X155250Y240870D02*
X162250Y240870D01*
X162250Y233870D01*
X155250Y233870D01*
X155250Y240870D01*
X155250Y236720D02*
X162250Y236720D01*
X162250Y239570D02*
X155250Y239570D01*
X87820Y307650D02*
X87820Y314650D01*
X94820Y314650D01*
X94820Y307650D01*
X87820Y307650D01*
X87820Y310500D02*
X94820Y310500D01*
X94820Y313350D02*
X87820Y313350D01*
X70280Y314650D02*
X70280Y307650D01*
X70280Y314650D02*
X77280Y314650D01*
X77280Y307650D01*
X70280Y307650D01*
X70280Y310500D02*
X77280Y310500D01*
X77280Y313350D02*
X70280Y313350D01*
D13*
X124150Y315650D02*
X134150Y315650D01*
X134150Y306650D01*
X124150Y306650D01*
X124150Y315650D01*
X124150Y307600D02*
X134150Y307600D01*
X134150Y308550D02*
X124150Y308550D01*
X124150Y309500D02*
X134150Y309500D01*
X134150Y310450D02*
X124150Y310450D01*
X124150Y311400D02*
X134150Y311400D01*
X134150Y312350D02*
X124150Y312350D01*
X124150Y313300D02*
X134150Y313300D01*
X134150Y314250D02*
X124150Y314250D01*
X124150Y315200D02*
X134150Y315200D01*
X117150Y315650D02*
X107150Y315650D01*
X117150Y315650D02*
X117150Y306650D01*
X107150Y306650D01*
X107150Y315650D01*
X107150Y307600D02*
X117150Y307600D01*
X117150Y308550D02*
X107150Y308550D01*
X107150Y309500D02*
X117150Y309500D01*
X117150Y310450D02*
X107150Y310450D01*
X107150Y311400D02*
X117150Y311400D01*
X117150Y312350D02*
X107150Y312350D01*
X107150Y313300D02*
X117150Y313300D01*
X117150Y314250D02*
X107150Y314250D01*
X107150Y315200D02*
X117150Y315200D01*
D17*
X73688Y259200D03*
X53313Y264200D03*
X53313Y259200D03*
X53313Y269200D03*
X53313Y274200D03*
X73688Y264200D03*
X73688Y269200D03*
X73688Y274200D03*
D18*
X63500Y270100D03*
X63500Y263300D03*
D19*
X158575Y307325D02*
X164525Y307325D01*
X158575Y307325D02*
X158575Y313275D01*
X164525Y313275D01*
X164525Y307325D01*
X164525Y308322D02*
X158575Y308322D01*
X158575Y309319D02*
X164525Y309319D01*
X164525Y310316D02*
X158575Y310316D01*
X158575Y311313D02*
X164525Y311313D01*
X164525Y312310D02*
X158575Y312310D01*
X158575Y296325D02*
X164525Y296325D01*
X158575Y296325D02*
X158575Y302275D01*
X164525Y302275D01*
X164525Y296325D01*
X164525Y297322D02*
X158575Y297322D01*
X158575Y298319D02*
X164525Y298319D01*
X164525Y299316D02*
X158575Y299316D01*
X158575Y300313D02*
X164525Y300313D01*
X164525Y301310D02*
X158575Y301310D01*
X146225Y296325D02*
X140275Y296325D01*
X140275Y302275D01*
X146225Y302275D01*
X146225Y296325D01*
X146225Y297322D02*
X140275Y297322D01*
X140275Y298319D02*
X146225Y298319D01*
X146225Y299316D02*
X140275Y299316D01*
X140275Y300313D02*
X146225Y300313D01*
X146225Y301310D02*
X140275Y301310D01*
X140275Y307325D02*
X146225Y307325D01*
X140275Y307325D02*
X140275Y313275D01*
X146225Y313275D01*
X146225Y307325D01*
X146225Y308322D02*
X140275Y308322D01*
X140275Y309319D02*
X146225Y309319D01*
X146225Y310316D02*
X140275Y310316D01*
X140275Y311313D02*
X146225Y311313D01*
X146225Y312310D02*
X140275Y312310D01*
D13*
X138900Y274900D02*
X148900Y274900D01*
X138900Y274900D02*
X138900Y283900D01*
X148900Y283900D01*
X148900Y274900D01*
X148900Y275850D02*
X138900Y275850D01*
X138900Y276800D02*
X148900Y276800D01*
X148900Y277750D02*
X138900Y277750D01*
X138900Y278700D02*
X148900Y278700D01*
X148900Y279650D02*
X138900Y279650D01*
X138900Y280600D02*
X148900Y280600D01*
X148900Y281550D02*
X138900Y281550D01*
X138900Y282500D02*
X148900Y282500D01*
X148900Y283450D02*
X138900Y283450D01*
X155900Y274900D02*
X165900Y274900D01*
X155900Y274900D02*
X155900Y283900D01*
X165900Y283900D01*
X165900Y274900D01*
X165900Y275850D02*
X155900Y275850D01*
X155900Y276800D02*
X165900Y276800D01*
X165900Y277750D02*
X155900Y277750D01*
X155900Y278700D02*
X165900Y278700D01*
X165900Y279650D02*
X155900Y279650D01*
X155900Y280600D02*
X165900Y280600D01*
X165900Y281550D02*
X155900Y281550D01*
X155900Y282500D02*
X165900Y282500D01*
X165900Y283450D02*
X155900Y283450D01*
D11*
X89230Y113020D02*
X82270Y113020D01*
X82270Y120980D01*
X89230Y120980D01*
X89230Y113020D01*
X89230Y114008D02*
X82270Y114008D01*
X82270Y114996D02*
X89230Y114996D01*
X89230Y115984D02*
X82270Y115984D01*
X82270Y116972D02*
X89230Y116972D01*
X89230Y117960D02*
X82270Y117960D01*
X82270Y118948D02*
X89230Y118948D01*
X89230Y119936D02*
X82270Y119936D01*
X82270Y120924D02*
X89230Y120924D01*
X101270Y113020D02*
X108230Y113020D01*
X101270Y113020D02*
X101270Y120980D01*
X108230Y120980D01*
X108230Y113020D01*
X108230Y114008D02*
X101270Y114008D01*
X101270Y114996D02*
X108230Y114996D01*
X108230Y115984D02*
X101270Y115984D01*
X101270Y116972D02*
X108230Y116972D01*
X108230Y117960D02*
X101270Y117960D01*
X101270Y118948D02*
X108230Y118948D01*
X108230Y119936D02*
X101270Y119936D01*
X101270Y120924D02*
X108230Y120924D01*
X98730Y134020D02*
X91770Y134020D01*
X91770Y141980D01*
X98730Y141980D01*
X98730Y134020D01*
X98730Y135008D02*
X91770Y135008D01*
X91770Y135996D02*
X98730Y135996D01*
X98730Y136984D02*
X91770Y136984D01*
X91770Y137972D02*
X98730Y137972D01*
X98730Y138960D02*
X91770Y138960D01*
X91770Y139948D02*
X98730Y139948D01*
X98730Y140936D02*
X91770Y140936D01*
X91770Y141924D02*
X98730Y141924D01*
D13*
X119850Y113610D02*
X129850Y113610D01*
X119850Y113610D02*
X119850Y122610D01*
X129850Y122610D01*
X129850Y113610D01*
X129850Y114560D02*
X119850Y114560D01*
X119850Y115510D02*
X129850Y115510D01*
X129850Y116460D02*
X119850Y116460D01*
X119850Y117410D02*
X129850Y117410D01*
X129850Y118360D02*
X119850Y118360D01*
X119850Y119310D02*
X129850Y119310D01*
X129850Y120260D02*
X119850Y120260D01*
X119850Y121210D02*
X129850Y121210D01*
X129850Y122160D02*
X119850Y122160D01*
X136850Y113610D02*
X146850Y113610D01*
X136850Y113610D02*
X136850Y122610D01*
X146850Y122610D01*
X146850Y113610D01*
X146850Y114560D02*
X136850Y114560D01*
X136850Y115510D02*
X146850Y115510D01*
X146850Y116460D02*
X136850Y116460D01*
X136850Y117410D02*
X146850Y117410D01*
X146850Y118360D02*
X136850Y118360D01*
X136850Y119310D02*
X146850Y119310D01*
X146850Y120260D02*
X136850Y120260D01*
X136850Y121210D02*
X146850Y121210D01*
X146850Y122160D02*
X136850Y122160D01*
D10*
X258475Y505795D02*
X272485Y505795D01*
X258475Y505795D02*
X258475Y513805D01*
X272485Y513805D01*
X272485Y505795D01*
X272485Y506735D02*
X258475Y506735D01*
X258475Y507675D02*
X272485Y507675D01*
X272485Y508615D02*
X258475Y508615D01*
X258475Y509555D02*
X272485Y509555D01*
X272485Y510495D02*
X258475Y510495D01*
X258475Y511435D02*
X272485Y511435D01*
X272485Y512375D02*
X258475Y512375D01*
X258475Y513315D02*
X272485Y513315D01*
X272485Y493095D02*
X258475Y493095D01*
X258475Y501105D01*
X272485Y501105D01*
X272485Y493095D01*
X272485Y494035D02*
X258475Y494035D01*
X258475Y494975D02*
X272485Y494975D01*
X272485Y495915D02*
X258475Y495915D01*
X258475Y496855D02*
X272485Y496855D01*
X272485Y497795D02*
X258475Y497795D01*
X258475Y498735D02*
X272485Y498735D01*
X272485Y499675D02*
X258475Y499675D01*
X258475Y500615D02*
X272485Y500615D01*
X272485Y480395D02*
X258475Y480395D01*
X258475Y488405D01*
X272485Y488405D01*
X272485Y480395D01*
X272485Y481335D02*
X258475Y481335D01*
X258475Y482275D02*
X272485Y482275D01*
X272485Y483215D02*
X258475Y483215D01*
X258475Y484155D02*
X272485Y484155D01*
X272485Y485095D02*
X258475Y485095D01*
X258475Y486035D02*
X272485Y486035D01*
X272485Y486975D02*
X258475Y486975D01*
X258475Y487915D02*
X272485Y487915D01*
X272485Y467695D02*
X258475Y467695D01*
X258475Y475705D01*
X272485Y475705D01*
X272485Y467695D01*
X272485Y468635D02*
X258475Y468635D01*
X258475Y469575D02*
X272485Y469575D01*
X272485Y470515D02*
X258475Y470515D01*
X258475Y471455D02*
X272485Y471455D01*
X272485Y472395D02*
X258475Y472395D01*
X258475Y473335D02*
X272485Y473335D01*
X272485Y474275D02*
X258475Y474275D01*
X258475Y475215D02*
X272485Y475215D01*
X272485Y454995D02*
X258475Y454995D01*
X258475Y463005D01*
X272485Y463005D01*
X272485Y454995D01*
X272485Y455935D02*
X258475Y455935D01*
X258475Y456875D02*
X272485Y456875D01*
X272485Y457815D02*
X258475Y457815D01*
X258475Y458755D02*
X272485Y458755D01*
X272485Y459695D02*
X258475Y459695D01*
X258475Y460635D02*
X272485Y460635D01*
X272485Y461575D02*
X258475Y461575D01*
X258475Y462515D02*
X272485Y462515D01*
X272485Y442295D02*
X258475Y442295D01*
X258475Y450305D01*
X272485Y450305D01*
X272485Y442295D01*
X272485Y443235D02*
X258475Y443235D01*
X258475Y444175D02*
X272485Y444175D01*
X272485Y445115D02*
X258475Y445115D01*
X258475Y446055D02*
X272485Y446055D01*
X272485Y446995D02*
X258475Y446995D01*
X258475Y447935D02*
X272485Y447935D01*
X272485Y448875D02*
X258475Y448875D01*
X258475Y449815D02*
X272485Y449815D01*
X272485Y429595D02*
X258475Y429595D01*
X258475Y437605D01*
X272485Y437605D01*
X272485Y429595D01*
X272485Y430535D02*
X258475Y430535D01*
X258475Y431475D02*
X272485Y431475D01*
X272485Y432415D02*
X258475Y432415D01*
X258475Y433355D02*
X272485Y433355D01*
X272485Y434295D02*
X258475Y434295D01*
X258475Y435235D02*
X272485Y435235D01*
X272485Y436175D02*
X258475Y436175D01*
X258475Y437115D02*
X272485Y437115D01*
X272485Y416895D02*
X258475Y416895D01*
X258475Y424905D01*
X272485Y424905D01*
X272485Y416895D01*
X272485Y417835D02*
X258475Y417835D01*
X258475Y418775D02*
X272485Y418775D01*
X272485Y419715D02*
X258475Y419715D01*
X258475Y420655D02*
X272485Y420655D01*
X272485Y421595D02*
X258475Y421595D01*
X258475Y422535D02*
X272485Y422535D01*
X272485Y423475D02*
X258475Y423475D01*
X258475Y424415D02*
X272485Y424415D01*
X272485Y404195D02*
X258475Y404195D01*
X258475Y412205D01*
X272485Y412205D01*
X272485Y404195D01*
X272485Y405135D02*
X258475Y405135D01*
X258475Y406075D02*
X272485Y406075D01*
X272485Y407015D02*
X258475Y407015D01*
X258475Y407955D02*
X272485Y407955D01*
X272485Y408895D02*
X258475Y408895D01*
X258475Y409835D02*
X272485Y409835D01*
X272485Y410775D02*
X258475Y410775D01*
X258475Y411715D02*
X272485Y411715D01*
X272485Y391495D02*
X258475Y391495D01*
X258475Y399505D01*
X272485Y399505D01*
X272485Y391495D01*
X272485Y392435D02*
X258475Y392435D01*
X258475Y393375D02*
X272485Y393375D01*
X272485Y394315D02*
X258475Y394315D01*
X258475Y395255D02*
X272485Y395255D01*
X272485Y396195D02*
X258475Y396195D01*
X258475Y397135D02*
X272485Y397135D01*
X272485Y398075D02*
X258475Y398075D01*
X258475Y399015D02*
X272485Y399015D01*
X272485Y378795D02*
X258475Y378795D01*
X258475Y386805D01*
X272485Y386805D01*
X272485Y378795D01*
X272485Y379735D02*
X258475Y379735D01*
X258475Y380675D02*
X272485Y380675D01*
X272485Y381615D02*
X258475Y381615D01*
X258475Y382555D02*
X272485Y382555D01*
X272485Y383495D02*
X258475Y383495D01*
X258475Y384435D02*
X272485Y384435D01*
X272485Y385375D02*
X258475Y385375D01*
X258475Y386315D02*
X272485Y386315D01*
X272485Y366095D02*
X258475Y366095D01*
X258475Y374105D01*
X272485Y374105D01*
X272485Y366095D01*
X272485Y367035D02*
X258475Y367035D01*
X258475Y367975D02*
X272485Y367975D01*
X272485Y368915D02*
X258475Y368915D01*
X258475Y369855D02*
X272485Y369855D01*
X272485Y370795D02*
X258475Y370795D01*
X258475Y371735D02*
X272485Y371735D01*
X272485Y372675D02*
X258475Y372675D01*
X258475Y373615D02*
X272485Y373615D01*
X272485Y353395D02*
X258475Y353395D01*
X258475Y361405D01*
X272485Y361405D01*
X272485Y353395D01*
X272485Y354335D02*
X258475Y354335D01*
X258475Y355275D02*
X272485Y355275D01*
X272485Y356215D02*
X258475Y356215D01*
X258475Y357155D02*
X272485Y357155D01*
X272485Y358095D02*
X258475Y358095D01*
X258475Y359035D02*
X272485Y359035D01*
X272485Y359975D02*
X258475Y359975D01*
X258475Y360915D02*
X272485Y360915D01*
X272485Y340695D02*
X258475Y340695D01*
X258475Y348705D01*
X272485Y348705D01*
X272485Y340695D01*
X272485Y341635D02*
X258475Y341635D01*
X258475Y342575D02*
X272485Y342575D01*
X272485Y343515D02*
X258475Y343515D01*
X258475Y344455D02*
X272485Y344455D01*
X272485Y345395D02*
X258475Y345395D01*
X258475Y346335D02*
X272485Y346335D01*
X272485Y347275D02*
X258475Y347275D01*
X258475Y348215D02*
X272485Y348215D01*
X423475Y340695D02*
X437485Y340695D01*
X423475Y340695D02*
X423475Y348705D01*
X437485Y348705D01*
X437485Y340695D01*
X437485Y341635D02*
X423475Y341635D01*
X423475Y342575D02*
X437485Y342575D01*
X437485Y343515D02*
X423475Y343515D01*
X423475Y344455D02*
X437485Y344455D01*
X437485Y345395D02*
X423475Y345395D01*
X423475Y346335D02*
X437485Y346335D01*
X437485Y347275D02*
X423475Y347275D01*
X423475Y348215D02*
X437485Y348215D01*
X437485Y353395D02*
X423475Y353395D01*
X423475Y361405D01*
X437485Y361405D01*
X437485Y353395D01*
X437485Y354335D02*
X423475Y354335D01*
X423475Y355275D02*
X437485Y355275D01*
X437485Y356215D02*
X423475Y356215D01*
X423475Y357155D02*
X437485Y357155D01*
X437485Y358095D02*
X423475Y358095D01*
X423475Y359035D02*
X437485Y359035D01*
X437485Y359975D02*
X423475Y359975D01*
X423475Y360915D02*
X437485Y360915D01*
X437485Y366095D02*
X423475Y366095D01*
X423475Y374105D01*
X437485Y374105D01*
X437485Y366095D01*
X437485Y367035D02*
X423475Y367035D01*
X423475Y367975D02*
X437485Y367975D01*
X437485Y368915D02*
X423475Y368915D01*
X423475Y369855D02*
X437485Y369855D01*
X437485Y370795D02*
X423475Y370795D01*
X423475Y371735D02*
X437485Y371735D01*
X437485Y372675D02*
X423475Y372675D01*
X423475Y373615D02*
X437485Y373615D01*
X437485Y378795D02*
X423475Y378795D01*
X423475Y386805D01*
X437485Y386805D01*
X437485Y378795D01*
X437485Y379735D02*
X423475Y379735D01*
X423475Y380675D02*
X437485Y380675D01*
X437485Y381615D02*
X423475Y381615D01*
X423475Y382555D02*
X437485Y382555D01*
X437485Y383495D02*
X423475Y383495D01*
X423475Y384435D02*
X437485Y384435D01*
X437485Y385375D02*
X423475Y385375D01*
X423475Y386315D02*
X437485Y386315D01*
X437485Y391495D02*
X423475Y391495D01*
X423475Y399505D01*
X437485Y399505D01*
X437485Y391495D01*
X437485Y392435D02*
X423475Y392435D01*
X423475Y393375D02*
X437485Y393375D01*
X437485Y394315D02*
X423475Y394315D01*
X423475Y395255D02*
X437485Y395255D01*
X437485Y396195D02*
X423475Y396195D01*
X423475Y397135D02*
X437485Y397135D01*
X437485Y398075D02*
X423475Y398075D01*
X423475Y399015D02*
X437485Y399015D01*
X437485Y404195D02*
X423475Y404195D01*
X423475Y412205D01*
X437485Y412205D01*
X437485Y404195D01*
X437485Y405135D02*
X423475Y405135D01*
X423475Y406075D02*
X437485Y406075D01*
X437485Y407015D02*
X423475Y407015D01*
X423475Y407955D02*
X437485Y407955D01*
X437485Y408895D02*
X423475Y408895D01*
X423475Y409835D02*
X437485Y409835D01*
X437485Y410775D02*
X423475Y410775D01*
X423475Y411715D02*
X437485Y411715D01*
X437485Y416895D02*
X423475Y416895D01*
X423475Y424905D01*
X437485Y424905D01*
X437485Y416895D01*
X437485Y417835D02*
X423475Y417835D01*
X423475Y418775D02*
X437485Y418775D01*
X437485Y419715D02*
X423475Y419715D01*
X423475Y420655D02*
X437485Y420655D01*
X437485Y421595D02*
X423475Y421595D01*
X423475Y422535D02*
X437485Y422535D01*
X437485Y423475D02*
X423475Y423475D01*
X423475Y424415D02*
X437485Y424415D01*
X437485Y429595D02*
X423475Y429595D01*
X423475Y437605D01*
X437485Y437605D01*
X437485Y429595D01*
X437485Y430535D02*
X423475Y430535D01*
X423475Y431475D02*
X437485Y431475D01*
X437485Y432415D02*
X423475Y432415D01*
X423475Y433355D02*
X437485Y433355D01*
X437485Y434295D02*
X423475Y434295D01*
X423475Y435235D02*
X437485Y435235D01*
X437485Y436175D02*
X423475Y436175D01*
X423475Y437115D02*
X437485Y437115D01*
X437485Y442295D02*
X423475Y442295D01*
X423475Y450305D01*
X437485Y450305D01*
X437485Y442295D01*
X437485Y443235D02*
X423475Y443235D01*
X423475Y444175D02*
X437485Y444175D01*
X437485Y445115D02*
X423475Y445115D01*
X423475Y446055D02*
X437485Y446055D01*
X437485Y446995D02*
X423475Y446995D01*
X423475Y447935D02*
X437485Y447935D01*
X437485Y448875D02*
X423475Y448875D01*
X423475Y449815D02*
X437485Y449815D01*
X437485Y454995D02*
X423475Y454995D01*
X423475Y463005D01*
X437485Y463005D01*
X437485Y454995D01*
X437485Y455935D02*
X423475Y455935D01*
X423475Y456875D02*
X437485Y456875D01*
X437485Y457815D02*
X423475Y457815D01*
X423475Y458755D02*
X437485Y458755D01*
X437485Y459695D02*
X423475Y459695D01*
X423475Y460635D02*
X437485Y460635D01*
X437485Y461575D02*
X423475Y461575D01*
X423475Y462515D02*
X437485Y462515D01*
X437485Y467695D02*
X423475Y467695D01*
X423475Y475705D01*
X437485Y475705D01*
X437485Y467695D01*
X437485Y468635D02*
X423475Y468635D01*
X423475Y469575D02*
X437485Y469575D01*
X437485Y470515D02*
X423475Y470515D01*
X423475Y471455D02*
X437485Y471455D01*
X437485Y472395D02*
X423475Y472395D01*
X423475Y473335D02*
X437485Y473335D01*
X437485Y474275D02*
X423475Y474275D01*
X423475Y475215D02*
X437485Y475215D01*
X437485Y480395D02*
X423475Y480395D01*
X423475Y488405D01*
X437485Y488405D01*
X437485Y480395D01*
X437485Y481335D02*
X423475Y481335D01*
X423475Y482275D02*
X437485Y482275D01*
X437485Y483215D02*
X423475Y483215D01*
X423475Y484155D02*
X437485Y484155D01*
X437485Y485095D02*
X423475Y485095D01*
X423475Y486035D02*
X437485Y486035D01*
X437485Y486975D02*
X423475Y486975D01*
X423475Y487915D02*
X437485Y487915D01*
X437485Y493095D02*
X423475Y493095D01*
X423475Y501105D01*
X437485Y501105D01*
X437485Y493095D01*
X437485Y494035D02*
X423475Y494035D01*
X423475Y494975D02*
X437485Y494975D01*
X437485Y495915D02*
X423475Y495915D01*
X423475Y496855D02*
X437485Y496855D01*
X437485Y497795D02*
X423475Y497795D01*
X423475Y498735D02*
X437485Y498735D01*
X437485Y499675D02*
X423475Y499675D01*
X423475Y500615D02*
X437485Y500615D01*
X437485Y505795D02*
X423475Y505795D01*
X423475Y513805D01*
X437485Y513805D01*
X437485Y505795D01*
X437485Y506735D02*
X423475Y506735D01*
X423475Y507675D02*
X437485Y507675D01*
X437485Y508615D02*
X423475Y508615D01*
X423475Y509555D02*
X437485Y509555D01*
X437485Y510495D02*
X423475Y510495D01*
X423475Y511435D02*
X437485Y511435D01*
X437485Y512375D02*
X423475Y512375D01*
X423475Y513315D02*
X437485Y513315D01*
D11*
X323910Y461620D02*
X316950Y461620D01*
X316950Y468580D01*
X323910Y468580D01*
X323910Y461620D01*
X323910Y462608D02*
X316950Y462608D01*
X316950Y463596D02*
X323910Y463596D01*
X323910Y464584D02*
X316950Y464584D01*
X316950Y465572D02*
X323910Y465572D01*
X323910Y466560D02*
X316950Y466560D01*
X316950Y467548D02*
X323910Y467548D01*
X323910Y468536D02*
X316950Y468536D01*
X316950Y449120D02*
X323910Y449120D01*
X316950Y449120D02*
X316950Y456080D01*
X323910Y456080D01*
X323910Y449120D01*
X323910Y450108D02*
X316950Y450108D01*
X316950Y451096D02*
X323910Y451096D01*
X323910Y452084D02*
X316950Y452084D01*
X316950Y453072D02*
X323910Y453072D01*
X323910Y454060D02*
X316950Y454060D01*
X316950Y455048D02*
X323910Y455048D01*
X323910Y456036D02*
X316950Y456036D01*
X316950Y436620D02*
X323910Y436620D01*
X316950Y436620D02*
X316950Y443580D01*
X323910Y443580D01*
X323910Y436620D01*
X323910Y437608D02*
X316950Y437608D01*
X316950Y438596D02*
X323910Y438596D01*
X323910Y439584D02*
X316950Y439584D01*
X316950Y440572D02*
X323910Y440572D01*
X323910Y441560D02*
X316950Y441560D01*
X316950Y442548D02*
X323910Y442548D01*
X323910Y443536D02*
X316950Y443536D01*
X329450Y436620D02*
X336410Y436620D01*
X329450Y436620D02*
X329450Y443580D01*
X336410Y443580D01*
X336410Y436620D01*
X336410Y437608D02*
X329450Y437608D01*
X329450Y438596D02*
X336410Y438596D01*
X336410Y439584D02*
X329450Y439584D01*
X329450Y440572D02*
X336410Y440572D01*
X336410Y441560D02*
X329450Y441560D01*
X329450Y442548D02*
X336410Y442548D01*
X336410Y443536D02*
X329450Y443536D01*
X341950Y436620D02*
X348910Y436620D01*
X341950Y436620D02*
X341950Y443580D01*
X348910Y443580D01*
X348910Y436620D01*
X348910Y437608D02*
X341950Y437608D01*
X341950Y438596D02*
X348910Y438596D01*
X348910Y439584D02*
X341950Y439584D01*
X341950Y440572D02*
X348910Y440572D01*
X348910Y441560D02*
X341950Y441560D01*
X341950Y442548D02*
X348910Y442548D01*
X348910Y443536D02*
X341950Y443536D01*
X341950Y449120D02*
X348910Y449120D01*
X341950Y449120D02*
X341950Y456080D01*
X348910Y456080D01*
X348910Y449120D01*
X348910Y450108D02*
X341950Y450108D01*
X341950Y451096D02*
X348910Y451096D01*
X348910Y452084D02*
X341950Y452084D01*
X341950Y453072D02*
X348910Y453072D01*
X348910Y454060D02*
X341950Y454060D01*
X341950Y455048D02*
X348910Y455048D01*
X348910Y456036D02*
X341950Y456036D01*
X341950Y461620D02*
X348910Y461620D01*
X341950Y461620D02*
X341950Y468580D01*
X348910Y468580D01*
X348910Y461620D01*
X348910Y462608D02*
X341950Y462608D01*
X341950Y463596D02*
X348910Y463596D01*
X348910Y464584D02*
X341950Y464584D01*
X341950Y465572D02*
X348910Y465572D01*
X348910Y466560D02*
X341950Y466560D01*
X341950Y467548D02*
X348910Y467548D01*
X348910Y468536D02*
X341950Y468536D01*
X336410Y461620D02*
X329450Y461620D01*
X329450Y468580D01*
X336410Y468580D01*
X336410Y461620D01*
X336410Y462608D02*
X329450Y462608D01*
X329450Y463596D02*
X336410Y463596D01*
X336410Y464584D02*
X329450Y464584D01*
X329450Y465572D02*
X336410Y465572D01*
X336410Y466560D02*
X329450Y466560D01*
X329450Y467548D02*
X336410Y467548D01*
X336410Y468536D02*
X329450Y468536D01*
X329450Y449120D02*
X336410Y449120D01*
X329450Y449120D02*
X329450Y456080D01*
X336410Y456080D01*
X336410Y449120D01*
X336410Y450108D02*
X329450Y450108D01*
X329450Y451096D02*
X336410Y451096D01*
X336410Y452084D02*
X329450Y452084D01*
X329450Y453072D02*
X336410Y453072D01*
X336410Y454060D02*
X329450Y454060D01*
X329450Y455048D02*
X336410Y455048D01*
X336410Y456036D02*
X329450Y456036D01*
D12*
X354490Y55610D02*
X356470Y55610D01*
X354490Y55610D02*
X354490Y64590D01*
X356470Y64590D01*
X356470Y55610D01*
X356470Y56579D02*
X354490Y56579D01*
X354490Y57548D02*
X356470Y57548D01*
X356470Y58517D02*
X354490Y58517D01*
X354490Y59486D02*
X356470Y59486D01*
X356470Y60455D02*
X354490Y60455D01*
X354490Y61424D02*
X356470Y61424D01*
X356470Y62393D02*
X354490Y62393D01*
X354490Y63362D02*
X356470Y63362D01*
X356470Y64331D02*
X354490Y64331D01*
X351470Y55610D02*
X349490Y55610D01*
X349490Y64590D01*
X351470Y64590D01*
X351470Y55610D01*
X351470Y56579D02*
X349490Y56579D01*
X349490Y57548D02*
X351470Y57548D01*
X351470Y58517D02*
X349490Y58517D01*
X349490Y59486D02*
X351470Y59486D01*
X351470Y60455D02*
X349490Y60455D01*
X349490Y61424D02*
X351470Y61424D01*
X351470Y62393D02*
X349490Y62393D01*
X349490Y63362D02*
X351470Y63362D01*
X351470Y64331D02*
X349490Y64331D01*
X377740Y55610D02*
X382720Y55610D01*
X377740Y55610D02*
X377740Y64590D01*
X382720Y64590D01*
X382720Y55610D01*
X382720Y56579D02*
X377740Y56579D01*
X377740Y57548D02*
X382720Y57548D01*
X382720Y58517D02*
X377740Y58517D01*
X377740Y59486D02*
X382720Y59486D01*
X382720Y60455D02*
X377740Y60455D01*
X377740Y61424D02*
X382720Y61424D01*
X382720Y62393D02*
X377740Y62393D01*
X377740Y63362D02*
X382720Y63362D01*
X382720Y64331D02*
X377740Y64331D01*
X374970Y55610D02*
X369990Y55610D01*
X369990Y64590D01*
X374970Y64590D01*
X374970Y55610D01*
X374970Y56579D02*
X369990Y56579D01*
X369990Y57548D02*
X374970Y57548D01*
X374970Y58517D02*
X369990Y58517D01*
X369990Y59486D02*
X374970Y59486D01*
X374970Y60455D02*
X369990Y60455D01*
X369990Y61424D02*
X374970Y61424D01*
X374970Y62393D02*
X369990Y62393D01*
X369990Y63362D02*
X374970Y63362D01*
X374970Y64331D02*
X369990Y64331D01*
X366470Y55610D02*
X364490Y55610D01*
X364490Y64590D01*
X366470Y64590D01*
X366470Y55610D01*
X366470Y56579D02*
X364490Y56579D01*
X364490Y57548D02*
X366470Y57548D01*
X366470Y58517D02*
X364490Y58517D01*
X364490Y59486D02*
X366470Y59486D01*
X366470Y60455D02*
X364490Y60455D01*
X364490Y61424D02*
X366470Y61424D01*
X366470Y62393D02*
X364490Y62393D01*
X364490Y63362D02*
X366470Y63362D01*
X366470Y64331D02*
X364490Y64331D01*
X361470Y55610D02*
X359490Y55610D01*
X359490Y64590D01*
X361470Y64590D01*
X361470Y55610D01*
X361470Y56579D02*
X359490Y56579D01*
X359490Y57548D02*
X361470Y57548D01*
X361470Y58517D02*
X359490Y58517D01*
X359490Y59486D02*
X361470Y59486D01*
X361470Y60455D02*
X359490Y60455D01*
X359490Y61424D02*
X361470Y61424D01*
X361470Y62393D02*
X359490Y62393D01*
X359490Y63362D02*
X361470Y63362D01*
X361470Y64331D02*
X359490Y64331D01*
X341470Y64590D02*
X339490Y64590D01*
X341470Y64590D02*
X341470Y55610D01*
X339490Y55610D01*
X339490Y64590D01*
X339490Y56579D02*
X341470Y56579D01*
X341470Y57548D02*
X339490Y57548D01*
X339490Y58517D02*
X341470Y58517D01*
X341470Y59486D02*
X339490Y59486D01*
X339490Y60455D02*
X341470Y60455D01*
X341470Y61424D02*
X339490Y61424D01*
X339490Y62393D02*
X341470Y62393D01*
X341470Y63362D02*
X339490Y63362D01*
X339490Y64331D02*
X341470Y64331D01*
X344490Y64590D02*
X346470Y64590D01*
X346470Y55610D01*
X344490Y55610D01*
X344490Y64590D01*
X344490Y56579D02*
X346470Y56579D01*
X346470Y57548D02*
X344490Y57548D01*
X344490Y58517D02*
X346470Y58517D01*
X346470Y59486D02*
X344490Y59486D01*
X344490Y60455D02*
X346470Y60455D01*
X346470Y61424D02*
X344490Y61424D01*
X344490Y62393D02*
X346470Y62393D01*
X346470Y63362D02*
X344490Y63362D01*
X344490Y64331D02*
X346470Y64331D01*
X318220Y64590D02*
X313240Y64590D01*
X318220Y64590D02*
X318220Y55610D01*
X313240Y55610D01*
X313240Y64590D01*
X313240Y56579D02*
X318220Y56579D01*
X318220Y57548D02*
X313240Y57548D01*
X313240Y58517D02*
X318220Y58517D01*
X318220Y59486D02*
X313240Y59486D01*
X313240Y60455D02*
X318220Y60455D01*
X318220Y61424D02*
X313240Y61424D01*
X313240Y62393D02*
X318220Y62393D01*
X318220Y63362D02*
X313240Y63362D01*
X313240Y64331D02*
X318220Y64331D01*
X320990Y64590D02*
X325970Y64590D01*
X325970Y55610D01*
X320990Y55610D01*
X320990Y64590D01*
X320990Y56579D02*
X325970Y56579D01*
X325970Y57548D02*
X320990Y57548D01*
X320990Y58517D02*
X325970Y58517D01*
X325970Y59486D02*
X320990Y59486D01*
X320990Y60455D02*
X325970Y60455D01*
X325970Y61424D02*
X320990Y61424D01*
X320990Y62393D02*
X325970Y62393D01*
X325970Y63362D02*
X320990Y63362D01*
X320990Y64331D02*
X325970Y64331D01*
X329490Y64590D02*
X331470Y64590D01*
X331470Y55610D01*
X329490Y55610D01*
X329490Y64590D01*
X329490Y56579D02*
X331470Y56579D01*
X331470Y57548D02*
X329490Y57548D01*
X329490Y58517D02*
X331470Y58517D01*
X331470Y59486D02*
X329490Y59486D01*
X329490Y60455D02*
X331470Y60455D01*
X331470Y61424D02*
X329490Y61424D01*
X329490Y62393D02*
X331470Y62393D01*
X331470Y63362D02*
X329490Y63362D01*
X329490Y64331D02*
X331470Y64331D01*
X334490Y64590D02*
X336470Y64590D01*
X336470Y55610D01*
X334490Y55610D01*
X334490Y64590D01*
X334490Y56579D02*
X336470Y56579D01*
X336470Y57548D02*
X334490Y57548D01*
X334490Y58517D02*
X336470Y58517D01*
X336470Y59486D02*
X334490Y59486D01*
X334490Y60455D02*
X336470Y60455D01*
X336470Y61424D02*
X334490Y61424D01*
X334490Y62393D02*
X336470Y62393D01*
X336470Y63362D02*
X334490Y63362D01*
X334490Y64331D02*
X336470Y64331D01*
D13*
X376880Y80700D02*
X386880Y80700D01*
X386880Y71700D01*
X376880Y71700D01*
X376880Y80700D01*
X376880Y72650D02*
X386880Y72650D01*
X386880Y73600D02*
X376880Y73600D01*
X376880Y74550D02*
X386880Y74550D01*
X386880Y75500D02*
X376880Y75500D01*
X376880Y76450D02*
X386880Y76450D01*
X386880Y77400D02*
X376880Y77400D01*
X376880Y78350D02*
X386880Y78350D01*
X386880Y79300D02*
X376880Y79300D01*
X376880Y80250D02*
X386880Y80250D01*
X369880Y80700D02*
X359880Y80700D01*
X369880Y80700D02*
X369880Y71700D01*
X359880Y71700D01*
X359880Y80700D01*
X359880Y72650D02*
X369880Y72650D01*
X369880Y73600D02*
X359880Y73600D01*
X359880Y74550D02*
X369880Y74550D01*
X369880Y75500D02*
X359880Y75500D01*
X359880Y76450D02*
X369880Y76450D01*
X369880Y77400D02*
X359880Y77400D01*
X359880Y78350D02*
X369880Y78350D01*
X369880Y79300D02*
X359880Y79300D01*
X359880Y80250D02*
X369880Y80250D01*
X319080Y71700D02*
X309080Y71700D01*
X309080Y80700D01*
X319080Y80700D01*
X319080Y71700D01*
X319080Y72650D02*
X309080Y72650D01*
X309080Y73600D02*
X319080Y73600D01*
X319080Y74550D02*
X309080Y74550D01*
X309080Y75500D02*
X319080Y75500D01*
X319080Y76450D02*
X309080Y76450D01*
X309080Y77400D02*
X319080Y77400D01*
X319080Y78350D02*
X309080Y78350D01*
X309080Y79300D02*
X319080Y79300D01*
X319080Y80250D02*
X309080Y80250D01*
X326080Y71700D02*
X336080Y71700D01*
X326080Y71700D02*
X326080Y80700D01*
X336080Y80700D01*
X336080Y71700D01*
X336080Y72650D02*
X326080Y72650D01*
X326080Y73600D02*
X336080Y73600D01*
X336080Y74550D02*
X326080Y74550D01*
X326080Y75500D02*
X336080Y75500D01*
X336080Y76450D02*
X326080Y76450D01*
X326080Y77400D02*
X336080Y77400D01*
X336080Y78350D02*
X326080Y78350D01*
X326080Y79300D02*
X336080Y79300D01*
X336080Y80250D02*
X326080Y80250D01*
X328740Y163300D02*
X328740Y172300D01*
X328740Y163300D02*
X283740Y163300D01*
X283740Y172300D01*
X328740Y172300D01*
X328740Y164250D02*
X283740Y164250D01*
X283740Y165200D02*
X328740Y165200D01*
X328740Y166150D02*
X283740Y166150D01*
X283740Y167100D02*
X328740Y167100D01*
X328740Y168050D02*
X283740Y168050D01*
X283740Y169000D02*
X328740Y169000D01*
X328740Y169950D02*
X283740Y169950D01*
X283740Y170900D02*
X328740Y170900D01*
X328740Y171850D02*
X283740Y171850D01*
X328740Y183300D02*
X328740Y192300D01*
X328740Y183300D02*
X283740Y183300D01*
X283740Y192300D01*
X328740Y192300D01*
X328740Y184250D02*
X283740Y184250D01*
X283740Y185200D02*
X328740Y185200D01*
X328740Y186150D02*
X283740Y186150D01*
X283740Y187100D02*
X328740Y187100D01*
X328740Y188050D02*
X283740Y188050D01*
X283740Y189000D02*
X328740Y189000D01*
X328740Y189950D02*
X283740Y189950D01*
X283740Y190900D02*
X328740Y190900D01*
X328740Y191850D02*
X283740Y191850D01*
D14*
X270760Y151320D02*
X237720Y151320D01*
X270760Y151320D02*
X270760Y136280D01*
X237720Y136280D01*
X237720Y151320D01*
X237720Y137192D02*
X270760Y137192D01*
X270760Y138104D02*
X237720Y138104D01*
X237720Y139016D02*
X270760Y139016D01*
X270760Y139928D02*
X237720Y139928D01*
X237720Y140840D02*
X270760Y140840D01*
X270760Y141752D02*
X237720Y141752D01*
X237720Y142664D02*
X270760Y142664D01*
X270760Y143576D02*
X237720Y143576D01*
X237720Y144488D02*
X270760Y144488D01*
X270760Y145400D02*
X237720Y145400D01*
X237720Y146312D02*
X270760Y146312D01*
X270760Y147224D02*
X237720Y147224D01*
X237720Y148136D02*
X270760Y148136D01*
X270760Y149048D02*
X237720Y149048D01*
X237720Y149960D02*
X270760Y149960D01*
X270760Y150872D02*
X237720Y150872D01*
X237720Y219320D02*
X270760Y219320D01*
X270760Y204280D01*
X237720Y204280D01*
X237720Y219320D01*
X237720Y205192D02*
X270760Y205192D01*
X270760Y206104D02*
X237720Y206104D01*
X237720Y207016D02*
X270760Y207016D01*
X270760Y207928D02*
X237720Y207928D01*
X237720Y208840D02*
X270760Y208840D01*
X270760Y209752D02*
X237720Y209752D01*
X237720Y210664D02*
X270760Y210664D01*
X270760Y211576D02*
X237720Y211576D01*
X237720Y212488D02*
X270760Y212488D01*
X270760Y213400D02*
X237720Y213400D01*
X237720Y214312D02*
X270760Y214312D01*
X270760Y215224D02*
X237720Y215224D01*
X237720Y216136D02*
X270760Y216136D01*
X270760Y217048D02*
X237720Y217048D01*
X237720Y217960D02*
X270760Y217960D01*
X270760Y218872D02*
X237720Y218872D01*
X238210Y122420D02*
X238210Y111380D01*
X238210Y122420D02*
X257250Y122420D01*
X257250Y111380D01*
X238210Y111380D01*
X238210Y112292D02*
X257250Y112292D01*
X257250Y113204D02*
X238210Y113204D01*
X238210Y114116D02*
X257250Y114116D01*
X257250Y115028D02*
X238210Y115028D01*
X238210Y115940D02*
X257250Y115940D01*
X257250Y116852D02*
X238210Y116852D01*
X238210Y117764D02*
X257250Y117764D01*
X257250Y118676D02*
X238210Y118676D01*
X238210Y119588D02*
X257250Y119588D01*
X257250Y120500D02*
X238210Y120500D01*
X238210Y121412D02*
X257250Y121412D01*
X257250Y122324D02*
X238210Y122324D01*
X238210Y66420D02*
X238210Y55380D01*
X238210Y66420D02*
X257250Y66420D01*
X257250Y55380D01*
X238210Y55380D01*
X238210Y56292D02*
X257250Y56292D01*
X257250Y57204D02*
X238210Y57204D01*
X238210Y58116D02*
X257250Y58116D01*
X257250Y59028D02*
X238210Y59028D01*
X238210Y59940D02*
X257250Y59940D01*
X257250Y60852D02*
X238210Y60852D01*
X238210Y61764D02*
X257250Y61764D01*
X257250Y62676D02*
X238210Y62676D01*
X238210Y63588D02*
X257250Y63588D01*
X257250Y64500D02*
X238210Y64500D01*
X238210Y65412D02*
X257250Y65412D01*
X257250Y66324D02*
X238210Y66324D01*
D12*
X278240Y101410D02*
X278240Y106390D01*
X290720Y106390D01*
X290720Y101410D01*
X278240Y101410D01*
X278240Y102379D02*
X290720Y102379D01*
X290720Y103348D02*
X278240Y103348D01*
X278240Y104317D02*
X290720Y104317D01*
X290720Y105286D02*
X278240Y105286D01*
X278240Y106255D02*
X290720Y106255D01*
X278240Y96390D02*
X278240Y91410D01*
X278240Y96390D02*
X290720Y96390D01*
X290720Y91410D01*
X278240Y91410D01*
X278240Y92379D02*
X290720Y92379D01*
X290720Y93348D02*
X278240Y93348D01*
X278240Y94317D02*
X290720Y94317D01*
X290720Y95286D02*
X278240Y95286D01*
X278240Y96255D02*
X290720Y96255D01*
X278240Y86390D02*
X278240Y81410D01*
X278240Y86390D02*
X290720Y86390D01*
X290720Y81410D01*
X278240Y81410D01*
X278240Y82379D02*
X290720Y82379D01*
X290720Y83348D02*
X278240Y83348D01*
X278240Y84317D02*
X290720Y84317D01*
X290720Y85286D02*
X278240Y85286D01*
X278240Y86255D02*
X290720Y86255D01*
X278240Y76390D02*
X278240Y71410D01*
X278240Y76390D02*
X290720Y76390D01*
X290720Y71410D01*
X278240Y71410D01*
X278240Y72379D02*
X290720Y72379D01*
X290720Y73348D02*
X278240Y73348D01*
X278240Y74317D02*
X290720Y74317D01*
X290720Y75286D02*
X278240Y75286D01*
X278240Y76255D02*
X290720Y76255D01*
D10*
X440675Y117795D02*
X448685Y117795D01*
X440675Y117795D02*
X440675Y126805D01*
X448685Y126805D01*
X448685Y117795D01*
X448685Y118735D02*
X440675Y118735D01*
X440675Y119675D02*
X448685Y119675D01*
X448685Y120615D02*
X440675Y120615D01*
X440675Y121555D02*
X448685Y121555D01*
X448685Y122495D02*
X440675Y122495D01*
X440675Y123435D02*
X448685Y123435D01*
X448685Y124375D02*
X440675Y124375D01*
X440675Y125315D02*
X448685Y125315D01*
X448685Y126255D02*
X440675Y126255D01*
X440675Y101795D02*
X448685Y101795D01*
X440675Y101795D02*
X440675Y110805D01*
X448685Y110805D01*
X448685Y101795D01*
X448685Y102735D02*
X440675Y102735D01*
X440675Y103675D02*
X448685Y103675D01*
X448685Y104615D02*
X440675Y104615D01*
X440675Y105555D02*
X448685Y105555D01*
X448685Y106495D02*
X440675Y106495D01*
X440675Y107435D02*
X448685Y107435D01*
X448685Y108375D02*
X440675Y108375D01*
X440675Y109315D02*
X448685Y109315D01*
X448685Y110255D02*
X440675Y110255D01*
X407685Y101795D02*
X399675Y101795D01*
X399675Y110805D01*
X407685Y110805D01*
X407685Y101795D01*
X407685Y102735D02*
X399675Y102735D01*
X399675Y103675D02*
X407685Y103675D01*
X407685Y104615D02*
X399675Y104615D01*
X399675Y105555D02*
X407685Y105555D01*
X407685Y106495D02*
X399675Y106495D01*
X399675Y107435D02*
X407685Y107435D01*
X407685Y108375D02*
X399675Y108375D01*
X399675Y109315D02*
X407685Y109315D01*
X407685Y110255D02*
X399675Y110255D01*
X399675Y117795D02*
X407685Y117795D01*
X399675Y117795D02*
X399675Y126805D01*
X407685Y126805D01*
X407685Y117795D01*
X407685Y118735D02*
X399675Y118735D01*
X399675Y119675D02*
X407685Y119675D01*
X407685Y120615D02*
X399675Y120615D01*
X399675Y121555D02*
X407685Y121555D01*
X407685Y122495D02*
X399675Y122495D01*
X399675Y123435D02*
X407685Y123435D01*
X407685Y124375D02*
X399675Y124375D01*
X399675Y125315D02*
X407685Y125315D01*
X407685Y126255D02*
X399675Y126255D01*
X440675Y79695D02*
X448685Y79695D01*
X440675Y79695D02*
X440675Y88705D01*
X448685Y88705D01*
X448685Y79695D01*
X448685Y80635D02*
X440675Y80635D01*
X440675Y81575D02*
X448685Y81575D01*
X448685Y82515D02*
X440675Y82515D01*
X440675Y83455D02*
X448685Y83455D01*
X448685Y84395D02*
X440675Y84395D01*
X440675Y85335D02*
X448685Y85335D01*
X448685Y86275D02*
X440675Y86275D01*
X440675Y87215D02*
X448685Y87215D01*
X448685Y88155D02*
X440675Y88155D01*
X440675Y63695D02*
X448685Y63695D01*
X440675Y63695D02*
X440675Y72705D01*
X448685Y72705D01*
X448685Y63695D01*
X448685Y64635D02*
X440675Y64635D01*
X440675Y65575D02*
X448685Y65575D01*
X448685Y66515D02*
X440675Y66515D01*
X440675Y67455D02*
X448685Y67455D01*
X448685Y68395D02*
X440675Y68395D01*
X440675Y69335D02*
X448685Y69335D01*
X448685Y70275D02*
X440675Y70275D01*
X440675Y71215D02*
X448685Y71215D01*
X448685Y72155D02*
X440675Y72155D01*
X407685Y63695D02*
X399675Y63695D01*
X399675Y72705D01*
X407685Y72705D01*
X407685Y63695D01*
X407685Y64635D02*
X399675Y64635D01*
X399675Y65575D02*
X407685Y65575D01*
X407685Y66515D02*
X399675Y66515D01*
X399675Y67455D02*
X407685Y67455D01*
X407685Y68395D02*
X399675Y68395D01*
X399675Y69335D02*
X407685Y69335D01*
X407685Y70275D02*
X399675Y70275D01*
X399675Y71215D02*
X407685Y71215D01*
X407685Y72155D02*
X399675Y72155D01*
X399675Y79695D02*
X407685Y79695D01*
X399675Y79695D02*
X399675Y88705D01*
X407685Y88705D01*
X407685Y79695D01*
X407685Y80635D02*
X399675Y80635D01*
X399675Y81575D02*
X407685Y81575D01*
X407685Y82515D02*
X399675Y82515D01*
X399675Y83455D02*
X407685Y83455D01*
X407685Y84395D02*
X399675Y84395D01*
X399675Y85335D02*
X407685Y85335D01*
X407685Y86275D02*
X399675Y86275D01*
X399675Y87215D02*
X407685Y87215D01*
X407685Y88155D02*
X399675Y88155D01*
X340735Y260894D02*
X336225Y260894D01*
X336225Y271904D01*
X340735Y271904D01*
X340735Y260894D01*
X340735Y261834D02*
X336225Y261834D01*
X336225Y262774D02*
X340735Y262774D01*
X340735Y263714D02*
X336225Y263714D01*
X336225Y264654D02*
X340735Y264654D01*
X340735Y265594D02*
X336225Y265594D01*
X336225Y266534D02*
X340735Y266534D01*
X340735Y267474D02*
X336225Y267474D01*
X336225Y268414D02*
X340735Y268414D01*
X340735Y269354D02*
X336225Y269354D01*
X336225Y270294D02*
X340735Y270294D01*
X340735Y271234D02*
X336225Y271234D01*
X345725Y260894D02*
X350235Y260894D01*
X345725Y260894D02*
X345725Y271904D01*
X350235Y271904D01*
X350235Y260894D01*
X350235Y261834D02*
X345725Y261834D01*
X345725Y262774D02*
X350235Y262774D01*
X350235Y263714D02*
X345725Y263714D01*
X345725Y264654D02*
X350235Y264654D01*
X350235Y265594D02*
X345725Y265594D01*
X345725Y266534D02*
X350235Y266534D01*
X350235Y267474D02*
X345725Y267474D01*
X345725Y268414D02*
X350235Y268414D01*
X350235Y269354D02*
X345725Y269354D01*
X345725Y270294D02*
X350235Y270294D01*
X350235Y271234D02*
X345725Y271234D01*
X355225Y260894D02*
X359735Y260894D01*
X355225Y260894D02*
X355225Y271904D01*
X359735Y271904D01*
X359735Y260894D01*
X359735Y261834D02*
X355225Y261834D01*
X355225Y262774D02*
X359735Y262774D01*
X359735Y263714D02*
X355225Y263714D01*
X355225Y264654D02*
X359735Y264654D01*
X359735Y265594D02*
X355225Y265594D01*
X355225Y266534D02*
X359735Y266534D01*
X359735Y267474D02*
X355225Y267474D01*
X355225Y268414D02*
X359735Y268414D01*
X359735Y269354D02*
X355225Y269354D01*
X355225Y270294D02*
X359735Y270294D01*
X359735Y271234D02*
X355225Y271234D01*
X355225Y286896D02*
X359735Y286896D01*
X355225Y286896D02*
X355225Y297906D01*
X359735Y297906D01*
X359735Y286896D01*
X359735Y287836D02*
X355225Y287836D01*
X355225Y288776D02*
X359735Y288776D01*
X359735Y289716D02*
X355225Y289716D01*
X355225Y290656D02*
X359735Y290656D01*
X359735Y291596D02*
X355225Y291596D01*
X355225Y292536D02*
X359735Y292536D01*
X359735Y293476D02*
X355225Y293476D01*
X355225Y294416D02*
X359735Y294416D01*
X359735Y295356D02*
X355225Y295356D01*
X355225Y296296D02*
X359735Y296296D01*
X359735Y297236D02*
X355225Y297236D01*
X340735Y286896D02*
X336225Y286896D01*
X336225Y297906D01*
X340735Y297906D01*
X340735Y286896D01*
X340735Y287836D02*
X336225Y287836D01*
X336225Y288776D02*
X340735Y288776D01*
X340735Y289716D02*
X336225Y289716D01*
X336225Y290656D02*
X340735Y290656D01*
X340735Y291596D02*
X336225Y291596D01*
X336225Y292536D02*
X340735Y292536D01*
X340735Y293476D02*
X336225Y293476D01*
X336225Y294416D02*
X340735Y294416D01*
X340735Y295356D02*
X336225Y295356D01*
X336225Y296296D02*
X340735Y296296D01*
X340735Y297236D02*
X336225Y297236D01*
D11*
X335000Y163820D02*
X341960Y163820D01*
X335000Y163820D02*
X335000Y171780D01*
X341960Y171780D01*
X341960Y163820D01*
X341960Y164808D02*
X335000Y164808D01*
X335000Y165796D02*
X341960Y165796D01*
X341960Y166784D02*
X335000Y166784D01*
X335000Y167772D02*
X341960Y167772D01*
X341960Y168760D02*
X335000Y168760D01*
X335000Y169748D02*
X341960Y169748D01*
X341960Y170736D02*
X335000Y170736D01*
X335000Y171724D02*
X341960Y171724D01*
X354000Y163820D02*
X360960Y163820D01*
X354000Y163820D02*
X354000Y171780D01*
X360960Y171780D01*
X360960Y163820D01*
X360960Y164808D02*
X354000Y164808D01*
X354000Y165796D02*
X360960Y165796D01*
X360960Y166784D02*
X354000Y166784D01*
X354000Y167772D02*
X360960Y167772D01*
X360960Y168760D02*
X354000Y168760D01*
X354000Y169748D02*
X360960Y169748D01*
X360960Y170736D02*
X354000Y170736D01*
X354000Y171724D02*
X360960Y171724D01*
X351460Y184820D02*
X344500Y184820D01*
X344500Y192780D01*
X351460Y192780D01*
X351460Y184820D01*
X351460Y185808D02*
X344500Y185808D01*
X344500Y186796D02*
X351460Y186796D01*
X351460Y187784D02*
X344500Y187784D01*
X344500Y188772D02*
X351460Y188772D01*
X351460Y189760D02*
X344500Y189760D01*
X344500Y190748D02*
X351460Y190748D01*
X351460Y191736D02*
X344500Y191736D01*
X344500Y192724D02*
X351460Y192724D01*
D15*
X356834Y156046D02*
X362126Y156046D01*
X362126Y148754D01*
X356834Y148754D01*
X356834Y156046D01*
X356834Y149712D02*
X362126Y149712D01*
X362126Y150670D02*
X356834Y150670D01*
X356834Y151628D02*
X362126Y151628D01*
X362126Y152586D02*
X356834Y152586D01*
X356834Y153544D02*
X362126Y153544D01*
X362126Y154502D02*
X356834Y154502D01*
X356834Y155460D02*
X362126Y155460D01*
X339126Y156046D02*
X333834Y156046D01*
X339126Y156046D02*
X339126Y148754D01*
X333834Y148754D01*
X333834Y156046D01*
X333834Y149712D02*
X339126Y149712D01*
X339126Y150670D02*
X333834Y150670D01*
X333834Y151628D02*
X339126Y151628D01*
X339126Y152586D02*
X333834Y152586D01*
X333834Y153544D02*
X339126Y153544D01*
X339126Y154502D02*
X333834Y154502D01*
X333834Y155460D02*
X339126Y155460D01*
D10*
X393325Y183606D02*
X397835Y183606D01*
X397835Y172596D01*
X393325Y172596D01*
X393325Y183606D01*
X393325Y173536D02*
X397835Y173536D01*
X397835Y174476D02*
X393325Y174476D01*
X393325Y175416D02*
X397835Y175416D01*
X397835Y176356D02*
X393325Y176356D01*
X393325Y177296D02*
X397835Y177296D01*
X397835Y178236D02*
X393325Y178236D01*
X393325Y179176D02*
X397835Y179176D01*
X397835Y180116D02*
X393325Y180116D01*
X393325Y181056D02*
X397835Y181056D01*
X397835Y181996D02*
X393325Y181996D01*
X393325Y182936D02*
X397835Y182936D01*
X388335Y183606D02*
X383825Y183606D01*
X388335Y183606D02*
X388335Y172596D01*
X383825Y172596D01*
X383825Y183606D01*
X383825Y173536D02*
X388335Y173536D01*
X388335Y174476D02*
X383825Y174476D01*
X383825Y175416D02*
X388335Y175416D01*
X388335Y176356D02*
X383825Y176356D01*
X383825Y177296D02*
X388335Y177296D01*
X388335Y178236D02*
X383825Y178236D01*
X383825Y179176D02*
X388335Y179176D01*
X388335Y180116D02*
X383825Y180116D01*
X383825Y181056D02*
X388335Y181056D01*
X388335Y181996D02*
X383825Y181996D01*
X383825Y182936D02*
X388335Y182936D01*
X378835Y183606D02*
X374325Y183606D01*
X378835Y183606D02*
X378835Y172596D01*
X374325Y172596D01*
X374325Y183606D01*
X374325Y173536D02*
X378835Y173536D01*
X378835Y174476D02*
X374325Y174476D01*
X374325Y175416D02*
X378835Y175416D01*
X378835Y176356D02*
X374325Y176356D01*
X374325Y177296D02*
X378835Y177296D01*
X378835Y178236D02*
X374325Y178236D01*
X374325Y179176D02*
X378835Y179176D01*
X378835Y180116D02*
X374325Y180116D01*
X374325Y181056D02*
X378835Y181056D01*
X378835Y181996D02*
X374325Y181996D01*
X374325Y182936D02*
X378835Y182936D01*
X378835Y157604D02*
X374325Y157604D01*
X378835Y157604D02*
X378835Y146594D01*
X374325Y146594D01*
X374325Y157604D01*
X374325Y147534D02*
X378835Y147534D01*
X378835Y148474D02*
X374325Y148474D01*
X374325Y149414D02*
X378835Y149414D01*
X378835Y150354D02*
X374325Y150354D01*
X374325Y151294D02*
X378835Y151294D01*
X378835Y152234D02*
X374325Y152234D01*
X374325Y153174D02*
X378835Y153174D01*
X378835Y154114D02*
X374325Y154114D01*
X374325Y155054D02*
X378835Y155054D01*
X378835Y155994D02*
X374325Y155994D01*
X374325Y156934D02*
X378835Y156934D01*
X393325Y157604D02*
X397835Y157604D01*
X397835Y146594D01*
X393325Y146594D01*
X393325Y157604D01*
X393325Y147534D02*
X397835Y147534D01*
X397835Y148474D02*
X393325Y148474D01*
X393325Y149414D02*
X397835Y149414D01*
X397835Y150354D02*
X393325Y150354D01*
X393325Y151294D02*
X397835Y151294D01*
X397835Y152234D02*
X393325Y152234D01*
X393325Y153174D02*
X397835Y153174D01*
X397835Y154114D02*
X393325Y154114D01*
X393325Y155054D02*
X397835Y155054D01*
X397835Y155994D02*
X393325Y155994D01*
X393325Y156934D02*
X397835Y156934D01*
D13*
X380530Y137850D02*
X370530Y137850D01*
X380530Y137850D02*
X380530Y128850D01*
X370530Y128850D01*
X370530Y137850D01*
X370530Y129800D02*
X380530Y129800D01*
X380530Y130750D02*
X370530Y130750D01*
X370530Y131700D02*
X380530Y131700D01*
X380530Y132650D02*
X370530Y132650D01*
X370530Y133600D02*
X380530Y133600D01*
X380530Y134550D02*
X370530Y134550D01*
X370530Y135500D02*
X380530Y135500D01*
X380530Y136450D02*
X370530Y136450D01*
X370530Y137400D02*
X380530Y137400D01*
X363530Y137850D02*
X353530Y137850D01*
X363530Y137850D02*
X363530Y128850D01*
X353530Y128850D01*
X353530Y137850D01*
X353530Y129800D02*
X363530Y129800D01*
X363530Y130750D02*
X353530Y130750D01*
X353530Y131700D02*
X363530Y131700D01*
X363530Y132650D02*
X353530Y132650D01*
X353530Y133600D02*
X363530Y133600D01*
X363530Y134550D02*
X353530Y134550D01*
X353530Y135500D02*
X363530Y135500D01*
X363530Y136450D02*
X353530Y136450D01*
X353530Y137400D02*
X363530Y137400D01*
X372580Y192350D02*
X382580Y192350D01*
X372580Y192350D02*
X372580Y201350D01*
X382580Y201350D01*
X382580Y192350D01*
X382580Y193300D02*
X372580Y193300D01*
X372580Y194250D02*
X382580Y194250D01*
X382580Y195200D02*
X372580Y195200D01*
X372580Y196150D02*
X382580Y196150D01*
X382580Y197100D02*
X372580Y197100D01*
X372580Y198050D02*
X382580Y198050D01*
X382580Y199000D02*
X372580Y199000D01*
X372580Y199950D02*
X382580Y199950D01*
X382580Y200900D02*
X372580Y200900D01*
X389580Y192350D02*
X399580Y192350D01*
X389580Y192350D02*
X389580Y201350D01*
X399580Y201350D01*
X399580Y192350D01*
X399580Y193300D02*
X389580Y193300D01*
X389580Y194250D02*
X399580Y194250D01*
X399580Y195200D02*
X389580Y195200D01*
X389580Y196150D02*
X399580Y196150D01*
X399580Y197100D02*
X389580Y197100D01*
X389580Y198050D02*
X399580Y198050D01*
X399580Y199000D02*
X389580Y199000D01*
X389580Y199950D02*
X399580Y199950D01*
X399580Y200900D02*
X389580Y200900D01*
D16*
X388930Y223330D02*
X395930Y223330D01*
X395930Y216330D01*
X388930Y216330D01*
X388930Y223330D01*
X388930Y219180D02*
X395930Y219180D01*
X395930Y222030D02*
X388930Y222030D01*
X388930Y240870D02*
X395930Y240870D01*
X395930Y233870D01*
X388930Y233870D01*
X388930Y240870D01*
X388930Y236720D02*
X395930Y236720D01*
X395930Y239570D02*
X388930Y239570D01*
X321500Y307650D02*
X321500Y314650D01*
X328500Y314650D01*
X328500Y307650D01*
X321500Y307650D01*
X321500Y310500D02*
X328500Y310500D01*
X328500Y313350D02*
X321500Y313350D01*
X303960Y314650D02*
X303960Y307650D01*
X303960Y314650D02*
X310960Y314650D01*
X310960Y307650D01*
X303960Y307650D01*
X303960Y310500D02*
X310960Y310500D01*
X310960Y313350D02*
X303960Y313350D01*
D13*
X357830Y315650D02*
X367830Y315650D01*
X367830Y306650D01*
X357830Y306650D01*
X357830Y315650D01*
X357830Y307600D02*
X367830Y307600D01*
X367830Y308550D02*
X357830Y308550D01*
X357830Y309500D02*
X367830Y309500D01*
X367830Y310450D02*
X357830Y310450D01*
X357830Y311400D02*
X367830Y311400D01*
X367830Y312350D02*
X357830Y312350D01*
X357830Y313300D02*
X367830Y313300D01*
X367830Y314250D02*
X357830Y314250D01*
X357830Y315200D02*
X367830Y315200D01*
X350830Y315650D02*
X340830Y315650D01*
X350830Y315650D02*
X350830Y306650D01*
X340830Y306650D01*
X340830Y315650D01*
X340830Y307600D02*
X350830Y307600D01*
X350830Y308550D02*
X340830Y308550D01*
X340830Y309500D02*
X350830Y309500D01*
X350830Y310450D02*
X340830Y310450D01*
X340830Y311400D02*
X350830Y311400D01*
X350830Y312350D02*
X340830Y312350D01*
X340830Y313300D02*
X350830Y313300D01*
X350830Y314250D02*
X340830Y314250D01*
X340830Y315200D02*
X350830Y315200D01*
D17*
X307368Y259200D03*
X286993Y264200D03*
X286993Y259200D03*
X286993Y269200D03*
X286993Y274200D03*
X307368Y264200D03*
X307368Y269200D03*
X307368Y274200D03*
D18*
X297180Y270100D03*
X297180Y263300D03*
D19*
X392255Y307325D02*
X398205Y307325D01*
X392255Y307325D02*
X392255Y313275D01*
X398205Y313275D01*
X398205Y307325D01*
X398205Y308322D02*
X392255Y308322D01*
X392255Y309319D02*
X398205Y309319D01*
X398205Y310316D02*
X392255Y310316D01*
X392255Y311313D02*
X398205Y311313D01*
X398205Y312310D02*
X392255Y312310D01*
X392255Y296325D02*
X398205Y296325D01*
X392255Y296325D02*
X392255Y302275D01*
X398205Y302275D01*
X398205Y296325D01*
X398205Y297322D02*
X392255Y297322D01*
X392255Y298319D02*
X398205Y298319D01*
X398205Y299316D02*
X392255Y299316D01*
X392255Y300313D02*
X398205Y300313D01*
X398205Y301310D02*
X392255Y301310D01*
X379905Y296325D02*
X373955Y296325D01*
X373955Y302275D01*
X379905Y302275D01*
X379905Y296325D01*
X379905Y297322D02*
X373955Y297322D01*
X373955Y298319D02*
X379905Y298319D01*
X379905Y299316D02*
X373955Y299316D01*
X373955Y300313D02*
X379905Y300313D01*
X379905Y301310D02*
X373955Y301310D01*
X373955Y307325D02*
X379905Y307325D01*
X373955Y307325D02*
X373955Y313275D01*
X379905Y313275D01*
X379905Y307325D01*
X379905Y308322D02*
X373955Y308322D01*
X373955Y309319D02*
X379905Y309319D01*
X379905Y310316D02*
X373955Y310316D01*
X373955Y311313D02*
X379905Y311313D01*
X379905Y312310D02*
X373955Y312310D01*
D13*
X372580Y274900D02*
X382580Y274900D01*
X372580Y274900D02*
X372580Y283900D01*
X382580Y283900D01*
X382580Y274900D01*
X382580Y275850D02*
X372580Y275850D01*
X372580Y276800D02*
X382580Y276800D01*
X382580Y277750D02*
X372580Y277750D01*
X372580Y278700D02*
X382580Y278700D01*
X382580Y279650D02*
X372580Y279650D01*
X372580Y280600D02*
X382580Y280600D01*
X382580Y281550D02*
X372580Y281550D01*
X372580Y282500D02*
X382580Y282500D01*
X382580Y283450D02*
X372580Y283450D01*
X389580Y274900D02*
X399580Y274900D01*
X389580Y274900D02*
X389580Y283900D01*
X399580Y283900D01*
X399580Y274900D01*
X399580Y275850D02*
X389580Y275850D01*
X389580Y276800D02*
X399580Y276800D01*
X399580Y277750D02*
X389580Y277750D01*
X389580Y278700D02*
X399580Y278700D01*
X399580Y279650D02*
X389580Y279650D01*
X389580Y280600D02*
X399580Y280600D01*
X399580Y281550D02*
X389580Y281550D01*
X389580Y282500D02*
X399580Y282500D01*
X399580Y283450D02*
X389580Y283450D01*
D11*
X322910Y113020D02*
X315950Y113020D01*
X315950Y120980D01*
X322910Y120980D01*
X322910Y113020D01*
X322910Y114008D02*
X315950Y114008D01*
X315950Y114996D02*
X322910Y114996D01*
X322910Y115984D02*
X315950Y115984D01*
X315950Y116972D02*
X322910Y116972D01*
X322910Y117960D02*
X315950Y117960D01*
X315950Y118948D02*
X322910Y118948D01*
X322910Y119936D02*
X315950Y119936D01*
X315950Y120924D02*
X322910Y120924D01*
X334950Y113020D02*
X341910Y113020D01*
X334950Y113020D02*
X334950Y120980D01*
X341910Y120980D01*
X341910Y113020D01*
X341910Y114008D02*
X334950Y114008D01*
X334950Y114996D02*
X341910Y114996D01*
X341910Y115984D02*
X334950Y115984D01*
X334950Y116972D02*
X341910Y116972D01*
X341910Y117960D02*
X334950Y117960D01*
X334950Y118948D02*
X341910Y118948D01*
X341910Y119936D02*
X334950Y119936D01*
X334950Y120924D02*
X341910Y120924D01*
X332410Y134020D02*
X325450Y134020D01*
X325450Y141980D01*
X332410Y141980D01*
X332410Y134020D01*
X332410Y135008D02*
X325450Y135008D01*
X325450Y135996D02*
X332410Y135996D01*
X332410Y136984D02*
X325450Y136984D01*
X325450Y137972D02*
X332410Y137972D01*
X332410Y138960D02*
X325450Y138960D01*
X325450Y139948D02*
X332410Y139948D01*
X332410Y140936D02*
X325450Y140936D01*
X325450Y141924D02*
X332410Y141924D01*
D13*
X353530Y113610D02*
X363530Y113610D01*
X353530Y113610D02*
X353530Y122610D01*
X363530Y122610D01*
X363530Y113610D01*
X363530Y114560D02*
X353530Y114560D01*
X353530Y115510D02*
X363530Y115510D01*
X363530Y116460D02*
X353530Y116460D01*
X353530Y117410D02*
X363530Y117410D01*
X363530Y118360D02*
X353530Y118360D01*
X353530Y119310D02*
X363530Y119310D01*
X363530Y120260D02*
X353530Y120260D01*
X353530Y121210D02*
X363530Y121210D01*
X363530Y122160D02*
X353530Y122160D01*
X370530Y113610D02*
X380530Y113610D01*
X370530Y113610D02*
X370530Y122610D01*
X380530Y122610D01*
X380530Y113610D01*
X380530Y114560D02*
X370530Y114560D01*
X370530Y115510D02*
X380530Y115510D01*
X380530Y116460D02*
X370530Y116460D01*
X370530Y117410D02*
X380530Y117410D01*
X380530Y118360D02*
X370530Y118360D01*
X370530Y119310D02*
X380530Y119310D01*
X380530Y120260D02*
X370530Y120260D01*
X370530Y121210D02*
X380530Y121210D01*
X380530Y122160D02*
X370530Y122160D01*
D10*
X492155Y505795D02*
X506165Y505795D01*
X492155Y505795D02*
X492155Y513805D01*
X506165Y513805D01*
X506165Y505795D01*
X506165Y506735D02*
X492155Y506735D01*
X492155Y507675D02*
X506165Y507675D01*
X506165Y508615D02*
X492155Y508615D01*
X492155Y509555D02*
X506165Y509555D01*
X506165Y510495D02*
X492155Y510495D01*
X492155Y511435D02*
X506165Y511435D01*
X506165Y512375D02*
X492155Y512375D01*
X492155Y513315D02*
X506165Y513315D01*
X506165Y493095D02*
X492155Y493095D01*
X492155Y501105D01*
X506165Y501105D01*
X506165Y493095D01*
X506165Y494035D02*
X492155Y494035D01*
X492155Y494975D02*
X506165Y494975D01*
X506165Y495915D02*
X492155Y495915D01*
X492155Y496855D02*
X506165Y496855D01*
X506165Y497795D02*
X492155Y497795D01*
X492155Y498735D02*
X506165Y498735D01*
X506165Y499675D02*
X492155Y499675D01*
X492155Y500615D02*
X506165Y500615D01*
X506165Y480395D02*
X492155Y480395D01*
X492155Y488405D01*
X506165Y488405D01*
X506165Y480395D01*
X506165Y481335D02*
X492155Y481335D01*
X492155Y482275D02*
X506165Y482275D01*
X506165Y483215D02*
X492155Y483215D01*
X492155Y484155D02*
X506165Y484155D01*
X506165Y485095D02*
X492155Y485095D01*
X492155Y486035D02*
X506165Y486035D01*
X506165Y486975D02*
X492155Y486975D01*
X492155Y487915D02*
X506165Y487915D01*
X506165Y467695D02*
X492155Y467695D01*
X492155Y475705D01*
X506165Y475705D01*
X506165Y467695D01*
X506165Y468635D02*
X492155Y468635D01*
X492155Y469575D02*
X506165Y469575D01*
X506165Y470515D02*
X492155Y470515D01*
X492155Y471455D02*
X506165Y471455D01*
X506165Y472395D02*
X492155Y472395D01*
X492155Y473335D02*
X506165Y473335D01*
X506165Y474275D02*
X492155Y474275D01*
X492155Y475215D02*
X506165Y475215D01*
X506165Y454995D02*
X492155Y454995D01*
X492155Y463005D01*
X506165Y463005D01*
X506165Y454995D01*
X506165Y455935D02*
X492155Y455935D01*
X492155Y456875D02*
X506165Y456875D01*
X506165Y457815D02*
X492155Y457815D01*
X492155Y458755D02*
X506165Y458755D01*
X506165Y459695D02*
X492155Y459695D01*
X492155Y460635D02*
X506165Y460635D01*
X506165Y461575D02*
X492155Y461575D01*
X492155Y462515D02*
X506165Y462515D01*
X506165Y442295D02*
X492155Y442295D01*
X492155Y450305D01*
X506165Y450305D01*
X506165Y442295D01*
X506165Y443235D02*
X492155Y443235D01*
X492155Y444175D02*
X506165Y444175D01*
X506165Y445115D02*
X492155Y445115D01*
X492155Y446055D02*
X506165Y446055D01*
X506165Y446995D02*
X492155Y446995D01*
X492155Y447935D02*
X506165Y447935D01*
X506165Y448875D02*
X492155Y448875D01*
X492155Y449815D02*
X506165Y449815D01*
X506165Y429595D02*
X492155Y429595D01*
X492155Y437605D01*
X506165Y437605D01*
X506165Y429595D01*
X506165Y430535D02*
X492155Y430535D01*
X492155Y431475D02*
X506165Y431475D01*
X506165Y432415D02*
X492155Y432415D01*
X492155Y433355D02*
X506165Y433355D01*
X506165Y434295D02*
X492155Y434295D01*
X492155Y435235D02*
X506165Y435235D01*
X506165Y436175D02*
X492155Y436175D01*
X492155Y437115D02*
X506165Y437115D01*
X506165Y416895D02*
X492155Y416895D01*
X492155Y424905D01*
X506165Y424905D01*
X506165Y416895D01*
X506165Y417835D02*
X492155Y417835D01*
X492155Y418775D02*
X506165Y418775D01*
X506165Y419715D02*
X492155Y419715D01*
X492155Y420655D02*
X506165Y420655D01*
X506165Y421595D02*
X492155Y421595D01*
X492155Y422535D02*
X506165Y422535D01*
X506165Y423475D02*
X492155Y423475D01*
X492155Y424415D02*
X506165Y424415D01*
X506165Y404195D02*
X492155Y404195D01*
X492155Y412205D01*
X506165Y412205D01*
X506165Y404195D01*
X506165Y405135D02*
X492155Y405135D01*
X492155Y406075D02*
X506165Y406075D01*
X506165Y407015D02*
X492155Y407015D01*
X492155Y407955D02*
X506165Y407955D01*
X506165Y408895D02*
X492155Y408895D01*
X492155Y409835D02*
X506165Y409835D01*
X506165Y410775D02*
X492155Y410775D01*
X492155Y411715D02*
X506165Y411715D01*
X506165Y391495D02*
X492155Y391495D01*
X492155Y399505D01*
X506165Y399505D01*
X506165Y391495D01*
X506165Y392435D02*
X492155Y392435D01*
X492155Y393375D02*
X506165Y393375D01*
X506165Y394315D02*
X492155Y394315D01*
X492155Y395255D02*
X506165Y395255D01*
X506165Y396195D02*
X492155Y396195D01*
X492155Y397135D02*
X506165Y397135D01*
X506165Y398075D02*
X492155Y398075D01*
X492155Y399015D02*
X506165Y399015D01*
X506165Y378795D02*
X492155Y378795D01*
X492155Y386805D01*
X506165Y386805D01*
X506165Y378795D01*
X506165Y379735D02*
X492155Y379735D01*
X492155Y380675D02*
X506165Y380675D01*
X506165Y381615D02*
X492155Y381615D01*
X492155Y382555D02*
X506165Y382555D01*
X506165Y383495D02*
X492155Y383495D01*
X492155Y384435D02*
X506165Y384435D01*
X506165Y385375D02*
X492155Y385375D01*
X492155Y386315D02*
X506165Y386315D01*
X506165Y366095D02*
X492155Y366095D01*
X492155Y374105D01*
X506165Y374105D01*
X506165Y366095D01*
X506165Y367035D02*
X492155Y367035D01*
X492155Y367975D02*
X506165Y367975D01*
X506165Y368915D02*
X492155Y368915D01*
X492155Y369855D02*
X506165Y369855D01*
X506165Y370795D02*
X492155Y370795D01*
X492155Y371735D02*
X506165Y371735D01*
X506165Y372675D02*
X492155Y372675D01*
X492155Y373615D02*
X506165Y373615D01*
X506165Y353395D02*
X492155Y353395D01*
X492155Y361405D01*
X506165Y361405D01*
X506165Y353395D01*
X506165Y354335D02*
X492155Y354335D01*
X492155Y355275D02*
X506165Y355275D01*
X506165Y356215D02*
X492155Y356215D01*
X492155Y357155D02*
X506165Y357155D01*
X506165Y358095D02*
X492155Y358095D01*
X492155Y359035D02*
X506165Y359035D01*
X506165Y359975D02*
X492155Y359975D01*
X492155Y360915D02*
X506165Y360915D01*
X506165Y340695D02*
X492155Y340695D01*
X492155Y348705D01*
X506165Y348705D01*
X506165Y340695D01*
X506165Y341635D02*
X492155Y341635D01*
X492155Y342575D02*
X506165Y342575D01*
X506165Y343515D02*
X492155Y343515D01*
X492155Y344455D02*
X506165Y344455D01*
X506165Y345395D02*
X492155Y345395D01*
X492155Y346335D02*
X506165Y346335D01*
X506165Y347275D02*
X492155Y347275D01*
X492155Y348215D02*
X506165Y348215D01*
X657155Y340695D02*
X671165Y340695D01*
X657155Y340695D02*
X657155Y348705D01*
X671165Y348705D01*
X671165Y340695D01*
X671165Y341635D02*
X657155Y341635D01*
X657155Y342575D02*
X671165Y342575D01*
X671165Y343515D02*
X657155Y343515D01*
X657155Y344455D02*
X671165Y344455D01*
X671165Y345395D02*
X657155Y345395D01*
X657155Y346335D02*
X671165Y346335D01*
X671165Y347275D02*
X657155Y347275D01*
X657155Y348215D02*
X671165Y348215D01*
X671165Y353395D02*
X657155Y353395D01*
X657155Y361405D01*
X671165Y361405D01*
X671165Y353395D01*
X671165Y354335D02*
X657155Y354335D01*
X657155Y355275D02*
X671165Y355275D01*
X671165Y356215D02*
X657155Y356215D01*
X657155Y357155D02*
X671165Y357155D01*
X671165Y358095D02*
X657155Y358095D01*
X657155Y359035D02*
X671165Y359035D01*
X671165Y359975D02*
X657155Y359975D01*
X657155Y360915D02*
X671165Y360915D01*
X671165Y366095D02*
X657155Y366095D01*
X657155Y374105D01*
X671165Y374105D01*
X671165Y366095D01*
X671165Y367035D02*
X657155Y367035D01*
X657155Y367975D02*
X671165Y367975D01*
X671165Y368915D02*
X657155Y368915D01*
X657155Y369855D02*
X671165Y369855D01*
X671165Y370795D02*
X657155Y370795D01*
X657155Y371735D02*
X671165Y371735D01*
X671165Y372675D02*
X657155Y372675D01*
X657155Y373615D02*
X671165Y373615D01*
X671165Y378795D02*
X657155Y378795D01*
X657155Y386805D01*
X671165Y386805D01*
X671165Y378795D01*
X671165Y379735D02*
X657155Y379735D01*
X657155Y380675D02*
X671165Y380675D01*
X671165Y381615D02*
X657155Y381615D01*
X657155Y382555D02*
X671165Y382555D01*
X671165Y383495D02*
X657155Y383495D01*
X657155Y384435D02*
X671165Y384435D01*
X671165Y385375D02*
X657155Y385375D01*
X657155Y386315D02*
X671165Y386315D01*
X671165Y391495D02*
X657155Y391495D01*
X657155Y399505D01*
X671165Y399505D01*
X671165Y391495D01*
X671165Y392435D02*
X657155Y392435D01*
X657155Y393375D02*
X671165Y393375D01*
X671165Y394315D02*
X657155Y394315D01*
X657155Y395255D02*
X671165Y395255D01*
X671165Y396195D02*
X657155Y396195D01*
X657155Y397135D02*
X671165Y397135D01*
X671165Y398075D02*
X657155Y398075D01*
X657155Y399015D02*
X671165Y399015D01*
X671165Y404195D02*
X657155Y404195D01*
X657155Y412205D01*
X671165Y412205D01*
X671165Y404195D01*
X671165Y405135D02*
X657155Y405135D01*
X657155Y406075D02*
X671165Y406075D01*
X671165Y407015D02*
X657155Y407015D01*
X657155Y407955D02*
X671165Y407955D01*
X671165Y408895D02*
X657155Y408895D01*
X657155Y409835D02*
X671165Y409835D01*
X671165Y410775D02*
X657155Y410775D01*
X657155Y411715D02*
X671165Y411715D01*
X671165Y416895D02*
X657155Y416895D01*
X657155Y424905D01*
X671165Y424905D01*
X671165Y416895D01*
X671165Y417835D02*
X657155Y417835D01*
X657155Y418775D02*
X671165Y418775D01*
X671165Y419715D02*
X657155Y419715D01*
X657155Y420655D02*
X671165Y420655D01*
X671165Y421595D02*
X657155Y421595D01*
X657155Y422535D02*
X671165Y422535D01*
X671165Y423475D02*
X657155Y423475D01*
X657155Y424415D02*
X671165Y424415D01*
X671165Y429595D02*
X657155Y429595D01*
X657155Y437605D01*
X671165Y437605D01*
X671165Y429595D01*
X671165Y430535D02*
X657155Y430535D01*
X657155Y431475D02*
X671165Y431475D01*
X671165Y432415D02*
X657155Y432415D01*
X657155Y433355D02*
X671165Y433355D01*
X671165Y434295D02*
X657155Y434295D01*
X657155Y435235D02*
X671165Y435235D01*
X671165Y436175D02*
X657155Y436175D01*
X657155Y437115D02*
X671165Y437115D01*
X671165Y442295D02*
X657155Y442295D01*
X657155Y450305D01*
X671165Y450305D01*
X671165Y442295D01*
X671165Y443235D02*
X657155Y443235D01*
X657155Y444175D02*
X671165Y444175D01*
X671165Y445115D02*
X657155Y445115D01*
X657155Y446055D02*
X671165Y446055D01*
X671165Y446995D02*
X657155Y446995D01*
X657155Y447935D02*
X671165Y447935D01*
X671165Y448875D02*
X657155Y448875D01*
X657155Y449815D02*
X671165Y449815D01*
X671165Y454995D02*
X657155Y454995D01*
X657155Y463005D01*
X671165Y463005D01*
X671165Y454995D01*
X671165Y455935D02*
X657155Y455935D01*
X657155Y456875D02*
X671165Y456875D01*
X671165Y457815D02*
X657155Y457815D01*
X657155Y458755D02*
X671165Y458755D01*
X671165Y459695D02*
X657155Y459695D01*
X657155Y460635D02*
X671165Y460635D01*
X671165Y461575D02*
X657155Y461575D01*
X657155Y462515D02*
X671165Y462515D01*
X671165Y467695D02*
X657155Y467695D01*
X657155Y475705D01*
X671165Y475705D01*
X671165Y467695D01*
X671165Y468635D02*
X657155Y468635D01*
X657155Y469575D02*
X671165Y469575D01*
X671165Y470515D02*
X657155Y470515D01*
X657155Y471455D02*
X671165Y471455D01*
X671165Y472395D02*
X657155Y472395D01*
X657155Y473335D02*
X671165Y473335D01*
X671165Y474275D02*
X657155Y474275D01*
X657155Y475215D02*
X671165Y475215D01*
X671165Y480395D02*
X657155Y480395D01*
X657155Y488405D01*
X671165Y488405D01*
X671165Y480395D01*
X671165Y481335D02*
X657155Y481335D01*
X657155Y482275D02*
X671165Y482275D01*
X671165Y483215D02*
X657155Y483215D01*
X657155Y484155D02*
X671165Y484155D01*
X671165Y485095D02*
X657155Y485095D01*
X657155Y486035D02*
X671165Y486035D01*
X671165Y486975D02*
X657155Y486975D01*
X657155Y487915D02*
X671165Y487915D01*
X671165Y493095D02*
X657155Y493095D01*
X657155Y501105D01*
X671165Y501105D01*
X671165Y493095D01*
X671165Y494035D02*
X657155Y494035D01*
X657155Y494975D02*
X671165Y494975D01*
X671165Y495915D02*
X657155Y495915D01*
X657155Y496855D02*
X671165Y496855D01*
X671165Y497795D02*
X657155Y497795D01*
X657155Y498735D02*
X671165Y498735D01*
X671165Y499675D02*
X657155Y499675D01*
X657155Y500615D02*
X671165Y500615D01*
X671165Y505795D02*
X657155Y505795D01*
X657155Y513805D01*
X671165Y513805D01*
X671165Y505795D01*
X671165Y506735D02*
X657155Y506735D01*
X657155Y507675D02*
X671165Y507675D01*
X671165Y508615D02*
X657155Y508615D01*
X657155Y509555D02*
X671165Y509555D01*
X671165Y510495D02*
X657155Y510495D01*
X657155Y511435D02*
X671165Y511435D01*
X671165Y512375D02*
X657155Y512375D01*
X657155Y513315D02*
X671165Y513315D01*
D11*
X557590Y461620D02*
X550630Y461620D01*
X550630Y468580D01*
X557590Y468580D01*
X557590Y461620D01*
X557590Y462608D02*
X550630Y462608D01*
X550630Y463596D02*
X557590Y463596D01*
X557590Y464584D02*
X550630Y464584D01*
X550630Y465572D02*
X557590Y465572D01*
X557590Y466560D02*
X550630Y466560D01*
X550630Y467548D02*
X557590Y467548D01*
X557590Y468536D02*
X550630Y468536D01*
X550630Y449120D02*
X557590Y449120D01*
X550630Y449120D02*
X550630Y456080D01*
X557590Y456080D01*
X557590Y449120D01*
X557590Y450108D02*
X550630Y450108D01*
X550630Y451096D02*
X557590Y451096D01*
X557590Y452084D02*
X550630Y452084D01*
X550630Y453072D02*
X557590Y453072D01*
X557590Y454060D02*
X550630Y454060D01*
X550630Y455048D02*
X557590Y455048D01*
X557590Y456036D02*
X550630Y456036D01*
X550630Y436620D02*
X557590Y436620D01*
X550630Y436620D02*
X550630Y443580D01*
X557590Y443580D01*
X557590Y436620D01*
X557590Y437608D02*
X550630Y437608D01*
X550630Y438596D02*
X557590Y438596D01*
X557590Y439584D02*
X550630Y439584D01*
X550630Y440572D02*
X557590Y440572D01*
X557590Y441560D02*
X550630Y441560D01*
X550630Y442548D02*
X557590Y442548D01*
X557590Y443536D02*
X550630Y443536D01*
X563130Y436620D02*
X570090Y436620D01*
X563130Y436620D02*
X563130Y443580D01*
X570090Y443580D01*
X570090Y436620D01*
X570090Y437608D02*
X563130Y437608D01*
X563130Y438596D02*
X570090Y438596D01*
X570090Y439584D02*
X563130Y439584D01*
X563130Y440572D02*
X570090Y440572D01*
X570090Y441560D02*
X563130Y441560D01*
X563130Y442548D02*
X570090Y442548D01*
X570090Y443536D02*
X563130Y443536D01*
X575630Y436620D02*
X582590Y436620D01*
X575630Y436620D02*
X575630Y443580D01*
X582590Y443580D01*
X582590Y436620D01*
X582590Y437608D02*
X575630Y437608D01*
X575630Y438596D02*
X582590Y438596D01*
X582590Y439584D02*
X575630Y439584D01*
X575630Y440572D02*
X582590Y440572D01*
X582590Y441560D02*
X575630Y441560D01*
X575630Y442548D02*
X582590Y442548D01*
X582590Y443536D02*
X575630Y443536D01*
X575630Y449120D02*
X582590Y449120D01*
X575630Y449120D02*
X575630Y456080D01*
X582590Y456080D01*
X582590Y449120D01*
X582590Y450108D02*
X575630Y450108D01*
X575630Y451096D02*
X582590Y451096D01*
X582590Y452084D02*
X575630Y452084D01*
X575630Y453072D02*
X582590Y453072D01*
X582590Y454060D02*
X575630Y454060D01*
X575630Y455048D02*
X582590Y455048D01*
X582590Y456036D02*
X575630Y456036D01*
X575630Y461620D02*
X582590Y461620D01*
X575630Y461620D02*
X575630Y468580D01*
X582590Y468580D01*
X582590Y461620D01*
X582590Y462608D02*
X575630Y462608D01*
X575630Y463596D02*
X582590Y463596D01*
X582590Y464584D02*
X575630Y464584D01*
X575630Y465572D02*
X582590Y465572D01*
X582590Y466560D02*
X575630Y466560D01*
X575630Y467548D02*
X582590Y467548D01*
X582590Y468536D02*
X575630Y468536D01*
X570090Y461620D02*
X563130Y461620D01*
X563130Y468580D01*
X570090Y468580D01*
X570090Y461620D01*
X570090Y462608D02*
X563130Y462608D01*
X563130Y463596D02*
X570090Y463596D01*
X570090Y464584D02*
X563130Y464584D01*
X563130Y465572D02*
X570090Y465572D01*
X570090Y466560D02*
X563130Y466560D01*
X563130Y467548D02*
X570090Y467548D01*
X570090Y468536D02*
X563130Y468536D01*
X563130Y449120D02*
X570090Y449120D01*
X563130Y449120D02*
X563130Y456080D01*
X570090Y456080D01*
X570090Y449120D01*
X570090Y450108D02*
X563130Y450108D01*
X563130Y451096D02*
X570090Y451096D01*
X570090Y452084D02*
X563130Y452084D01*
X563130Y453072D02*
X570090Y453072D01*
X570090Y454060D02*
X563130Y454060D01*
X563130Y455048D02*
X570090Y455048D01*
X570090Y456036D02*
X563130Y456036D01*
D12*
X588170Y55610D02*
X590150Y55610D01*
X588170Y55610D02*
X588170Y64590D01*
X590150Y64590D01*
X590150Y55610D01*
X590150Y56579D02*
X588170Y56579D01*
X588170Y57548D02*
X590150Y57548D01*
X590150Y58517D02*
X588170Y58517D01*
X588170Y59486D02*
X590150Y59486D01*
X590150Y60455D02*
X588170Y60455D01*
X588170Y61424D02*
X590150Y61424D01*
X590150Y62393D02*
X588170Y62393D01*
X588170Y63362D02*
X590150Y63362D01*
X590150Y64331D02*
X588170Y64331D01*
X585150Y55610D02*
X583170Y55610D01*
X583170Y64590D01*
X585150Y64590D01*
X585150Y55610D01*
X585150Y56579D02*
X583170Y56579D01*
X583170Y57548D02*
X585150Y57548D01*
X585150Y58517D02*
X583170Y58517D01*
X583170Y59486D02*
X585150Y59486D01*
X585150Y60455D02*
X583170Y60455D01*
X583170Y61424D02*
X585150Y61424D01*
X585150Y62393D02*
X583170Y62393D01*
X583170Y63362D02*
X585150Y63362D01*
X585150Y64331D02*
X583170Y64331D01*
X611420Y55610D02*
X616400Y55610D01*
X611420Y55610D02*
X611420Y64590D01*
X616400Y64590D01*
X616400Y55610D01*
X616400Y56579D02*
X611420Y56579D01*
X611420Y57548D02*
X616400Y57548D01*
X616400Y58517D02*
X611420Y58517D01*
X611420Y59486D02*
X616400Y59486D01*
X616400Y60455D02*
X611420Y60455D01*
X611420Y61424D02*
X616400Y61424D01*
X616400Y62393D02*
X611420Y62393D01*
X611420Y63362D02*
X616400Y63362D01*
X616400Y64331D02*
X611420Y64331D01*
X608650Y55610D02*
X603670Y55610D01*
X603670Y64590D01*
X608650Y64590D01*
X608650Y55610D01*
X608650Y56579D02*
X603670Y56579D01*
X603670Y57548D02*
X608650Y57548D01*
X608650Y58517D02*
X603670Y58517D01*
X603670Y59486D02*
X608650Y59486D01*
X608650Y60455D02*
X603670Y60455D01*
X603670Y61424D02*
X608650Y61424D01*
X608650Y62393D02*
X603670Y62393D01*
X603670Y63362D02*
X608650Y63362D01*
X608650Y64331D02*
X603670Y64331D01*
X600150Y55610D02*
X598170Y55610D01*
X598170Y64590D01*
X600150Y64590D01*
X600150Y55610D01*
X600150Y56579D02*
X598170Y56579D01*
X598170Y57548D02*
X600150Y57548D01*
X600150Y58517D02*
X598170Y58517D01*
X598170Y59486D02*
X600150Y59486D01*
X600150Y60455D02*
X598170Y60455D01*
X598170Y61424D02*
X600150Y61424D01*
X600150Y62393D02*
X598170Y62393D01*
X598170Y63362D02*
X600150Y63362D01*
X600150Y64331D02*
X598170Y64331D01*
X595150Y55610D02*
X593170Y55610D01*
X593170Y64590D01*
X595150Y64590D01*
X595150Y55610D01*
X595150Y56579D02*
X593170Y56579D01*
X593170Y57548D02*
X595150Y57548D01*
X595150Y58517D02*
X593170Y58517D01*
X593170Y59486D02*
X595150Y59486D01*
X595150Y60455D02*
X593170Y60455D01*
X593170Y61424D02*
X595150Y61424D01*
X595150Y62393D02*
X593170Y62393D01*
X593170Y63362D02*
X595150Y63362D01*
X595150Y64331D02*
X593170Y64331D01*
X575150Y64590D02*
X573170Y64590D01*
X575150Y64590D02*
X575150Y55610D01*
X573170Y55610D01*
X573170Y64590D01*
X573170Y56579D02*
X575150Y56579D01*
X575150Y57548D02*
X573170Y57548D01*
X573170Y58517D02*
X575150Y58517D01*
X575150Y59486D02*
X573170Y59486D01*
X573170Y60455D02*
X575150Y60455D01*
X575150Y61424D02*
X573170Y61424D01*
X573170Y62393D02*
X575150Y62393D01*
X575150Y63362D02*
X573170Y63362D01*
X573170Y64331D02*
X575150Y64331D01*
X578170Y64590D02*
X580150Y64590D01*
X580150Y55610D01*
X578170Y55610D01*
X578170Y64590D01*
X578170Y56579D02*
X580150Y56579D01*
X580150Y57548D02*
X578170Y57548D01*
X578170Y58517D02*
X580150Y58517D01*
X580150Y59486D02*
X578170Y59486D01*
X578170Y60455D02*
X580150Y60455D01*
X580150Y61424D02*
X578170Y61424D01*
X578170Y62393D02*
X580150Y62393D01*
X580150Y63362D02*
X578170Y63362D01*
X578170Y64331D02*
X580150Y64331D01*
X551900Y64590D02*
X546920Y64590D01*
X551900Y64590D02*
X551900Y55610D01*
X546920Y55610D01*
X546920Y64590D01*
X546920Y56579D02*
X551900Y56579D01*
X551900Y57548D02*
X546920Y57548D01*
X546920Y58517D02*
X551900Y58517D01*
X551900Y59486D02*
X546920Y59486D01*
X546920Y60455D02*
X551900Y60455D01*
X551900Y61424D02*
X546920Y61424D01*
X546920Y62393D02*
X551900Y62393D01*
X551900Y63362D02*
X546920Y63362D01*
X546920Y64331D02*
X551900Y64331D01*
X554670Y64590D02*
X559650Y64590D01*
X559650Y55610D01*
X554670Y55610D01*
X554670Y64590D01*
X554670Y56579D02*
X559650Y56579D01*
X559650Y57548D02*
X554670Y57548D01*
X554670Y58517D02*
X559650Y58517D01*
X559650Y59486D02*
X554670Y59486D01*
X554670Y60455D02*
X559650Y60455D01*
X559650Y61424D02*
X554670Y61424D01*
X554670Y62393D02*
X559650Y62393D01*
X559650Y63362D02*
X554670Y63362D01*
X554670Y64331D02*
X559650Y64331D01*
X563170Y64590D02*
X565150Y64590D01*
X565150Y55610D01*
X563170Y55610D01*
X563170Y64590D01*
X563170Y56579D02*
X565150Y56579D01*
X565150Y57548D02*
X563170Y57548D01*
X563170Y58517D02*
X565150Y58517D01*
X565150Y59486D02*
X563170Y59486D01*
X563170Y60455D02*
X565150Y60455D01*
X565150Y61424D02*
X563170Y61424D01*
X563170Y62393D02*
X565150Y62393D01*
X565150Y63362D02*
X563170Y63362D01*
X563170Y64331D02*
X565150Y64331D01*
X568170Y64590D02*
X570150Y64590D01*
X570150Y55610D01*
X568170Y55610D01*
X568170Y64590D01*
X568170Y56579D02*
X570150Y56579D01*
X570150Y57548D02*
X568170Y57548D01*
X568170Y58517D02*
X570150Y58517D01*
X570150Y59486D02*
X568170Y59486D01*
X568170Y60455D02*
X570150Y60455D01*
X570150Y61424D02*
X568170Y61424D01*
X568170Y62393D02*
X570150Y62393D01*
X570150Y63362D02*
X568170Y63362D01*
X568170Y64331D02*
X570150Y64331D01*
D13*
X610560Y80700D02*
X620560Y80700D01*
X620560Y71700D01*
X610560Y71700D01*
X610560Y80700D01*
X610560Y72650D02*
X620560Y72650D01*
X620560Y73600D02*
X610560Y73600D01*
X610560Y74550D02*
X620560Y74550D01*
X620560Y75500D02*
X610560Y75500D01*
X610560Y76450D02*
X620560Y76450D01*
X620560Y77400D02*
X610560Y77400D01*
X610560Y78350D02*
X620560Y78350D01*
X620560Y79300D02*
X610560Y79300D01*
X610560Y80250D02*
X620560Y80250D01*
X603560Y80700D02*
X593560Y80700D01*
X603560Y80700D02*
X603560Y71700D01*
X593560Y71700D01*
X593560Y80700D01*
X593560Y72650D02*
X603560Y72650D01*
X603560Y73600D02*
X593560Y73600D01*
X593560Y74550D02*
X603560Y74550D01*
X603560Y75500D02*
X593560Y75500D01*
X593560Y76450D02*
X603560Y76450D01*
X603560Y77400D02*
X593560Y77400D01*
X593560Y78350D02*
X603560Y78350D01*
X603560Y79300D02*
X593560Y79300D01*
X593560Y80250D02*
X603560Y80250D01*
X552760Y71700D02*
X542760Y71700D01*
X542760Y80700D01*
X552760Y80700D01*
X552760Y71700D01*
X552760Y72650D02*
X542760Y72650D01*
X542760Y73600D02*
X552760Y73600D01*
X552760Y74550D02*
X542760Y74550D01*
X542760Y75500D02*
X552760Y75500D01*
X552760Y76450D02*
X542760Y76450D01*
X542760Y77400D02*
X552760Y77400D01*
X552760Y78350D02*
X542760Y78350D01*
X542760Y79300D02*
X552760Y79300D01*
X552760Y80250D02*
X542760Y80250D01*
X559760Y71700D02*
X569760Y71700D01*
X559760Y71700D02*
X559760Y80700D01*
X569760Y80700D01*
X569760Y71700D01*
X569760Y72650D02*
X559760Y72650D01*
X559760Y73600D02*
X569760Y73600D01*
X569760Y74550D02*
X559760Y74550D01*
X559760Y75500D02*
X569760Y75500D01*
X569760Y76450D02*
X559760Y76450D01*
X559760Y77400D02*
X569760Y77400D01*
X569760Y78350D02*
X559760Y78350D01*
X559760Y79300D02*
X569760Y79300D01*
X569760Y80250D02*
X559760Y80250D01*
X562420Y163300D02*
X562420Y172300D01*
X562420Y163300D02*
X517420Y163300D01*
X517420Y172300D01*
X562420Y172300D01*
X562420Y164250D02*
X517420Y164250D01*
X517420Y165200D02*
X562420Y165200D01*
X562420Y166150D02*
X517420Y166150D01*
X517420Y167100D02*
X562420Y167100D01*
X562420Y168050D02*
X517420Y168050D01*
X517420Y169000D02*
X562420Y169000D01*
X562420Y169950D02*
X517420Y169950D01*
X517420Y170900D02*
X562420Y170900D01*
X562420Y171850D02*
X517420Y171850D01*
X562420Y183300D02*
X562420Y192300D01*
X562420Y183300D02*
X517420Y183300D01*
X517420Y192300D01*
X562420Y192300D01*
X562420Y184250D02*
X517420Y184250D01*
X517420Y185200D02*
X562420Y185200D01*
X562420Y186150D02*
X517420Y186150D01*
X517420Y187100D02*
X562420Y187100D01*
X562420Y188050D02*
X517420Y188050D01*
X517420Y189000D02*
X562420Y189000D01*
X562420Y189950D02*
X517420Y189950D01*
X517420Y190900D02*
X562420Y190900D01*
X562420Y191850D02*
X517420Y191850D01*
D14*
X504440Y151320D02*
X471400Y151320D01*
X504440Y151320D02*
X504440Y136280D01*
X471400Y136280D01*
X471400Y151320D01*
X471400Y137192D02*
X504440Y137192D01*
X504440Y138104D02*
X471400Y138104D01*
X471400Y139016D02*
X504440Y139016D01*
X504440Y139928D02*
X471400Y139928D01*
X471400Y140840D02*
X504440Y140840D01*
X504440Y141752D02*
X471400Y141752D01*
X471400Y142664D02*
X504440Y142664D01*
X504440Y143576D02*
X471400Y143576D01*
X471400Y144488D02*
X504440Y144488D01*
X504440Y145400D02*
X471400Y145400D01*
X471400Y146312D02*
X504440Y146312D01*
X504440Y147224D02*
X471400Y147224D01*
X471400Y148136D02*
X504440Y148136D01*
X504440Y149048D02*
X471400Y149048D01*
X471400Y149960D02*
X504440Y149960D01*
X504440Y150872D02*
X471400Y150872D01*
X471400Y219320D02*
X504440Y219320D01*
X504440Y204280D01*
X471400Y204280D01*
X471400Y219320D01*
X471400Y205192D02*
X504440Y205192D01*
X504440Y206104D02*
X471400Y206104D01*
X471400Y207016D02*
X504440Y207016D01*
X504440Y207928D02*
X471400Y207928D01*
X471400Y208840D02*
X504440Y208840D01*
X504440Y209752D02*
X471400Y209752D01*
X471400Y210664D02*
X504440Y210664D01*
X504440Y211576D02*
X471400Y211576D01*
X471400Y212488D02*
X504440Y212488D01*
X504440Y213400D02*
X471400Y213400D01*
X471400Y214312D02*
X504440Y214312D01*
X504440Y215224D02*
X471400Y215224D01*
X471400Y216136D02*
X504440Y216136D01*
X504440Y217048D02*
X471400Y217048D01*
X471400Y217960D02*
X504440Y217960D01*
X504440Y218872D02*
X471400Y218872D01*
X471890Y122420D02*
X471890Y111380D01*
X471890Y122420D02*
X490930Y122420D01*
X490930Y111380D01*
X471890Y111380D01*
X471890Y112292D02*
X490930Y112292D01*
X490930Y113204D02*
X471890Y113204D01*
X471890Y114116D02*
X490930Y114116D01*
X490930Y115028D02*
X471890Y115028D01*
X471890Y115940D02*
X490930Y115940D01*
X490930Y116852D02*
X471890Y116852D01*
X471890Y117764D02*
X490930Y117764D01*
X490930Y118676D02*
X471890Y118676D01*
X471890Y119588D02*
X490930Y119588D01*
X490930Y120500D02*
X471890Y120500D01*
X471890Y121412D02*
X490930Y121412D01*
X490930Y122324D02*
X471890Y122324D01*
X471890Y66420D02*
X471890Y55380D01*
X471890Y66420D02*
X490930Y66420D01*
X490930Y55380D01*
X471890Y55380D01*
X471890Y56292D02*
X490930Y56292D01*
X490930Y57204D02*
X471890Y57204D01*
X471890Y58116D02*
X490930Y58116D01*
X490930Y59028D02*
X471890Y59028D01*
X471890Y59940D02*
X490930Y59940D01*
X490930Y60852D02*
X471890Y60852D01*
X471890Y61764D02*
X490930Y61764D01*
X490930Y62676D02*
X471890Y62676D01*
X471890Y63588D02*
X490930Y63588D01*
X490930Y64500D02*
X471890Y64500D01*
X471890Y65412D02*
X490930Y65412D01*
X490930Y66324D02*
X471890Y66324D01*
D12*
X511920Y101410D02*
X511920Y106390D01*
X524400Y106390D01*
X524400Y101410D01*
X511920Y101410D01*
X511920Y102379D02*
X524400Y102379D01*
X524400Y103348D02*
X511920Y103348D01*
X511920Y104317D02*
X524400Y104317D01*
X524400Y105286D02*
X511920Y105286D01*
X511920Y106255D02*
X524400Y106255D01*
X511920Y96390D02*
X511920Y91410D01*
X511920Y96390D02*
X524400Y96390D01*
X524400Y91410D01*
X511920Y91410D01*
X511920Y92379D02*
X524400Y92379D01*
X524400Y93348D02*
X511920Y93348D01*
X511920Y94317D02*
X524400Y94317D01*
X524400Y95286D02*
X511920Y95286D01*
X511920Y96255D02*
X524400Y96255D01*
X511920Y86390D02*
X511920Y81410D01*
X511920Y86390D02*
X524400Y86390D01*
X524400Y81410D01*
X511920Y81410D01*
X511920Y82379D02*
X524400Y82379D01*
X524400Y83348D02*
X511920Y83348D01*
X511920Y84317D02*
X524400Y84317D01*
X524400Y85286D02*
X511920Y85286D01*
X511920Y86255D02*
X524400Y86255D01*
X511920Y76390D02*
X511920Y71410D01*
X511920Y76390D02*
X524400Y76390D01*
X524400Y71410D01*
X511920Y71410D01*
X511920Y72379D02*
X524400Y72379D01*
X524400Y73348D02*
X511920Y73348D01*
X511920Y74317D02*
X524400Y74317D01*
X524400Y75286D02*
X511920Y75286D01*
X511920Y76255D02*
X524400Y76255D01*
D10*
X674355Y117795D02*
X682365Y117795D01*
X674355Y117795D02*
X674355Y126805D01*
X682365Y126805D01*
X682365Y117795D01*
X682365Y118735D02*
X674355Y118735D01*
X674355Y119675D02*
X682365Y119675D01*
X682365Y120615D02*
X674355Y120615D01*
X674355Y121555D02*
X682365Y121555D01*
X682365Y122495D02*
X674355Y122495D01*
X674355Y123435D02*
X682365Y123435D01*
X682365Y124375D02*
X674355Y124375D01*
X674355Y125315D02*
X682365Y125315D01*
X682365Y126255D02*
X674355Y126255D01*
X674355Y101795D02*
X682365Y101795D01*
X674355Y101795D02*
X674355Y110805D01*
X682365Y110805D01*
X682365Y101795D01*
X682365Y102735D02*
X674355Y102735D01*
X674355Y103675D02*
X682365Y103675D01*
X682365Y104615D02*
X674355Y104615D01*
X674355Y105555D02*
X682365Y105555D01*
X682365Y106495D02*
X674355Y106495D01*
X674355Y107435D02*
X682365Y107435D01*
X682365Y108375D02*
X674355Y108375D01*
X674355Y109315D02*
X682365Y109315D01*
X682365Y110255D02*
X674355Y110255D01*
X641365Y101795D02*
X633355Y101795D01*
X633355Y110805D01*
X641365Y110805D01*
X641365Y101795D01*
X641365Y102735D02*
X633355Y102735D01*
X633355Y103675D02*
X641365Y103675D01*
X641365Y104615D02*
X633355Y104615D01*
X633355Y105555D02*
X641365Y105555D01*
X641365Y106495D02*
X633355Y106495D01*
X633355Y107435D02*
X641365Y107435D01*
X641365Y108375D02*
X633355Y108375D01*
X633355Y109315D02*
X641365Y109315D01*
X641365Y110255D02*
X633355Y110255D01*
X633355Y117795D02*
X641365Y117795D01*
X633355Y117795D02*
X633355Y126805D01*
X641365Y126805D01*
X641365Y117795D01*
X641365Y118735D02*
X633355Y118735D01*
X633355Y119675D02*
X641365Y119675D01*
X641365Y120615D02*
X633355Y120615D01*
X633355Y121555D02*
X641365Y121555D01*
X641365Y122495D02*
X633355Y122495D01*
X633355Y123435D02*
X641365Y123435D01*
X641365Y124375D02*
X633355Y124375D01*
X633355Y125315D02*
X641365Y125315D01*
X641365Y126255D02*
X633355Y126255D01*
X674355Y79695D02*
X682365Y79695D01*
X674355Y79695D02*
X674355Y88705D01*
X682365Y88705D01*
X682365Y79695D01*
X682365Y80635D02*
X674355Y80635D01*
X674355Y81575D02*
X682365Y81575D01*
X682365Y82515D02*
X674355Y82515D01*
X674355Y83455D02*
X682365Y83455D01*
X682365Y84395D02*
X674355Y84395D01*
X674355Y85335D02*
X682365Y85335D01*
X682365Y86275D02*
X674355Y86275D01*
X674355Y87215D02*
X682365Y87215D01*
X682365Y88155D02*
X674355Y88155D01*
X674355Y63695D02*
X682365Y63695D01*
X674355Y63695D02*
X674355Y72705D01*
X682365Y72705D01*
X682365Y63695D01*
X682365Y64635D02*
X674355Y64635D01*
X674355Y65575D02*
X682365Y65575D01*
X682365Y66515D02*
X674355Y66515D01*
X674355Y67455D02*
X682365Y67455D01*
X682365Y68395D02*
X674355Y68395D01*
X674355Y69335D02*
X682365Y69335D01*
X682365Y70275D02*
X674355Y70275D01*
X674355Y71215D02*
X682365Y71215D01*
X682365Y72155D02*
X674355Y72155D01*
X641365Y63695D02*
X633355Y63695D01*
X633355Y72705D01*
X641365Y72705D01*
X641365Y63695D01*
X641365Y64635D02*
X633355Y64635D01*
X633355Y65575D02*
X641365Y65575D01*
X641365Y66515D02*
X633355Y66515D01*
X633355Y67455D02*
X641365Y67455D01*
X641365Y68395D02*
X633355Y68395D01*
X633355Y69335D02*
X641365Y69335D01*
X641365Y70275D02*
X633355Y70275D01*
X633355Y71215D02*
X641365Y71215D01*
X641365Y72155D02*
X633355Y72155D01*
X633355Y79695D02*
X641365Y79695D01*
X633355Y79695D02*
X633355Y88705D01*
X641365Y88705D01*
X641365Y79695D01*
X641365Y80635D02*
X633355Y80635D01*
X633355Y81575D02*
X641365Y81575D01*
X641365Y82515D02*
X633355Y82515D01*
X633355Y83455D02*
X641365Y83455D01*
X641365Y84395D02*
X633355Y84395D01*
X633355Y85335D02*
X641365Y85335D01*
X641365Y86275D02*
X633355Y86275D01*
X633355Y87215D02*
X641365Y87215D01*
X641365Y88155D02*
X633355Y88155D01*
X574415Y260894D02*
X569905Y260894D01*
X569905Y271904D01*
X574415Y271904D01*
X574415Y260894D01*
X574415Y261834D02*
X569905Y261834D01*
X569905Y262774D02*
X574415Y262774D01*
X574415Y263714D02*
X569905Y263714D01*
X569905Y264654D02*
X574415Y264654D01*
X574415Y265594D02*
X569905Y265594D01*
X569905Y266534D02*
X574415Y266534D01*
X574415Y267474D02*
X569905Y267474D01*
X569905Y268414D02*
X574415Y268414D01*
X574415Y269354D02*
X569905Y269354D01*
X569905Y270294D02*
X574415Y270294D01*
X574415Y271234D02*
X569905Y271234D01*
X579405Y260894D02*
X583915Y260894D01*
X579405Y260894D02*
X579405Y271904D01*
X583915Y271904D01*
X583915Y260894D01*
X583915Y261834D02*
X579405Y261834D01*
X579405Y262774D02*
X583915Y262774D01*
X583915Y263714D02*
X579405Y263714D01*
X579405Y264654D02*
X583915Y264654D01*
X583915Y265594D02*
X579405Y265594D01*
X579405Y266534D02*
X583915Y266534D01*
X583915Y267474D02*
X579405Y267474D01*
X579405Y268414D02*
X583915Y268414D01*
X583915Y269354D02*
X579405Y269354D01*
X579405Y270294D02*
X583915Y270294D01*
X583915Y271234D02*
X579405Y271234D01*
X588905Y260894D02*
X593415Y260894D01*
X588905Y260894D02*
X588905Y271904D01*
X593415Y271904D01*
X593415Y260894D01*
X593415Y261834D02*
X588905Y261834D01*
X588905Y262774D02*
X593415Y262774D01*
X593415Y263714D02*
X588905Y263714D01*
X588905Y264654D02*
X593415Y264654D01*
X593415Y265594D02*
X588905Y265594D01*
X588905Y266534D02*
X593415Y266534D01*
X593415Y267474D02*
X588905Y267474D01*
X588905Y268414D02*
X593415Y268414D01*
X593415Y269354D02*
X588905Y269354D01*
X588905Y270294D02*
X593415Y270294D01*
X593415Y271234D02*
X588905Y271234D01*
X588905Y286896D02*
X593415Y286896D01*
X588905Y286896D02*
X588905Y297906D01*
X593415Y297906D01*
X593415Y286896D01*
X593415Y287836D02*
X588905Y287836D01*
X588905Y288776D02*
X593415Y288776D01*
X593415Y289716D02*
X588905Y289716D01*
X588905Y290656D02*
X593415Y290656D01*
X593415Y291596D02*
X588905Y291596D01*
X588905Y292536D02*
X593415Y292536D01*
X593415Y293476D02*
X588905Y293476D01*
X588905Y294416D02*
X593415Y294416D01*
X593415Y295356D02*
X588905Y295356D01*
X588905Y296296D02*
X593415Y296296D01*
X593415Y297236D02*
X588905Y297236D01*
X574415Y286896D02*
X569905Y286896D01*
X569905Y297906D01*
X574415Y297906D01*
X574415Y286896D01*
X574415Y287836D02*
X569905Y287836D01*
X569905Y288776D02*
X574415Y288776D01*
X574415Y289716D02*
X569905Y289716D01*
X569905Y290656D02*
X574415Y290656D01*
X574415Y291596D02*
X569905Y291596D01*
X569905Y292536D02*
X574415Y292536D01*
X574415Y293476D02*
X569905Y293476D01*
X569905Y294416D02*
X574415Y294416D01*
X574415Y295356D02*
X569905Y295356D01*
X569905Y296296D02*
X574415Y296296D01*
X574415Y297236D02*
X569905Y297236D01*
D11*
X568680Y163820D02*
X575640Y163820D01*
X568680Y163820D02*
X568680Y171780D01*
X575640Y171780D01*
X575640Y163820D01*
X575640Y164808D02*
X568680Y164808D01*
X568680Y165796D02*
X575640Y165796D01*
X575640Y166784D02*
X568680Y166784D01*
X568680Y167772D02*
X575640Y167772D01*
X575640Y168760D02*
X568680Y168760D01*
X568680Y169748D02*
X575640Y169748D01*
X575640Y170736D02*
X568680Y170736D01*
X568680Y171724D02*
X575640Y171724D01*
X587680Y163820D02*
X594640Y163820D01*
X587680Y163820D02*
X587680Y171780D01*
X594640Y171780D01*
X594640Y163820D01*
X594640Y164808D02*
X587680Y164808D01*
X587680Y165796D02*
X594640Y165796D01*
X594640Y166784D02*
X587680Y166784D01*
X587680Y167772D02*
X594640Y167772D01*
X594640Y168760D02*
X587680Y168760D01*
X587680Y169748D02*
X594640Y169748D01*
X594640Y170736D02*
X587680Y170736D01*
X587680Y171724D02*
X594640Y171724D01*
X585140Y184820D02*
X578180Y184820D01*
X578180Y192780D01*
X585140Y192780D01*
X585140Y184820D01*
X585140Y185808D02*
X578180Y185808D01*
X578180Y186796D02*
X585140Y186796D01*
X585140Y187784D02*
X578180Y187784D01*
X578180Y188772D02*
X585140Y188772D01*
X585140Y189760D02*
X578180Y189760D01*
X578180Y190748D02*
X585140Y190748D01*
X585140Y191736D02*
X578180Y191736D01*
X578180Y192724D02*
X585140Y192724D01*
D15*
X590514Y156046D02*
X595806Y156046D01*
X595806Y148754D01*
X590514Y148754D01*
X590514Y156046D01*
X590514Y149712D02*
X595806Y149712D01*
X595806Y150670D02*
X590514Y150670D01*
X590514Y151628D02*
X595806Y151628D01*
X595806Y152586D02*
X590514Y152586D01*
X590514Y153544D02*
X595806Y153544D01*
X595806Y154502D02*
X590514Y154502D01*
X590514Y155460D02*
X595806Y155460D01*
X572806Y156046D02*
X567514Y156046D01*
X572806Y156046D02*
X572806Y148754D01*
X567514Y148754D01*
X567514Y156046D01*
X567514Y149712D02*
X572806Y149712D01*
X572806Y150670D02*
X567514Y150670D01*
X567514Y151628D02*
X572806Y151628D01*
X572806Y152586D02*
X567514Y152586D01*
X567514Y153544D02*
X572806Y153544D01*
X572806Y154502D02*
X567514Y154502D01*
X567514Y155460D02*
X572806Y155460D01*
D10*
X627005Y183606D02*
X631515Y183606D01*
X631515Y172596D01*
X627005Y172596D01*
X627005Y183606D01*
X627005Y173536D02*
X631515Y173536D01*
X631515Y174476D02*
X627005Y174476D01*
X627005Y175416D02*
X631515Y175416D01*
X631515Y176356D02*
X627005Y176356D01*
X627005Y177296D02*
X631515Y177296D01*
X631515Y178236D02*
X627005Y178236D01*
X627005Y179176D02*
X631515Y179176D01*
X631515Y180116D02*
X627005Y180116D01*
X627005Y181056D02*
X631515Y181056D01*
X631515Y181996D02*
X627005Y181996D01*
X627005Y182936D02*
X631515Y182936D01*
X622015Y183606D02*
X617505Y183606D01*
X622015Y183606D02*
X622015Y172596D01*
X617505Y172596D01*
X617505Y183606D01*
X617505Y173536D02*
X622015Y173536D01*
X622015Y174476D02*
X617505Y174476D01*
X617505Y175416D02*
X622015Y175416D01*
X622015Y176356D02*
X617505Y176356D01*
X617505Y177296D02*
X622015Y177296D01*
X622015Y178236D02*
X617505Y178236D01*
X617505Y179176D02*
X622015Y179176D01*
X622015Y180116D02*
X617505Y180116D01*
X617505Y181056D02*
X622015Y181056D01*
X622015Y181996D02*
X617505Y181996D01*
X617505Y182936D02*
X622015Y182936D01*
X612515Y183606D02*
X608005Y183606D01*
X612515Y183606D02*
X612515Y172596D01*
X608005Y172596D01*
X608005Y183606D01*
X608005Y173536D02*
X612515Y173536D01*
X612515Y174476D02*
X608005Y174476D01*
X608005Y175416D02*
X612515Y175416D01*
X612515Y176356D02*
X608005Y176356D01*
X608005Y177296D02*
X612515Y177296D01*
X612515Y178236D02*
X608005Y178236D01*
X608005Y179176D02*
X612515Y179176D01*
X612515Y180116D02*
X608005Y180116D01*
X608005Y181056D02*
X612515Y181056D01*
X612515Y181996D02*
X608005Y181996D01*
X608005Y182936D02*
X612515Y182936D01*
X612515Y157604D02*
X608005Y157604D01*
X612515Y157604D02*
X612515Y146594D01*
X608005Y146594D01*
X608005Y157604D01*
X608005Y147534D02*
X612515Y147534D01*
X612515Y148474D02*
X608005Y148474D01*
X608005Y149414D02*
X612515Y149414D01*
X612515Y150354D02*
X608005Y150354D01*
X608005Y151294D02*
X612515Y151294D01*
X612515Y152234D02*
X608005Y152234D01*
X608005Y153174D02*
X612515Y153174D01*
X612515Y154114D02*
X608005Y154114D01*
X608005Y155054D02*
X612515Y155054D01*
X612515Y155994D02*
X608005Y155994D01*
X608005Y156934D02*
X612515Y156934D01*
X627005Y157604D02*
X631515Y157604D01*
X631515Y146594D01*
X627005Y146594D01*
X627005Y157604D01*
X627005Y147534D02*
X631515Y147534D01*
X631515Y148474D02*
X627005Y148474D01*
X627005Y149414D02*
X631515Y149414D01*
X631515Y150354D02*
X627005Y150354D01*
X627005Y151294D02*
X631515Y151294D01*
X631515Y152234D02*
X627005Y152234D01*
X627005Y153174D02*
X631515Y153174D01*
X631515Y154114D02*
X627005Y154114D01*
X627005Y155054D02*
X631515Y155054D01*
X631515Y155994D02*
X627005Y155994D01*
X627005Y156934D02*
X631515Y156934D01*
D13*
X614210Y137850D02*
X604210Y137850D01*
X614210Y137850D02*
X614210Y128850D01*
X604210Y128850D01*
X604210Y137850D01*
X604210Y129800D02*
X614210Y129800D01*
X614210Y130750D02*
X604210Y130750D01*
X604210Y131700D02*
X614210Y131700D01*
X614210Y132650D02*
X604210Y132650D01*
X604210Y133600D02*
X614210Y133600D01*
X614210Y134550D02*
X604210Y134550D01*
X604210Y135500D02*
X614210Y135500D01*
X614210Y136450D02*
X604210Y136450D01*
X604210Y137400D02*
X614210Y137400D01*
X597210Y137850D02*
X587210Y137850D01*
X597210Y137850D02*
X597210Y128850D01*
X587210Y128850D01*
X587210Y137850D01*
X587210Y129800D02*
X597210Y129800D01*
X597210Y130750D02*
X587210Y130750D01*
X587210Y131700D02*
X597210Y131700D01*
X597210Y132650D02*
X587210Y132650D01*
X587210Y133600D02*
X597210Y133600D01*
X597210Y134550D02*
X587210Y134550D01*
X587210Y135500D02*
X597210Y135500D01*
X597210Y136450D02*
X587210Y136450D01*
X587210Y137400D02*
X597210Y137400D01*
X606260Y192350D02*
X616260Y192350D01*
X606260Y192350D02*
X606260Y201350D01*
X616260Y201350D01*
X616260Y192350D01*
X616260Y193300D02*
X606260Y193300D01*
X606260Y194250D02*
X616260Y194250D01*
X616260Y195200D02*
X606260Y195200D01*
X606260Y196150D02*
X616260Y196150D01*
X616260Y197100D02*
X606260Y197100D01*
X606260Y198050D02*
X616260Y198050D01*
X616260Y199000D02*
X606260Y199000D01*
X606260Y199950D02*
X616260Y199950D01*
X616260Y200900D02*
X606260Y200900D01*
X623260Y192350D02*
X633260Y192350D01*
X623260Y192350D02*
X623260Y201350D01*
X633260Y201350D01*
X633260Y192350D01*
X633260Y193300D02*
X623260Y193300D01*
X623260Y194250D02*
X633260Y194250D01*
X633260Y195200D02*
X623260Y195200D01*
X623260Y196150D02*
X633260Y196150D01*
X633260Y197100D02*
X623260Y197100D01*
X623260Y198050D02*
X633260Y198050D01*
X633260Y199000D02*
X623260Y199000D01*
X623260Y199950D02*
X633260Y199950D01*
X633260Y200900D02*
X623260Y200900D01*
D16*
X622610Y223330D02*
X629610Y223330D01*
X629610Y216330D01*
X622610Y216330D01*
X622610Y223330D01*
X622610Y219180D02*
X629610Y219180D01*
X629610Y222030D02*
X622610Y222030D01*
X622610Y240870D02*
X629610Y240870D01*
X629610Y233870D01*
X622610Y233870D01*
X622610Y240870D01*
X622610Y236720D02*
X629610Y236720D01*
X629610Y239570D02*
X622610Y239570D01*
X555180Y307650D02*
X555180Y314650D01*
X562180Y314650D01*
X562180Y307650D01*
X555180Y307650D01*
X555180Y310500D02*
X562180Y310500D01*
X562180Y313350D02*
X555180Y313350D01*
X537640Y314650D02*
X537640Y307650D01*
X537640Y314650D02*
X544640Y314650D01*
X544640Y307650D01*
X537640Y307650D01*
X537640Y310500D02*
X544640Y310500D01*
X544640Y313350D02*
X537640Y313350D01*
D13*
X591510Y315650D02*
X601510Y315650D01*
X601510Y306650D01*
X591510Y306650D01*
X591510Y315650D01*
X591510Y307600D02*
X601510Y307600D01*
X601510Y308550D02*
X591510Y308550D01*
X591510Y309500D02*
X601510Y309500D01*
X601510Y310450D02*
X591510Y310450D01*
X591510Y311400D02*
X601510Y311400D01*
X601510Y312350D02*
X591510Y312350D01*
X591510Y313300D02*
X601510Y313300D01*
X601510Y314250D02*
X591510Y314250D01*
X591510Y315200D02*
X601510Y315200D01*
X584510Y315650D02*
X574510Y315650D01*
X584510Y315650D02*
X584510Y306650D01*
X574510Y306650D01*
X574510Y315650D01*
X574510Y307600D02*
X584510Y307600D01*
X584510Y308550D02*
X574510Y308550D01*
X574510Y309500D02*
X584510Y309500D01*
X584510Y310450D02*
X574510Y310450D01*
X574510Y311400D02*
X584510Y311400D01*
X584510Y312350D02*
X574510Y312350D01*
X574510Y313300D02*
X584510Y313300D01*
X584510Y314250D02*
X574510Y314250D01*
X574510Y315200D02*
X584510Y315200D01*
D17*
X541048Y259200D03*
X520673Y264200D03*
X520673Y259200D03*
X520673Y269200D03*
X520673Y274200D03*
X541048Y264200D03*
X541048Y269200D03*
X541048Y274200D03*
D18*
X530860Y270100D03*
X530860Y263300D03*
D19*
X625935Y307325D02*
X631885Y307325D01*
X625935Y307325D02*
X625935Y313275D01*
X631885Y313275D01*
X631885Y307325D01*
X631885Y308322D02*
X625935Y308322D01*
X625935Y309319D02*
X631885Y309319D01*
X631885Y310316D02*
X625935Y310316D01*
X625935Y311313D02*
X631885Y311313D01*
X631885Y312310D02*
X625935Y312310D01*
X625935Y296325D02*
X631885Y296325D01*
X625935Y296325D02*
X625935Y302275D01*
X631885Y302275D01*
X631885Y296325D01*
X631885Y297322D02*
X625935Y297322D01*
X625935Y298319D02*
X631885Y298319D01*
X631885Y299316D02*
X625935Y299316D01*
X625935Y300313D02*
X631885Y300313D01*
X631885Y301310D02*
X625935Y301310D01*
X613585Y296325D02*
X607635Y296325D01*
X607635Y302275D01*
X613585Y302275D01*
X613585Y296325D01*
X613585Y297322D02*
X607635Y297322D01*
X607635Y298319D02*
X613585Y298319D01*
X613585Y299316D02*
X607635Y299316D01*
X607635Y300313D02*
X613585Y300313D01*
X613585Y301310D02*
X607635Y301310D01*
X607635Y307325D02*
X613585Y307325D01*
X607635Y307325D02*
X607635Y313275D01*
X613585Y313275D01*
X613585Y307325D01*
X613585Y308322D02*
X607635Y308322D01*
X607635Y309319D02*
X613585Y309319D01*
X613585Y310316D02*
X607635Y310316D01*
X607635Y311313D02*
X613585Y311313D01*
X613585Y312310D02*
X607635Y312310D01*
D13*
X606260Y274900D02*
X616260Y274900D01*
X606260Y274900D02*
X606260Y283900D01*
X616260Y283900D01*
X616260Y274900D01*
X616260Y275850D02*
X606260Y275850D01*
X606260Y276800D02*
X616260Y276800D01*
X616260Y277750D02*
X606260Y277750D01*
X606260Y278700D02*
X616260Y278700D01*
X616260Y279650D02*
X606260Y279650D01*
X606260Y280600D02*
X616260Y280600D01*
X616260Y281550D02*
X606260Y281550D01*
X606260Y282500D02*
X616260Y282500D01*
X616260Y283450D02*
X606260Y283450D01*
X623260Y274900D02*
X633260Y274900D01*
X623260Y274900D02*
X623260Y283900D01*
X633260Y283900D01*
X633260Y274900D01*
X633260Y275850D02*
X623260Y275850D01*
X623260Y276800D02*
X633260Y276800D01*
X633260Y277750D02*
X623260Y277750D01*
X623260Y278700D02*
X633260Y278700D01*
X633260Y279650D02*
X623260Y279650D01*
X623260Y280600D02*
X633260Y280600D01*
X633260Y281550D02*
X623260Y281550D01*
X623260Y282500D02*
X633260Y282500D01*
X633260Y283450D02*
X623260Y283450D01*
D11*
X556590Y113020D02*
X549630Y113020D01*
X549630Y120980D01*
X556590Y120980D01*
X556590Y113020D01*
X556590Y114008D02*
X549630Y114008D01*
X549630Y114996D02*
X556590Y114996D01*
X556590Y115984D02*
X549630Y115984D01*
X549630Y116972D02*
X556590Y116972D01*
X556590Y117960D02*
X549630Y117960D01*
X549630Y118948D02*
X556590Y118948D01*
X556590Y119936D02*
X549630Y119936D01*
X549630Y120924D02*
X556590Y120924D01*
X568630Y113020D02*
X575590Y113020D01*
X568630Y113020D02*
X568630Y120980D01*
X575590Y120980D01*
X575590Y113020D01*
X575590Y114008D02*
X568630Y114008D01*
X568630Y114996D02*
X575590Y114996D01*
X575590Y115984D02*
X568630Y115984D01*
X568630Y116972D02*
X575590Y116972D01*
X575590Y117960D02*
X568630Y117960D01*
X568630Y118948D02*
X575590Y118948D01*
X575590Y119936D02*
X568630Y119936D01*
X568630Y120924D02*
X575590Y120924D01*
X566090Y134020D02*
X559130Y134020D01*
X559130Y141980D01*
X566090Y141980D01*
X566090Y134020D01*
X566090Y135008D02*
X559130Y135008D01*
X559130Y135996D02*
X566090Y135996D01*
X566090Y136984D02*
X559130Y136984D01*
X559130Y137972D02*
X566090Y137972D01*
X566090Y138960D02*
X559130Y138960D01*
X559130Y139948D02*
X566090Y139948D01*
X566090Y140936D02*
X559130Y140936D01*
X559130Y141924D02*
X566090Y141924D01*
D13*
X587210Y113610D02*
X597210Y113610D01*
X587210Y113610D02*
X587210Y122610D01*
X597210Y122610D01*
X597210Y113610D01*
X597210Y114560D02*
X587210Y114560D01*
X587210Y115510D02*
X597210Y115510D01*
X597210Y116460D02*
X587210Y116460D01*
X587210Y117410D02*
X597210Y117410D01*
X597210Y118360D02*
X587210Y118360D01*
X587210Y119310D02*
X597210Y119310D01*
X597210Y120260D02*
X587210Y120260D01*
X587210Y121210D02*
X597210Y121210D01*
X597210Y122160D02*
X587210Y122160D01*
X604210Y113610D02*
X614210Y113610D01*
X604210Y113610D02*
X604210Y122610D01*
X614210Y122610D01*
X614210Y113610D01*
X614210Y114560D02*
X604210Y114560D01*
X604210Y115510D02*
X614210Y115510D01*
X614210Y116460D02*
X604210Y116460D01*
X604210Y117410D02*
X614210Y117410D01*
X614210Y118360D02*
X604210Y118360D01*
X604210Y119310D02*
X614210Y119310D01*
X614210Y120260D02*
X604210Y120260D01*
X604210Y121210D02*
X614210Y121210D01*
X614210Y122160D02*
X604210Y122160D01*
M02*
