G04 EAGLE Gerber RS-274X export*
G75*
%MOMM*%
%FSLAX34Y34*%
%LPD*%
%INSoldermask Bottom*%
%IPPOS*%
%AMOC8*
5,1,8,0,0,1.08239X$1,22.5*%
G01*
%ADD10C,2.032000*%
%ADD11C,0.253525*%
%ADD12C,3.454400*%
%ADD13C,0.802400*%
%ADD14C,0.251966*%
%ADD15C,0.254434*%
%ADD16C,0.252994*%
%ADD17C,0.252503*%
%ADD18C,0.252862*%
%ADD19C,0.787400*%
%ADD20C,1.152400*%
%ADD21C,1.270000*%
%ADD22C,1.652400*%

G36*
X583630Y208673D02*
X583630Y208673D01*
X583696Y208675D01*
X583739Y208693D01*
X583786Y208701D01*
X583843Y208735D01*
X583903Y208760D01*
X583938Y208791D01*
X583979Y208816D01*
X584021Y208867D01*
X584069Y208911D01*
X584091Y208953D01*
X584120Y208990D01*
X584141Y209052D01*
X584172Y209111D01*
X584180Y209165D01*
X584192Y209202D01*
X584191Y209242D01*
X584199Y209296D01*
X584199Y222504D01*
X584188Y222569D01*
X584186Y222635D01*
X584168Y222678D01*
X584160Y222725D01*
X584126Y222782D01*
X584101Y222842D01*
X584070Y222877D01*
X584045Y222918D01*
X583994Y222960D01*
X583950Y223008D01*
X583908Y223030D01*
X583871Y223059D01*
X583809Y223080D01*
X583750Y223111D01*
X583696Y223119D01*
X583659Y223131D01*
X583619Y223130D01*
X583565Y223138D01*
X579755Y223138D01*
X579690Y223127D01*
X579624Y223125D01*
X579581Y223107D01*
X579534Y223099D01*
X579477Y223065D01*
X579417Y223040D01*
X579382Y223009D01*
X579341Y222984D01*
X579300Y222933D01*
X579251Y222889D01*
X579229Y222847D01*
X579200Y222810D01*
X579179Y222748D01*
X579148Y222689D01*
X579140Y222635D01*
X579128Y222598D01*
X579129Y222558D01*
X579121Y222504D01*
X579121Y209296D01*
X579132Y209231D01*
X579134Y209165D01*
X579152Y209122D01*
X579160Y209075D01*
X579194Y209018D01*
X579219Y208958D01*
X579250Y208923D01*
X579275Y208882D01*
X579326Y208841D01*
X579370Y208792D01*
X579412Y208770D01*
X579449Y208741D01*
X579511Y208720D01*
X579570Y208689D01*
X579624Y208681D01*
X579661Y208669D01*
X579701Y208670D01*
X579755Y208662D01*
X583565Y208662D01*
X583630Y208673D01*
G37*
G36*
X349950Y208673D02*
X349950Y208673D01*
X350016Y208675D01*
X350059Y208693D01*
X350106Y208701D01*
X350163Y208735D01*
X350223Y208760D01*
X350258Y208791D01*
X350299Y208816D01*
X350341Y208867D01*
X350389Y208911D01*
X350411Y208953D01*
X350440Y208990D01*
X350461Y209052D01*
X350492Y209111D01*
X350500Y209165D01*
X350512Y209202D01*
X350511Y209242D01*
X350519Y209296D01*
X350519Y222504D01*
X350508Y222569D01*
X350506Y222635D01*
X350488Y222678D01*
X350480Y222725D01*
X350446Y222782D01*
X350421Y222842D01*
X350390Y222877D01*
X350365Y222918D01*
X350314Y222960D01*
X350270Y223008D01*
X350228Y223030D01*
X350191Y223059D01*
X350129Y223080D01*
X350070Y223111D01*
X350016Y223119D01*
X349979Y223131D01*
X349939Y223130D01*
X349885Y223138D01*
X346075Y223138D01*
X346010Y223127D01*
X345944Y223125D01*
X345901Y223107D01*
X345854Y223099D01*
X345797Y223065D01*
X345737Y223040D01*
X345702Y223009D01*
X345661Y222984D01*
X345620Y222933D01*
X345571Y222889D01*
X345549Y222847D01*
X345520Y222810D01*
X345499Y222748D01*
X345468Y222689D01*
X345460Y222635D01*
X345448Y222598D01*
X345449Y222558D01*
X345441Y222504D01*
X345441Y209296D01*
X345452Y209231D01*
X345454Y209165D01*
X345472Y209122D01*
X345480Y209075D01*
X345514Y209018D01*
X345539Y208958D01*
X345570Y208923D01*
X345595Y208882D01*
X345646Y208841D01*
X345690Y208792D01*
X345732Y208770D01*
X345769Y208741D01*
X345831Y208720D01*
X345890Y208689D01*
X345944Y208681D01*
X345981Y208669D01*
X346021Y208670D01*
X346075Y208662D01*
X349885Y208662D01*
X349950Y208673D01*
G37*
G36*
X116270Y208673D02*
X116270Y208673D01*
X116336Y208675D01*
X116379Y208693D01*
X116426Y208701D01*
X116483Y208735D01*
X116543Y208760D01*
X116578Y208791D01*
X116619Y208816D01*
X116661Y208867D01*
X116709Y208911D01*
X116731Y208953D01*
X116760Y208990D01*
X116781Y209052D01*
X116812Y209111D01*
X116820Y209165D01*
X116832Y209202D01*
X116831Y209242D01*
X116839Y209296D01*
X116839Y222504D01*
X116828Y222569D01*
X116826Y222635D01*
X116808Y222678D01*
X116800Y222725D01*
X116766Y222782D01*
X116741Y222842D01*
X116710Y222877D01*
X116685Y222918D01*
X116634Y222960D01*
X116590Y223008D01*
X116548Y223030D01*
X116511Y223059D01*
X116449Y223080D01*
X116390Y223111D01*
X116336Y223119D01*
X116299Y223131D01*
X116259Y223130D01*
X116205Y223138D01*
X112395Y223138D01*
X112330Y223127D01*
X112264Y223125D01*
X112221Y223107D01*
X112174Y223099D01*
X112117Y223065D01*
X112057Y223040D01*
X112022Y223009D01*
X111981Y222984D01*
X111940Y222933D01*
X111891Y222889D01*
X111869Y222847D01*
X111840Y222810D01*
X111819Y222748D01*
X111788Y222689D01*
X111780Y222635D01*
X111768Y222598D01*
X111769Y222558D01*
X111761Y222504D01*
X111761Y209296D01*
X111772Y209231D01*
X111774Y209165D01*
X111792Y209122D01*
X111800Y209075D01*
X111834Y209018D01*
X111859Y208958D01*
X111890Y208923D01*
X111915Y208882D01*
X111966Y208841D01*
X112010Y208792D01*
X112052Y208770D01*
X112089Y208741D01*
X112151Y208720D01*
X112210Y208689D01*
X112264Y208681D01*
X112301Y208669D01*
X112341Y208670D01*
X112395Y208662D01*
X116205Y208662D01*
X116270Y208673D01*
G37*
G36*
X557595Y472452D02*
X557595Y472452D01*
X557661Y472454D01*
X557704Y472472D01*
X557751Y472480D01*
X557808Y472514D01*
X557868Y472539D01*
X557903Y472570D01*
X557944Y472595D01*
X557986Y472646D01*
X558034Y472690D01*
X558056Y472732D01*
X558085Y472769D01*
X558106Y472831D01*
X558137Y472890D01*
X558145Y472944D01*
X558157Y472981D01*
X558156Y473021D01*
X558164Y473075D01*
X558164Y476885D01*
X558153Y476950D01*
X558151Y477016D01*
X558133Y477059D01*
X558125Y477106D01*
X558091Y477163D01*
X558066Y477223D01*
X558035Y477258D01*
X558010Y477299D01*
X557959Y477341D01*
X557915Y477389D01*
X557873Y477411D01*
X557836Y477440D01*
X557774Y477461D01*
X557715Y477492D01*
X557661Y477500D01*
X557624Y477512D01*
X557584Y477511D01*
X557530Y477519D01*
X554990Y477519D01*
X554925Y477508D01*
X554859Y477506D01*
X554816Y477488D01*
X554769Y477480D01*
X554712Y477446D01*
X554652Y477421D01*
X554617Y477390D01*
X554576Y477365D01*
X554535Y477314D01*
X554486Y477270D01*
X554464Y477228D01*
X554435Y477191D01*
X554414Y477129D01*
X554383Y477070D01*
X554375Y477016D01*
X554363Y476979D01*
X554363Y476975D01*
X554363Y476974D01*
X554364Y476939D01*
X554356Y476885D01*
X554356Y473075D01*
X554367Y473010D01*
X554369Y472944D01*
X554387Y472901D01*
X554395Y472854D01*
X554429Y472797D01*
X554454Y472737D01*
X554485Y472702D01*
X554510Y472661D01*
X554561Y472620D01*
X554605Y472571D01*
X554647Y472549D01*
X554684Y472520D01*
X554746Y472499D01*
X554805Y472468D01*
X554859Y472460D01*
X554896Y472448D01*
X554936Y472449D01*
X554990Y472441D01*
X557530Y472441D01*
X557595Y472452D01*
G37*
G36*
X323915Y472452D02*
X323915Y472452D01*
X323981Y472454D01*
X324024Y472472D01*
X324071Y472480D01*
X324128Y472514D01*
X324188Y472539D01*
X324223Y472570D01*
X324264Y472595D01*
X324306Y472646D01*
X324354Y472690D01*
X324376Y472732D01*
X324405Y472769D01*
X324426Y472831D01*
X324457Y472890D01*
X324465Y472944D01*
X324477Y472981D01*
X324476Y473021D01*
X324484Y473075D01*
X324484Y476885D01*
X324473Y476950D01*
X324471Y477016D01*
X324453Y477059D01*
X324445Y477106D01*
X324411Y477163D01*
X324386Y477223D01*
X324355Y477258D01*
X324330Y477299D01*
X324279Y477341D01*
X324235Y477389D01*
X324193Y477411D01*
X324156Y477440D01*
X324094Y477461D01*
X324035Y477492D01*
X323981Y477500D01*
X323944Y477512D01*
X323904Y477511D01*
X323850Y477519D01*
X321310Y477519D01*
X321245Y477508D01*
X321179Y477506D01*
X321136Y477488D01*
X321089Y477480D01*
X321032Y477446D01*
X320972Y477421D01*
X320937Y477390D01*
X320896Y477365D01*
X320855Y477314D01*
X320806Y477270D01*
X320784Y477228D01*
X320755Y477191D01*
X320734Y477129D01*
X320703Y477070D01*
X320695Y477016D01*
X320683Y476979D01*
X320683Y476975D01*
X320683Y476974D01*
X320684Y476939D01*
X320676Y476885D01*
X320676Y473075D01*
X320687Y473010D01*
X320689Y472944D01*
X320707Y472901D01*
X320715Y472854D01*
X320749Y472797D01*
X320774Y472737D01*
X320805Y472702D01*
X320830Y472661D01*
X320881Y472620D01*
X320925Y472571D01*
X320967Y472549D01*
X321004Y472520D01*
X321066Y472499D01*
X321125Y472468D01*
X321179Y472460D01*
X321216Y472448D01*
X321256Y472449D01*
X321310Y472441D01*
X323850Y472441D01*
X323915Y472452D01*
G37*
G36*
X90235Y472452D02*
X90235Y472452D01*
X90301Y472454D01*
X90344Y472472D01*
X90391Y472480D01*
X90448Y472514D01*
X90508Y472539D01*
X90543Y472570D01*
X90584Y472595D01*
X90626Y472646D01*
X90674Y472690D01*
X90696Y472732D01*
X90725Y472769D01*
X90746Y472831D01*
X90777Y472890D01*
X90785Y472944D01*
X90797Y472981D01*
X90796Y473021D01*
X90804Y473075D01*
X90804Y476885D01*
X90793Y476950D01*
X90791Y477016D01*
X90773Y477059D01*
X90765Y477106D01*
X90731Y477163D01*
X90706Y477223D01*
X90675Y477258D01*
X90650Y477299D01*
X90599Y477341D01*
X90555Y477389D01*
X90513Y477411D01*
X90476Y477440D01*
X90414Y477461D01*
X90355Y477492D01*
X90301Y477500D01*
X90264Y477512D01*
X90224Y477511D01*
X90170Y477519D01*
X87630Y477519D01*
X87565Y477508D01*
X87499Y477506D01*
X87456Y477488D01*
X87409Y477480D01*
X87352Y477446D01*
X87292Y477421D01*
X87257Y477390D01*
X87216Y477365D01*
X87175Y477314D01*
X87126Y477270D01*
X87104Y477228D01*
X87075Y477191D01*
X87054Y477129D01*
X87023Y477070D01*
X87015Y477016D01*
X87003Y476979D01*
X87003Y476975D01*
X87003Y476974D01*
X87004Y476939D01*
X86996Y476885D01*
X86996Y473075D01*
X87007Y473010D01*
X87009Y472944D01*
X87027Y472901D01*
X87035Y472854D01*
X87069Y472797D01*
X87094Y472737D01*
X87125Y472702D01*
X87150Y472661D01*
X87201Y472620D01*
X87245Y472571D01*
X87287Y472549D01*
X87324Y472520D01*
X87386Y472499D01*
X87445Y472468D01*
X87499Y472460D01*
X87536Y472448D01*
X87576Y472449D01*
X87630Y472441D01*
X90170Y472441D01*
X90235Y472452D01*
G37*
G36*
X557595Y462292D02*
X557595Y462292D01*
X557661Y462294D01*
X557704Y462312D01*
X557751Y462320D01*
X557808Y462354D01*
X557868Y462379D01*
X557903Y462410D01*
X557944Y462435D01*
X557986Y462486D01*
X558034Y462530D01*
X558056Y462572D01*
X558085Y462609D01*
X558106Y462671D01*
X558137Y462730D01*
X558145Y462784D01*
X558157Y462821D01*
X558156Y462861D01*
X558164Y462915D01*
X558164Y466725D01*
X558153Y466790D01*
X558151Y466856D01*
X558133Y466899D01*
X558125Y466946D01*
X558091Y467003D01*
X558066Y467063D01*
X558035Y467098D01*
X558010Y467139D01*
X557959Y467181D01*
X557915Y467229D01*
X557873Y467251D01*
X557836Y467280D01*
X557774Y467301D01*
X557715Y467332D01*
X557661Y467340D01*
X557624Y467352D01*
X557584Y467351D01*
X557530Y467359D01*
X554990Y467359D01*
X554925Y467348D01*
X554859Y467346D01*
X554816Y467328D01*
X554769Y467320D01*
X554712Y467286D01*
X554652Y467261D01*
X554617Y467230D01*
X554576Y467205D01*
X554535Y467154D01*
X554486Y467110D01*
X554464Y467068D01*
X554435Y467031D01*
X554414Y466969D01*
X554383Y466910D01*
X554375Y466856D01*
X554363Y466819D01*
X554363Y466815D01*
X554363Y466814D01*
X554364Y466779D01*
X554356Y466725D01*
X554356Y462915D01*
X554367Y462850D01*
X554369Y462784D01*
X554387Y462741D01*
X554395Y462694D01*
X554429Y462637D01*
X554454Y462577D01*
X554485Y462542D01*
X554510Y462501D01*
X554561Y462460D01*
X554605Y462411D01*
X554647Y462389D01*
X554684Y462360D01*
X554746Y462339D01*
X554805Y462308D01*
X554859Y462300D01*
X554896Y462288D01*
X554936Y462289D01*
X554990Y462281D01*
X557530Y462281D01*
X557595Y462292D01*
G37*
G36*
X323915Y462292D02*
X323915Y462292D01*
X323981Y462294D01*
X324024Y462312D01*
X324071Y462320D01*
X324128Y462354D01*
X324188Y462379D01*
X324223Y462410D01*
X324264Y462435D01*
X324306Y462486D01*
X324354Y462530D01*
X324376Y462572D01*
X324405Y462609D01*
X324426Y462671D01*
X324457Y462730D01*
X324465Y462784D01*
X324477Y462821D01*
X324476Y462861D01*
X324484Y462915D01*
X324484Y466725D01*
X324473Y466790D01*
X324471Y466856D01*
X324453Y466899D01*
X324445Y466946D01*
X324411Y467003D01*
X324386Y467063D01*
X324355Y467098D01*
X324330Y467139D01*
X324279Y467181D01*
X324235Y467229D01*
X324193Y467251D01*
X324156Y467280D01*
X324094Y467301D01*
X324035Y467332D01*
X323981Y467340D01*
X323944Y467352D01*
X323904Y467351D01*
X323850Y467359D01*
X321310Y467359D01*
X321245Y467348D01*
X321179Y467346D01*
X321136Y467328D01*
X321089Y467320D01*
X321032Y467286D01*
X320972Y467261D01*
X320937Y467230D01*
X320896Y467205D01*
X320855Y467154D01*
X320806Y467110D01*
X320784Y467068D01*
X320755Y467031D01*
X320734Y466969D01*
X320703Y466910D01*
X320695Y466856D01*
X320683Y466819D01*
X320683Y466815D01*
X320683Y466814D01*
X320684Y466779D01*
X320676Y466725D01*
X320676Y462915D01*
X320687Y462850D01*
X320689Y462784D01*
X320707Y462741D01*
X320715Y462694D01*
X320749Y462637D01*
X320774Y462577D01*
X320805Y462542D01*
X320830Y462501D01*
X320881Y462460D01*
X320925Y462411D01*
X320967Y462389D01*
X321004Y462360D01*
X321066Y462339D01*
X321125Y462308D01*
X321179Y462300D01*
X321216Y462288D01*
X321256Y462289D01*
X321310Y462281D01*
X323850Y462281D01*
X323915Y462292D01*
G37*
G36*
X90235Y462292D02*
X90235Y462292D01*
X90301Y462294D01*
X90344Y462312D01*
X90391Y462320D01*
X90448Y462354D01*
X90508Y462379D01*
X90543Y462410D01*
X90584Y462435D01*
X90626Y462486D01*
X90674Y462530D01*
X90696Y462572D01*
X90725Y462609D01*
X90746Y462671D01*
X90777Y462730D01*
X90785Y462784D01*
X90797Y462821D01*
X90796Y462861D01*
X90804Y462915D01*
X90804Y466725D01*
X90793Y466790D01*
X90791Y466856D01*
X90773Y466899D01*
X90765Y466946D01*
X90731Y467003D01*
X90706Y467063D01*
X90675Y467098D01*
X90650Y467139D01*
X90599Y467181D01*
X90555Y467229D01*
X90513Y467251D01*
X90476Y467280D01*
X90414Y467301D01*
X90355Y467332D01*
X90301Y467340D01*
X90264Y467352D01*
X90224Y467351D01*
X90170Y467359D01*
X87630Y467359D01*
X87565Y467348D01*
X87499Y467346D01*
X87456Y467328D01*
X87409Y467320D01*
X87352Y467286D01*
X87292Y467261D01*
X87257Y467230D01*
X87216Y467205D01*
X87175Y467154D01*
X87126Y467110D01*
X87104Y467068D01*
X87075Y467031D01*
X87054Y466969D01*
X87023Y466910D01*
X87015Y466856D01*
X87003Y466819D01*
X87003Y466815D01*
X87003Y466814D01*
X87004Y466779D01*
X86996Y466725D01*
X86996Y462915D01*
X87007Y462850D01*
X87009Y462784D01*
X87027Y462741D01*
X87035Y462694D01*
X87069Y462637D01*
X87094Y462577D01*
X87125Y462542D01*
X87150Y462501D01*
X87201Y462460D01*
X87245Y462411D01*
X87287Y462389D01*
X87324Y462360D01*
X87386Y462339D01*
X87445Y462308D01*
X87499Y462300D01*
X87536Y462288D01*
X87576Y462289D01*
X87630Y462281D01*
X90170Y462281D01*
X90235Y462292D01*
G37*
G36*
X128335Y327672D02*
X128335Y327672D01*
X128401Y327674D01*
X128444Y327692D01*
X128491Y327700D01*
X128548Y327734D01*
X128608Y327759D01*
X128643Y327790D01*
X128684Y327815D01*
X128726Y327866D01*
X128774Y327910D01*
X128796Y327952D01*
X128825Y327989D01*
X128846Y328051D01*
X128877Y328110D01*
X128885Y328164D01*
X128897Y328201D01*
X128896Y328241D01*
X128904Y328295D01*
X128904Y332105D01*
X128893Y332170D01*
X128891Y332236D01*
X128873Y332279D01*
X128865Y332326D01*
X128831Y332383D01*
X128806Y332443D01*
X128775Y332478D01*
X128750Y332519D01*
X128699Y332561D01*
X128655Y332609D01*
X128613Y332631D01*
X128576Y332660D01*
X128514Y332681D01*
X128455Y332712D01*
X128401Y332720D01*
X128364Y332732D01*
X128324Y332731D01*
X128270Y332739D01*
X125730Y332739D01*
X125665Y332728D01*
X125599Y332726D01*
X125556Y332708D01*
X125509Y332700D01*
X125452Y332666D01*
X125392Y332641D01*
X125357Y332610D01*
X125316Y332585D01*
X125275Y332534D01*
X125226Y332490D01*
X125204Y332448D01*
X125175Y332411D01*
X125154Y332349D01*
X125123Y332290D01*
X125115Y332236D01*
X125103Y332199D01*
X125103Y332195D01*
X125103Y332194D01*
X125104Y332159D01*
X125096Y332105D01*
X125096Y328295D01*
X125107Y328230D01*
X125109Y328164D01*
X125127Y328121D01*
X125135Y328074D01*
X125169Y328017D01*
X125194Y327957D01*
X125225Y327922D01*
X125250Y327881D01*
X125301Y327840D01*
X125345Y327791D01*
X125387Y327769D01*
X125424Y327740D01*
X125486Y327719D01*
X125545Y327688D01*
X125599Y327680D01*
X125636Y327668D01*
X125676Y327669D01*
X125730Y327661D01*
X128270Y327661D01*
X128335Y327672D01*
G37*
G36*
X595695Y327672D02*
X595695Y327672D01*
X595761Y327674D01*
X595804Y327692D01*
X595851Y327700D01*
X595908Y327734D01*
X595968Y327759D01*
X596003Y327790D01*
X596044Y327815D01*
X596086Y327866D01*
X596134Y327910D01*
X596156Y327952D01*
X596185Y327989D01*
X596206Y328051D01*
X596237Y328110D01*
X596245Y328164D01*
X596257Y328201D01*
X596256Y328241D01*
X596264Y328295D01*
X596264Y332105D01*
X596253Y332170D01*
X596251Y332236D01*
X596233Y332279D01*
X596225Y332326D01*
X596191Y332383D01*
X596166Y332443D01*
X596135Y332478D01*
X596110Y332519D01*
X596059Y332561D01*
X596015Y332609D01*
X595973Y332631D01*
X595936Y332660D01*
X595874Y332681D01*
X595815Y332712D01*
X595761Y332720D01*
X595724Y332732D01*
X595684Y332731D01*
X595630Y332739D01*
X593090Y332739D01*
X593025Y332728D01*
X592959Y332726D01*
X592916Y332708D01*
X592869Y332700D01*
X592812Y332666D01*
X592752Y332641D01*
X592717Y332610D01*
X592676Y332585D01*
X592635Y332534D01*
X592586Y332490D01*
X592564Y332448D01*
X592535Y332411D01*
X592514Y332349D01*
X592483Y332290D01*
X592475Y332236D01*
X592463Y332199D01*
X592463Y332195D01*
X592463Y332194D01*
X592464Y332159D01*
X592456Y332105D01*
X592456Y328295D01*
X592467Y328230D01*
X592469Y328164D01*
X592487Y328121D01*
X592495Y328074D01*
X592529Y328017D01*
X592554Y327957D01*
X592585Y327922D01*
X592610Y327881D01*
X592661Y327840D01*
X592705Y327791D01*
X592747Y327769D01*
X592784Y327740D01*
X592846Y327719D01*
X592905Y327688D01*
X592959Y327680D01*
X592996Y327668D01*
X593036Y327669D01*
X593090Y327661D01*
X595630Y327661D01*
X595695Y327672D01*
G37*
G36*
X362015Y327672D02*
X362015Y327672D01*
X362081Y327674D01*
X362124Y327692D01*
X362171Y327700D01*
X362228Y327734D01*
X362288Y327759D01*
X362323Y327790D01*
X362364Y327815D01*
X362406Y327866D01*
X362454Y327910D01*
X362476Y327952D01*
X362505Y327989D01*
X362526Y328051D01*
X362557Y328110D01*
X362565Y328164D01*
X362577Y328201D01*
X362576Y328241D01*
X362584Y328295D01*
X362584Y332105D01*
X362573Y332170D01*
X362571Y332236D01*
X362553Y332279D01*
X362545Y332326D01*
X362511Y332383D01*
X362486Y332443D01*
X362455Y332478D01*
X362430Y332519D01*
X362379Y332561D01*
X362335Y332609D01*
X362293Y332631D01*
X362256Y332660D01*
X362194Y332681D01*
X362135Y332712D01*
X362081Y332720D01*
X362044Y332732D01*
X362004Y332731D01*
X361950Y332739D01*
X359410Y332739D01*
X359345Y332728D01*
X359279Y332726D01*
X359236Y332708D01*
X359189Y332700D01*
X359132Y332666D01*
X359072Y332641D01*
X359037Y332610D01*
X358996Y332585D01*
X358955Y332534D01*
X358906Y332490D01*
X358884Y332448D01*
X358855Y332411D01*
X358834Y332349D01*
X358803Y332290D01*
X358795Y332236D01*
X358783Y332199D01*
X358783Y332195D01*
X358783Y332194D01*
X358784Y332159D01*
X358776Y332105D01*
X358776Y328295D01*
X358787Y328230D01*
X358789Y328164D01*
X358807Y328121D01*
X358815Y328074D01*
X358849Y328017D01*
X358874Y327957D01*
X358905Y327922D01*
X358930Y327881D01*
X358981Y327840D01*
X359025Y327791D01*
X359067Y327769D01*
X359104Y327740D01*
X359166Y327719D01*
X359225Y327688D01*
X359279Y327680D01*
X359316Y327668D01*
X359356Y327669D01*
X359410Y327661D01*
X361950Y327661D01*
X362015Y327672D01*
G37*
G36*
X317565Y302272D02*
X317565Y302272D01*
X317631Y302274D01*
X317674Y302292D01*
X317721Y302300D01*
X317778Y302334D01*
X317838Y302359D01*
X317873Y302390D01*
X317914Y302415D01*
X317956Y302466D01*
X318004Y302510D01*
X318026Y302552D01*
X318055Y302589D01*
X318076Y302651D01*
X318107Y302710D01*
X318115Y302764D01*
X318127Y302801D01*
X318126Y302841D01*
X318134Y302895D01*
X318134Y306705D01*
X318123Y306770D01*
X318121Y306836D01*
X318103Y306879D01*
X318095Y306926D01*
X318061Y306983D01*
X318036Y307043D01*
X318005Y307078D01*
X317980Y307119D01*
X317929Y307161D01*
X317885Y307209D01*
X317843Y307231D01*
X317806Y307260D01*
X317744Y307281D01*
X317685Y307312D01*
X317631Y307320D01*
X317594Y307332D01*
X317554Y307331D01*
X317500Y307339D01*
X314960Y307339D01*
X314895Y307328D01*
X314829Y307326D01*
X314786Y307308D01*
X314739Y307300D01*
X314682Y307266D01*
X314622Y307241D01*
X314587Y307210D01*
X314546Y307185D01*
X314505Y307134D01*
X314456Y307090D01*
X314434Y307048D01*
X314405Y307011D01*
X314384Y306949D01*
X314353Y306890D01*
X314345Y306836D01*
X314333Y306799D01*
X314333Y306795D01*
X314333Y306794D01*
X314334Y306759D01*
X314326Y306705D01*
X314326Y302895D01*
X314337Y302830D01*
X314339Y302764D01*
X314357Y302721D01*
X314365Y302674D01*
X314399Y302617D01*
X314424Y302557D01*
X314455Y302522D01*
X314480Y302481D01*
X314531Y302440D01*
X314575Y302391D01*
X314617Y302369D01*
X314654Y302340D01*
X314716Y302319D01*
X314775Y302288D01*
X314829Y302280D01*
X314866Y302268D01*
X314906Y302269D01*
X314960Y302261D01*
X317500Y302261D01*
X317565Y302272D01*
G37*
G36*
X551245Y302272D02*
X551245Y302272D01*
X551311Y302274D01*
X551354Y302292D01*
X551401Y302300D01*
X551458Y302334D01*
X551518Y302359D01*
X551553Y302390D01*
X551594Y302415D01*
X551636Y302466D01*
X551684Y302510D01*
X551706Y302552D01*
X551735Y302589D01*
X551756Y302651D01*
X551787Y302710D01*
X551795Y302764D01*
X551807Y302801D01*
X551806Y302841D01*
X551814Y302895D01*
X551814Y306705D01*
X551803Y306770D01*
X551801Y306836D01*
X551783Y306879D01*
X551775Y306926D01*
X551741Y306983D01*
X551716Y307043D01*
X551685Y307078D01*
X551660Y307119D01*
X551609Y307161D01*
X551565Y307209D01*
X551523Y307231D01*
X551486Y307260D01*
X551424Y307281D01*
X551365Y307312D01*
X551311Y307320D01*
X551274Y307332D01*
X551234Y307331D01*
X551180Y307339D01*
X548640Y307339D01*
X548575Y307328D01*
X548509Y307326D01*
X548466Y307308D01*
X548419Y307300D01*
X548362Y307266D01*
X548302Y307241D01*
X548267Y307210D01*
X548226Y307185D01*
X548185Y307134D01*
X548136Y307090D01*
X548114Y307048D01*
X548085Y307011D01*
X548064Y306949D01*
X548033Y306890D01*
X548025Y306836D01*
X548013Y306799D01*
X548013Y306795D01*
X548013Y306794D01*
X548014Y306759D01*
X548006Y306705D01*
X548006Y302895D01*
X548017Y302830D01*
X548019Y302764D01*
X548037Y302721D01*
X548045Y302674D01*
X548079Y302617D01*
X548104Y302557D01*
X548135Y302522D01*
X548160Y302481D01*
X548211Y302440D01*
X548255Y302391D01*
X548297Y302369D01*
X548334Y302340D01*
X548396Y302319D01*
X548455Y302288D01*
X548509Y302280D01*
X548546Y302268D01*
X548586Y302269D01*
X548640Y302261D01*
X551180Y302261D01*
X551245Y302272D01*
G37*
G36*
X83885Y302272D02*
X83885Y302272D01*
X83951Y302274D01*
X83994Y302292D01*
X84041Y302300D01*
X84098Y302334D01*
X84158Y302359D01*
X84193Y302390D01*
X84234Y302415D01*
X84276Y302466D01*
X84324Y302510D01*
X84346Y302552D01*
X84375Y302589D01*
X84396Y302651D01*
X84427Y302710D01*
X84435Y302764D01*
X84447Y302801D01*
X84446Y302841D01*
X84454Y302895D01*
X84454Y306705D01*
X84443Y306770D01*
X84441Y306836D01*
X84423Y306879D01*
X84415Y306926D01*
X84381Y306983D01*
X84356Y307043D01*
X84325Y307078D01*
X84300Y307119D01*
X84249Y307161D01*
X84205Y307209D01*
X84163Y307231D01*
X84126Y307260D01*
X84064Y307281D01*
X84005Y307312D01*
X83951Y307320D01*
X83914Y307332D01*
X83874Y307331D01*
X83820Y307339D01*
X81280Y307339D01*
X81215Y307328D01*
X81149Y307326D01*
X81106Y307308D01*
X81059Y307300D01*
X81002Y307266D01*
X80942Y307241D01*
X80907Y307210D01*
X80866Y307185D01*
X80825Y307134D01*
X80776Y307090D01*
X80754Y307048D01*
X80725Y307011D01*
X80704Y306949D01*
X80673Y306890D01*
X80665Y306836D01*
X80653Y306799D01*
X80653Y306795D01*
X80653Y306794D01*
X80654Y306759D01*
X80646Y306705D01*
X80646Y302895D01*
X80657Y302830D01*
X80659Y302764D01*
X80677Y302721D01*
X80685Y302674D01*
X80719Y302617D01*
X80744Y302557D01*
X80775Y302522D01*
X80800Y302481D01*
X80851Y302440D01*
X80895Y302391D01*
X80937Y302369D01*
X80974Y302340D01*
X81036Y302319D01*
X81095Y302288D01*
X81149Y302280D01*
X81186Y302268D01*
X81226Y302269D01*
X81280Y302261D01*
X83820Y302261D01*
X83885Y302272D01*
G37*
G36*
X621095Y187972D02*
X621095Y187972D01*
X621161Y187974D01*
X621204Y187992D01*
X621251Y188000D01*
X621308Y188034D01*
X621368Y188059D01*
X621403Y188090D01*
X621444Y188115D01*
X621486Y188166D01*
X621534Y188210D01*
X621556Y188252D01*
X621585Y188289D01*
X621606Y188351D01*
X621637Y188410D01*
X621645Y188464D01*
X621657Y188501D01*
X621656Y188541D01*
X621664Y188595D01*
X621664Y192405D01*
X621653Y192470D01*
X621651Y192536D01*
X621633Y192579D01*
X621625Y192626D01*
X621591Y192683D01*
X621566Y192743D01*
X621535Y192778D01*
X621510Y192819D01*
X621459Y192861D01*
X621415Y192909D01*
X621373Y192931D01*
X621336Y192960D01*
X621274Y192981D01*
X621215Y193012D01*
X621161Y193020D01*
X621124Y193032D01*
X621084Y193031D01*
X621030Y193039D01*
X618490Y193039D01*
X618425Y193028D01*
X618359Y193026D01*
X618316Y193008D01*
X618269Y193000D01*
X618212Y192966D01*
X618152Y192941D01*
X618117Y192910D01*
X618076Y192885D01*
X618035Y192834D01*
X617986Y192790D01*
X617964Y192748D01*
X617935Y192711D01*
X617914Y192649D01*
X617883Y192590D01*
X617875Y192536D01*
X617863Y192499D01*
X617863Y192495D01*
X617863Y192494D01*
X617864Y192459D01*
X617856Y192405D01*
X617856Y188595D01*
X617867Y188530D01*
X617869Y188464D01*
X617887Y188421D01*
X617895Y188374D01*
X617929Y188317D01*
X617954Y188257D01*
X617985Y188222D01*
X618010Y188181D01*
X618061Y188140D01*
X618105Y188091D01*
X618147Y188069D01*
X618184Y188040D01*
X618246Y188019D01*
X618305Y187988D01*
X618359Y187980D01*
X618396Y187968D01*
X618436Y187969D01*
X618490Y187961D01*
X621030Y187961D01*
X621095Y187972D01*
G37*
G36*
X387415Y187972D02*
X387415Y187972D01*
X387481Y187974D01*
X387524Y187992D01*
X387571Y188000D01*
X387628Y188034D01*
X387688Y188059D01*
X387723Y188090D01*
X387764Y188115D01*
X387806Y188166D01*
X387854Y188210D01*
X387876Y188252D01*
X387905Y188289D01*
X387926Y188351D01*
X387957Y188410D01*
X387965Y188464D01*
X387977Y188501D01*
X387976Y188541D01*
X387984Y188595D01*
X387984Y192405D01*
X387973Y192470D01*
X387971Y192536D01*
X387953Y192579D01*
X387945Y192626D01*
X387911Y192683D01*
X387886Y192743D01*
X387855Y192778D01*
X387830Y192819D01*
X387779Y192861D01*
X387735Y192909D01*
X387693Y192931D01*
X387656Y192960D01*
X387594Y192981D01*
X387535Y193012D01*
X387481Y193020D01*
X387444Y193032D01*
X387404Y193031D01*
X387350Y193039D01*
X384810Y193039D01*
X384745Y193028D01*
X384679Y193026D01*
X384636Y193008D01*
X384589Y193000D01*
X384532Y192966D01*
X384472Y192941D01*
X384437Y192910D01*
X384396Y192885D01*
X384355Y192834D01*
X384306Y192790D01*
X384284Y192748D01*
X384255Y192711D01*
X384234Y192649D01*
X384203Y192590D01*
X384195Y192536D01*
X384183Y192499D01*
X384183Y192495D01*
X384183Y192494D01*
X384184Y192459D01*
X384176Y192405D01*
X384176Y188595D01*
X384187Y188530D01*
X384189Y188464D01*
X384207Y188421D01*
X384215Y188374D01*
X384249Y188317D01*
X384274Y188257D01*
X384305Y188222D01*
X384330Y188181D01*
X384381Y188140D01*
X384425Y188091D01*
X384467Y188069D01*
X384504Y188040D01*
X384566Y188019D01*
X384625Y187988D01*
X384679Y187980D01*
X384716Y187968D01*
X384756Y187969D01*
X384810Y187961D01*
X387350Y187961D01*
X387415Y187972D01*
G37*
G36*
X153735Y187972D02*
X153735Y187972D01*
X153801Y187974D01*
X153844Y187992D01*
X153891Y188000D01*
X153948Y188034D01*
X154008Y188059D01*
X154043Y188090D01*
X154084Y188115D01*
X154126Y188166D01*
X154174Y188210D01*
X154196Y188252D01*
X154225Y188289D01*
X154246Y188351D01*
X154277Y188410D01*
X154285Y188464D01*
X154297Y188501D01*
X154296Y188541D01*
X154304Y188595D01*
X154304Y192405D01*
X154293Y192470D01*
X154291Y192536D01*
X154273Y192579D01*
X154265Y192626D01*
X154231Y192683D01*
X154206Y192743D01*
X154175Y192778D01*
X154150Y192819D01*
X154099Y192861D01*
X154055Y192909D01*
X154013Y192931D01*
X153976Y192960D01*
X153914Y192981D01*
X153855Y193012D01*
X153801Y193020D01*
X153764Y193032D01*
X153724Y193031D01*
X153670Y193039D01*
X151130Y193039D01*
X151065Y193028D01*
X150999Y193026D01*
X150956Y193008D01*
X150909Y193000D01*
X150852Y192966D01*
X150792Y192941D01*
X150757Y192910D01*
X150716Y192885D01*
X150675Y192834D01*
X150626Y192790D01*
X150604Y192748D01*
X150575Y192711D01*
X150554Y192649D01*
X150523Y192590D01*
X150515Y192536D01*
X150503Y192499D01*
X150503Y192495D01*
X150503Y192494D01*
X150504Y192459D01*
X150496Y192405D01*
X150496Y188595D01*
X150507Y188530D01*
X150509Y188464D01*
X150527Y188421D01*
X150535Y188374D01*
X150569Y188317D01*
X150594Y188257D01*
X150625Y188222D01*
X150650Y188181D01*
X150701Y188140D01*
X150745Y188091D01*
X150787Y188069D01*
X150824Y188040D01*
X150886Y188019D01*
X150945Y187988D01*
X150999Y187980D01*
X151036Y187968D01*
X151076Y187969D01*
X151130Y187961D01*
X153670Y187961D01*
X153735Y187972D01*
G37*
G36*
X646495Y60972D02*
X646495Y60972D01*
X646561Y60974D01*
X646604Y60992D01*
X646651Y61000D01*
X646708Y61034D01*
X646768Y61059D01*
X646803Y61090D01*
X646844Y61115D01*
X646886Y61166D01*
X646934Y61210D01*
X646956Y61252D01*
X646985Y61289D01*
X647006Y61351D01*
X647037Y61410D01*
X647045Y61464D01*
X647057Y61501D01*
X647056Y61541D01*
X647064Y61595D01*
X647064Y65405D01*
X647053Y65470D01*
X647051Y65536D01*
X647033Y65579D01*
X647025Y65626D01*
X646991Y65683D01*
X646966Y65743D01*
X646935Y65778D01*
X646910Y65819D01*
X646859Y65861D01*
X646815Y65909D01*
X646773Y65931D01*
X646736Y65960D01*
X646674Y65981D01*
X646615Y66012D01*
X646561Y66020D01*
X646524Y66032D01*
X646484Y66031D01*
X646430Y66039D01*
X643890Y66039D01*
X643825Y66028D01*
X643759Y66026D01*
X643716Y66008D01*
X643669Y66000D01*
X643612Y65966D01*
X643552Y65941D01*
X643517Y65910D01*
X643476Y65885D01*
X643435Y65834D01*
X643386Y65790D01*
X643364Y65748D01*
X643335Y65711D01*
X643314Y65649D01*
X643283Y65590D01*
X643275Y65536D01*
X643263Y65499D01*
X643263Y65495D01*
X643263Y65494D01*
X643264Y65459D01*
X643256Y65405D01*
X643256Y61595D01*
X643267Y61530D01*
X643269Y61464D01*
X643287Y61421D01*
X643295Y61374D01*
X643329Y61317D01*
X643354Y61257D01*
X643385Y61222D01*
X643410Y61181D01*
X643461Y61140D01*
X643505Y61091D01*
X643547Y61069D01*
X643584Y61040D01*
X643646Y61019D01*
X643705Y60988D01*
X643759Y60980D01*
X643796Y60968D01*
X643836Y60969D01*
X643890Y60961D01*
X646430Y60961D01*
X646495Y60972D01*
G37*
G36*
X412815Y60972D02*
X412815Y60972D01*
X412881Y60974D01*
X412924Y60992D01*
X412971Y61000D01*
X413028Y61034D01*
X413088Y61059D01*
X413123Y61090D01*
X413164Y61115D01*
X413206Y61166D01*
X413254Y61210D01*
X413276Y61252D01*
X413305Y61289D01*
X413326Y61351D01*
X413357Y61410D01*
X413365Y61464D01*
X413377Y61501D01*
X413376Y61541D01*
X413384Y61595D01*
X413384Y65405D01*
X413373Y65470D01*
X413371Y65536D01*
X413353Y65579D01*
X413345Y65626D01*
X413311Y65683D01*
X413286Y65743D01*
X413255Y65778D01*
X413230Y65819D01*
X413179Y65861D01*
X413135Y65909D01*
X413093Y65931D01*
X413056Y65960D01*
X412994Y65981D01*
X412935Y66012D01*
X412881Y66020D01*
X412844Y66032D01*
X412804Y66031D01*
X412750Y66039D01*
X410210Y66039D01*
X410145Y66028D01*
X410079Y66026D01*
X410036Y66008D01*
X409989Y66000D01*
X409932Y65966D01*
X409872Y65941D01*
X409837Y65910D01*
X409796Y65885D01*
X409755Y65834D01*
X409706Y65790D01*
X409684Y65748D01*
X409655Y65711D01*
X409634Y65649D01*
X409603Y65590D01*
X409595Y65536D01*
X409583Y65499D01*
X409583Y65495D01*
X409583Y65494D01*
X409584Y65459D01*
X409576Y65405D01*
X409576Y61595D01*
X409587Y61530D01*
X409589Y61464D01*
X409607Y61421D01*
X409615Y61374D01*
X409649Y61317D01*
X409674Y61257D01*
X409705Y61222D01*
X409730Y61181D01*
X409781Y61140D01*
X409825Y61091D01*
X409867Y61069D01*
X409904Y61040D01*
X409966Y61019D01*
X410025Y60988D01*
X410079Y60980D01*
X410116Y60968D01*
X410156Y60969D01*
X410210Y60961D01*
X412750Y60961D01*
X412815Y60972D01*
G37*
G36*
X179135Y60972D02*
X179135Y60972D01*
X179201Y60974D01*
X179244Y60992D01*
X179291Y61000D01*
X179348Y61034D01*
X179408Y61059D01*
X179443Y61090D01*
X179484Y61115D01*
X179526Y61166D01*
X179574Y61210D01*
X179596Y61252D01*
X179625Y61289D01*
X179646Y61351D01*
X179677Y61410D01*
X179685Y61464D01*
X179697Y61501D01*
X179696Y61541D01*
X179704Y61595D01*
X179704Y65405D01*
X179693Y65470D01*
X179691Y65536D01*
X179673Y65579D01*
X179665Y65626D01*
X179631Y65683D01*
X179606Y65743D01*
X179575Y65778D01*
X179550Y65819D01*
X179499Y65861D01*
X179455Y65909D01*
X179413Y65931D01*
X179376Y65960D01*
X179314Y65981D01*
X179255Y66012D01*
X179201Y66020D01*
X179164Y66032D01*
X179124Y66031D01*
X179070Y66039D01*
X176530Y66039D01*
X176465Y66028D01*
X176399Y66026D01*
X176356Y66008D01*
X176309Y66000D01*
X176252Y65966D01*
X176192Y65941D01*
X176157Y65910D01*
X176116Y65885D01*
X176075Y65834D01*
X176026Y65790D01*
X176004Y65748D01*
X175975Y65711D01*
X175954Y65649D01*
X175923Y65590D01*
X175915Y65536D01*
X175903Y65499D01*
X175903Y65495D01*
X175903Y65494D01*
X175904Y65459D01*
X175896Y65405D01*
X175896Y61595D01*
X175907Y61530D01*
X175909Y61464D01*
X175927Y61421D01*
X175935Y61374D01*
X175969Y61317D01*
X175994Y61257D01*
X176025Y61222D01*
X176050Y61181D01*
X176101Y61140D01*
X176145Y61091D01*
X176187Y61069D01*
X176224Y61040D01*
X176286Y61019D01*
X176345Y60988D01*
X176399Y60980D01*
X176436Y60968D01*
X176476Y60969D01*
X176530Y60961D01*
X179070Y60961D01*
X179135Y60972D01*
G37*
G36*
X323280Y188607D02*
X323280Y188607D01*
X323346Y188609D01*
X323389Y188627D01*
X323436Y188635D01*
X323493Y188669D01*
X323553Y188694D01*
X323588Y188725D01*
X323629Y188750D01*
X323671Y188801D01*
X323719Y188845D01*
X323741Y188887D01*
X323770Y188924D01*
X323791Y188986D01*
X323822Y189045D01*
X323830Y189099D01*
X323842Y189136D01*
X323841Y189176D01*
X323849Y189230D01*
X323849Y191770D01*
X323838Y191835D01*
X323836Y191901D01*
X323818Y191944D01*
X323810Y191991D01*
X323776Y192048D01*
X323751Y192108D01*
X323720Y192143D01*
X323695Y192184D01*
X323644Y192226D01*
X323600Y192274D01*
X323558Y192296D01*
X323521Y192325D01*
X323459Y192346D01*
X323400Y192377D01*
X323346Y192385D01*
X323309Y192397D01*
X323269Y192396D01*
X323215Y192404D01*
X319405Y192404D01*
X319340Y192393D01*
X319274Y192391D01*
X319231Y192373D01*
X319184Y192365D01*
X319127Y192331D01*
X319067Y192306D01*
X319032Y192275D01*
X318991Y192250D01*
X318950Y192199D01*
X318901Y192155D01*
X318879Y192113D01*
X318850Y192076D01*
X318829Y192014D01*
X318798Y191955D01*
X318790Y191901D01*
X318778Y191864D01*
X318778Y191861D01*
X318779Y191824D01*
X318771Y191770D01*
X318771Y189230D01*
X318782Y189165D01*
X318784Y189099D01*
X318802Y189056D01*
X318810Y189009D01*
X318844Y188952D01*
X318869Y188892D01*
X318900Y188857D01*
X318925Y188816D01*
X318976Y188775D01*
X319020Y188726D01*
X319062Y188704D01*
X319099Y188675D01*
X319161Y188654D01*
X319220Y188623D01*
X319274Y188615D01*
X319311Y188603D01*
X319351Y188604D01*
X319405Y188596D01*
X323215Y188596D01*
X323280Y188607D01*
G37*
G36*
X89600Y188607D02*
X89600Y188607D01*
X89666Y188609D01*
X89709Y188627D01*
X89756Y188635D01*
X89813Y188669D01*
X89873Y188694D01*
X89908Y188725D01*
X89949Y188750D01*
X89991Y188801D01*
X90039Y188845D01*
X90061Y188887D01*
X90090Y188924D01*
X90111Y188986D01*
X90142Y189045D01*
X90150Y189099D01*
X90162Y189136D01*
X90161Y189176D01*
X90169Y189230D01*
X90169Y191770D01*
X90158Y191835D01*
X90156Y191901D01*
X90138Y191944D01*
X90130Y191991D01*
X90096Y192048D01*
X90071Y192108D01*
X90040Y192143D01*
X90015Y192184D01*
X89964Y192226D01*
X89920Y192274D01*
X89878Y192296D01*
X89841Y192325D01*
X89779Y192346D01*
X89720Y192377D01*
X89666Y192385D01*
X89629Y192397D01*
X89589Y192396D01*
X89535Y192404D01*
X85725Y192404D01*
X85660Y192393D01*
X85594Y192391D01*
X85551Y192373D01*
X85504Y192365D01*
X85447Y192331D01*
X85387Y192306D01*
X85352Y192275D01*
X85311Y192250D01*
X85270Y192199D01*
X85221Y192155D01*
X85199Y192113D01*
X85170Y192076D01*
X85149Y192014D01*
X85118Y191955D01*
X85110Y191901D01*
X85098Y191864D01*
X85098Y191861D01*
X85099Y191824D01*
X85091Y191770D01*
X85091Y189230D01*
X85102Y189165D01*
X85104Y189099D01*
X85122Y189056D01*
X85130Y189009D01*
X85164Y188952D01*
X85189Y188892D01*
X85220Y188857D01*
X85245Y188816D01*
X85296Y188775D01*
X85340Y188726D01*
X85382Y188704D01*
X85419Y188675D01*
X85481Y188654D01*
X85540Y188623D01*
X85594Y188615D01*
X85631Y188603D01*
X85671Y188604D01*
X85725Y188596D01*
X89535Y188596D01*
X89600Y188607D01*
G37*
G36*
X556960Y188607D02*
X556960Y188607D01*
X557026Y188609D01*
X557069Y188627D01*
X557116Y188635D01*
X557173Y188669D01*
X557233Y188694D01*
X557268Y188725D01*
X557309Y188750D01*
X557351Y188801D01*
X557399Y188845D01*
X557421Y188887D01*
X557450Y188924D01*
X557471Y188986D01*
X557502Y189045D01*
X557510Y189099D01*
X557522Y189136D01*
X557521Y189176D01*
X557529Y189230D01*
X557529Y191770D01*
X557518Y191835D01*
X557516Y191901D01*
X557498Y191944D01*
X557490Y191991D01*
X557456Y192048D01*
X557431Y192108D01*
X557400Y192143D01*
X557375Y192184D01*
X557324Y192226D01*
X557280Y192274D01*
X557238Y192296D01*
X557201Y192325D01*
X557139Y192346D01*
X557080Y192377D01*
X557026Y192385D01*
X556989Y192397D01*
X556949Y192396D01*
X556895Y192404D01*
X553085Y192404D01*
X553020Y192393D01*
X552954Y192391D01*
X552911Y192373D01*
X552864Y192365D01*
X552807Y192331D01*
X552747Y192306D01*
X552712Y192275D01*
X552671Y192250D01*
X552630Y192199D01*
X552581Y192155D01*
X552559Y192113D01*
X552530Y192076D01*
X552509Y192014D01*
X552478Y191955D01*
X552470Y191901D01*
X552458Y191864D01*
X552458Y191861D01*
X552459Y191824D01*
X552451Y191770D01*
X552451Y189230D01*
X552462Y189165D01*
X552464Y189099D01*
X552482Y189056D01*
X552490Y189009D01*
X552524Y188952D01*
X552549Y188892D01*
X552580Y188857D01*
X552605Y188816D01*
X552656Y188775D01*
X552700Y188726D01*
X552742Y188704D01*
X552779Y188675D01*
X552841Y188654D01*
X552900Y188623D01*
X552954Y188615D01*
X552991Y188603D01*
X553031Y188604D01*
X553085Y188596D01*
X556895Y188596D01*
X556960Y188607D01*
G37*
D10*
X215900Y520700D03*
X215900Y495300D03*
X215900Y469900D03*
X215900Y444500D03*
X215900Y419100D03*
X215900Y393700D03*
X215900Y368300D03*
X215900Y342900D03*
X215900Y317500D03*
X215900Y292100D03*
X215900Y266700D03*
X215900Y241300D03*
X215900Y215900D03*
X215900Y190500D03*
X215900Y165100D03*
X215900Y139700D03*
X12700Y241300D03*
X12700Y266700D03*
X12700Y292100D03*
X12700Y317500D03*
X12700Y342900D03*
X12700Y368300D03*
X12700Y393700D03*
X12700Y419100D03*
X12700Y444500D03*
X12700Y469900D03*
X12700Y495300D03*
X12700Y520700D03*
D11*
X80695Y402895D02*
X80695Y392905D01*
X71705Y392905D01*
X71705Y402895D01*
X80695Y402895D01*
X80695Y395313D02*
X71705Y395313D01*
X71705Y397721D02*
X80695Y397721D01*
X80695Y400129D02*
X71705Y400129D01*
X71705Y402537D02*
X80695Y402537D01*
X80695Y409905D02*
X80695Y419895D01*
X80695Y409905D02*
X71705Y409905D01*
X71705Y419895D01*
X80695Y419895D01*
X80695Y412313D02*
X71705Y412313D01*
X71705Y414721D02*
X80695Y414721D01*
X80695Y417129D02*
X71705Y417129D01*
X71705Y419537D02*
X80695Y419537D01*
D12*
X25400Y25400D03*
X203200Y25400D03*
D13*
X85400Y49050D03*
X143200Y49050D03*
D14*
X183652Y55489D02*
X183652Y61097D01*
X183652Y55489D02*
X171948Y55489D01*
X171948Y61097D01*
X183652Y61097D01*
X183652Y57883D02*
X171948Y57883D01*
X171948Y60277D02*
X183652Y60277D01*
X183652Y65903D02*
X183652Y71511D01*
X183652Y65903D02*
X171948Y65903D01*
X171948Y71511D01*
X183652Y71511D01*
X183652Y68297D02*
X171948Y68297D01*
X171948Y70691D02*
X183652Y70691D01*
D11*
X180815Y116155D02*
X190805Y116155D01*
X180815Y116155D02*
X180815Y125145D01*
X190805Y125145D01*
X190805Y116155D01*
X190805Y118563D02*
X180815Y118563D01*
X180815Y120971D02*
X190805Y120971D01*
X190805Y123379D02*
X180815Y123379D01*
X197815Y116155D02*
X207805Y116155D01*
X197815Y116155D02*
X197815Y125145D01*
X207805Y125145D01*
X207805Y116155D01*
X207805Y118563D02*
X197815Y118563D01*
X197815Y120971D02*
X207805Y120971D01*
X207805Y123379D02*
X197815Y123379D01*
X190805Y97105D02*
X180815Y97105D01*
X180815Y106095D01*
X190805Y106095D01*
X190805Y97105D01*
X190805Y99513D02*
X180815Y99513D01*
X180815Y101921D02*
X190805Y101921D01*
X190805Y104329D02*
X180815Y104329D01*
X197815Y97105D02*
X207805Y97105D01*
X197815Y97105D02*
X197815Y106095D01*
X207805Y106095D01*
X207805Y97105D01*
X207805Y99513D02*
X197815Y99513D01*
X197815Y101921D02*
X207805Y101921D01*
X207805Y104329D02*
X197815Y104329D01*
X197815Y87045D02*
X207805Y87045D01*
X207805Y78055D01*
X197815Y78055D01*
X197815Y87045D01*
X197815Y80463D02*
X207805Y80463D01*
X207805Y82871D02*
X197815Y82871D01*
X197815Y85279D02*
X207805Y85279D01*
X190805Y87045D02*
X180815Y87045D01*
X190805Y87045D02*
X190805Y78055D01*
X180815Y78055D01*
X180815Y87045D01*
X180815Y80463D02*
X190805Y80463D01*
X190805Y82871D02*
X180815Y82871D01*
X180815Y85279D02*
X190805Y85279D01*
X110795Y262205D02*
X100805Y262205D01*
X100805Y271195D01*
X110795Y271195D01*
X110795Y262205D01*
X110795Y264613D02*
X100805Y264613D01*
X100805Y267021D02*
X110795Y267021D01*
X110795Y269429D02*
X100805Y269429D01*
X117805Y262205D02*
X127795Y262205D01*
X117805Y262205D02*
X117805Y271195D01*
X127795Y271195D01*
X127795Y262205D01*
X127795Y264613D02*
X117805Y264613D01*
X117805Y267021D02*
X127795Y267021D01*
X127795Y269429D02*
X117805Y269429D01*
X110795Y281255D02*
X100805Y281255D01*
X100805Y290245D01*
X110795Y290245D01*
X110795Y281255D01*
X110795Y283663D02*
X100805Y283663D01*
X100805Y286071D02*
X110795Y286071D01*
X110795Y288479D02*
X100805Y288479D01*
X117805Y281255D02*
X127795Y281255D01*
X117805Y281255D02*
X117805Y290245D01*
X127795Y290245D01*
X127795Y281255D01*
X127795Y283663D02*
X117805Y283663D01*
X117805Y286071D02*
X127795Y286071D01*
X127795Y288479D02*
X117805Y288479D01*
X110795Y154255D02*
X100805Y154255D01*
X100805Y163245D01*
X110795Y163245D01*
X110795Y154255D01*
X110795Y156663D02*
X100805Y156663D01*
X100805Y159071D02*
X110795Y159071D01*
X110795Y161479D02*
X100805Y161479D01*
X117805Y154255D02*
X127795Y154255D01*
X117805Y154255D02*
X117805Y163245D01*
X127795Y163245D01*
X127795Y154255D01*
X127795Y156663D02*
X117805Y156663D01*
X117805Y159071D02*
X127795Y159071D01*
X127795Y161479D02*
X117805Y161479D01*
X110795Y243155D02*
X100805Y243155D01*
X100805Y252145D01*
X110795Y252145D01*
X110795Y243155D01*
X110795Y245563D02*
X100805Y245563D01*
X100805Y247971D02*
X110795Y247971D01*
X110795Y250379D02*
X100805Y250379D01*
X117805Y243155D02*
X127795Y243155D01*
X117805Y243155D02*
X117805Y252145D01*
X127795Y252145D01*
X127795Y243155D01*
X127795Y245563D02*
X117805Y245563D01*
X117805Y247971D02*
X127795Y247971D01*
X127795Y250379D02*
X117805Y250379D01*
X155905Y163245D02*
X165895Y163245D01*
X165895Y154255D01*
X155905Y154255D01*
X155905Y163245D01*
X155905Y156663D02*
X165895Y156663D01*
X165895Y159071D02*
X155905Y159071D01*
X155905Y161479D02*
X165895Y161479D01*
X148895Y163245D02*
X138905Y163245D01*
X148895Y163245D02*
X148895Y154255D01*
X138905Y154255D01*
X138905Y163245D01*
X138905Y156663D02*
X148895Y156663D01*
X148895Y159071D02*
X138905Y159071D01*
X138905Y161479D02*
X148895Y161479D01*
D14*
X146548Y192903D02*
X146548Y198511D01*
X158252Y198511D01*
X158252Y192903D01*
X146548Y192903D01*
X146548Y195297D02*
X158252Y195297D01*
X158252Y197691D02*
X146548Y197691D01*
X146548Y188097D02*
X146548Y182489D01*
X146548Y188097D02*
X158252Y188097D01*
X158252Y182489D01*
X146548Y182489D01*
X146548Y184883D02*
X158252Y184883D01*
X158252Y187277D02*
X146548Y187277D01*
D11*
X110795Y173305D02*
X100805Y173305D01*
X100805Y182295D01*
X110795Y182295D01*
X110795Y173305D01*
X110795Y175713D02*
X100805Y175713D01*
X100805Y178121D02*
X110795Y178121D01*
X110795Y180529D02*
X100805Y180529D01*
X117805Y173305D02*
X127795Y173305D01*
X117805Y173305D02*
X117805Y182295D01*
X127795Y182295D01*
X127795Y173305D01*
X127795Y175713D02*
X117805Y175713D01*
X117805Y178121D02*
X127795Y178121D01*
X127795Y180529D02*
X117805Y180529D01*
D14*
X121148Y332603D02*
X121148Y338211D01*
X132852Y338211D01*
X132852Y332603D01*
X121148Y332603D01*
X121148Y334997D02*
X132852Y334997D01*
X132852Y337391D02*
X121148Y337391D01*
X121148Y327797D02*
X121148Y322189D01*
X121148Y327797D02*
X132852Y327797D01*
X132852Y322189D01*
X121148Y322189D01*
X121148Y324583D02*
X132852Y324583D01*
X132852Y326977D02*
X121148Y326977D01*
D15*
X84854Y76480D02*
X84854Y67500D01*
X80874Y67500D01*
X80874Y76480D01*
X84854Y76480D01*
X84854Y69917D02*
X80874Y69917D01*
X80874Y72334D02*
X84854Y72334D01*
X84854Y74751D02*
X80874Y74751D01*
X95854Y76480D02*
X95854Y67500D01*
X91874Y67500D01*
X91874Y76480D01*
X95854Y76480D01*
X95854Y69917D02*
X91874Y69917D01*
X91874Y72334D02*
X95854Y72334D01*
X95854Y74751D02*
X91874Y74751D01*
X106854Y76480D02*
X106854Y67500D01*
X102874Y67500D01*
X102874Y76480D01*
X106854Y76480D01*
X106854Y69917D02*
X102874Y69917D01*
X102874Y72334D02*
X106854Y72334D01*
X106854Y74751D02*
X102874Y74751D01*
X117854Y76480D02*
X117854Y67500D01*
X113874Y67500D01*
X113874Y76480D01*
X117854Y76480D01*
X117854Y69917D02*
X113874Y69917D01*
X113874Y72334D02*
X117854Y72334D01*
X117854Y74751D02*
X113874Y74751D01*
X128854Y76480D02*
X128854Y67500D01*
X124874Y67500D01*
X124874Y76480D01*
X128854Y76480D01*
X128854Y69917D02*
X124874Y69917D01*
X124874Y72334D02*
X128854Y72334D01*
X128854Y74751D02*
X124874Y74751D01*
X139854Y76480D02*
X139854Y67500D01*
X135874Y67500D01*
X135874Y76480D01*
X139854Y76480D01*
X139854Y69917D02*
X135874Y69917D01*
X135874Y72334D02*
X139854Y72334D01*
X139854Y74751D02*
X135874Y74751D01*
X150854Y76480D02*
X150854Y67500D01*
X146874Y67500D01*
X146874Y76480D01*
X150854Y76480D01*
X150854Y69917D02*
X146874Y69917D01*
X146874Y72334D02*
X150854Y72334D01*
X150854Y74751D02*
X146874Y74751D01*
X161854Y76480D02*
X161854Y67500D01*
X157874Y67500D01*
X157874Y76480D01*
X161854Y76480D01*
X161854Y69917D02*
X157874Y69917D01*
X157874Y72334D02*
X161854Y72334D01*
X161854Y74751D02*
X157874Y74751D01*
D16*
X67961Y95393D02*
X61767Y95393D01*
X61767Y102187D01*
X67961Y102187D01*
X67961Y95393D01*
X67961Y97796D02*
X61767Y97796D01*
X61767Y100199D02*
X67961Y100199D01*
D17*
X69614Y106590D02*
X69614Y116390D01*
X69614Y106590D02*
X60114Y106590D01*
X60114Y116390D01*
X69614Y116390D01*
X69614Y108989D02*
X60114Y108989D01*
X60114Y111388D02*
X69614Y111388D01*
X69614Y113787D02*
X60114Y113787D01*
X60114Y116186D02*
X69614Y116186D01*
X69614Y132090D02*
X69614Y143090D01*
X69614Y132090D02*
X60114Y132090D01*
X60114Y143090D01*
X69614Y143090D01*
X69614Y134489D02*
X60114Y134489D01*
X60114Y136888D02*
X69614Y136888D01*
X69614Y139287D02*
X60114Y139287D01*
X60114Y141686D02*
X69614Y141686D01*
X176364Y137390D02*
X176364Y126390D01*
X166864Y126390D01*
X166864Y137390D01*
X176364Y137390D01*
X176364Y128789D02*
X166864Y128789D01*
X166864Y131188D02*
X176364Y131188D01*
X176364Y133587D02*
X166864Y133587D01*
X166864Y135986D02*
X176364Y135986D01*
X176364Y111490D02*
X176364Y88590D01*
X166864Y88590D01*
X166864Y111490D01*
X176364Y111490D01*
X176364Y90989D02*
X166864Y90989D01*
X166864Y93388D02*
X176364Y93388D01*
X176364Y95787D02*
X166864Y95787D01*
X166864Y98186D02*
X176364Y98186D01*
X176364Y100585D02*
X166864Y100585D01*
X166864Y102984D02*
X176364Y102984D01*
X176364Y105383D02*
X166864Y105383D01*
X166864Y107782D02*
X176364Y107782D01*
X176364Y110181D02*
X166864Y110181D01*
D18*
X153862Y146588D02*
X125766Y146588D01*
X153862Y146588D02*
X153862Y142092D01*
X125766Y142092D01*
X125766Y146588D01*
X125766Y144495D02*
X153862Y144495D01*
X111962Y146588D02*
X83866Y146588D01*
X111962Y146588D02*
X111962Y142092D01*
X83866Y142092D01*
X83866Y146588D01*
X83866Y144495D02*
X111962Y144495D01*
D11*
X53645Y478105D02*
X43655Y478105D01*
X43655Y487095D01*
X53645Y487095D01*
X53645Y478105D01*
X53645Y480513D02*
X43655Y480513D01*
X43655Y482921D02*
X53645Y482921D01*
X53645Y485329D02*
X43655Y485329D01*
X60655Y478105D02*
X70645Y478105D01*
X60655Y478105D02*
X60655Y487095D01*
X70645Y487095D01*
X70645Y478105D01*
X70645Y480513D02*
X60655Y480513D01*
X60655Y482921D02*
X70645Y482921D01*
X70645Y485329D02*
X60655Y485329D01*
X60655Y461695D02*
X70645Y461695D01*
X70645Y452705D01*
X60655Y452705D01*
X60655Y461695D01*
X60655Y455113D02*
X70645Y455113D01*
X70645Y457521D02*
X60655Y457521D01*
X60655Y459929D02*
X70645Y459929D01*
X53645Y461695D02*
X43655Y461695D01*
X53645Y461695D02*
X53645Y452705D01*
X43655Y452705D01*
X43655Y461695D01*
X43655Y455113D02*
X53645Y455113D01*
X53645Y457521D02*
X43655Y457521D01*
X43655Y459929D02*
X53645Y459929D01*
D14*
X94752Y462290D02*
X94752Y456682D01*
X83048Y456682D01*
X83048Y462290D01*
X94752Y462290D01*
X94752Y459076D02*
X83048Y459076D01*
X83048Y461470D02*
X94752Y461470D01*
X94752Y467096D02*
X94752Y472704D01*
X94752Y467096D02*
X83048Y467096D01*
X83048Y472704D01*
X94752Y472704D01*
X94752Y469490D02*
X83048Y469490D01*
X83048Y471884D02*
X94752Y471884D01*
X94752Y477510D02*
X94752Y483118D01*
X94752Y477510D02*
X83048Y477510D01*
X83048Y483118D01*
X94752Y483118D01*
X94752Y479904D02*
X83048Y479904D01*
X83048Y482298D02*
X94752Y482298D01*
D11*
X93395Y263195D02*
X93395Y253205D01*
X84405Y253205D01*
X84405Y263195D01*
X93395Y263195D01*
X93395Y255613D02*
X84405Y255613D01*
X84405Y258021D02*
X93395Y258021D01*
X93395Y260429D02*
X84405Y260429D01*
X84405Y262837D02*
X93395Y262837D01*
X93395Y270205D02*
X93395Y280195D01*
X93395Y270205D02*
X84405Y270205D01*
X84405Y280195D01*
X93395Y280195D01*
X93395Y272613D02*
X84405Y272613D01*
X84405Y275021D02*
X93395Y275021D01*
X93395Y277429D02*
X84405Y277429D01*
X84405Y279837D02*
X93395Y279837D01*
D14*
X88402Y296789D02*
X88402Y302397D01*
X88402Y296789D02*
X76698Y296789D01*
X76698Y302397D01*
X88402Y302397D01*
X88402Y299183D02*
X76698Y299183D01*
X76698Y301577D02*
X88402Y301577D01*
X88402Y307203D02*
X88402Y312811D01*
X88402Y307203D02*
X76698Y307203D01*
X76698Y312811D01*
X88402Y312811D01*
X88402Y309597D02*
X76698Y309597D01*
X76698Y311991D02*
X88402Y311991D01*
X116703Y221752D02*
X122057Y221752D01*
X122057Y210048D01*
X116703Y210048D01*
X116703Y221752D01*
X116703Y212442D02*
X122057Y212442D01*
X122057Y214836D02*
X116703Y214836D01*
X116703Y217230D02*
X122057Y217230D01*
X122057Y219624D02*
X116703Y219624D01*
X111897Y221752D02*
X106543Y221752D01*
X111897Y221752D02*
X111897Y210048D01*
X106543Y210048D01*
X106543Y221752D01*
X106543Y212442D02*
X111897Y212442D01*
X111897Y214836D02*
X106543Y214836D01*
X106543Y217230D02*
X111897Y217230D01*
X111897Y219624D02*
X106543Y219624D01*
D10*
X127000Y215900D03*
X101600Y215900D03*
D14*
X164602Y272659D02*
X164602Y278013D01*
X164602Y272659D02*
X152898Y272659D01*
X152898Y278013D01*
X164602Y278013D01*
X164602Y275053D02*
X152898Y275053D01*
X152898Y277447D02*
X164602Y277447D01*
X164602Y280787D02*
X164602Y286141D01*
X164602Y280787D02*
X152898Y280787D01*
X152898Y286141D01*
X164602Y286141D01*
X164602Y283181D02*
X152898Y283181D01*
X152898Y285575D02*
X164602Y285575D01*
D11*
X59005Y178595D02*
X59005Y168605D01*
X59005Y178595D02*
X67995Y178595D01*
X67995Y168605D01*
X59005Y168605D01*
X59005Y171013D02*
X67995Y171013D01*
X67995Y173421D02*
X59005Y173421D01*
X59005Y175829D02*
X67995Y175829D01*
X67995Y178237D02*
X59005Y178237D01*
X59005Y161595D02*
X59005Y151605D01*
X59005Y161595D02*
X67995Y161595D01*
X67995Y151605D01*
X59005Y151605D01*
X59005Y154013D02*
X67995Y154013D01*
X67995Y156421D02*
X59005Y156421D01*
X59005Y158829D02*
X67995Y158829D01*
X67995Y161237D02*
X59005Y161237D01*
D12*
X25400Y558800D03*
X203200Y558800D03*
D19*
X222250Y539750D03*
X6350Y44450D03*
D11*
X78055Y168605D02*
X78055Y178595D01*
X87045Y178595D01*
X87045Y168605D01*
X78055Y168605D01*
X78055Y171013D02*
X87045Y171013D01*
X87045Y173421D02*
X78055Y173421D01*
X78055Y175829D02*
X87045Y175829D01*
X87045Y178237D02*
X78055Y178237D01*
X78055Y161595D02*
X78055Y151605D01*
X78055Y161595D02*
X87045Y161595D01*
X87045Y151605D01*
X78055Y151605D01*
X78055Y154013D02*
X87045Y154013D01*
X87045Y156421D02*
X78055Y156421D01*
X78055Y158829D02*
X87045Y158829D01*
X87045Y161237D02*
X78055Y161237D01*
D14*
X74940Y184648D02*
X69332Y184648D01*
X69332Y196352D01*
X74940Y196352D01*
X74940Y184648D01*
X74940Y187042D02*
X69332Y187042D01*
X69332Y189436D02*
X74940Y189436D01*
X74940Y191830D02*
X69332Y191830D01*
X69332Y194224D02*
X74940Y194224D01*
X79746Y184648D02*
X85354Y184648D01*
X79746Y184648D02*
X79746Y196352D01*
X85354Y196352D01*
X85354Y184648D01*
X85354Y187042D02*
X79746Y187042D01*
X79746Y189436D02*
X85354Y189436D01*
X85354Y191830D02*
X79746Y191830D01*
X79746Y194224D02*
X85354Y194224D01*
X90160Y184648D02*
X95768Y184648D01*
X90160Y184648D02*
X90160Y196352D01*
X95768Y196352D01*
X95768Y184648D01*
X95768Y187042D02*
X90160Y187042D01*
X90160Y189436D02*
X95768Y189436D01*
X95768Y191830D02*
X90160Y191830D01*
X90160Y194224D02*
X95768Y194224D01*
D10*
X449580Y520700D03*
X449580Y495300D03*
X449580Y469900D03*
X449580Y444500D03*
X449580Y419100D03*
X449580Y393700D03*
X449580Y368300D03*
X449580Y342900D03*
X449580Y317500D03*
X449580Y292100D03*
X449580Y266700D03*
X449580Y241300D03*
X449580Y215900D03*
X449580Y190500D03*
X449580Y165100D03*
X449580Y139700D03*
X246380Y241300D03*
X246380Y266700D03*
X246380Y292100D03*
X246380Y317500D03*
X246380Y342900D03*
X246380Y368300D03*
X246380Y393700D03*
X246380Y419100D03*
X246380Y444500D03*
X246380Y469900D03*
X246380Y495300D03*
X246380Y520700D03*
D11*
X314375Y402895D02*
X314375Y392905D01*
X305385Y392905D01*
X305385Y402895D01*
X314375Y402895D01*
X314375Y395313D02*
X305385Y395313D01*
X305385Y397721D02*
X314375Y397721D01*
X314375Y400129D02*
X305385Y400129D01*
X305385Y402537D02*
X314375Y402537D01*
X314375Y409905D02*
X314375Y419895D01*
X314375Y409905D02*
X305385Y409905D01*
X305385Y419895D01*
X314375Y419895D01*
X314375Y412313D02*
X305385Y412313D01*
X305385Y414721D02*
X314375Y414721D01*
X314375Y417129D02*
X305385Y417129D01*
X305385Y419537D02*
X314375Y419537D01*
D12*
X259080Y25400D03*
X436880Y25400D03*
D13*
X319080Y49050D03*
X376880Y49050D03*
D14*
X417332Y55489D02*
X417332Y61097D01*
X417332Y55489D02*
X405628Y55489D01*
X405628Y61097D01*
X417332Y61097D01*
X417332Y57883D02*
X405628Y57883D01*
X405628Y60277D02*
X417332Y60277D01*
X417332Y65903D02*
X417332Y71511D01*
X417332Y65903D02*
X405628Y65903D01*
X405628Y71511D01*
X417332Y71511D01*
X417332Y68297D02*
X405628Y68297D01*
X405628Y70691D02*
X417332Y70691D01*
D11*
X414495Y116155D02*
X424485Y116155D01*
X414495Y116155D02*
X414495Y125145D01*
X424485Y125145D01*
X424485Y116155D01*
X424485Y118563D02*
X414495Y118563D01*
X414495Y120971D02*
X424485Y120971D01*
X424485Y123379D02*
X414495Y123379D01*
X431495Y116155D02*
X441485Y116155D01*
X431495Y116155D02*
X431495Y125145D01*
X441485Y125145D01*
X441485Y116155D01*
X441485Y118563D02*
X431495Y118563D01*
X431495Y120971D02*
X441485Y120971D01*
X441485Y123379D02*
X431495Y123379D01*
X424485Y97105D02*
X414495Y97105D01*
X414495Y106095D01*
X424485Y106095D01*
X424485Y97105D01*
X424485Y99513D02*
X414495Y99513D01*
X414495Y101921D02*
X424485Y101921D01*
X424485Y104329D02*
X414495Y104329D01*
X431495Y97105D02*
X441485Y97105D01*
X431495Y97105D02*
X431495Y106095D01*
X441485Y106095D01*
X441485Y97105D01*
X441485Y99513D02*
X431495Y99513D01*
X431495Y101921D02*
X441485Y101921D01*
X441485Y104329D02*
X431495Y104329D01*
X431495Y87045D02*
X441485Y87045D01*
X441485Y78055D01*
X431495Y78055D01*
X431495Y87045D01*
X431495Y80463D02*
X441485Y80463D01*
X441485Y82871D02*
X431495Y82871D01*
X431495Y85279D02*
X441485Y85279D01*
X424485Y87045D02*
X414495Y87045D01*
X424485Y87045D02*
X424485Y78055D01*
X414495Y78055D01*
X414495Y87045D01*
X414495Y80463D02*
X424485Y80463D01*
X424485Y82871D02*
X414495Y82871D01*
X414495Y85279D02*
X424485Y85279D01*
X344475Y262205D02*
X334485Y262205D01*
X334485Y271195D01*
X344475Y271195D01*
X344475Y262205D01*
X344475Y264613D02*
X334485Y264613D01*
X334485Y267021D02*
X344475Y267021D01*
X344475Y269429D02*
X334485Y269429D01*
X351485Y262205D02*
X361475Y262205D01*
X351485Y262205D02*
X351485Y271195D01*
X361475Y271195D01*
X361475Y262205D01*
X361475Y264613D02*
X351485Y264613D01*
X351485Y267021D02*
X361475Y267021D01*
X361475Y269429D02*
X351485Y269429D01*
X344475Y281255D02*
X334485Y281255D01*
X334485Y290245D01*
X344475Y290245D01*
X344475Y281255D01*
X344475Y283663D02*
X334485Y283663D01*
X334485Y286071D02*
X344475Y286071D01*
X344475Y288479D02*
X334485Y288479D01*
X351485Y281255D02*
X361475Y281255D01*
X351485Y281255D02*
X351485Y290245D01*
X361475Y290245D01*
X361475Y281255D01*
X361475Y283663D02*
X351485Y283663D01*
X351485Y286071D02*
X361475Y286071D01*
X361475Y288479D02*
X351485Y288479D01*
X344475Y154255D02*
X334485Y154255D01*
X334485Y163245D01*
X344475Y163245D01*
X344475Y154255D01*
X344475Y156663D02*
X334485Y156663D01*
X334485Y159071D02*
X344475Y159071D01*
X344475Y161479D02*
X334485Y161479D01*
X351485Y154255D02*
X361475Y154255D01*
X351485Y154255D02*
X351485Y163245D01*
X361475Y163245D01*
X361475Y154255D01*
X361475Y156663D02*
X351485Y156663D01*
X351485Y159071D02*
X361475Y159071D01*
X361475Y161479D02*
X351485Y161479D01*
X344475Y243155D02*
X334485Y243155D01*
X334485Y252145D01*
X344475Y252145D01*
X344475Y243155D01*
X344475Y245563D02*
X334485Y245563D01*
X334485Y247971D02*
X344475Y247971D01*
X344475Y250379D02*
X334485Y250379D01*
X351485Y243155D02*
X361475Y243155D01*
X351485Y243155D02*
X351485Y252145D01*
X361475Y252145D01*
X361475Y243155D01*
X361475Y245563D02*
X351485Y245563D01*
X351485Y247971D02*
X361475Y247971D01*
X361475Y250379D02*
X351485Y250379D01*
X389585Y163245D02*
X399575Y163245D01*
X399575Y154255D01*
X389585Y154255D01*
X389585Y163245D01*
X389585Y156663D02*
X399575Y156663D01*
X399575Y159071D02*
X389585Y159071D01*
X389585Y161479D02*
X399575Y161479D01*
X382575Y163245D02*
X372585Y163245D01*
X382575Y163245D02*
X382575Y154255D01*
X372585Y154255D01*
X372585Y163245D01*
X372585Y156663D02*
X382575Y156663D01*
X382575Y159071D02*
X372585Y159071D01*
X372585Y161479D02*
X382575Y161479D01*
D14*
X380228Y192903D02*
X380228Y198511D01*
X391932Y198511D01*
X391932Y192903D01*
X380228Y192903D01*
X380228Y195297D02*
X391932Y195297D01*
X391932Y197691D02*
X380228Y197691D01*
X380228Y188097D02*
X380228Y182489D01*
X380228Y188097D02*
X391932Y188097D01*
X391932Y182489D01*
X380228Y182489D01*
X380228Y184883D02*
X391932Y184883D01*
X391932Y187277D02*
X380228Y187277D01*
D11*
X344475Y173305D02*
X334485Y173305D01*
X334485Y182295D01*
X344475Y182295D01*
X344475Y173305D01*
X344475Y175713D02*
X334485Y175713D01*
X334485Y178121D02*
X344475Y178121D01*
X344475Y180529D02*
X334485Y180529D01*
X351485Y173305D02*
X361475Y173305D01*
X351485Y173305D02*
X351485Y182295D01*
X361475Y182295D01*
X361475Y173305D01*
X361475Y175713D02*
X351485Y175713D01*
X351485Y178121D02*
X361475Y178121D01*
X361475Y180529D02*
X351485Y180529D01*
D14*
X354828Y332603D02*
X354828Y338211D01*
X366532Y338211D01*
X366532Y332603D01*
X354828Y332603D01*
X354828Y334997D02*
X366532Y334997D01*
X366532Y337391D02*
X354828Y337391D01*
X354828Y327797D02*
X354828Y322189D01*
X354828Y327797D02*
X366532Y327797D01*
X366532Y322189D01*
X354828Y322189D01*
X354828Y324583D02*
X366532Y324583D01*
X366532Y326977D02*
X354828Y326977D01*
D15*
X318534Y76480D02*
X318534Y67500D01*
X314554Y67500D01*
X314554Y76480D01*
X318534Y76480D01*
X318534Y69917D02*
X314554Y69917D01*
X314554Y72334D02*
X318534Y72334D01*
X318534Y74751D02*
X314554Y74751D01*
X329534Y76480D02*
X329534Y67500D01*
X325554Y67500D01*
X325554Y76480D01*
X329534Y76480D01*
X329534Y69917D02*
X325554Y69917D01*
X325554Y72334D02*
X329534Y72334D01*
X329534Y74751D02*
X325554Y74751D01*
X340534Y76480D02*
X340534Y67500D01*
X336554Y67500D01*
X336554Y76480D01*
X340534Y76480D01*
X340534Y69917D02*
X336554Y69917D01*
X336554Y72334D02*
X340534Y72334D01*
X340534Y74751D02*
X336554Y74751D01*
X351534Y76480D02*
X351534Y67500D01*
X347554Y67500D01*
X347554Y76480D01*
X351534Y76480D01*
X351534Y69917D02*
X347554Y69917D01*
X347554Y72334D02*
X351534Y72334D01*
X351534Y74751D02*
X347554Y74751D01*
X362534Y76480D02*
X362534Y67500D01*
X358554Y67500D01*
X358554Y76480D01*
X362534Y76480D01*
X362534Y69917D02*
X358554Y69917D01*
X358554Y72334D02*
X362534Y72334D01*
X362534Y74751D02*
X358554Y74751D01*
X373534Y76480D02*
X373534Y67500D01*
X369554Y67500D01*
X369554Y76480D01*
X373534Y76480D01*
X373534Y69917D02*
X369554Y69917D01*
X369554Y72334D02*
X373534Y72334D01*
X373534Y74751D02*
X369554Y74751D01*
X384534Y76480D02*
X384534Y67500D01*
X380554Y67500D01*
X380554Y76480D01*
X384534Y76480D01*
X384534Y69917D02*
X380554Y69917D01*
X380554Y72334D02*
X384534Y72334D01*
X384534Y74751D02*
X380554Y74751D01*
X395534Y76480D02*
X395534Y67500D01*
X391554Y67500D01*
X391554Y76480D01*
X395534Y76480D01*
X395534Y69917D02*
X391554Y69917D01*
X391554Y72334D02*
X395534Y72334D01*
X395534Y74751D02*
X391554Y74751D01*
D16*
X301641Y95393D02*
X295447Y95393D01*
X295447Y102187D01*
X301641Y102187D01*
X301641Y95393D01*
X301641Y97796D02*
X295447Y97796D01*
X295447Y100199D02*
X301641Y100199D01*
D17*
X303294Y106590D02*
X303294Y116390D01*
X303294Y106590D02*
X293794Y106590D01*
X293794Y116390D01*
X303294Y116390D01*
X303294Y108989D02*
X293794Y108989D01*
X293794Y111388D02*
X303294Y111388D01*
X303294Y113787D02*
X293794Y113787D01*
X293794Y116186D02*
X303294Y116186D01*
X303294Y132090D02*
X303294Y143090D01*
X303294Y132090D02*
X293794Y132090D01*
X293794Y143090D01*
X303294Y143090D01*
X303294Y134489D02*
X293794Y134489D01*
X293794Y136888D02*
X303294Y136888D01*
X303294Y139287D02*
X293794Y139287D01*
X293794Y141686D02*
X303294Y141686D01*
X410044Y137390D02*
X410044Y126390D01*
X400544Y126390D01*
X400544Y137390D01*
X410044Y137390D01*
X410044Y128789D02*
X400544Y128789D01*
X400544Y131188D02*
X410044Y131188D01*
X410044Y133587D02*
X400544Y133587D01*
X400544Y135986D02*
X410044Y135986D01*
X410044Y111490D02*
X410044Y88590D01*
X400544Y88590D01*
X400544Y111490D01*
X410044Y111490D01*
X410044Y90989D02*
X400544Y90989D01*
X400544Y93388D02*
X410044Y93388D01*
X410044Y95787D02*
X400544Y95787D01*
X400544Y98186D02*
X410044Y98186D01*
X410044Y100585D02*
X400544Y100585D01*
X400544Y102984D02*
X410044Y102984D01*
X410044Y105383D02*
X400544Y105383D01*
X400544Y107782D02*
X410044Y107782D01*
X410044Y110181D02*
X400544Y110181D01*
D18*
X387542Y146588D02*
X359446Y146588D01*
X387542Y146588D02*
X387542Y142092D01*
X359446Y142092D01*
X359446Y146588D01*
X359446Y144495D02*
X387542Y144495D01*
X345642Y146588D02*
X317546Y146588D01*
X345642Y146588D02*
X345642Y142092D01*
X317546Y142092D01*
X317546Y146588D01*
X317546Y144495D02*
X345642Y144495D01*
D11*
X287325Y478105D02*
X277335Y478105D01*
X277335Y487095D01*
X287325Y487095D01*
X287325Y478105D01*
X287325Y480513D02*
X277335Y480513D01*
X277335Y482921D02*
X287325Y482921D01*
X287325Y485329D02*
X277335Y485329D01*
X294335Y478105D02*
X304325Y478105D01*
X294335Y478105D02*
X294335Y487095D01*
X304325Y487095D01*
X304325Y478105D01*
X304325Y480513D02*
X294335Y480513D01*
X294335Y482921D02*
X304325Y482921D01*
X304325Y485329D02*
X294335Y485329D01*
X294335Y461695D02*
X304325Y461695D01*
X304325Y452705D01*
X294335Y452705D01*
X294335Y461695D01*
X294335Y455113D02*
X304325Y455113D01*
X304325Y457521D02*
X294335Y457521D01*
X294335Y459929D02*
X304325Y459929D01*
X287325Y461695D02*
X277335Y461695D01*
X287325Y461695D02*
X287325Y452705D01*
X277335Y452705D01*
X277335Y461695D01*
X277335Y455113D02*
X287325Y455113D01*
X287325Y457521D02*
X277335Y457521D01*
X277335Y459929D02*
X287325Y459929D01*
D14*
X328432Y462290D02*
X328432Y456682D01*
X316728Y456682D01*
X316728Y462290D01*
X328432Y462290D01*
X328432Y459076D02*
X316728Y459076D01*
X316728Y461470D02*
X328432Y461470D01*
X328432Y467096D02*
X328432Y472704D01*
X328432Y467096D02*
X316728Y467096D01*
X316728Y472704D01*
X328432Y472704D01*
X328432Y469490D02*
X316728Y469490D01*
X316728Y471884D02*
X328432Y471884D01*
X328432Y477510D02*
X328432Y483118D01*
X328432Y477510D02*
X316728Y477510D01*
X316728Y483118D01*
X328432Y483118D01*
X328432Y479904D02*
X316728Y479904D01*
X316728Y482298D02*
X328432Y482298D01*
D11*
X327075Y263195D02*
X327075Y253205D01*
X318085Y253205D01*
X318085Y263195D01*
X327075Y263195D01*
X327075Y255613D02*
X318085Y255613D01*
X318085Y258021D02*
X327075Y258021D01*
X327075Y260429D02*
X318085Y260429D01*
X318085Y262837D02*
X327075Y262837D01*
X327075Y270205D02*
X327075Y280195D01*
X327075Y270205D02*
X318085Y270205D01*
X318085Y280195D01*
X327075Y280195D01*
X327075Y272613D02*
X318085Y272613D01*
X318085Y275021D02*
X327075Y275021D01*
X327075Y277429D02*
X318085Y277429D01*
X318085Y279837D02*
X327075Y279837D01*
D14*
X322082Y296789D02*
X322082Y302397D01*
X322082Y296789D02*
X310378Y296789D01*
X310378Y302397D01*
X322082Y302397D01*
X322082Y299183D02*
X310378Y299183D01*
X310378Y301577D02*
X322082Y301577D01*
X322082Y307203D02*
X322082Y312811D01*
X322082Y307203D02*
X310378Y307203D01*
X310378Y312811D01*
X322082Y312811D01*
X322082Y309597D02*
X310378Y309597D01*
X310378Y311991D02*
X322082Y311991D01*
X350383Y221752D02*
X355737Y221752D01*
X355737Y210048D01*
X350383Y210048D01*
X350383Y221752D01*
X350383Y212442D02*
X355737Y212442D01*
X355737Y214836D02*
X350383Y214836D01*
X350383Y217230D02*
X355737Y217230D01*
X355737Y219624D02*
X350383Y219624D01*
X345577Y221752D02*
X340223Y221752D01*
X345577Y221752D02*
X345577Y210048D01*
X340223Y210048D01*
X340223Y221752D01*
X340223Y212442D02*
X345577Y212442D01*
X345577Y214836D02*
X340223Y214836D01*
X340223Y217230D02*
X345577Y217230D01*
X345577Y219624D02*
X340223Y219624D01*
D10*
X360680Y215900D03*
X335280Y215900D03*
D14*
X398282Y272659D02*
X398282Y278013D01*
X398282Y272659D02*
X386578Y272659D01*
X386578Y278013D01*
X398282Y278013D01*
X398282Y275053D02*
X386578Y275053D01*
X386578Y277447D02*
X398282Y277447D01*
X398282Y280787D02*
X398282Y286141D01*
X398282Y280787D02*
X386578Y280787D01*
X386578Y286141D01*
X398282Y286141D01*
X398282Y283181D02*
X386578Y283181D01*
X386578Y285575D02*
X398282Y285575D01*
D11*
X292685Y178595D02*
X292685Y168605D01*
X292685Y178595D02*
X301675Y178595D01*
X301675Y168605D01*
X292685Y168605D01*
X292685Y171013D02*
X301675Y171013D01*
X301675Y173421D02*
X292685Y173421D01*
X292685Y175829D02*
X301675Y175829D01*
X301675Y178237D02*
X292685Y178237D01*
X292685Y161595D02*
X292685Y151605D01*
X292685Y161595D02*
X301675Y161595D01*
X301675Y151605D01*
X292685Y151605D01*
X292685Y154013D02*
X301675Y154013D01*
X301675Y156421D02*
X292685Y156421D01*
X292685Y158829D02*
X301675Y158829D01*
X301675Y161237D02*
X292685Y161237D01*
D12*
X259080Y558800D03*
X436880Y558800D03*
D19*
X455930Y539750D03*
X240030Y44450D03*
D11*
X311735Y168605D02*
X311735Y178595D01*
X320725Y178595D01*
X320725Y168605D01*
X311735Y168605D01*
X311735Y171013D02*
X320725Y171013D01*
X320725Y173421D02*
X311735Y173421D01*
X311735Y175829D02*
X320725Y175829D01*
X320725Y178237D02*
X311735Y178237D01*
X311735Y161595D02*
X311735Y151605D01*
X311735Y161595D02*
X320725Y161595D01*
X320725Y151605D01*
X311735Y151605D01*
X311735Y154013D02*
X320725Y154013D01*
X320725Y156421D02*
X311735Y156421D01*
X311735Y158829D02*
X320725Y158829D01*
X320725Y161237D02*
X311735Y161237D01*
D14*
X308620Y184648D02*
X303012Y184648D01*
X303012Y196352D01*
X308620Y196352D01*
X308620Y184648D01*
X308620Y187042D02*
X303012Y187042D01*
X303012Y189436D02*
X308620Y189436D01*
X308620Y191830D02*
X303012Y191830D01*
X303012Y194224D02*
X308620Y194224D01*
X313426Y184648D02*
X319034Y184648D01*
X313426Y184648D02*
X313426Y196352D01*
X319034Y196352D01*
X319034Y184648D01*
X319034Y187042D02*
X313426Y187042D01*
X313426Y189436D02*
X319034Y189436D01*
X319034Y191830D02*
X313426Y191830D01*
X313426Y194224D02*
X319034Y194224D01*
X323840Y184648D02*
X329448Y184648D01*
X323840Y184648D02*
X323840Y196352D01*
X329448Y196352D01*
X329448Y184648D01*
X329448Y187042D02*
X323840Y187042D01*
X323840Y189436D02*
X329448Y189436D01*
X329448Y191830D02*
X323840Y191830D01*
X323840Y194224D02*
X329448Y194224D01*
D10*
X683260Y520700D03*
X683260Y495300D03*
X683260Y469900D03*
X683260Y444500D03*
X683260Y419100D03*
X683260Y393700D03*
X683260Y368300D03*
X683260Y342900D03*
X683260Y317500D03*
X683260Y292100D03*
X683260Y266700D03*
X683260Y241300D03*
X683260Y215900D03*
X683260Y190500D03*
X683260Y165100D03*
X683260Y139700D03*
X480060Y241300D03*
X480060Y266700D03*
X480060Y292100D03*
X480060Y317500D03*
X480060Y342900D03*
X480060Y368300D03*
X480060Y393700D03*
X480060Y419100D03*
X480060Y444500D03*
X480060Y469900D03*
X480060Y495300D03*
X480060Y520700D03*
D11*
X548055Y402895D02*
X548055Y392905D01*
X539065Y392905D01*
X539065Y402895D01*
X548055Y402895D01*
X548055Y395313D02*
X539065Y395313D01*
X539065Y397721D02*
X548055Y397721D01*
X548055Y400129D02*
X539065Y400129D01*
X539065Y402537D02*
X548055Y402537D01*
X548055Y409905D02*
X548055Y419895D01*
X548055Y409905D02*
X539065Y409905D01*
X539065Y419895D01*
X548055Y419895D01*
X548055Y412313D02*
X539065Y412313D01*
X539065Y414721D02*
X548055Y414721D01*
X548055Y417129D02*
X539065Y417129D01*
X539065Y419537D02*
X548055Y419537D01*
D12*
X492760Y25400D03*
X670560Y25400D03*
D13*
X552760Y49050D03*
X610560Y49050D03*
D14*
X651012Y55489D02*
X651012Y61097D01*
X651012Y55489D02*
X639308Y55489D01*
X639308Y61097D01*
X651012Y61097D01*
X651012Y57883D02*
X639308Y57883D01*
X639308Y60277D02*
X651012Y60277D01*
X651012Y65903D02*
X651012Y71511D01*
X651012Y65903D02*
X639308Y65903D01*
X639308Y71511D01*
X651012Y71511D01*
X651012Y68297D02*
X639308Y68297D01*
X639308Y70691D02*
X651012Y70691D01*
D11*
X648175Y116155D02*
X658165Y116155D01*
X648175Y116155D02*
X648175Y125145D01*
X658165Y125145D01*
X658165Y116155D01*
X658165Y118563D02*
X648175Y118563D01*
X648175Y120971D02*
X658165Y120971D01*
X658165Y123379D02*
X648175Y123379D01*
X665175Y116155D02*
X675165Y116155D01*
X665175Y116155D02*
X665175Y125145D01*
X675165Y125145D01*
X675165Y116155D01*
X675165Y118563D02*
X665175Y118563D01*
X665175Y120971D02*
X675165Y120971D01*
X675165Y123379D02*
X665175Y123379D01*
X658165Y97105D02*
X648175Y97105D01*
X648175Y106095D01*
X658165Y106095D01*
X658165Y97105D01*
X658165Y99513D02*
X648175Y99513D01*
X648175Y101921D02*
X658165Y101921D01*
X658165Y104329D02*
X648175Y104329D01*
X665175Y97105D02*
X675165Y97105D01*
X665175Y97105D02*
X665175Y106095D01*
X675165Y106095D01*
X675165Y97105D01*
X675165Y99513D02*
X665175Y99513D01*
X665175Y101921D02*
X675165Y101921D01*
X675165Y104329D02*
X665175Y104329D01*
X665175Y87045D02*
X675165Y87045D01*
X675165Y78055D01*
X665175Y78055D01*
X665175Y87045D01*
X665175Y80463D02*
X675165Y80463D01*
X675165Y82871D02*
X665175Y82871D01*
X665175Y85279D02*
X675165Y85279D01*
X658165Y87045D02*
X648175Y87045D01*
X658165Y87045D02*
X658165Y78055D01*
X648175Y78055D01*
X648175Y87045D01*
X648175Y80463D02*
X658165Y80463D01*
X658165Y82871D02*
X648175Y82871D01*
X648175Y85279D02*
X658165Y85279D01*
X578155Y262205D02*
X568165Y262205D01*
X568165Y271195D01*
X578155Y271195D01*
X578155Y262205D01*
X578155Y264613D02*
X568165Y264613D01*
X568165Y267021D02*
X578155Y267021D01*
X578155Y269429D02*
X568165Y269429D01*
X585165Y262205D02*
X595155Y262205D01*
X585165Y262205D02*
X585165Y271195D01*
X595155Y271195D01*
X595155Y262205D01*
X595155Y264613D02*
X585165Y264613D01*
X585165Y267021D02*
X595155Y267021D01*
X595155Y269429D02*
X585165Y269429D01*
X578155Y281255D02*
X568165Y281255D01*
X568165Y290245D01*
X578155Y290245D01*
X578155Y281255D01*
X578155Y283663D02*
X568165Y283663D01*
X568165Y286071D02*
X578155Y286071D01*
X578155Y288479D02*
X568165Y288479D01*
X585165Y281255D02*
X595155Y281255D01*
X585165Y281255D02*
X585165Y290245D01*
X595155Y290245D01*
X595155Y281255D01*
X595155Y283663D02*
X585165Y283663D01*
X585165Y286071D02*
X595155Y286071D01*
X595155Y288479D02*
X585165Y288479D01*
X578155Y154255D02*
X568165Y154255D01*
X568165Y163245D01*
X578155Y163245D01*
X578155Y154255D01*
X578155Y156663D02*
X568165Y156663D01*
X568165Y159071D02*
X578155Y159071D01*
X578155Y161479D02*
X568165Y161479D01*
X585165Y154255D02*
X595155Y154255D01*
X585165Y154255D02*
X585165Y163245D01*
X595155Y163245D01*
X595155Y154255D01*
X595155Y156663D02*
X585165Y156663D01*
X585165Y159071D02*
X595155Y159071D01*
X595155Y161479D02*
X585165Y161479D01*
X578155Y243155D02*
X568165Y243155D01*
X568165Y252145D01*
X578155Y252145D01*
X578155Y243155D01*
X578155Y245563D02*
X568165Y245563D01*
X568165Y247971D02*
X578155Y247971D01*
X578155Y250379D02*
X568165Y250379D01*
X585165Y243155D02*
X595155Y243155D01*
X585165Y243155D02*
X585165Y252145D01*
X595155Y252145D01*
X595155Y243155D01*
X595155Y245563D02*
X585165Y245563D01*
X585165Y247971D02*
X595155Y247971D01*
X595155Y250379D02*
X585165Y250379D01*
X623265Y163245D02*
X633255Y163245D01*
X633255Y154255D01*
X623265Y154255D01*
X623265Y163245D01*
X623265Y156663D02*
X633255Y156663D01*
X633255Y159071D02*
X623265Y159071D01*
X623265Y161479D02*
X633255Y161479D01*
X616255Y163245D02*
X606265Y163245D01*
X616255Y163245D02*
X616255Y154255D01*
X606265Y154255D01*
X606265Y163245D01*
X606265Y156663D02*
X616255Y156663D01*
X616255Y159071D02*
X606265Y159071D01*
X606265Y161479D02*
X616255Y161479D01*
D14*
X613908Y192903D02*
X613908Y198511D01*
X625612Y198511D01*
X625612Y192903D01*
X613908Y192903D01*
X613908Y195297D02*
X625612Y195297D01*
X625612Y197691D02*
X613908Y197691D01*
X613908Y188097D02*
X613908Y182489D01*
X613908Y188097D02*
X625612Y188097D01*
X625612Y182489D01*
X613908Y182489D01*
X613908Y184883D02*
X625612Y184883D01*
X625612Y187277D02*
X613908Y187277D01*
D11*
X578155Y173305D02*
X568165Y173305D01*
X568165Y182295D01*
X578155Y182295D01*
X578155Y173305D01*
X578155Y175713D02*
X568165Y175713D01*
X568165Y178121D02*
X578155Y178121D01*
X578155Y180529D02*
X568165Y180529D01*
X585165Y173305D02*
X595155Y173305D01*
X585165Y173305D02*
X585165Y182295D01*
X595155Y182295D01*
X595155Y173305D01*
X595155Y175713D02*
X585165Y175713D01*
X585165Y178121D02*
X595155Y178121D01*
X595155Y180529D02*
X585165Y180529D01*
D14*
X588508Y332603D02*
X588508Y338211D01*
X600212Y338211D01*
X600212Y332603D01*
X588508Y332603D01*
X588508Y334997D02*
X600212Y334997D01*
X600212Y337391D02*
X588508Y337391D01*
X588508Y327797D02*
X588508Y322189D01*
X588508Y327797D02*
X600212Y327797D01*
X600212Y322189D01*
X588508Y322189D01*
X588508Y324583D02*
X600212Y324583D01*
X600212Y326977D02*
X588508Y326977D01*
D15*
X552214Y76480D02*
X552214Y67500D01*
X548234Y67500D01*
X548234Y76480D01*
X552214Y76480D01*
X552214Y69917D02*
X548234Y69917D01*
X548234Y72334D02*
X552214Y72334D01*
X552214Y74751D02*
X548234Y74751D01*
X563214Y76480D02*
X563214Y67500D01*
X559234Y67500D01*
X559234Y76480D01*
X563214Y76480D01*
X563214Y69917D02*
X559234Y69917D01*
X559234Y72334D02*
X563214Y72334D01*
X563214Y74751D02*
X559234Y74751D01*
X574214Y76480D02*
X574214Y67500D01*
X570234Y67500D01*
X570234Y76480D01*
X574214Y76480D01*
X574214Y69917D02*
X570234Y69917D01*
X570234Y72334D02*
X574214Y72334D01*
X574214Y74751D02*
X570234Y74751D01*
X585214Y76480D02*
X585214Y67500D01*
X581234Y67500D01*
X581234Y76480D01*
X585214Y76480D01*
X585214Y69917D02*
X581234Y69917D01*
X581234Y72334D02*
X585214Y72334D01*
X585214Y74751D02*
X581234Y74751D01*
X596214Y76480D02*
X596214Y67500D01*
X592234Y67500D01*
X592234Y76480D01*
X596214Y76480D01*
X596214Y69917D02*
X592234Y69917D01*
X592234Y72334D02*
X596214Y72334D01*
X596214Y74751D02*
X592234Y74751D01*
X607214Y76480D02*
X607214Y67500D01*
X603234Y67500D01*
X603234Y76480D01*
X607214Y76480D01*
X607214Y69917D02*
X603234Y69917D01*
X603234Y72334D02*
X607214Y72334D01*
X607214Y74751D02*
X603234Y74751D01*
X618214Y76480D02*
X618214Y67500D01*
X614234Y67500D01*
X614234Y76480D01*
X618214Y76480D01*
X618214Y69917D02*
X614234Y69917D01*
X614234Y72334D02*
X618214Y72334D01*
X618214Y74751D02*
X614234Y74751D01*
X629214Y76480D02*
X629214Y67500D01*
X625234Y67500D01*
X625234Y76480D01*
X629214Y76480D01*
X629214Y69917D02*
X625234Y69917D01*
X625234Y72334D02*
X629214Y72334D01*
X629214Y74751D02*
X625234Y74751D01*
D16*
X535321Y95393D02*
X529127Y95393D01*
X529127Y102187D01*
X535321Y102187D01*
X535321Y95393D01*
X535321Y97796D02*
X529127Y97796D01*
X529127Y100199D02*
X535321Y100199D01*
D17*
X536974Y106590D02*
X536974Y116390D01*
X536974Y106590D02*
X527474Y106590D01*
X527474Y116390D01*
X536974Y116390D01*
X536974Y108989D02*
X527474Y108989D01*
X527474Y111388D02*
X536974Y111388D01*
X536974Y113787D02*
X527474Y113787D01*
X527474Y116186D02*
X536974Y116186D01*
X536974Y132090D02*
X536974Y143090D01*
X536974Y132090D02*
X527474Y132090D01*
X527474Y143090D01*
X536974Y143090D01*
X536974Y134489D02*
X527474Y134489D01*
X527474Y136888D02*
X536974Y136888D01*
X536974Y139287D02*
X527474Y139287D01*
X527474Y141686D02*
X536974Y141686D01*
X643724Y137390D02*
X643724Y126390D01*
X634224Y126390D01*
X634224Y137390D01*
X643724Y137390D01*
X643724Y128789D02*
X634224Y128789D01*
X634224Y131188D02*
X643724Y131188D01*
X643724Y133587D02*
X634224Y133587D01*
X634224Y135986D02*
X643724Y135986D01*
X643724Y111490D02*
X643724Y88590D01*
X634224Y88590D01*
X634224Y111490D01*
X643724Y111490D01*
X643724Y90989D02*
X634224Y90989D01*
X634224Y93388D02*
X643724Y93388D01*
X643724Y95787D02*
X634224Y95787D01*
X634224Y98186D02*
X643724Y98186D01*
X643724Y100585D02*
X634224Y100585D01*
X634224Y102984D02*
X643724Y102984D01*
X643724Y105383D02*
X634224Y105383D01*
X634224Y107782D02*
X643724Y107782D01*
X643724Y110181D02*
X634224Y110181D01*
D18*
X621222Y146588D02*
X593126Y146588D01*
X621222Y146588D02*
X621222Y142092D01*
X593126Y142092D01*
X593126Y146588D01*
X593126Y144495D02*
X621222Y144495D01*
X579322Y146588D02*
X551226Y146588D01*
X579322Y146588D02*
X579322Y142092D01*
X551226Y142092D01*
X551226Y146588D01*
X551226Y144495D02*
X579322Y144495D01*
D11*
X521005Y478105D02*
X511015Y478105D01*
X511015Y487095D01*
X521005Y487095D01*
X521005Y478105D01*
X521005Y480513D02*
X511015Y480513D01*
X511015Y482921D02*
X521005Y482921D01*
X521005Y485329D02*
X511015Y485329D01*
X528015Y478105D02*
X538005Y478105D01*
X528015Y478105D02*
X528015Y487095D01*
X538005Y487095D01*
X538005Y478105D01*
X538005Y480513D02*
X528015Y480513D01*
X528015Y482921D02*
X538005Y482921D01*
X538005Y485329D02*
X528015Y485329D01*
X528015Y461695D02*
X538005Y461695D01*
X538005Y452705D01*
X528015Y452705D01*
X528015Y461695D01*
X528015Y455113D02*
X538005Y455113D01*
X538005Y457521D02*
X528015Y457521D01*
X528015Y459929D02*
X538005Y459929D01*
X521005Y461695D02*
X511015Y461695D01*
X521005Y461695D02*
X521005Y452705D01*
X511015Y452705D01*
X511015Y461695D01*
X511015Y455113D02*
X521005Y455113D01*
X521005Y457521D02*
X511015Y457521D01*
X511015Y459929D02*
X521005Y459929D01*
D14*
X562112Y462290D02*
X562112Y456682D01*
X550408Y456682D01*
X550408Y462290D01*
X562112Y462290D01*
X562112Y459076D02*
X550408Y459076D01*
X550408Y461470D02*
X562112Y461470D01*
X562112Y467096D02*
X562112Y472704D01*
X562112Y467096D02*
X550408Y467096D01*
X550408Y472704D01*
X562112Y472704D01*
X562112Y469490D02*
X550408Y469490D01*
X550408Y471884D02*
X562112Y471884D01*
X562112Y477510D02*
X562112Y483118D01*
X562112Y477510D02*
X550408Y477510D01*
X550408Y483118D01*
X562112Y483118D01*
X562112Y479904D02*
X550408Y479904D01*
X550408Y482298D02*
X562112Y482298D01*
D11*
X560755Y263195D02*
X560755Y253205D01*
X551765Y253205D01*
X551765Y263195D01*
X560755Y263195D01*
X560755Y255613D02*
X551765Y255613D01*
X551765Y258021D02*
X560755Y258021D01*
X560755Y260429D02*
X551765Y260429D01*
X551765Y262837D02*
X560755Y262837D01*
X560755Y270205D02*
X560755Y280195D01*
X560755Y270205D02*
X551765Y270205D01*
X551765Y280195D01*
X560755Y280195D01*
X560755Y272613D02*
X551765Y272613D01*
X551765Y275021D02*
X560755Y275021D01*
X560755Y277429D02*
X551765Y277429D01*
X551765Y279837D02*
X560755Y279837D01*
D14*
X555762Y296789D02*
X555762Y302397D01*
X555762Y296789D02*
X544058Y296789D01*
X544058Y302397D01*
X555762Y302397D01*
X555762Y299183D02*
X544058Y299183D01*
X544058Y301577D02*
X555762Y301577D01*
X555762Y307203D02*
X555762Y312811D01*
X555762Y307203D02*
X544058Y307203D01*
X544058Y312811D01*
X555762Y312811D01*
X555762Y309597D02*
X544058Y309597D01*
X544058Y311991D02*
X555762Y311991D01*
X584063Y221752D02*
X589417Y221752D01*
X589417Y210048D01*
X584063Y210048D01*
X584063Y221752D01*
X584063Y212442D02*
X589417Y212442D01*
X589417Y214836D02*
X584063Y214836D01*
X584063Y217230D02*
X589417Y217230D01*
X589417Y219624D02*
X584063Y219624D01*
X579257Y221752D02*
X573903Y221752D01*
X579257Y221752D02*
X579257Y210048D01*
X573903Y210048D01*
X573903Y221752D01*
X573903Y212442D02*
X579257Y212442D01*
X579257Y214836D02*
X573903Y214836D01*
X573903Y217230D02*
X579257Y217230D01*
X579257Y219624D02*
X573903Y219624D01*
D10*
X594360Y215900D03*
X568960Y215900D03*
D14*
X631962Y272659D02*
X631962Y278013D01*
X631962Y272659D02*
X620258Y272659D01*
X620258Y278013D01*
X631962Y278013D01*
X631962Y275053D02*
X620258Y275053D01*
X620258Y277447D02*
X631962Y277447D01*
X631962Y280787D02*
X631962Y286141D01*
X631962Y280787D02*
X620258Y280787D01*
X620258Y286141D01*
X631962Y286141D01*
X631962Y283181D02*
X620258Y283181D01*
X620258Y285575D02*
X631962Y285575D01*
D11*
X526365Y178595D02*
X526365Y168605D01*
X526365Y178595D02*
X535355Y178595D01*
X535355Y168605D01*
X526365Y168605D01*
X526365Y171013D02*
X535355Y171013D01*
X535355Y173421D02*
X526365Y173421D01*
X526365Y175829D02*
X535355Y175829D01*
X535355Y178237D02*
X526365Y178237D01*
X526365Y161595D02*
X526365Y151605D01*
X526365Y161595D02*
X535355Y161595D01*
X535355Y151605D01*
X526365Y151605D01*
X526365Y154013D02*
X535355Y154013D01*
X535355Y156421D02*
X526365Y156421D01*
X526365Y158829D02*
X535355Y158829D01*
X535355Y161237D02*
X526365Y161237D01*
D12*
X492760Y558800D03*
X670560Y558800D03*
D19*
X689610Y539750D03*
X473710Y44450D03*
D11*
X545415Y168605D02*
X545415Y178595D01*
X554405Y178595D01*
X554405Y168605D01*
X545415Y168605D01*
X545415Y171013D02*
X554405Y171013D01*
X554405Y173421D02*
X545415Y173421D01*
X545415Y175829D02*
X554405Y175829D01*
X554405Y178237D02*
X545415Y178237D01*
X545415Y161595D02*
X545415Y151605D01*
X545415Y161595D02*
X554405Y161595D01*
X554405Y151605D01*
X545415Y151605D01*
X545415Y154013D02*
X554405Y154013D01*
X554405Y156421D02*
X545415Y156421D01*
X545415Y158829D02*
X554405Y158829D01*
X554405Y161237D02*
X545415Y161237D01*
D14*
X542300Y184648D02*
X536692Y184648D01*
X536692Y196352D01*
X542300Y196352D01*
X542300Y184648D01*
X542300Y187042D02*
X536692Y187042D01*
X536692Y189436D02*
X542300Y189436D01*
X542300Y191830D02*
X536692Y191830D01*
X536692Y194224D02*
X542300Y194224D01*
X547106Y184648D02*
X552714Y184648D01*
X547106Y184648D02*
X547106Y196352D01*
X552714Y196352D01*
X552714Y184648D01*
X552714Y187042D02*
X547106Y187042D01*
X547106Y189436D02*
X552714Y189436D01*
X552714Y191830D02*
X547106Y191830D01*
X547106Y194224D02*
X552714Y194224D01*
X557520Y184648D02*
X563128Y184648D01*
X557520Y184648D02*
X557520Y196352D01*
X563128Y196352D01*
X563128Y184648D01*
X563128Y187042D02*
X557520Y187042D01*
X557520Y189436D02*
X563128Y189436D01*
X563128Y191830D02*
X557520Y191830D01*
X557520Y194224D02*
X563128Y194224D01*
D20*
X-26238Y557530D03*
X722198Y557530D03*
D21*
X-35293Y63500D02*
X-35290Y63722D01*
X-35282Y63944D01*
X-35268Y64166D01*
X-35249Y64388D01*
X-35225Y64608D01*
X-35195Y64829D01*
X-35160Y65048D01*
X-35119Y65267D01*
X-35073Y65484D01*
X-35022Y65700D01*
X-34965Y65915D01*
X-34903Y66129D01*
X-34836Y66340D01*
X-34764Y66551D01*
X-34686Y66759D01*
X-34604Y66965D01*
X-34516Y67169D01*
X-34424Y67372D01*
X-34326Y67571D01*
X-34224Y67768D01*
X-34117Y67963D01*
X-34005Y68155D01*
X-33888Y68344D01*
X-33767Y68531D01*
X-33641Y68714D01*
X-33511Y68894D01*
X-33376Y69071D01*
X-33238Y69244D01*
X-33095Y69414D01*
X-32947Y69581D01*
X-32796Y69744D01*
X-32641Y69903D01*
X-32482Y70058D01*
X-32319Y70209D01*
X-32152Y70357D01*
X-31982Y70500D01*
X-31809Y70638D01*
X-31632Y70773D01*
X-31452Y70903D01*
X-31269Y71029D01*
X-31082Y71150D01*
X-30893Y71267D01*
X-30701Y71379D01*
X-30506Y71486D01*
X-30309Y71588D01*
X-30110Y71686D01*
X-29907Y71778D01*
X-29703Y71866D01*
X-29497Y71948D01*
X-29289Y72026D01*
X-29078Y72098D01*
X-28867Y72165D01*
X-28653Y72227D01*
X-28438Y72284D01*
X-28222Y72335D01*
X-28005Y72381D01*
X-27786Y72422D01*
X-27567Y72457D01*
X-27346Y72487D01*
X-27126Y72511D01*
X-26904Y72530D01*
X-26682Y72544D01*
X-26460Y72552D01*
X-26238Y72555D01*
X-26016Y72552D01*
X-25794Y72544D01*
X-25572Y72530D01*
X-25350Y72511D01*
X-25130Y72487D01*
X-24909Y72457D01*
X-24690Y72422D01*
X-24471Y72381D01*
X-24254Y72335D01*
X-24038Y72284D01*
X-23823Y72227D01*
X-23609Y72165D01*
X-23398Y72098D01*
X-23187Y72026D01*
X-22979Y71948D01*
X-22773Y71866D01*
X-22569Y71778D01*
X-22366Y71686D01*
X-22167Y71588D01*
X-21970Y71486D01*
X-21775Y71379D01*
X-21583Y71267D01*
X-21394Y71150D01*
X-21207Y71029D01*
X-21024Y70903D01*
X-20844Y70773D01*
X-20667Y70638D01*
X-20494Y70500D01*
X-20324Y70357D01*
X-20157Y70209D01*
X-19994Y70058D01*
X-19835Y69903D01*
X-19680Y69744D01*
X-19529Y69581D01*
X-19381Y69414D01*
X-19238Y69244D01*
X-19100Y69071D01*
X-18965Y68894D01*
X-18835Y68714D01*
X-18709Y68531D01*
X-18588Y68344D01*
X-18471Y68155D01*
X-18359Y67963D01*
X-18252Y67768D01*
X-18150Y67571D01*
X-18052Y67372D01*
X-17960Y67169D01*
X-17872Y66965D01*
X-17790Y66759D01*
X-17712Y66551D01*
X-17640Y66340D01*
X-17573Y66129D01*
X-17511Y65915D01*
X-17454Y65700D01*
X-17403Y65484D01*
X-17357Y65267D01*
X-17316Y65048D01*
X-17281Y64829D01*
X-17251Y64608D01*
X-17227Y64388D01*
X-17208Y64166D01*
X-17194Y63944D01*
X-17186Y63722D01*
X-17183Y63500D01*
X-17186Y63278D01*
X-17194Y63056D01*
X-17208Y62834D01*
X-17227Y62612D01*
X-17251Y62392D01*
X-17281Y62171D01*
X-17316Y61952D01*
X-17357Y61733D01*
X-17403Y61516D01*
X-17454Y61300D01*
X-17511Y61085D01*
X-17573Y60871D01*
X-17640Y60660D01*
X-17712Y60449D01*
X-17790Y60241D01*
X-17872Y60035D01*
X-17960Y59831D01*
X-18052Y59628D01*
X-18150Y59429D01*
X-18252Y59232D01*
X-18359Y59037D01*
X-18471Y58845D01*
X-18588Y58656D01*
X-18709Y58469D01*
X-18835Y58286D01*
X-18965Y58106D01*
X-19100Y57929D01*
X-19238Y57756D01*
X-19381Y57586D01*
X-19529Y57419D01*
X-19680Y57256D01*
X-19835Y57097D01*
X-19994Y56942D01*
X-20157Y56791D01*
X-20324Y56643D01*
X-20494Y56500D01*
X-20667Y56362D01*
X-20844Y56227D01*
X-21024Y56097D01*
X-21207Y55971D01*
X-21394Y55850D01*
X-21583Y55733D01*
X-21775Y55621D01*
X-21970Y55514D01*
X-22167Y55412D01*
X-22366Y55314D01*
X-22569Y55222D01*
X-22773Y55134D01*
X-22979Y55052D01*
X-23187Y54974D01*
X-23398Y54902D01*
X-23609Y54835D01*
X-23823Y54773D01*
X-24038Y54716D01*
X-24254Y54665D01*
X-24471Y54619D01*
X-24690Y54578D01*
X-24909Y54543D01*
X-25130Y54513D01*
X-25350Y54489D01*
X-25572Y54470D01*
X-25794Y54456D01*
X-26016Y54448D01*
X-26238Y54445D01*
X-26460Y54448D01*
X-26682Y54456D01*
X-26904Y54470D01*
X-27126Y54489D01*
X-27346Y54513D01*
X-27567Y54543D01*
X-27786Y54578D01*
X-28005Y54619D01*
X-28222Y54665D01*
X-28438Y54716D01*
X-28653Y54773D01*
X-28867Y54835D01*
X-29078Y54902D01*
X-29289Y54974D01*
X-29497Y55052D01*
X-29703Y55134D01*
X-29907Y55222D01*
X-30110Y55314D01*
X-30309Y55412D01*
X-30506Y55514D01*
X-30701Y55621D01*
X-30893Y55733D01*
X-31082Y55850D01*
X-31269Y55971D01*
X-31452Y56097D01*
X-31632Y56227D01*
X-31809Y56362D01*
X-31982Y56500D01*
X-32152Y56643D01*
X-32319Y56791D01*
X-32482Y56942D01*
X-32641Y57097D01*
X-32796Y57256D01*
X-32947Y57419D01*
X-33095Y57586D01*
X-33238Y57756D01*
X-33376Y57929D01*
X-33511Y58106D01*
X-33641Y58286D01*
X-33767Y58469D01*
X-33888Y58656D01*
X-34005Y58845D01*
X-34117Y59037D01*
X-34224Y59232D01*
X-34326Y59429D01*
X-34424Y59628D01*
X-34516Y59831D01*
X-34604Y60035D01*
X-34686Y60241D01*
X-34764Y60449D01*
X-34836Y60660D01*
X-34903Y60871D01*
X-34965Y61085D01*
X-35022Y61300D01*
X-35073Y61516D01*
X-35119Y61733D01*
X-35160Y61952D01*
X-35195Y62171D01*
X-35225Y62392D01*
X-35249Y62612D01*
X-35268Y62834D01*
X-35282Y63056D01*
X-35290Y63278D01*
X-35293Y63500D01*
D22*
X-26238Y63500D03*
M02*
