M48
;GenerationSoftware,Autodesk,EAGLE,9.6.2*%
;CreationDate,2023-08-01T19:51:56Z*%
FMAT,2
ICI,OFF
METRIC,TZ,000.000
T5C0.305
T4C0.400
T3C0.650
T2C1.016
T1C3.302
%
G90
M71
T1
X43688Y178816
X2540Y2540
X20320Y2540
X90424Y117348
X2540Y125476
X2540Y55880
X20320Y55880
X25908Y2540
X43688Y2540
X20320Y125476
X90424Y178816
X25908Y55880
X43688Y55880
X49276Y2540
X67056Y2540
X49276Y178816
X2540Y178816
X49276Y55880
X67056Y55880
X72644Y2540
X90424Y2540
X20320Y178816
X25908Y125476
X72644Y55880
X90424Y55880
X2540Y64008
X20320Y64008
X43688Y125476
X67056Y178816
X2540Y117348
X20320Y117348
X25908Y64008
X43688Y64008
X72644Y125476
X25908Y178816
X25908Y117348
X43688Y117348
X49276Y64008
X67056Y64008
X90424Y125476
X49276Y125476
X49276Y117348
X67056Y117348
X72644Y64008
X90424Y64008
X67056Y125476
X72644Y178816
X72644Y117348
T2
X48006Y149606
X48006Y152146
X48006Y154686
X48006Y157226
X48006Y159766
X48006Y162306
X48006Y164846
X44958Y93218
X48006Y167386
X48006Y169926
X48006Y172466
X48006Y175006
X59436Y144526
X56896Y144526
X91694Y175006
X91694Y172466
X91694Y169926
X91694Y167386
X91694Y164846
X91694Y162306
X80264Y144526
X91694Y159766
X91694Y157226
X91694Y154686
X91694Y152146
X21590Y52070
X21590Y49530
X21590Y46990
X21590Y44450
X21590Y41910
X21590Y39370
X21590Y36830
X21590Y34290
X21590Y31750
X21590Y29210
X21590Y26670
X21590Y24130
X21590Y21590
X21590Y19050
X21590Y16510
X21590Y13970
X1270Y24130
X1270Y26670
X1270Y29210
X1270Y31750
X1270Y34290
X1270Y36830
X1270Y39370
X1270Y41910
X1270Y44450
X1270Y46990
X1270Y49530
X1270Y52070
X91694Y149606
X91694Y147066
X91694Y144526
X91694Y141986
X12700Y21590
X10160Y21590
X44958Y52070
X44958Y49530
X44958Y46990
X44958Y44450
X44958Y41910
X44958Y39370
X44958Y36830
X44958Y34290
X44958Y31750
X44958Y29210
X44958Y26670
X44958Y24130
X44958Y21590
X44958Y19050
X44958Y16510
X44958Y13970
X24638Y24130
X24638Y26670
X24638Y29210
X24638Y31750
X24638Y34290
X24638Y36830
X24638Y39370
X24638Y41910
X24638Y44450
X24638Y46990
X24638Y49530
X24638Y52070
X91694Y139446
X91694Y136906
X71374Y147066
X71374Y149606
X36068Y21590
X33528Y21590
X68326Y52070
X68326Y49530
X68326Y46990
X68326Y44450
X68326Y41910
X68326Y39370
X68326Y36830
X68326Y34290
X68326Y31750
X68326Y29210
X68326Y26670
X68326Y24130
X68326Y21590
X68326Y19050
X68326Y16510
X68326Y13970
X48006Y24130
X48006Y26670
X48006Y29210
X48006Y31750
X48006Y34290
X48006Y36830
X48006Y39370
X48006Y41910
X48006Y44450
X48006Y46990
X48006Y49530
X48006Y52070
X71374Y152146
X71374Y154686
X71374Y157226
X71374Y159766
X59436Y21590
X56896Y21590
X91694Y52070
X91694Y49530
X91694Y46990
X91694Y44450
X91694Y41910
X91694Y39370
X91694Y36830
X91694Y34290
X91694Y31750
X91694Y29210
X91694Y26670
X91694Y24130
X91694Y21590
X91694Y19050
X91694Y16510
X91694Y13970
X71374Y24130
X71374Y26670
X71374Y29210
X71374Y31750
X71374Y34290
X71374Y36830
X71374Y39370
X71374Y41910
X71374Y44450
X71374Y46990
X71374Y49530
X71374Y52070
X71374Y162306
X71374Y164846
X71374Y167386
X71374Y169926
X82804Y21590
X80264Y21590
X21590Y113538
X21590Y110998
X21590Y108458
X21590Y105918
X21590Y103378
X21590Y100838
X21590Y98298
X21590Y95758
X21590Y93218
X21590Y90678
X21590Y88138
X21590Y85598
X21590Y83058
X21590Y80518
X21590Y77978
X21590Y75438
X1270Y85598
X1270Y88138
X1270Y90678
X1270Y93218
X1270Y95758
X1270Y98298
X1270Y100838
X1270Y103378
X1270Y105918
X1270Y108458
X1270Y110998
X1270Y113538
X71374Y172466
X71374Y175006
X82804Y144526
X48006Y105918
X12700Y83058
X10160Y83058
X44958Y113538
X44958Y110998
X44958Y108458
X44958Y105918
X44958Y103378
X44958Y100838
X44958Y98298
X44958Y95758
X44958Y90678
X44958Y88138
X44958Y85598
X44958Y83058
X44958Y80518
X44958Y77978
X44958Y75438
X24638Y85598
X24638Y88138
X24638Y90678
X24638Y93218
X24638Y95758
X24638Y98298
X24638Y100838
X24638Y103378
X24638Y105918
X24638Y108458
X24638Y110998
X24638Y113538
X36068Y83058
X33528Y83058
X68326Y113538
X68326Y110998
X68326Y108458
X68326Y105918
X68326Y103378
X68326Y100838
X68326Y98298
X68326Y95758
X68326Y93218
X68326Y90678
X68326Y88138
X68326Y85598
X68326Y83058
X68326Y80518
X68326Y77978
X68326Y75438
X48006Y85598
X48006Y88138
X48006Y90678
X48006Y93218
X48006Y95758
X48006Y98298
X48006Y100838
X48006Y103378
X48006Y108458
X48006Y110998
X48006Y113538
X59436Y83058
X56896Y83058
X91694Y113538
X91694Y110998
X91694Y108458
X91694Y105918
X91694Y103378
X91694Y100838
X91694Y98298
X91694Y95758
X91694Y93218
X91694Y90678
X91694Y88138
X91694Y85598
X91694Y83058
X91694Y80518
X91694Y77978
X91694Y75438
X71374Y85598
X71374Y88138
X71374Y90678
X71374Y93218
X71374Y95758
X71374Y98298
X71374Y100838
X71374Y103378
X71374Y105918
X71374Y108458
X71374Y110998
X71374Y113538
X82804Y83058
X80264Y83058
X21590Y175006
X21590Y172466
X21590Y169926
X21590Y167386
X21590Y164846
X21590Y162306
X21590Y159766
X21590Y157226
X21590Y154686
X21590Y152146
X21590Y149606
X21590Y147066
X21590Y144526
X21590Y141986
X21590Y139446
X21590Y136906
X1270Y147066
X1270Y149606
X1270Y152146
X1270Y154686
X1270Y157226
X1270Y159766
X1270Y162306
X1270Y164846
X1270Y167386
X1270Y169926
X1270Y172466
X1270Y175006
X12700Y144526
X10160Y144526
X44958Y175006
X44958Y172466
X44958Y169926
X44958Y167386
X44958Y164846
X44958Y162306
X44958Y159766
X44958Y157226
X44958Y154686
X44958Y152146
X44958Y149606
X44958Y147066
X44958Y144526
X44958Y141986
X44958Y139446
X44958Y136906
X24638Y147066
X24638Y149606
X24638Y152146
X24638Y154686
X24638Y157226
X24638Y159766
X24638Y162306
X24638Y164846
X24638Y167386
X24638Y169926
X24638Y172466
X24638Y175006
X36068Y144526
X33528Y144526
X68326Y175006
X68326Y172466
X68326Y169926
X68326Y167386
X68326Y164846
X68326Y162306
X68326Y159766
X68326Y157226
X68326Y154686
X68326Y152146
X68326Y149606
X68326Y147066
X68326Y144526
X68326Y141986
X68326Y139446
X68326Y136906
X48006Y147066
T3
X8540Y4905
X14320Y4905
X31908Y4905
X37688Y4905
X55276Y4905
X61056Y4905
X78644Y4905
X8540Y66373
X14320Y66373
X31908Y66373
X37688Y66373
X55276Y66373
X61056Y66373
X78644Y66373
X84424Y66373
X8540Y127841
X14320Y127841
X31908Y127841
X37688Y127841
X55276Y127841
X61056Y127841
X78644Y127841
X84424Y127841
X84424Y4905
T4
X15748Y1255
X15748Y5435
X7112Y5435
X30480Y1255
X39116Y1255
X39116Y5435
X30480Y5435
X53848Y1255
X62484Y1255
X62484Y5435
X53848Y5435
X77216Y1255
X85852Y1255
X85852Y5435
X77216Y5435
X7112Y62723
X15748Y62723
X15748Y66903
X53848Y62723
X62484Y62723
X30480Y124191
X39116Y124191
X39116Y128371
X30480Y128371
X7112Y124191
X15748Y124191
X15748Y128371
X7112Y128371
X62484Y66903
X7112Y1255
X39116Y62723
X7112Y66903
X39116Y66903
X53848Y124191
X62484Y124191
X62484Y128371
X53848Y128371
X77216Y62723
X53848Y66903
X85852Y66903
X77216Y66903
X30480Y66903
X77216Y124191
X85852Y124191
X85852Y128371
X77216Y128371
X30480Y62723
X85852Y62723
T5
X18034Y76454
X11328Y75082
X5715Y67818
X11430Y78232
X15367Y82296
X13970Y62103
X22225Y70993
X10795Y93599
X9525Y64643
X13335Y64643
X13970Y85598
X8890Y62103
X5715Y97028
X7620Y86233
X3175Y91948
X12700Y100838
X10160Y100838
X16510Y102489
X18415Y104648
X16510Y109982
X12192Y106807
X7620Y105410
X6477Y108204
X15367Y94742
X8128Y102235
X13970Y104648
X6350Y104648
X17780Y107188
X12192Y105918
X12192Y107696
X8255Y112649
X14605Y112649
X11214Y71869
X5080Y104775
X2540Y69088
X3810Y87376
X5715Y105410
X2540Y70358
X4445Y86741
X15240Y109982
X19431Y72581
X18415Y96520
X19431Y68771
X17145Y93218
X17145Y97714
X15875Y109347
X17780Y99949
X16510Y107188
X18415Y110236
X18415Y109347
X5715Y101727
X11430Y81407
X14478Y82296
X9525Y66294
X13335Y66294
X13335Y77343
X11735Y76302
X15240Y102489
X15875Y101854
X5080Y99568
X13208Y87630
X16764Y84328
X13335Y79248
X13462Y94488
X18415Y81788
X15240Y91313
X8031Y75214
X12700Y104648
X4445Y106172
X9652Y98044
X10795Y98806
X18422Y99278
X10160Y99568
X18422Y101691
X11430Y100203
X9411Y94132
X14732Y93472
X13970Y103505
X4445Y104140
X10795Y97282
X7620Y94107
X5080Y89662
X10414Y74549
X10414Y70358
X14732Y87503
X34417Y66294
X35687Y66294
X28575Y110871
X42799Y74549
X30861Y108204
X29718Y68707
X34798Y91059
X32766Y77089
X39243Y69723
X29845Y73914
X26543Y89027
X26543Y94869
X41148Y112268
X34798Y112903
X28448Y112268
X30988Y106680
X36703Y90678
X41148Y89408
X45593Y65913
X41783Y62103
X27813Y62103
X24892Y66294
X24003Y84074
X32258Y84328
X42418Y94869
X34798Y88900
X33528Y81407
X38011Y71882
X41402Y76454
X34696Y75082
X29083Y67818
X34798Y78232
X38735Y82296
X37338Y62103
X45593Y70993
X34163Y93599
X32893Y64643
X36703Y64643
X37338Y85598
X32258Y62103
X29083Y97028
X30988Y86233
X26543Y91948
X36068Y100838
X33528Y100838
X39878Y102489
X41783Y104648
X39878Y109982
X35560Y106807
X30988Y105410
X29845Y108204
X38735Y94742
X31496Y102235
X37338Y104648
X29718Y104648
X41148Y107188
X35560Y105918
X35560Y107696
X31623Y112649
X37973Y112649
X34582Y71869
X28448Y104775
X25908Y69088
X27178Y87376
X29083Y105410
X25908Y70358
X27813Y86741
X38608Y109982
X42799Y72581
X41783Y96520
X42799Y68771
X40513Y93218
X40513Y97714
X39243Y109347
X41148Y99949
X39878Y107188
X41783Y110236
X41783Y109347
X29083Y101727
X34798Y81407
X37846Y82296
X32893Y66294
X36703Y66294
X36703Y77343
X35103Y76302
X38608Y102489
X39243Y101854
X28448Y99568
X36576Y87630
X40132Y84328
X36703Y79248
X36830Y94488
X41783Y81788
X38608Y91313
X31399Y75214
X36068Y104648
X27813Y106172
X33020Y98044
X34163Y98806
X41790Y99278
X33528Y99568
X41790Y101691
X34798Y100203
X32779Y94132
X38100Y93472
X37338Y103505
X27813Y104140
X34163Y97282
X30988Y94107
X28448Y89662
X33782Y74549
X33782Y70358
X38100Y87503
X57785Y66294
X59055Y66294
X51943Y110871
X66167Y74549
X54229Y108204
X53086Y68707
X58166Y91059
X56134Y77089
X62611Y69723
X53213Y73914
X49911Y89027
X49911Y94869
X64516Y112268
X58166Y112903
X51816Y112268
X54356Y106680
X60071Y90678
X64516Y89408
X68961Y65913
X65151Y62103
X51181Y62103
X48260Y66294
X47371Y84074
X55626Y84328
X65786Y94869
X58166Y88900
X56896Y81407
X61379Y71882
X64770Y76454
X58064Y75082
X52451Y67818
X58166Y78232
X62103Y82296
X60706Y62103
X68961Y70993
X57531Y93599
X56261Y64643
X60071Y64643
X60706Y85598
X55626Y62103
X52451Y97028
X54356Y86233
X49911Y91948
X59436Y100838
X56896Y100838
X63246Y102489
X65151Y104648
X63246Y109982
X58928Y106807
X54356Y105410
X53213Y108204
X62103Y94742
X54864Y102235
X60706Y104648
X53086Y104648
X64516Y107188
X58928Y105918
X58928Y107696
X54991Y112649
X61341Y112649
X57950Y71869
X51816Y104775
X49276Y69088
X50546Y87376
X52451Y105410
X49276Y70358
X51181Y86741
X61976Y109982
X66167Y72581
X65151Y96520
X66167Y68771
X63881Y93218
X63881Y97714
X62611Y109347
X64516Y99949
X63246Y107188
X65151Y110236
X65151Y109347
X52451Y101727
X58166Y81407
X61214Y82296
X56261Y66294
X60071Y66294
X60071Y77343
X58471Y76302
X61976Y102489
X62611Y101854
X51816Y99568
X59944Y87630
X63500Y84328
X60071Y79248
X60198Y94488
X65151Y81788
X61976Y91313
X54767Y75214
X59436Y104648
X51181Y106172
X56388Y98044
X57531Y98806
X65158Y99278
X56896Y99568
X65158Y101691
X58166Y100203
X56147Y94132
X61468Y93472
X60706Y103505
X51181Y104140
X57531Y97282
X54356Y94107
X51816Y89662
X57150Y74549
X57150Y70358
X61468Y87503
X81153Y66294
X82423Y66294
X75311Y110871
X89535Y74549
X77597Y108204
X76454Y68707
X81534Y91059
X79502Y77089
X85979Y69723
X76581Y73914
X73279Y89027
X73279Y94869
X87884Y112268
X81534Y112903
X75184Y112268
X77724Y106680
X83439Y90678
X87884Y89408
X92329Y65913
X88519Y62103
X74549Y62103
X71628Y66294
X70739Y84074
X78994Y84328
X89154Y94869
X81534Y88900
X80264Y81407
X84747Y71882
X88138Y76454
X81432Y75082
X75819Y67818
X81534Y78232
X85471Y82296
X84074Y62103
X92329Y70993
X80899Y93599
X79629Y64643
X83439Y64643
X84074Y85598
X78994Y62103
X75819Y97028
X77724Y86233
X73279Y91948
X82804Y100838
X80264Y100838
X86614Y102489
X88519Y104648
X86614Y109982
X82296Y106807
X77724Y105410
X76581Y108204
X85471Y94742
X78232Y102235
X84074Y104648
X76454Y104648
X87884Y107188
X82296Y105918
X82296Y107696
X78359Y112649
X84709Y112649
X81318Y71869
X75184Y104775
X72644Y69088
X73914Y87376
X75819Y105410
X72644Y70358
X74549Y86741
X85344Y109982
X89535Y72581
X88519Y96520
X89535Y68771
X87249Y93218
X87249Y97714
X85979Y109347
X87884Y99949
X86614Y107188
X88519Y110236
X88519Y109347
X75819Y101727
X81534Y81407
X84582Y82296
X79629Y66294
X83439Y66294
X83439Y77343
X81839Y76302
X85344Y102489
X85979Y101854
X75184Y99568
X83312Y87630
X86868Y84328
X83439Y79248
X83566Y94488
X88519Y81788
X85344Y91313
X78135Y75214
X82804Y104648
X74549Y106172
X79756Y98044
X80899Y98806
X88526Y99278
X80264Y99568
X88526Y101691
X81534Y100203
X79515Y94132
X84836Y93472
X84074Y103505
X74549Y104140
X80899Y97282
X77724Y94107
X75184Y89662
X80518Y74549
X80518Y70358
X84836Y87503
X11049Y127762
X12319Y127762
X5207Y172339
X19431Y136017
X7493Y169672
X6350Y130175
X11430Y152527
X9398Y138557
X15875Y131191
X6477Y135382
X3175Y150495
X3175Y156337
X17780Y173736
X11430Y174371
X66167Y13081
X7620Y168148
X13335Y152146
X17780Y150876
X22225Y127381
X18415Y123571
X4445Y123571
X1524Y127762
X635Y145542
X8890Y145796
X19050Y156337
X11430Y150368
X10160Y142875
X14643Y133350
X18034Y137922
X11328Y136550
X5715Y129286
X11430Y139700
X15367Y143764
X13970Y123571
X22225Y132461
X10795Y155067
X9525Y126111
X13335Y126111
X13970Y147066
X8890Y123571
X5715Y158496
X7620Y147701
X3175Y153416
X12700Y162306
X10160Y162306
X16510Y163957
X18415Y166116
X16510Y171450
X12192Y168275
X7620Y166878
X6477Y169672
X15367Y156210
X8128Y163703
X13970Y166116
X6350Y166116
X17780Y168656
X12192Y167386
X12192Y169164
X8255Y174117
X14605Y174117
X11214Y133337
X5080Y166243
X2540Y130556
X3810Y148844
X5715Y166878
X2540Y131826
X4445Y148209
X15240Y171450
X19431Y134049
X18415Y157988
X19431Y130238
X17145Y154686
X17145Y159182
X15875Y170815
X17780Y161417
X16510Y168656
X18415Y171704
X18415Y170815
X5715Y163195
X11430Y142875
X14478Y143764
X9525Y127762
X13335Y127762
X13335Y138811
X11735Y137770
X15240Y163957
X15875Y163322
X5080Y161036
X13208Y149098
X16764Y145796
X13335Y140716
X13462Y155956
X18415Y143256
X15240Y152781
X8031Y136682
X12700Y166116
X4445Y167640
X9652Y159512
X10795Y160274
X18422Y160746
X10160Y161036
X18422Y163159
X11430Y161671
X9411Y155600
X14732Y154940
X13970Y164973
X4445Y165608
X10795Y158750
X7620Y155575
X5080Y151130
X10414Y136017
X10414Y131826
X14732Y148971
X34417Y127762
X35687Y127762
X28575Y172339
X42799Y136017
X30861Y169672
X29718Y130175
X34798Y152527
X32766Y138557
X39243Y131191
X29845Y135382
X26543Y150495
X26543Y156337
X41148Y173736
X34798Y174371
X28448Y173736
X30988Y168148
X36703Y152146
X41148Y150876
X45593Y127381
X41783Y123571
X27813Y123571
X24892Y127762
X24003Y145542
X32258Y145796
X42418Y156337
X34798Y150368
X33528Y142875
X38011Y133350
X41402Y137922
X34696Y136550
X29083Y129286
X34798Y139700
X38735Y143764
X37338Y123571
X45593Y132461
X34163Y155067
X32893Y126111
X36703Y126111
X37338Y147066
X32258Y123571
X29083Y158496
X30988Y147701
X26543Y153416
X36068Y162306
X33528Y162306
X39878Y163957
X41783Y166116
X39878Y171450
X35560Y168275
X30988Y166878
X29845Y169672
X38735Y156210
X31496Y163703
X37338Y166116
X29718Y166116
X41148Y168656
X35560Y167386
X35560Y169164
X31623Y174117
X37973Y174117
X34582Y133337
X28448Y166243
X25908Y130556
X27178Y148844
X29083Y166878
X25908Y131826
X27813Y148209
X38608Y171450
X42799Y134049
X41783Y157988
X42799Y130238
X40513Y154686
X40513Y159182
X39243Y170815
X41148Y161417
X39878Y168656
X41783Y171704
X41783Y170815
X29083Y163195
X34798Y142875
X37846Y143764
X32893Y127762
X36703Y127762
X36703Y138811
X35103Y137770
X38608Y163957
X39243Y163322
X28448Y161036
X36576Y149098
X40132Y145796
X36703Y140716
X36830Y155956
X41783Y143256
X38608Y152781
X31399Y136682
X36068Y166116
X27813Y167640
X33020Y159512
X34163Y160274
X41790Y160746
X33528Y161036
X41790Y163159
X34798Y161671
X32779Y155600
X38100Y154940
X37338Y164973
X27813Y165608
X34163Y158750
X30988Y155575
X28448Y151130
X33782Y136017
X33782Y131826
X38100Y148971
X57785Y127762
X59055Y127762
X51943Y172339
X66167Y136017
X54229Y169672
X53086Y130175
X58166Y152527
X56134Y138557
X62611Y131191
X53213Y135382
X49911Y150495
X49911Y156337
X64516Y173736
X58166Y174371
X51816Y173736
X54356Y168148
X60071Y152146
X64516Y150876
X68961Y127381
X65151Y123571
X51181Y123571
X48260Y127762
X47371Y145542
X55626Y145796
X65786Y156337
X58166Y150368
X56896Y142875
X61379Y133350
X64770Y137922
X58064Y136550
X52451Y129286
X58166Y139700
X62103Y143764
X60706Y123571
X68961Y132461
X57531Y155067
X56261Y126111
X60071Y126111
X60706Y147066
X55626Y123571
X52451Y158496
X54356Y147701
X49911Y153416
X59436Y162306
X56896Y162306
X63246Y163957
X65151Y166116
X63246Y171450
X58928Y168275
X54356Y166878
X53213Y169672
X62103Y156210
X54864Y163703
X60706Y166116
X53086Y166116
X64516Y168656
X58928Y167386
X58928Y169164
X54991Y174117
X61341Y174117
X57950Y133337
X51816Y166243
X49276Y130556
X50546Y148844
X52451Y166878
X49276Y131826
X51181Y148209
X61976Y171450
X66167Y134049
X65151Y157988
X66167Y130238
X63881Y154686
X63881Y159182
X62611Y170815
X64516Y161417
X63246Y168656
X65151Y171704
X65151Y170815
X52451Y163195
X58166Y142875
X61214Y143764
X56261Y127762
X60071Y127762
X60071Y138811
X58471Y137770
X61976Y163957
X62611Y163322
X51816Y161036
X59944Y149098
X63500Y145796
X60071Y140716
X60198Y155956
X65151Y143256
X61976Y152781
X54767Y136682
X59436Y166116
X51181Y167640
X56388Y159512
X57531Y160274
X65158Y160746
X56896Y161036
X65158Y163159
X58166Y161671
X56147Y155600
X61468Y154940
X60706Y164973
X51181Y165608
X57531Y158750
X54356Y155575
X51816Y151130
X57150Y136017
X57150Y131826
X61468Y148971
X81153Y127762
X82423Y127762
X75311Y172339
X89535Y136017
X77597Y169672
X76454Y130175
X81534Y152527
X79502Y138557
X85979Y131191
X76581Y135382
X73279Y150495
X73279Y156337
X87884Y173736
X81534Y174371
X75184Y173736
X77724Y168148
X83439Y152146
X87884Y150876
X92329Y127381
X88519Y123571
X74549Y123571
X71628Y127762
X70739Y145542
X78994Y145796
X89154Y156337
X81534Y150368
X80264Y142875
X84747Y133350
X88138Y137922
X81432Y136550
X75819Y129286
X81534Y139700
X85471Y143764
X84074Y123571
X92329Y132461
X80899Y155067
X79629Y126111
X83439Y126111
X84074Y147066
X78994Y123571
X75819Y158496
X77724Y147701
X73279Y153416
X82804Y162306
X80264Y162306
X86614Y163957
X88519Y166116
X86614Y171450
X82296Y168275
X77724Y166878
X76581Y169672
X85471Y156210
X78232Y163703
X84074Y166116
X76454Y166116
X87884Y168656
X82296Y167386
X82296Y169164
X78359Y174117
X84709Y174117
X81318Y133337
X75184Y166243
X72644Y130556
X73914Y148844
X75819Y166878
X72644Y131826
X74549Y148209
X85344Y171450
X89535Y134049
X88519Y157988
X89535Y130238
X87249Y154686
X87249Y159182
X85979Y170815
X87884Y161417
X86614Y168656
X88519Y171704
X88519Y170815
X75819Y163195
X81534Y142875
X84582Y143764
X79629Y127762
X83439Y127762
X83439Y138811
X81839Y137770
X85344Y163957
X85979Y163322
X75184Y161036
X83312Y149098
X86868Y145796
X83439Y140716
X83566Y155956
X88519Y143256
X85344Y152781
X78135Y136682
X82804Y166116
X74549Y167640
X79756Y159512
X80899Y160274
X88526Y160746
X80264Y161036
X88526Y163159
X81534Y161671
X79515Y155600
X84836Y154940
X84074Y164973
X74549Y165608
X80899Y158750
X77724Y155575
X75184Y151130
X80518Y136017
X80518Y131826
X84836Y148971
X11049Y4826
X12319Y4826
X5207Y49403
X19431Y13081
X7493Y46736
X6350Y7239
X11430Y29591
X9398Y15621
X15875Y8255
X6477Y12446
X3175Y27559
X3175Y33401
X17780Y50800
X11430Y51435
X5080Y50800
X7620Y45212
X13335Y29210
X17780Y27940
X22225Y4445
X18415Y635
X4445Y635
X1524Y4826
X635Y22606
X8890Y22860
X19050Y33401
X11430Y27432
X10160Y19939
X14643Y10414
X18034Y14986
X11328Y13614
X5715Y6350
X11430Y16764
X15367Y20828
X13970Y635
X22225Y9525
X10795Y32131
X9525Y3175
X13335Y3175
X13970Y24130
X8890Y635
X5715Y35560
X7620Y24765
X3175Y30480
X12700Y39370
X10160Y39370
X16510Y41021
X18415Y43180
X16510Y48514
X12192Y45339
X7620Y43942
X6477Y46736
X15367Y33274
X8128Y40767
X13970Y43180
X6350Y43180
X17780Y45720
X12192Y44450
X12192Y46228
X8255Y51181
X14605Y51181
X11214Y10401
X5080Y43307
X2540Y7620
X3810Y25908
X5715Y43942
X2540Y8890
X4445Y25273
X15240Y48514
X19431Y11112
X18415Y35052
X19431Y7302
X17145Y31750
X17145Y36246
X15875Y47879
X17780Y38481
X16510Y45720
X18415Y48768
X18415Y47879
X5715Y40259
X11430Y19939
X14478Y20828
X9525Y4826
X13335Y4826
X13335Y15875
X11735Y14834
X15240Y41021
X15875Y40386
X5080Y38100
X13208Y26162
X16764Y22860
X13335Y17780
X13462Y33020
X18415Y20320
X15240Y29845
X8031Y13746
X12700Y43180
X4445Y44704
X9652Y36576
X10795Y37338
X18422Y37810
X10160Y38100
X18422Y40223
X11430Y38735
X9411Y32664
X14732Y32004
X13970Y42037
X4445Y42672
X10795Y35814
X7620Y32639
X5080Y28194
X10414Y13081
X10414Y8890
X14732Y26035
X34417Y4826
X35687Y4826
X28575Y49403
X42799Y13081
X30861Y46736
X29718Y7239
X34798Y29591
X32766Y15621
X39243Y8255
X29845Y12446
X26543Y27559
X26543Y33401
X41148Y50800
X34798Y51435
X28448Y50800
X30988Y45212
X36703Y29210
X41148Y27940
X45593Y4445
X41783Y635
X27813Y635
X24892Y4826
X24003Y22606
X32258Y22860
X42418Y33401
X34798Y27432
X33528Y19939
X38011Y10414
X41402Y14986
X34696Y13614
X29083Y6350
X34798Y16764
X38735Y20828
X37338Y635
X45593Y9525
X34163Y32131
X32893Y3175
X36703Y3175
X37338Y24130
X32258Y635
X29083Y35560
X30988Y24765
X26543Y30480
X36068Y39370
X33528Y39370
X39878Y41021
X41783Y43180
X39878Y48514
X35560Y45339
X30988Y43942
X29845Y46736
X38735Y33274
X31496Y40767
X37338Y43180
X29718Y43180
X41148Y45720
X35560Y44450
X35560Y46228
X31623Y51181
X37973Y51181
X34582Y10401
X28448Y43307
X25908Y7620
X27178Y25908
X29083Y43942
X25908Y8890
X27813Y25273
X38608Y48514
X42799Y11112
X41783Y35052
X42799Y7302
X40513Y31750
X40513Y36246
X39243Y47879
X41148Y38481
X39878Y45720
X41783Y48768
X41783Y47879
X29083Y40259
X34798Y19939
X37846Y20828
X32893Y4826
X36703Y4826
X36703Y15875
X35103Y14834
X38608Y41021
X39243Y40386
X28448Y38100
X36576Y26162
X40132Y22860
X36703Y17780
X36830Y33020
X41783Y20320
X38608Y29845
X31399Y13746
X36068Y43180
X27813Y44704
X33020Y36576
X34163Y37338
X41790Y37810
X33528Y38100
X41790Y40223
X34798Y38735
X32779Y32664
X38100Y32004
X37338Y42037
X27813Y42672
X34163Y35814
X30988Y32639
X28448Y28194
X33782Y13081
X33782Y8890
X38100Y26035
X57785Y4826
X59055Y4826
X51943Y49403
X54229Y46736
X53086Y7239
X58166Y29591
X56134Y15621
X62611Y8255
X53213Y12446
X49911Y27559
X49911Y33401
X64516Y50800
X58166Y51435
X51816Y50800
X54356Y45212
X60071Y29210
X64516Y27940
X68961Y4445
X65151Y635
X51181Y635
X48260Y4826
X47371Y22606
X55626Y22860
X65786Y33401
X5080Y173736
X58166Y27432
X56896Y19939
X61379Y10414
X64770Y14986
X58064Y13614
X52451Y6350
X58166Y16764
X62103Y20828
X60706Y635
X68961Y9525
X57531Y32131
X56261Y3175
X60071Y3175
X60706Y24130
X55626Y635
X52451Y35560
X54356Y24765
X49911Y30480
X59436Y39370
X56896Y39370
X63246Y41021
X65151Y43180
X63246Y48514
X58928Y45339
X54356Y43942
X53213Y46736
X62103Y33274
X54864Y40767
X60706Y43180
X53086Y43180
X64516Y45720
X58928Y44450
X58928Y46228
X54991Y51181
X61341Y51181
X57950Y10401
X51816Y43307
X49276Y7620
X50546Y25908
X52451Y43942
X49276Y8890
X51181Y25273
X61976Y48514
X66167Y11112
X65151Y35052
X66167Y7302
X63881Y31750
X63881Y36246
X62611Y47879
X64516Y38481
X63246Y45720
X65151Y48768
X65151Y47879
X52451Y40259
X58166Y19939
X61214Y20828
X56261Y4826
X60071Y4826
X60071Y15875
X58471Y14834
X61976Y41021
X62611Y40386
X51816Y38100
X59944Y26162
X63500Y22860
X60071Y17780
X60198Y33020
X65151Y20320
X61976Y29845
X54767Y13746
X59436Y43180
X51181Y44704
X56388Y36576
X57531Y37338
X65158Y37810
X56896Y38100
X65158Y40223
X58166Y38735
X56147Y32664
X61468Y32004
X60706Y42037
X51181Y42672
X57531Y35814
X54356Y32639
X51816Y28194
X57150Y13081
X57150Y8890
X61468Y26035
X81153Y4826
X82423Y4826
X75311Y49403
X89535Y13081
X77597Y46736
X76454Y7239
X81534Y29591
X79502Y15621
X85979Y8255
X76581Y12446
X73279Y27559
X73279Y33401
X87884Y50800
X81534Y51435
X75184Y50800
X77724Y45212
X83439Y29210
X87884Y27940
X92329Y4445
X88519Y635
X74549Y635
X71628Y4826
X70739Y22606
X78994Y22860
X89154Y33401
X81534Y27432
X80264Y19939
X84747Y10414
X88138Y14986
X81432Y13614
X75819Y6350
X81534Y16764
X85471Y20828
X84074Y635
X92329Y9525
X80899Y32131
X79629Y3175
X83439Y3175
X84074Y24130
X78994Y635
X75819Y35560
X77724Y24765
X73279Y30480
X82804Y39370
X80264Y39370
X86614Y41021
X88519Y43180
X86614Y48514
X82296Y45339
X77724Y43942
X76581Y46736
X85471Y33274
X78232Y40767
X84074Y43180
X76454Y43180
X87884Y45720
X82296Y44450
X82296Y46228
X78359Y51181
X84709Y51181
X81318Y10401
X75184Y43307
X72644Y7620
X73914Y25908
X75819Y43942
X72644Y8890
X74549Y25273
X85344Y48514
X89535Y11112
X88519Y35052
X89535Y7302
X87249Y31750
X87249Y36246
X85979Y47879
X87884Y38481
X86614Y45720
X88519Y48768
X88519Y47879
X75819Y40259
X81534Y19939
X84582Y20828
X79629Y4826
X83439Y4826
X83439Y15875
X81839Y14834
X85344Y41021
X85979Y40386
X75184Y38100
X83312Y26162
X86868Y22860
X83439Y17780
X83566Y33020
X88519Y20320
X85344Y29845
X78135Y13746
X82804Y43180
X74549Y44704
X79756Y36576
X80899Y37338
X88526Y37810
X80264Y38100
X88526Y40223
X81534Y38735
X79515Y32664
X84836Y32004
X84074Y42037
X74549Y42672
X80899Y35814
X77724Y32639
X75184Y28194
X80518Y13081
X80518Y8890
X84836Y26035
X11049Y66294
X12319Y66294
X5207Y110871
X19431Y74549
X7493Y108204
X6350Y68707
X11430Y91059
X9398Y77089
X15875Y69723
X6477Y73914
X3175Y89027
X3175Y94869
X17780Y112268
X11430Y112903
X5080Y112268
X7620Y106680
X13335Y90678
X17780Y89408
X22225Y65913
X18415Y62103
X4445Y62103
X1524Y66294
X635Y84074
X8890Y84328
X19050Y94869
X11430Y88900
X10160Y81407
X14643Y71882
M30