G04 EAGLE Gerber RS-274X export*
G75*
%MOMM*%
%FSLAX34Y34*%
%LPD*%
%INSolderpaste Bottom*%
%IPPOS*%
%AMOC8*
5,1,8,0,0,1.08239X$1,22.5*%
G01*
%ADD10C,0.100000*%
%ADD11C,0.100800*%
%ADD12C,0.105000*%
%ADD13C,0.099000*%


D10*
X80700Y402900D02*
X80700Y392900D01*
X71700Y392900D01*
X71700Y402900D01*
X80700Y402900D01*
X80700Y393850D02*
X71700Y393850D01*
X71700Y394800D02*
X80700Y394800D01*
X80700Y395750D02*
X71700Y395750D01*
X71700Y396700D02*
X80700Y396700D01*
X80700Y397650D02*
X71700Y397650D01*
X71700Y398600D02*
X80700Y398600D01*
X80700Y399550D02*
X71700Y399550D01*
X71700Y400500D02*
X80700Y400500D01*
X80700Y401450D02*
X71700Y401450D01*
X71700Y402400D02*
X80700Y402400D01*
X80700Y409900D02*
X80700Y419900D01*
X80700Y409900D02*
X71700Y409900D01*
X71700Y419900D01*
X80700Y419900D01*
X80700Y410850D02*
X71700Y410850D01*
X71700Y411800D02*
X80700Y411800D01*
X80700Y412750D02*
X71700Y412750D01*
X71700Y413700D02*
X80700Y413700D01*
X80700Y414650D02*
X71700Y414650D01*
X71700Y415600D02*
X80700Y415600D01*
X80700Y416550D02*
X71700Y416550D01*
X71700Y417500D02*
X80700Y417500D01*
X80700Y418450D02*
X71700Y418450D01*
X71700Y419400D02*
X80700Y419400D01*
X180810Y116150D02*
X190810Y116150D01*
X180810Y116150D02*
X180810Y125150D01*
X190810Y125150D01*
X190810Y116150D01*
X190810Y117100D02*
X180810Y117100D01*
X180810Y118050D02*
X190810Y118050D01*
X190810Y119000D02*
X180810Y119000D01*
X180810Y119950D02*
X190810Y119950D01*
X190810Y120900D02*
X180810Y120900D01*
X180810Y121850D02*
X190810Y121850D01*
X190810Y122800D02*
X180810Y122800D01*
X180810Y123750D02*
X190810Y123750D01*
X190810Y124700D02*
X180810Y124700D01*
X197810Y116150D02*
X207810Y116150D01*
X197810Y116150D02*
X197810Y125150D01*
X207810Y125150D01*
X207810Y116150D01*
X207810Y117100D02*
X197810Y117100D01*
X197810Y118050D02*
X207810Y118050D01*
X207810Y119000D02*
X197810Y119000D01*
X197810Y119950D02*
X207810Y119950D01*
X207810Y120900D02*
X197810Y120900D01*
X197810Y121850D02*
X207810Y121850D01*
X207810Y122800D02*
X197810Y122800D01*
X197810Y123750D02*
X207810Y123750D01*
X207810Y124700D02*
X197810Y124700D01*
X190810Y97100D02*
X180810Y97100D01*
X180810Y106100D01*
X190810Y106100D01*
X190810Y97100D01*
X190810Y98050D02*
X180810Y98050D01*
X180810Y99000D02*
X190810Y99000D01*
X190810Y99950D02*
X180810Y99950D01*
X180810Y100900D02*
X190810Y100900D01*
X190810Y101850D02*
X180810Y101850D01*
X180810Y102800D02*
X190810Y102800D01*
X190810Y103750D02*
X180810Y103750D01*
X180810Y104700D02*
X190810Y104700D01*
X190810Y105650D02*
X180810Y105650D01*
X197810Y97100D02*
X207810Y97100D01*
X197810Y97100D02*
X197810Y106100D01*
X207810Y106100D01*
X207810Y97100D01*
X207810Y98050D02*
X197810Y98050D01*
X197810Y99000D02*
X207810Y99000D01*
X207810Y99950D02*
X197810Y99950D01*
X197810Y100900D02*
X207810Y100900D01*
X207810Y101850D02*
X197810Y101850D01*
X197810Y102800D02*
X207810Y102800D01*
X207810Y103750D02*
X197810Y103750D01*
X197810Y104700D02*
X207810Y104700D01*
X207810Y105650D02*
X197810Y105650D01*
X197810Y87050D02*
X207810Y87050D01*
X207810Y78050D01*
X197810Y78050D01*
X197810Y87050D01*
X197810Y79000D02*
X207810Y79000D01*
X207810Y79950D02*
X197810Y79950D01*
X197810Y80900D02*
X207810Y80900D01*
X207810Y81850D02*
X197810Y81850D01*
X197810Y82800D02*
X207810Y82800D01*
X207810Y83750D02*
X197810Y83750D01*
X197810Y84700D02*
X207810Y84700D01*
X207810Y85650D02*
X197810Y85650D01*
X197810Y86600D02*
X207810Y86600D01*
X190810Y87050D02*
X180810Y87050D01*
X190810Y87050D02*
X190810Y78050D01*
X180810Y78050D01*
X180810Y87050D01*
X180810Y79000D02*
X190810Y79000D01*
X190810Y79950D02*
X180810Y79950D01*
X180810Y80900D02*
X190810Y80900D01*
X190810Y81850D02*
X180810Y81850D01*
X180810Y82800D02*
X190810Y82800D01*
X190810Y83750D02*
X180810Y83750D01*
X180810Y84700D02*
X190810Y84700D01*
X190810Y85650D02*
X180810Y85650D01*
X180810Y86600D02*
X190810Y86600D01*
X110800Y262200D02*
X100800Y262200D01*
X100800Y271200D01*
X110800Y271200D01*
X110800Y262200D01*
X110800Y263150D02*
X100800Y263150D01*
X100800Y264100D02*
X110800Y264100D01*
X110800Y265050D02*
X100800Y265050D01*
X100800Y266000D02*
X110800Y266000D01*
X110800Y266950D02*
X100800Y266950D01*
X100800Y267900D02*
X110800Y267900D01*
X110800Y268850D02*
X100800Y268850D01*
X100800Y269800D02*
X110800Y269800D01*
X110800Y270750D02*
X100800Y270750D01*
X117800Y262200D02*
X127800Y262200D01*
X117800Y262200D02*
X117800Y271200D01*
X127800Y271200D01*
X127800Y262200D01*
X127800Y263150D02*
X117800Y263150D01*
X117800Y264100D02*
X127800Y264100D01*
X127800Y265050D02*
X117800Y265050D01*
X117800Y266000D02*
X127800Y266000D01*
X127800Y266950D02*
X117800Y266950D01*
X117800Y267900D02*
X127800Y267900D01*
X127800Y268850D02*
X117800Y268850D01*
X117800Y269800D02*
X127800Y269800D01*
X127800Y270750D02*
X117800Y270750D01*
X110800Y281250D02*
X100800Y281250D01*
X100800Y290250D01*
X110800Y290250D01*
X110800Y281250D01*
X110800Y282200D02*
X100800Y282200D01*
X100800Y283150D02*
X110800Y283150D01*
X110800Y284100D02*
X100800Y284100D01*
X100800Y285050D02*
X110800Y285050D01*
X110800Y286000D02*
X100800Y286000D01*
X100800Y286950D02*
X110800Y286950D01*
X110800Y287900D02*
X100800Y287900D01*
X100800Y288850D02*
X110800Y288850D01*
X110800Y289800D02*
X100800Y289800D01*
X117800Y281250D02*
X127800Y281250D01*
X117800Y281250D02*
X117800Y290250D01*
X127800Y290250D01*
X127800Y281250D01*
X127800Y282200D02*
X117800Y282200D01*
X117800Y283150D02*
X127800Y283150D01*
X127800Y284100D02*
X117800Y284100D01*
X117800Y285050D02*
X127800Y285050D01*
X127800Y286000D02*
X117800Y286000D01*
X117800Y286950D02*
X127800Y286950D01*
X127800Y287900D02*
X117800Y287900D01*
X117800Y288850D02*
X127800Y288850D01*
X127800Y289800D02*
X117800Y289800D01*
X110800Y154250D02*
X100800Y154250D01*
X100800Y163250D01*
X110800Y163250D01*
X110800Y154250D01*
X110800Y155200D02*
X100800Y155200D01*
X100800Y156150D02*
X110800Y156150D01*
X110800Y157100D02*
X100800Y157100D01*
X100800Y158050D02*
X110800Y158050D01*
X110800Y159000D02*
X100800Y159000D01*
X100800Y159950D02*
X110800Y159950D01*
X110800Y160900D02*
X100800Y160900D01*
X100800Y161850D02*
X110800Y161850D01*
X110800Y162800D02*
X100800Y162800D01*
X117800Y154250D02*
X127800Y154250D01*
X117800Y154250D02*
X117800Y163250D01*
X127800Y163250D01*
X127800Y154250D01*
X127800Y155200D02*
X117800Y155200D01*
X117800Y156150D02*
X127800Y156150D01*
X127800Y157100D02*
X117800Y157100D01*
X117800Y158050D02*
X127800Y158050D01*
X127800Y159000D02*
X117800Y159000D01*
X117800Y159950D02*
X127800Y159950D01*
X127800Y160900D02*
X117800Y160900D01*
X117800Y161850D02*
X127800Y161850D01*
X127800Y162800D02*
X117800Y162800D01*
X110800Y243150D02*
X100800Y243150D01*
X100800Y252150D01*
X110800Y252150D01*
X110800Y243150D01*
X110800Y244100D02*
X100800Y244100D01*
X100800Y245050D02*
X110800Y245050D01*
X110800Y246000D02*
X100800Y246000D01*
X100800Y246950D02*
X110800Y246950D01*
X110800Y247900D02*
X100800Y247900D01*
X100800Y248850D02*
X110800Y248850D01*
X110800Y249800D02*
X100800Y249800D01*
X100800Y250750D02*
X110800Y250750D01*
X110800Y251700D02*
X100800Y251700D01*
X117800Y243150D02*
X127800Y243150D01*
X117800Y243150D02*
X117800Y252150D01*
X127800Y252150D01*
X127800Y243150D01*
X127800Y244100D02*
X117800Y244100D01*
X117800Y245050D02*
X127800Y245050D01*
X127800Y246000D02*
X117800Y246000D01*
X117800Y246950D02*
X127800Y246950D01*
X127800Y247900D02*
X117800Y247900D01*
X117800Y248850D02*
X127800Y248850D01*
X127800Y249800D02*
X117800Y249800D01*
X117800Y250750D02*
X127800Y250750D01*
X127800Y251700D02*
X117800Y251700D01*
X155900Y163250D02*
X165900Y163250D01*
X165900Y154250D01*
X155900Y154250D01*
X155900Y163250D01*
X155900Y155200D02*
X165900Y155200D01*
X165900Y156150D02*
X155900Y156150D01*
X155900Y157100D02*
X165900Y157100D01*
X165900Y158050D02*
X155900Y158050D01*
X155900Y159000D02*
X165900Y159000D01*
X165900Y159950D02*
X155900Y159950D01*
X155900Y160900D02*
X165900Y160900D01*
X165900Y161850D02*
X155900Y161850D01*
X155900Y162800D02*
X165900Y162800D01*
X148900Y163250D02*
X138900Y163250D01*
X148900Y163250D02*
X148900Y154250D01*
X138900Y154250D01*
X138900Y163250D01*
X138900Y155200D02*
X148900Y155200D01*
X148900Y156150D02*
X138900Y156150D01*
X138900Y157100D02*
X148900Y157100D01*
X148900Y158050D02*
X138900Y158050D01*
X138900Y159000D02*
X148900Y159000D01*
X148900Y159950D02*
X138900Y159950D01*
X138900Y160900D02*
X148900Y160900D01*
X148900Y161850D02*
X138900Y161850D01*
X138900Y162800D02*
X148900Y162800D01*
X110800Y173300D02*
X100800Y173300D01*
X100800Y182300D01*
X110800Y182300D01*
X110800Y173300D01*
X110800Y174250D02*
X100800Y174250D01*
X100800Y175200D02*
X110800Y175200D01*
X110800Y176150D02*
X100800Y176150D01*
X100800Y177100D02*
X110800Y177100D01*
X110800Y178050D02*
X100800Y178050D01*
X100800Y179000D02*
X110800Y179000D01*
X110800Y179950D02*
X100800Y179950D01*
X100800Y180900D02*
X110800Y180900D01*
X110800Y181850D02*
X100800Y181850D01*
X117800Y173300D02*
X127800Y173300D01*
X117800Y173300D02*
X117800Y182300D01*
X127800Y182300D01*
X127800Y173300D01*
X127800Y174250D02*
X117800Y174250D01*
X117800Y175200D02*
X127800Y175200D01*
X127800Y176150D02*
X117800Y176150D01*
X117800Y177100D02*
X127800Y177100D01*
X127800Y178050D02*
X117800Y178050D01*
X117800Y179000D02*
X127800Y179000D01*
X127800Y179950D02*
X117800Y179950D01*
X117800Y180900D02*
X127800Y180900D01*
X127800Y181850D02*
X117800Y181850D01*
X84864Y76490D02*
X84864Y67490D01*
X80864Y67490D01*
X80864Y76490D01*
X84864Y76490D01*
X84864Y68440D02*
X80864Y68440D01*
X80864Y69390D02*
X84864Y69390D01*
X84864Y70340D02*
X80864Y70340D01*
X80864Y71290D02*
X84864Y71290D01*
X84864Y72240D02*
X80864Y72240D01*
X80864Y73190D02*
X84864Y73190D01*
X84864Y74140D02*
X80864Y74140D01*
X80864Y75090D02*
X84864Y75090D01*
X84864Y76040D02*
X80864Y76040D01*
X95864Y76490D02*
X95864Y67490D01*
X91864Y67490D01*
X91864Y76490D01*
X95864Y76490D01*
X95864Y68440D02*
X91864Y68440D01*
X91864Y69390D02*
X95864Y69390D01*
X95864Y70340D02*
X91864Y70340D01*
X91864Y71290D02*
X95864Y71290D01*
X95864Y72240D02*
X91864Y72240D01*
X91864Y73190D02*
X95864Y73190D01*
X95864Y74140D02*
X91864Y74140D01*
X91864Y75090D02*
X95864Y75090D01*
X95864Y76040D02*
X91864Y76040D01*
X106864Y76490D02*
X106864Y67490D01*
X102864Y67490D01*
X102864Y76490D01*
X106864Y76490D01*
X106864Y68440D02*
X102864Y68440D01*
X102864Y69390D02*
X106864Y69390D01*
X106864Y70340D02*
X102864Y70340D01*
X102864Y71290D02*
X106864Y71290D01*
X106864Y72240D02*
X102864Y72240D01*
X102864Y73190D02*
X106864Y73190D01*
X106864Y74140D02*
X102864Y74140D01*
X102864Y75090D02*
X106864Y75090D01*
X106864Y76040D02*
X102864Y76040D01*
X117864Y76490D02*
X117864Y67490D01*
X113864Y67490D01*
X113864Y76490D01*
X117864Y76490D01*
X117864Y68440D02*
X113864Y68440D01*
X113864Y69390D02*
X117864Y69390D01*
X117864Y70340D02*
X113864Y70340D01*
X113864Y71290D02*
X117864Y71290D01*
X117864Y72240D02*
X113864Y72240D01*
X113864Y73190D02*
X117864Y73190D01*
X117864Y74140D02*
X113864Y74140D01*
X113864Y75090D02*
X117864Y75090D01*
X117864Y76040D02*
X113864Y76040D01*
X128864Y76490D02*
X128864Y67490D01*
X124864Y67490D01*
X124864Y76490D01*
X128864Y76490D01*
X128864Y68440D02*
X124864Y68440D01*
X124864Y69390D02*
X128864Y69390D01*
X128864Y70340D02*
X124864Y70340D01*
X124864Y71290D02*
X128864Y71290D01*
X128864Y72240D02*
X124864Y72240D01*
X124864Y73190D02*
X128864Y73190D01*
X128864Y74140D02*
X124864Y74140D01*
X124864Y75090D02*
X128864Y75090D01*
X128864Y76040D02*
X124864Y76040D01*
X139864Y76490D02*
X139864Y67490D01*
X135864Y67490D01*
X135864Y76490D01*
X139864Y76490D01*
X139864Y68440D02*
X135864Y68440D01*
X135864Y69390D02*
X139864Y69390D01*
X139864Y70340D02*
X135864Y70340D01*
X135864Y71290D02*
X139864Y71290D01*
X139864Y72240D02*
X135864Y72240D01*
X135864Y73190D02*
X139864Y73190D01*
X139864Y74140D02*
X135864Y74140D01*
X135864Y75090D02*
X139864Y75090D01*
X139864Y76040D02*
X135864Y76040D01*
X150864Y76490D02*
X150864Y67490D01*
X146864Y67490D01*
X146864Y76490D01*
X150864Y76490D01*
X150864Y68440D02*
X146864Y68440D01*
X146864Y69390D02*
X150864Y69390D01*
X150864Y70340D02*
X146864Y70340D01*
X146864Y71290D02*
X150864Y71290D01*
X150864Y72240D02*
X146864Y72240D01*
X146864Y73190D02*
X150864Y73190D01*
X150864Y74140D02*
X146864Y74140D01*
X146864Y75090D02*
X150864Y75090D01*
X150864Y76040D02*
X146864Y76040D01*
X161864Y76490D02*
X161864Y67490D01*
X157864Y67490D01*
X157864Y76490D01*
X161864Y76490D01*
X161864Y68440D02*
X157864Y68440D01*
X157864Y69390D02*
X161864Y69390D01*
X161864Y70340D02*
X157864Y70340D01*
X157864Y71290D02*
X161864Y71290D01*
X161864Y72240D02*
X157864Y72240D01*
X157864Y73190D02*
X161864Y73190D01*
X161864Y74140D02*
X157864Y74140D01*
X157864Y75090D02*
X161864Y75090D01*
X161864Y76040D02*
X157864Y76040D01*
D11*
X67960Y95394D02*
X61768Y95394D01*
X61768Y102186D01*
X67960Y102186D01*
X67960Y95394D01*
X67960Y96352D02*
X61768Y96352D01*
X61768Y97310D02*
X67960Y97310D01*
X67960Y98268D02*
X61768Y98268D01*
X61768Y99226D02*
X67960Y99226D01*
X67960Y100184D02*
X61768Y100184D01*
X61768Y101142D02*
X67960Y101142D01*
X67960Y102100D02*
X61768Y102100D01*
D12*
X69589Y106615D02*
X69589Y116365D01*
X69589Y106615D02*
X60139Y106615D01*
X60139Y116365D01*
X69589Y116365D01*
X69589Y107612D02*
X60139Y107612D01*
X60139Y108609D02*
X69589Y108609D01*
X69589Y109606D02*
X60139Y109606D01*
X60139Y110603D02*
X69589Y110603D01*
X69589Y111600D02*
X60139Y111600D01*
X60139Y112597D02*
X69589Y112597D01*
X69589Y113594D02*
X60139Y113594D01*
X60139Y114591D02*
X69589Y114591D01*
X69589Y115588D02*
X60139Y115588D01*
X69589Y132115D02*
X69589Y143065D01*
X69589Y132115D02*
X60139Y132115D01*
X60139Y143065D01*
X69589Y143065D01*
X69589Y133112D02*
X60139Y133112D01*
X60139Y134109D02*
X69589Y134109D01*
X69589Y135106D02*
X60139Y135106D01*
X60139Y136103D02*
X69589Y136103D01*
X69589Y137100D02*
X60139Y137100D01*
X60139Y138097D02*
X69589Y138097D01*
X69589Y139094D02*
X60139Y139094D01*
X60139Y140091D02*
X69589Y140091D01*
X69589Y141088D02*
X60139Y141088D01*
X60139Y142085D02*
X69589Y142085D01*
X176339Y137365D02*
X176339Y126415D01*
X166889Y126415D01*
X166889Y137365D01*
X176339Y137365D01*
X176339Y127412D02*
X166889Y127412D01*
X166889Y128409D02*
X176339Y128409D01*
X176339Y129406D02*
X166889Y129406D01*
X166889Y130403D02*
X176339Y130403D01*
X176339Y131400D02*
X166889Y131400D01*
X166889Y132397D02*
X176339Y132397D01*
X176339Y133394D02*
X166889Y133394D01*
X166889Y134391D02*
X176339Y134391D01*
X176339Y135388D02*
X166889Y135388D01*
X166889Y136385D02*
X176339Y136385D01*
X176339Y111465D02*
X176339Y88615D01*
X166889Y88615D01*
X166889Y111465D01*
X176339Y111465D01*
X176339Y89612D02*
X166889Y89612D01*
X166889Y90609D02*
X176339Y90609D01*
X176339Y91606D02*
X166889Y91606D01*
X166889Y92603D02*
X176339Y92603D01*
X176339Y93600D02*
X166889Y93600D01*
X166889Y94597D02*
X176339Y94597D01*
X176339Y95594D02*
X166889Y95594D01*
X166889Y96591D02*
X176339Y96591D01*
X176339Y97588D02*
X166889Y97588D01*
X166889Y98585D02*
X176339Y98585D01*
X176339Y99582D02*
X166889Y99582D01*
X166889Y100579D02*
X176339Y100579D01*
X176339Y101576D02*
X166889Y101576D01*
X166889Y102573D02*
X176339Y102573D01*
X176339Y103570D02*
X166889Y103570D01*
X166889Y104567D02*
X176339Y104567D01*
X176339Y105564D02*
X166889Y105564D01*
X166889Y106561D02*
X176339Y106561D01*
X176339Y107558D02*
X166889Y107558D01*
X166889Y108555D02*
X176339Y108555D01*
X176339Y109552D02*
X166889Y109552D01*
X166889Y110549D02*
X176339Y110549D01*
D13*
X153869Y146595D02*
X125759Y146595D01*
X153869Y146595D02*
X153869Y142085D01*
X125759Y142085D01*
X125759Y146595D01*
X125759Y143025D02*
X153869Y143025D01*
X153869Y143965D02*
X125759Y143965D01*
X125759Y144905D02*
X153869Y144905D01*
X153869Y145845D02*
X125759Y145845D01*
X111969Y146595D02*
X83859Y146595D01*
X111969Y146595D02*
X111969Y142085D01*
X83859Y142085D01*
X83859Y146595D01*
X83859Y143025D02*
X111969Y143025D01*
X111969Y143965D02*
X83859Y143965D01*
X83859Y144905D02*
X111969Y144905D01*
X111969Y145845D02*
X83859Y145845D01*
D10*
X53650Y478100D02*
X43650Y478100D01*
X43650Y487100D01*
X53650Y487100D01*
X53650Y478100D01*
X53650Y479050D02*
X43650Y479050D01*
X43650Y480000D02*
X53650Y480000D01*
X53650Y480950D02*
X43650Y480950D01*
X43650Y481900D02*
X53650Y481900D01*
X53650Y482850D02*
X43650Y482850D01*
X43650Y483800D02*
X53650Y483800D01*
X53650Y484750D02*
X43650Y484750D01*
X43650Y485700D02*
X53650Y485700D01*
X53650Y486650D02*
X43650Y486650D01*
X60650Y478100D02*
X70650Y478100D01*
X60650Y478100D02*
X60650Y487100D01*
X70650Y487100D01*
X70650Y478100D01*
X70650Y479050D02*
X60650Y479050D01*
X60650Y480000D02*
X70650Y480000D01*
X70650Y480950D02*
X60650Y480950D01*
X60650Y481900D02*
X70650Y481900D01*
X70650Y482850D02*
X60650Y482850D01*
X60650Y483800D02*
X70650Y483800D01*
X70650Y484750D02*
X60650Y484750D01*
X60650Y485700D02*
X70650Y485700D01*
X70650Y486650D02*
X60650Y486650D01*
X60650Y461700D02*
X70650Y461700D01*
X70650Y452700D01*
X60650Y452700D01*
X60650Y461700D01*
X60650Y453650D02*
X70650Y453650D01*
X70650Y454600D02*
X60650Y454600D01*
X60650Y455550D02*
X70650Y455550D01*
X70650Y456500D02*
X60650Y456500D01*
X60650Y457450D02*
X70650Y457450D01*
X70650Y458400D02*
X60650Y458400D01*
X60650Y459350D02*
X70650Y459350D01*
X70650Y460300D02*
X60650Y460300D01*
X60650Y461250D02*
X70650Y461250D01*
X53650Y461700D02*
X43650Y461700D01*
X53650Y461700D02*
X53650Y452700D01*
X43650Y452700D01*
X43650Y461700D01*
X43650Y453650D02*
X53650Y453650D01*
X53650Y454600D02*
X43650Y454600D01*
X43650Y455550D02*
X53650Y455550D01*
X53650Y456500D02*
X43650Y456500D01*
X43650Y457450D02*
X53650Y457450D01*
X53650Y458400D02*
X43650Y458400D01*
X43650Y459350D02*
X53650Y459350D01*
X53650Y460300D02*
X43650Y460300D01*
X43650Y461250D02*
X53650Y461250D01*
X93400Y263200D02*
X93400Y253200D01*
X84400Y253200D01*
X84400Y263200D01*
X93400Y263200D01*
X93400Y254150D02*
X84400Y254150D01*
X84400Y255100D02*
X93400Y255100D01*
X93400Y256050D02*
X84400Y256050D01*
X84400Y257000D02*
X93400Y257000D01*
X93400Y257950D02*
X84400Y257950D01*
X84400Y258900D02*
X93400Y258900D01*
X93400Y259850D02*
X84400Y259850D01*
X84400Y260800D02*
X93400Y260800D01*
X93400Y261750D02*
X84400Y261750D01*
X84400Y262700D02*
X93400Y262700D01*
X93400Y270200D02*
X93400Y280200D01*
X93400Y270200D02*
X84400Y270200D01*
X84400Y280200D01*
X93400Y280200D01*
X93400Y271150D02*
X84400Y271150D01*
X84400Y272100D02*
X93400Y272100D01*
X93400Y273050D02*
X84400Y273050D01*
X84400Y274000D02*
X93400Y274000D01*
X93400Y274950D02*
X84400Y274950D01*
X84400Y275900D02*
X93400Y275900D01*
X93400Y276850D02*
X84400Y276850D01*
X84400Y277800D02*
X93400Y277800D01*
X93400Y278750D02*
X84400Y278750D01*
X84400Y279700D02*
X93400Y279700D01*
X59000Y178600D02*
X59000Y168600D01*
X59000Y178600D02*
X68000Y178600D01*
X68000Y168600D01*
X59000Y168600D01*
X59000Y169550D02*
X68000Y169550D01*
X68000Y170500D02*
X59000Y170500D01*
X59000Y171450D02*
X68000Y171450D01*
X68000Y172400D02*
X59000Y172400D01*
X59000Y173350D02*
X68000Y173350D01*
X68000Y174300D02*
X59000Y174300D01*
X59000Y175250D02*
X68000Y175250D01*
X68000Y176200D02*
X59000Y176200D01*
X59000Y177150D02*
X68000Y177150D01*
X68000Y178100D02*
X59000Y178100D01*
X59000Y161600D02*
X59000Y151600D01*
X59000Y161600D02*
X68000Y161600D01*
X68000Y151600D01*
X59000Y151600D01*
X59000Y152550D02*
X68000Y152550D01*
X68000Y153500D02*
X59000Y153500D01*
X59000Y154450D02*
X68000Y154450D01*
X68000Y155400D02*
X59000Y155400D01*
X59000Y156350D02*
X68000Y156350D01*
X68000Y157300D02*
X59000Y157300D01*
X59000Y158250D02*
X68000Y158250D01*
X68000Y159200D02*
X59000Y159200D01*
X59000Y160150D02*
X68000Y160150D01*
X68000Y161100D02*
X59000Y161100D01*
X78050Y168600D02*
X78050Y178600D01*
X87050Y178600D01*
X87050Y168600D01*
X78050Y168600D01*
X78050Y169550D02*
X87050Y169550D01*
X87050Y170500D02*
X78050Y170500D01*
X78050Y171450D02*
X87050Y171450D01*
X87050Y172400D02*
X78050Y172400D01*
X78050Y173350D02*
X87050Y173350D01*
X87050Y174300D02*
X78050Y174300D01*
X78050Y175250D02*
X87050Y175250D01*
X87050Y176200D02*
X78050Y176200D01*
X78050Y177150D02*
X87050Y177150D01*
X87050Y178100D02*
X78050Y178100D01*
X78050Y161600D02*
X78050Y151600D01*
X78050Y161600D02*
X87050Y161600D01*
X87050Y151600D01*
X78050Y151600D01*
X78050Y152550D02*
X87050Y152550D01*
X87050Y153500D02*
X78050Y153500D01*
X78050Y154450D02*
X87050Y154450D01*
X87050Y155400D02*
X78050Y155400D01*
X78050Y156350D02*
X87050Y156350D01*
X87050Y157300D02*
X78050Y157300D01*
X78050Y158250D02*
X87050Y158250D01*
X87050Y159200D02*
X78050Y159200D01*
X78050Y160150D02*
X87050Y160150D01*
X87050Y161100D02*
X78050Y161100D01*
X314380Y392900D02*
X314380Y402900D01*
X314380Y392900D02*
X305380Y392900D01*
X305380Y402900D01*
X314380Y402900D01*
X314380Y393850D02*
X305380Y393850D01*
X305380Y394800D02*
X314380Y394800D01*
X314380Y395750D02*
X305380Y395750D01*
X305380Y396700D02*
X314380Y396700D01*
X314380Y397650D02*
X305380Y397650D01*
X305380Y398600D02*
X314380Y398600D01*
X314380Y399550D02*
X305380Y399550D01*
X305380Y400500D02*
X314380Y400500D01*
X314380Y401450D02*
X305380Y401450D01*
X305380Y402400D02*
X314380Y402400D01*
X314380Y409900D02*
X314380Y419900D01*
X314380Y409900D02*
X305380Y409900D01*
X305380Y419900D01*
X314380Y419900D01*
X314380Y410850D02*
X305380Y410850D01*
X305380Y411800D02*
X314380Y411800D01*
X314380Y412750D02*
X305380Y412750D01*
X305380Y413700D02*
X314380Y413700D01*
X314380Y414650D02*
X305380Y414650D01*
X305380Y415600D02*
X314380Y415600D01*
X314380Y416550D02*
X305380Y416550D01*
X305380Y417500D02*
X314380Y417500D01*
X314380Y418450D02*
X305380Y418450D01*
X305380Y419400D02*
X314380Y419400D01*
X414490Y116150D02*
X424490Y116150D01*
X414490Y116150D02*
X414490Y125150D01*
X424490Y125150D01*
X424490Y116150D01*
X424490Y117100D02*
X414490Y117100D01*
X414490Y118050D02*
X424490Y118050D01*
X424490Y119000D02*
X414490Y119000D01*
X414490Y119950D02*
X424490Y119950D01*
X424490Y120900D02*
X414490Y120900D01*
X414490Y121850D02*
X424490Y121850D01*
X424490Y122800D02*
X414490Y122800D01*
X414490Y123750D02*
X424490Y123750D01*
X424490Y124700D02*
X414490Y124700D01*
X431490Y116150D02*
X441490Y116150D01*
X431490Y116150D02*
X431490Y125150D01*
X441490Y125150D01*
X441490Y116150D01*
X441490Y117100D02*
X431490Y117100D01*
X431490Y118050D02*
X441490Y118050D01*
X441490Y119000D02*
X431490Y119000D01*
X431490Y119950D02*
X441490Y119950D01*
X441490Y120900D02*
X431490Y120900D01*
X431490Y121850D02*
X441490Y121850D01*
X441490Y122800D02*
X431490Y122800D01*
X431490Y123750D02*
X441490Y123750D01*
X441490Y124700D02*
X431490Y124700D01*
X424490Y97100D02*
X414490Y97100D01*
X414490Y106100D01*
X424490Y106100D01*
X424490Y97100D01*
X424490Y98050D02*
X414490Y98050D01*
X414490Y99000D02*
X424490Y99000D01*
X424490Y99950D02*
X414490Y99950D01*
X414490Y100900D02*
X424490Y100900D01*
X424490Y101850D02*
X414490Y101850D01*
X414490Y102800D02*
X424490Y102800D01*
X424490Y103750D02*
X414490Y103750D01*
X414490Y104700D02*
X424490Y104700D01*
X424490Y105650D02*
X414490Y105650D01*
X431490Y97100D02*
X441490Y97100D01*
X431490Y97100D02*
X431490Y106100D01*
X441490Y106100D01*
X441490Y97100D01*
X441490Y98050D02*
X431490Y98050D01*
X431490Y99000D02*
X441490Y99000D01*
X441490Y99950D02*
X431490Y99950D01*
X431490Y100900D02*
X441490Y100900D01*
X441490Y101850D02*
X431490Y101850D01*
X431490Y102800D02*
X441490Y102800D01*
X441490Y103750D02*
X431490Y103750D01*
X431490Y104700D02*
X441490Y104700D01*
X441490Y105650D02*
X431490Y105650D01*
X431490Y87050D02*
X441490Y87050D01*
X441490Y78050D01*
X431490Y78050D01*
X431490Y87050D01*
X431490Y79000D02*
X441490Y79000D01*
X441490Y79950D02*
X431490Y79950D01*
X431490Y80900D02*
X441490Y80900D01*
X441490Y81850D02*
X431490Y81850D01*
X431490Y82800D02*
X441490Y82800D01*
X441490Y83750D02*
X431490Y83750D01*
X431490Y84700D02*
X441490Y84700D01*
X441490Y85650D02*
X431490Y85650D01*
X431490Y86600D02*
X441490Y86600D01*
X424490Y87050D02*
X414490Y87050D01*
X424490Y87050D02*
X424490Y78050D01*
X414490Y78050D01*
X414490Y87050D01*
X414490Y79000D02*
X424490Y79000D01*
X424490Y79950D02*
X414490Y79950D01*
X414490Y80900D02*
X424490Y80900D01*
X424490Y81850D02*
X414490Y81850D01*
X414490Y82800D02*
X424490Y82800D01*
X424490Y83750D02*
X414490Y83750D01*
X414490Y84700D02*
X424490Y84700D01*
X424490Y85650D02*
X414490Y85650D01*
X414490Y86600D02*
X424490Y86600D01*
X344480Y262200D02*
X334480Y262200D01*
X334480Y271200D01*
X344480Y271200D01*
X344480Y262200D01*
X344480Y263150D02*
X334480Y263150D01*
X334480Y264100D02*
X344480Y264100D01*
X344480Y265050D02*
X334480Y265050D01*
X334480Y266000D02*
X344480Y266000D01*
X344480Y266950D02*
X334480Y266950D01*
X334480Y267900D02*
X344480Y267900D01*
X344480Y268850D02*
X334480Y268850D01*
X334480Y269800D02*
X344480Y269800D01*
X344480Y270750D02*
X334480Y270750D01*
X351480Y262200D02*
X361480Y262200D01*
X351480Y262200D02*
X351480Y271200D01*
X361480Y271200D01*
X361480Y262200D01*
X361480Y263150D02*
X351480Y263150D01*
X351480Y264100D02*
X361480Y264100D01*
X361480Y265050D02*
X351480Y265050D01*
X351480Y266000D02*
X361480Y266000D01*
X361480Y266950D02*
X351480Y266950D01*
X351480Y267900D02*
X361480Y267900D01*
X361480Y268850D02*
X351480Y268850D01*
X351480Y269800D02*
X361480Y269800D01*
X361480Y270750D02*
X351480Y270750D01*
X344480Y281250D02*
X334480Y281250D01*
X334480Y290250D01*
X344480Y290250D01*
X344480Y281250D01*
X344480Y282200D02*
X334480Y282200D01*
X334480Y283150D02*
X344480Y283150D01*
X344480Y284100D02*
X334480Y284100D01*
X334480Y285050D02*
X344480Y285050D01*
X344480Y286000D02*
X334480Y286000D01*
X334480Y286950D02*
X344480Y286950D01*
X344480Y287900D02*
X334480Y287900D01*
X334480Y288850D02*
X344480Y288850D01*
X344480Y289800D02*
X334480Y289800D01*
X351480Y281250D02*
X361480Y281250D01*
X351480Y281250D02*
X351480Y290250D01*
X361480Y290250D01*
X361480Y281250D01*
X361480Y282200D02*
X351480Y282200D01*
X351480Y283150D02*
X361480Y283150D01*
X361480Y284100D02*
X351480Y284100D01*
X351480Y285050D02*
X361480Y285050D01*
X361480Y286000D02*
X351480Y286000D01*
X351480Y286950D02*
X361480Y286950D01*
X361480Y287900D02*
X351480Y287900D01*
X351480Y288850D02*
X361480Y288850D01*
X361480Y289800D02*
X351480Y289800D01*
X344480Y154250D02*
X334480Y154250D01*
X334480Y163250D01*
X344480Y163250D01*
X344480Y154250D01*
X344480Y155200D02*
X334480Y155200D01*
X334480Y156150D02*
X344480Y156150D01*
X344480Y157100D02*
X334480Y157100D01*
X334480Y158050D02*
X344480Y158050D01*
X344480Y159000D02*
X334480Y159000D01*
X334480Y159950D02*
X344480Y159950D01*
X344480Y160900D02*
X334480Y160900D01*
X334480Y161850D02*
X344480Y161850D01*
X344480Y162800D02*
X334480Y162800D01*
X351480Y154250D02*
X361480Y154250D01*
X351480Y154250D02*
X351480Y163250D01*
X361480Y163250D01*
X361480Y154250D01*
X361480Y155200D02*
X351480Y155200D01*
X351480Y156150D02*
X361480Y156150D01*
X361480Y157100D02*
X351480Y157100D01*
X351480Y158050D02*
X361480Y158050D01*
X361480Y159000D02*
X351480Y159000D01*
X351480Y159950D02*
X361480Y159950D01*
X361480Y160900D02*
X351480Y160900D01*
X351480Y161850D02*
X361480Y161850D01*
X361480Y162800D02*
X351480Y162800D01*
X344480Y243150D02*
X334480Y243150D01*
X334480Y252150D01*
X344480Y252150D01*
X344480Y243150D01*
X344480Y244100D02*
X334480Y244100D01*
X334480Y245050D02*
X344480Y245050D01*
X344480Y246000D02*
X334480Y246000D01*
X334480Y246950D02*
X344480Y246950D01*
X344480Y247900D02*
X334480Y247900D01*
X334480Y248850D02*
X344480Y248850D01*
X344480Y249800D02*
X334480Y249800D01*
X334480Y250750D02*
X344480Y250750D01*
X344480Y251700D02*
X334480Y251700D01*
X351480Y243150D02*
X361480Y243150D01*
X351480Y243150D02*
X351480Y252150D01*
X361480Y252150D01*
X361480Y243150D01*
X361480Y244100D02*
X351480Y244100D01*
X351480Y245050D02*
X361480Y245050D01*
X361480Y246000D02*
X351480Y246000D01*
X351480Y246950D02*
X361480Y246950D01*
X361480Y247900D02*
X351480Y247900D01*
X351480Y248850D02*
X361480Y248850D01*
X361480Y249800D02*
X351480Y249800D01*
X351480Y250750D02*
X361480Y250750D01*
X361480Y251700D02*
X351480Y251700D01*
X389580Y163250D02*
X399580Y163250D01*
X399580Y154250D01*
X389580Y154250D01*
X389580Y163250D01*
X389580Y155200D02*
X399580Y155200D01*
X399580Y156150D02*
X389580Y156150D01*
X389580Y157100D02*
X399580Y157100D01*
X399580Y158050D02*
X389580Y158050D01*
X389580Y159000D02*
X399580Y159000D01*
X399580Y159950D02*
X389580Y159950D01*
X389580Y160900D02*
X399580Y160900D01*
X399580Y161850D02*
X389580Y161850D01*
X389580Y162800D02*
X399580Y162800D01*
X382580Y163250D02*
X372580Y163250D01*
X382580Y163250D02*
X382580Y154250D01*
X372580Y154250D01*
X372580Y163250D01*
X372580Y155200D02*
X382580Y155200D01*
X382580Y156150D02*
X372580Y156150D01*
X372580Y157100D02*
X382580Y157100D01*
X382580Y158050D02*
X372580Y158050D01*
X372580Y159000D02*
X382580Y159000D01*
X382580Y159950D02*
X372580Y159950D01*
X372580Y160900D02*
X382580Y160900D01*
X382580Y161850D02*
X372580Y161850D01*
X372580Y162800D02*
X382580Y162800D01*
X344480Y173300D02*
X334480Y173300D01*
X334480Y182300D01*
X344480Y182300D01*
X344480Y173300D01*
X344480Y174250D02*
X334480Y174250D01*
X334480Y175200D02*
X344480Y175200D01*
X344480Y176150D02*
X334480Y176150D01*
X334480Y177100D02*
X344480Y177100D01*
X344480Y178050D02*
X334480Y178050D01*
X334480Y179000D02*
X344480Y179000D01*
X344480Y179950D02*
X334480Y179950D01*
X334480Y180900D02*
X344480Y180900D01*
X344480Y181850D02*
X334480Y181850D01*
X351480Y173300D02*
X361480Y173300D01*
X351480Y173300D02*
X351480Y182300D01*
X361480Y182300D01*
X361480Y173300D01*
X361480Y174250D02*
X351480Y174250D01*
X351480Y175200D02*
X361480Y175200D01*
X361480Y176150D02*
X351480Y176150D01*
X351480Y177100D02*
X361480Y177100D01*
X361480Y178050D02*
X351480Y178050D01*
X351480Y179000D02*
X361480Y179000D01*
X361480Y179950D02*
X351480Y179950D01*
X351480Y180900D02*
X361480Y180900D01*
X361480Y181850D02*
X351480Y181850D01*
X318544Y76490D02*
X318544Y67490D01*
X314544Y67490D01*
X314544Y76490D01*
X318544Y76490D01*
X318544Y68440D02*
X314544Y68440D01*
X314544Y69390D02*
X318544Y69390D01*
X318544Y70340D02*
X314544Y70340D01*
X314544Y71290D02*
X318544Y71290D01*
X318544Y72240D02*
X314544Y72240D01*
X314544Y73190D02*
X318544Y73190D01*
X318544Y74140D02*
X314544Y74140D01*
X314544Y75090D02*
X318544Y75090D01*
X318544Y76040D02*
X314544Y76040D01*
X329544Y76490D02*
X329544Y67490D01*
X325544Y67490D01*
X325544Y76490D01*
X329544Y76490D01*
X329544Y68440D02*
X325544Y68440D01*
X325544Y69390D02*
X329544Y69390D01*
X329544Y70340D02*
X325544Y70340D01*
X325544Y71290D02*
X329544Y71290D01*
X329544Y72240D02*
X325544Y72240D01*
X325544Y73190D02*
X329544Y73190D01*
X329544Y74140D02*
X325544Y74140D01*
X325544Y75090D02*
X329544Y75090D01*
X329544Y76040D02*
X325544Y76040D01*
X340544Y76490D02*
X340544Y67490D01*
X336544Y67490D01*
X336544Y76490D01*
X340544Y76490D01*
X340544Y68440D02*
X336544Y68440D01*
X336544Y69390D02*
X340544Y69390D01*
X340544Y70340D02*
X336544Y70340D01*
X336544Y71290D02*
X340544Y71290D01*
X340544Y72240D02*
X336544Y72240D01*
X336544Y73190D02*
X340544Y73190D01*
X340544Y74140D02*
X336544Y74140D01*
X336544Y75090D02*
X340544Y75090D01*
X340544Y76040D02*
X336544Y76040D01*
X351544Y76490D02*
X351544Y67490D01*
X347544Y67490D01*
X347544Y76490D01*
X351544Y76490D01*
X351544Y68440D02*
X347544Y68440D01*
X347544Y69390D02*
X351544Y69390D01*
X351544Y70340D02*
X347544Y70340D01*
X347544Y71290D02*
X351544Y71290D01*
X351544Y72240D02*
X347544Y72240D01*
X347544Y73190D02*
X351544Y73190D01*
X351544Y74140D02*
X347544Y74140D01*
X347544Y75090D02*
X351544Y75090D01*
X351544Y76040D02*
X347544Y76040D01*
X362544Y76490D02*
X362544Y67490D01*
X358544Y67490D01*
X358544Y76490D01*
X362544Y76490D01*
X362544Y68440D02*
X358544Y68440D01*
X358544Y69390D02*
X362544Y69390D01*
X362544Y70340D02*
X358544Y70340D01*
X358544Y71290D02*
X362544Y71290D01*
X362544Y72240D02*
X358544Y72240D01*
X358544Y73190D02*
X362544Y73190D01*
X362544Y74140D02*
X358544Y74140D01*
X358544Y75090D02*
X362544Y75090D01*
X362544Y76040D02*
X358544Y76040D01*
X373544Y76490D02*
X373544Y67490D01*
X369544Y67490D01*
X369544Y76490D01*
X373544Y76490D01*
X373544Y68440D02*
X369544Y68440D01*
X369544Y69390D02*
X373544Y69390D01*
X373544Y70340D02*
X369544Y70340D01*
X369544Y71290D02*
X373544Y71290D01*
X373544Y72240D02*
X369544Y72240D01*
X369544Y73190D02*
X373544Y73190D01*
X373544Y74140D02*
X369544Y74140D01*
X369544Y75090D02*
X373544Y75090D01*
X373544Y76040D02*
X369544Y76040D01*
X384544Y76490D02*
X384544Y67490D01*
X380544Y67490D01*
X380544Y76490D01*
X384544Y76490D01*
X384544Y68440D02*
X380544Y68440D01*
X380544Y69390D02*
X384544Y69390D01*
X384544Y70340D02*
X380544Y70340D01*
X380544Y71290D02*
X384544Y71290D01*
X384544Y72240D02*
X380544Y72240D01*
X380544Y73190D02*
X384544Y73190D01*
X384544Y74140D02*
X380544Y74140D01*
X380544Y75090D02*
X384544Y75090D01*
X384544Y76040D02*
X380544Y76040D01*
X395544Y76490D02*
X395544Y67490D01*
X391544Y67490D01*
X391544Y76490D01*
X395544Y76490D01*
X395544Y68440D02*
X391544Y68440D01*
X391544Y69390D02*
X395544Y69390D01*
X395544Y70340D02*
X391544Y70340D01*
X391544Y71290D02*
X395544Y71290D01*
X395544Y72240D02*
X391544Y72240D01*
X391544Y73190D02*
X395544Y73190D01*
X395544Y74140D02*
X391544Y74140D01*
X391544Y75090D02*
X395544Y75090D01*
X395544Y76040D02*
X391544Y76040D01*
D11*
X301640Y95394D02*
X295448Y95394D01*
X295448Y102186D01*
X301640Y102186D01*
X301640Y95394D01*
X301640Y96352D02*
X295448Y96352D01*
X295448Y97310D02*
X301640Y97310D01*
X301640Y98268D02*
X295448Y98268D01*
X295448Y99226D02*
X301640Y99226D01*
X301640Y100184D02*
X295448Y100184D01*
X295448Y101142D02*
X301640Y101142D01*
X301640Y102100D02*
X295448Y102100D01*
D12*
X303269Y106615D02*
X303269Y116365D01*
X303269Y106615D02*
X293819Y106615D01*
X293819Y116365D01*
X303269Y116365D01*
X303269Y107612D02*
X293819Y107612D01*
X293819Y108609D02*
X303269Y108609D01*
X303269Y109606D02*
X293819Y109606D01*
X293819Y110603D02*
X303269Y110603D01*
X303269Y111600D02*
X293819Y111600D01*
X293819Y112597D02*
X303269Y112597D01*
X303269Y113594D02*
X293819Y113594D01*
X293819Y114591D02*
X303269Y114591D01*
X303269Y115588D02*
X293819Y115588D01*
X303269Y132115D02*
X303269Y143065D01*
X303269Y132115D02*
X293819Y132115D01*
X293819Y143065D01*
X303269Y143065D01*
X303269Y133112D02*
X293819Y133112D01*
X293819Y134109D02*
X303269Y134109D01*
X303269Y135106D02*
X293819Y135106D01*
X293819Y136103D02*
X303269Y136103D01*
X303269Y137100D02*
X293819Y137100D01*
X293819Y138097D02*
X303269Y138097D01*
X303269Y139094D02*
X293819Y139094D01*
X293819Y140091D02*
X303269Y140091D01*
X303269Y141088D02*
X293819Y141088D01*
X293819Y142085D02*
X303269Y142085D01*
X410019Y137365D02*
X410019Y126415D01*
X400569Y126415D01*
X400569Y137365D01*
X410019Y137365D01*
X410019Y127412D02*
X400569Y127412D01*
X400569Y128409D02*
X410019Y128409D01*
X410019Y129406D02*
X400569Y129406D01*
X400569Y130403D02*
X410019Y130403D01*
X410019Y131400D02*
X400569Y131400D01*
X400569Y132397D02*
X410019Y132397D01*
X410019Y133394D02*
X400569Y133394D01*
X400569Y134391D02*
X410019Y134391D01*
X410019Y135388D02*
X400569Y135388D01*
X400569Y136385D02*
X410019Y136385D01*
X410019Y111465D02*
X410019Y88615D01*
X400569Y88615D01*
X400569Y111465D01*
X410019Y111465D01*
X410019Y89612D02*
X400569Y89612D01*
X400569Y90609D02*
X410019Y90609D01*
X410019Y91606D02*
X400569Y91606D01*
X400569Y92603D02*
X410019Y92603D01*
X410019Y93600D02*
X400569Y93600D01*
X400569Y94597D02*
X410019Y94597D01*
X410019Y95594D02*
X400569Y95594D01*
X400569Y96591D02*
X410019Y96591D01*
X410019Y97588D02*
X400569Y97588D01*
X400569Y98585D02*
X410019Y98585D01*
X410019Y99582D02*
X400569Y99582D01*
X400569Y100579D02*
X410019Y100579D01*
X410019Y101576D02*
X400569Y101576D01*
X400569Y102573D02*
X410019Y102573D01*
X410019Y103570D02*
X400569Y103570D01*
X400569Y104567D02*
X410019Y104567D01*
X410019Y105564D02*
X400569Y105564D01*
X400569Y106561D02*
X410019Y106561D01*
X410019Y107558D02*
X400569Y107558D01*
X400569Y108555D02*
X410019Y108555D01*
X410019Y109552D02*
X400569Y109552D01*
X400569Y110549D02*
X410019Y110549D01*
D13*
X387549Y146595D02*
X359439Y146595D01*
X387549Y146595D02*
X387549Y142085D01*
X359439Y142085D01*
X359439Y146595D01*
X359439Y143025D02*
X387549Y143025D01*
X387549Y143965D02*
X359439Y143965D01*
X359439Y144905D02*
X387549Y144905D01*
X387549Y145845D02*
X359439Y145845D01*
X345649Y146595D02*
X317539Y146595D01*
X345649Y146595D02*
X345649Y142085D01*
X317539Y142085D01*
X317539Y146595D01*
X317539Y143025D02*
X345649Y143025D01*
X345649Y143965D02*
X317539Y143965D01*
X317539Y144905D02*
X345649Y144905D01*
X345649Y145845D02*
X317539Y145845D01*
D10*
X287330Y478100D02*
X277330Y478100D01*
X277330Y487100D01*
X287330Y487100D01*
X287330Y478100D01*
X287330Y479050D02*
X277330Y479050D01*
X277330Y480000D02*
X287330Y480000D01*
X287330Y480950D02*
X277330Y480950D01*
X277330Y481900D02*
X287330Y481900D01*
X287330Y482850D02*
X277330Y482850D01*
X277330Y483800D02*
X287330Y483800D01*
X287330Y484750D02*
X277330Y484750D01*
X277330Y485700D02*
X287330Y485700D01*
X287330Y486650D02*
X277330Y486650D01*
X294330Y478100D02*
X304330Y478100D01*
X294330Y478100D02*
X294330Y487100D01*
X304330Y487100D01*
X304330Y478100D01*
X304330Y479050D02*
X294330Y479050D01*
X294330Y480000D02*
X304330Y480000D01*
X304330Y480950D02*
X294330Y480950D01*
X294330Y481900D02*
X304330Y481900D01*
X304330Y482850D02*
X294330Y482850D01*
X294330Y483800D02*
X304330Y483800D01*
X304330Y484750D02*
X294330Y484750D01*
X294330Y485700D02*
X304330Y485700D01*
X304330Y486650D02*
X294330Y486650D01*
X294330Y461700D02*
X304330Y461700D01*
X304330Y452700D01*
X294330Y452700D01*
X294330Y461700D01*
X294330Y453650D02*
X304330Y453650D01*
X304330Y454600D02*
X294330Y454600D01*
X294330Y455550D02*
X304330Y455550D01*
X304330Y456500D02*
X294330Y456500D01*
X294330Y457450D02*
X304330Y457450D01*
X304330Y458400D02*
X294330Y458400D01*
X294330Y459350D02*
X304330Y459350D01*
X304330Y460300D02*
X294330Y460300D01*
X294330Y461250D02*
X304330Y461250D01*
X287330Y461700D02*
X277330Y461700D01*
X287330Y461700D02*
X287330Y452700D01*
X277330Y452700D01*
X277330Y461700D01*
X277330Y453650D02*
X287330Y453650D01*
X287330Y454600D02*
X277330Y454600D01*
X277330Y455550D02*
X287330Y455550D01*
X287330Y456500D02*
X277330Y456500D01*
X277330Y457450D02*
X287330Y457450D01*
X287330Y458400D02*
X277330Y458400D01*
X277330Y459350D02*
X287330Y459350D01*
X287330Y460300D02*
X277330Y460300D01*
X277330Y461250D02*
X287330Y461250D01*
X327080Y263200D02*
X327080Y253200D01*
X318080Y253200D01*
X318080Y263200D01*
X327080Y263200D01*
X327080Y254150D02*
X318080Y254150D01*
X318080Y255100D02*
X327080Y255100D01*
X327080Y256050D02*
X318080Y256050D01*
X318080Y257000D02*
X327080Y257000D01*
X327080Y257950D02*
X318080Y257950D01*
X318080Y258900D02*
X327080Y258900D01*
X327080Y259850D02*
X318080Y259850D01*
X318080Y260800D02*
X327080Y260800D01*
X327080Y261750D02*
X318080Y261750D01*
X318080Y262700D02*
X327080Y262700D01*
X327080Y270200D02*
X327080Y280200D01*
X327080Y270200D02*
X318080Y270200D01*
X318080Y280200D01*
X327080Y280200D01*
X327080Y271150D02*
X318080Y271150D01*
X318080Y272100D02*
X327080Y272100D01*
X327080Y273050D02*
X318080Y273050D01*
X318080Y274000D02*
X327080Y274000D01*
X327080Y274950D02*
X318080Y274950D01*
X318080Y275900D02*
X327080Y275900D01*
X327080Y276850D02*
X318080Y276850D01*
X318080Y277800D02*
X327080Y277800D01*
X327080Y278750D02*
X318080Y278750D01*
X318080Y279700D02*
X327080Y279700D01*
X292680Y178600D02*
X292680Y168600D01*
X292680Y178600D02*
X301680Y178600D01*
X301680Y168600D01*
X292680Y168600D01*
X292680Y169550D02*
X301680Y169550D01*
X301680Y170500D02*
X292680Y170500D01*
X292680Y171450D02*
X301680Y171450D01*
X301680Y172400D02*
X292680Y172400D01*
X292680Y173350D02*
X301680Y173350D01*
X301680Y174300D02*
X292680Y174300D01*
X292680Y175250D02*
X301680Y175250D01*
X301680Y176200D02*
X292680Y176200D01*
X292680Y177150D02*
X301680Y177150D01*
X301680Y178100D02*
X292680Y178100D01*
X292680Y161600D02*
X292680Y151600D01*
X292680Y161600D02*
X301680Y161600D01*
X301680Y151600D01*
X292680Y151600D01*
X292680Y152550D02*
X301680Y152550D01*
X301680Y153500D02*
X292680Y153500D01*
X292680Y154450D02*
X301680Y154450D01*
X301680Y155400D02*
X292680Y155400D01*
X292680Y156350D02*
X301680Y156350D01*
X301680Y157300D02*
X292680Y157300D01*
X292680Y158250D02*
X301680Y158250D01*
X301680Y159200D02*
X292680Y159200D01*
X292680Y160150D02*
X301680Y160150D01*
X301680Y161100D02*
X292680Y161100D01*
X311730Y168600D02*
X311730Y178600D01*
X320730Y178600D01*
X320730Y168600D01*
X311730Y168600D01*
X311730Y169550D02*
X320730Y169550D01*
X320730Y170500D02*
X311730Y170500D01*
X311730Y171450D02*
X320730Y171450D01*
X320730Y172400D02*
X311730Y172400D01*
X311730Y173350D02*
X320730Y173350D01*
X320730Y174300D02*
X311730Y174300D01*
X311730Y175250D02*
X320730Y175250D01*
X320730Y176200D02*
X311730Y176200D01*
X311730Y177150D02*
X320730Y177150D01*
X320730Y178100D02*
X311730Y178100D01*
X311730Y161600D02*
X311730Y151600D01*
X311730Y161600D02*
X320730Y161600D01*
X320730Y151600D01*
X311730Y151600D01*
X311730Y152550D02*
X320730Y152550D01*
X320730Y153500D02*
X311730Y153500D01*
X311730Y154450D02*
X320730Y154450D01*
X320730Y155400D02*
X311730Y155400D01*
X311730Y156350D02*
X320730Y156350D01*
X320730Y157300D02*
X311730Y157300D01*
X311730Y158250D02*
X320730Y158250D01*
X320730Y159200D02*
X311730Y159200D01*
X311730Y160150D02*
X320730Y160150D01*
X320730Y161100D02*
X311730Y161100D01*
X548060Y392900D02*
X548060Y402900D01*
X548060Y392900D02*
X539060Y392900D01*
X539060Y402900D01*
X548060Y402900D01*
X548060Y393850D02*
X539060Y393850D01*
X539060Y394800D02*
X548060Y394800D01*
X548060Y395750D02*
X539060Y395750D01*
X539060Y396700D02*
X548060Y396700D01*
X548060Y397650D02*
X539060Y397650D01*
X539060Y398600D02*
X548060Y398600D01*
X548060Y399550D02*
X539060Y399550D01*
X539060Y400500D02*
X548060Y400500D01*
X548060Y401450D02*
X539060Y401450D01*
X539060Y402400D02*
X548060Y402400D01*
X548060Y409900D02*
X548060Y419900D01*
X548060Y409900D02*
X539060Y409900D01*
X539060Y419900D01*
X548060Y419900D01*
X548060Y410850D02*
X539060Y410850D01*
X539060Y411800D02*
X548060Y411800D01*
X548060Y412750D02*
X539060Y412750D01*
X539060Y413700D02*
X548060Y413700D01*
X548060Y414650D02*
X539060Y414650D01*
X539060Y415600D02*
X548060Y415600D01*
X548060Y416550D02*
X539060Y416550D01*
X539060Y417500D02*
X548060Y417500D01*
X548060Y418450D02*
X539060Y418450D01*
X539060Y419400D02*
X548060Y419400D01*
X648170Y116150D02*
X658170Y116150D01*
X648170Y116150D02*
X648170Y125150D01*
X658170Y125150D01*
X658170Y116150D01*
X658170Y117100D02*
X648170Y117100D01*
X648170Y118050D02*
X658170Y118050D01*
X658170Y119000D02*
X648170Y119000D01*
X648170Y119950D02*
X658170Y119950D01*
X658170Y120900D02*
X648170Y120900D01*
X648170Y121850D02*
X658170Y121850D01*
X658170Y122800D02*
X648170Y122800D01*
X648170Y123750D02*
X658170Y123750D01*
X658170Y124700D02*
X648170Y124700D01*
X665170Y116150D02*
X675170Y116150D01*
X665170Y116150D02*
X665170Y125150D01*
X675170Y125150D01*
X675170Y116150D01*
X675170Y117100D02*
X665170Y117100D01*
X665170Y118050D02*
X675170Y118050D01*
X675170Y119000D02*
X665170Y119000D01*
X665170Y119950D02*
X675170Y119950D01*
X675170Y120900D02*
X665170Y120900D01*
X665170Y121850D02*
X675170Y121850D01*
X675170Y122800D02*
X665170Y122800D01*
X665170Y123750D02*
X675170Y123750D01*
X675170Y124700D02*
X665170Y124700D01*
X658170Y97100D02*
X648170Y97100D01*
X648170Y106100D01*
X658170Y106100D01*
X658170Y97100D01*
X658170Y98050D02*
X648170Y98050D01*
X648170Y99000D02*
X658170Y99000D01*
X658170Y99950D02*
X648170Y99950D01*
X648170Y100900D02*
X658170Y100900D01*
X658170Y101850D02*
X648170Y101850D01*
X648170Y102800D02*
X658170Y102800D01*
X658170Y103750D02*
X648170Y103750D01*
X648170Y104700D02*
X658170Y104700D01*
X658170Y105650D02*
X648170Y105650D01*
X665170Y97100D02*
X675170Y97100D01*
X665170Y97100D02*
X665170Y106100D01*
X675170Y106100D01*
X675170Y97100D01*
X675170Y98050D02*
X665170Y98050D01*
X665170Y99000D02*
X675170Y99000D01*
X675170Y99950D02*
X665170Y99950D01*
X665170Y100900D02*
X675170Y100900D01*
X675170Y101850D02*
X665170Y101850D01*
X665170Y102800D02*
X675170Y102800D01*
X675170Y103750D02*
X665170Y103750D01*
X665170Y104700D02*
X675170Y104700D01*
X675170Y105650D02*
X665170Y105650D01*
X665170Y87050D02*
X675170Y87050D01*
X675170Y78050D01*
X665170Y78050D01*
X665170Y87050D01*
X665170Y79000D02*
X675170Y79000D01*
X675170Y79950D02*
X665170Y79950D01*
X665170Y80900D02*
X675170Y80900D01*
X675170Y81850D02*
X665170Y81850D01*
X665170Y82800D02*
X675170Y82800D01*
X675170Y83750D02*
X665170Y83750D01*
X665170Y84700D02*
X675170Y84700D01*
X675170Y85650D02*
X665170Y85650D01*
X665170Y86600D02*
X675170Y86600D01*
X658170Y87050D02*
X648170Y87050D01*
X658170Y87050D02*
X658170Y78050D01*
X648170Y78050D01*
X648170Y87050D01*
X648170Y79000D02*
X658170Y79000D01*
X658170Y79950D02*
X648170Y79950D01*
X648170Y80900D02*
X658170Y80900D01*
X658170Y81850D02*
X648170Y81850D01*
X648170Y82800D02*
X658170Y82800D01*
X658170Y83750D02*
X648170Y83750D01*
X648170Y84700D02*
X658170Y84700D01*
X658170Y85650D02*
X648170Y85650D01*
X648170Y86600D02*
X658170Y86600D01*
X578160Y262200D02*
X568160Y262200D01*
X568160Y271200D01*
X578160Y271200D01*
X578160Y262200D01*
X578160Y263150D02*
X568160Y263150D01*
X568160Y264100D02*
X578160Y264100D01*
X578160Y265050D02*
X568160Y265050D01*
X568160Y266000D02*
X578160Y266000D01*
X578160Y266950D02*
X568160Y266950D01*
X568160Y267900D02*
X578160Y267900D01*
X578160Y268850D02*
X568160Y268850D01*
X568160Y269800D02*
X578160Y269800D01*
X578160Y270750D02*
X568160Y270750D01*
X585160Y262200D02*
X595160Y262200D01*
X585160Y262200D02*
X585160Y271200D01*
X595160Y271200D01*
X595160Y262200D01*
X595160Y263150D02*
X585160Y263150D01*
X585160Y264100D02*
X595160Y264100D01*
X595160Y265050D02*
X585160Y265050D01*
X585160Y266000D02*
X595160Y266000D01*
X595160Y266950D02*
X585160Y266950D01*
X585160Y267900D02*
X595160Y267900D01*
X595160Y268850D02*
X585160Y268850D01*
X585160Y269800D02*
X595160Y269800D01*
X595160Y270750D02*
X585160Y270750D01*
X578160Y281250D02*
X568160Y281250D01*
X568160Y290250D01*
X578160Y290250D01*
X578160Y281250D01*
X578160Y282200D02*
X568160Y282200D01*
X568160Y283150D02*
X578160Y283150D01*
X578160Y284100D02*
X568160Y284100D01*
X568160Y285050D02*
X578160Y285050D01*
X578160Y286000D02*
X568160Y286000D01*
X568160Y286950D02*
X578160Y286950D01*
X578160Y287900D02*
X568160Y287900D01*
X568160Y288850D02*
X578160Y288850D01*
X578160Y289800D02*
X568160Y289800D01*
X585160Y281250D02*
X595160Y281250D01*
X585160Y281250D02*
X585160Y290250D01*
X595160Y290250D01*
X595160Y281250D01*
X595160Y282200D02*
X585160Y282200D01*
X585160Y283150D02*
X595160Y283150D01*
X595160Y284100D02*
X585160Y284100D01*
X585160Y285050D02*
X595160Y285050D01*
X595160Y286000D02*
X585160Y286000D01*
X585160Y286950D02*
X595160Y286950D01*
X595160Y287900D02*
X585160Y287900D01*
X585160Y288850D02*
X595160Y288850D01*
X595160Y289800D02*
X585160Y289800D01*
X578160Y154250D02*
X568160Y154250D01*
X568160Y163250D01*
X578160Y163250D01*
X578160Y154250D01*
X578160Y155200D02*
X568160Y155200D01*
X568160Y156150D02*
X578160Y156150D01*
X578160Y157100D02*
X568160Y157100D01*
X568160Y158050D02*
X578160Y158050D01*
X578160Y159000D02*
X568160Y159000D01*
X568160Y159950D02*
X578160Y159950D01*
X578160Y160900D02*
X568160Y160900D01*
X568160Y161850D02*
X578160Y161850D01*
X578160Y162800D02*
X568160Y162800D01*
X585160Y154250D02*
X595160Y154250D01*
X585160Y154250D02*
X585160Y163250D01*
X595160Y163250D01*
X595160Y154250D01*
X595160Y155200D02*
X585160Y155200D01*
X585160Y156150D02*
X595160Y156150D01*
X595160Y157100D02*
X585160Y157100D01*
X585160Y158050D02*
X595160Y158050D01*
X595160Y159000D02*
X585160Y159000D01*
X585160Y159950D02*
X595160Y159950D01*
X595160Y160900D02*
X585160Y160900D01*
X585160Y161850D02*
X595160Y161850D01*
X595160Y162800D02*
X585160Y162800D01*
X578160Y243150D02*
X568160Y243150D01*
X568160Y252150D01*
X578160Y252150D01*
X578160Y243150D01*
X578160Y244100D02*
X568160Y244100D01*
X568160Y245050D02*
X578160Y245050D01*
X578160Y246000D02*
X568160Y246000D01*
X568160Y246950D02*
X578160Y246950D01*
X578160Y247900D02*
X568160Y247900D01*
X568160Y248850D02*
X578160Y248850D01*
X578160Y249800D02*
X568160Y249800D01*
X568160Y250750D02*
X578160Y250750D01*
X578160Y251700D02*
X568160Y251700D01*
X585160Y243150D02*
X595160Y243150D01*
X585160Y243150D02*
X585160Y252150D01*
X595160Y252150D01*
X595160Y243150D01*
X595160Y244100D02*
X585160Y244100D01*
X585160Y245050D02*
X595160Y245050D01*
X595160Y246000D02*
X585160Y246000D01*
X585160Y246950D02*
X595160Y246950D01*
X595160Y247900D02*
X585160Y247900D01*
X585160Y248850D02*
X595160Y248850D01*
X595160Y249800D02*
X585160Y249800D01*
X585160Y250750D02*
X595160Y250750D01*
X595160Y251700D02*
X585160Y251700D01*
X623260Y163250D02*
X633260Y163250D01*
X633260Y154250D01*
X623260Y154250D01*
X623260Y163250D01*
X623260Y155200D02*
X633260Y155200D01*
X633260Y156150D02*
X623260Y156150D01*
X623260Y157100D02*
X633260Y157100D01*
X633260Y158050D02*
X623260Y158050D01*
X623260Y159000D02*
X633260Y159000D01*
X633260Y159950D02*
X623260Y159950D01*
X623260Y160900D02*
X633260Y160900D01*
X633260Y161850D02*
X623260Y161850D01*
X623260Y162800D02*
X633260Y162800D01*
X616260Y163250D02*
X606260Y163250D01*
X616260Y163250D02*
X616260Y154250D01*
X606260Y154250D01*
X606260Y163250D01*
X606260Y155200D02*
X616260Y155200D01*
X616260Y156150D02*
X606260Y156150D01*
X606260Y157100D02*
X616260Y157100D01*
X616260Y158050D02*
X606260Y158050D01*
X606260Y159000D02*
X616260Y159000D01*
X616260Y159950D02*
X606260Y159950D01*
X606260Y160900D02*
X616260Y160900D01*
X616260Y161850D02*
X606260Y161850D01*
X606260Y162800D02*
X616260Y162800D01*
X578160Y173300D02*
X568160Y173300D01*
X568160Y182300D01*
X578160Y182300D01*
X578160Y173300D01*
X578160Y174250D02*
X568160Y174250D01*
X568160Y175200D02*
X578160Y175200D01*
X578160Y176150D02*
X568160Y176150D01*
X568160Y177100D02*
X578160Y177100D01*
X578160Y178050D02*
X568160Y178050D01*
X568160Y179000D02*
X578160Y179000D01*
X578160Y179950D02*
X568160Y179950D01*
X568160Y180900D02*
X578160Y180900D01*
X578160Y181850D02*
X568160Y181850D01*
X585160Y173300D02*
X595160Y173300D01*
X585160Y173300D02*
X585160Y182300D01*
X595160Y182300D01*
X595160Y173300D01*
X595160Y174250D02*
X585160Y174250D01*
X585160Y175200D02*
X595160Y175200D01*
X595160Y176150D02*
X585160Y176150D01*
X585160Y177100D02*
X595160Y177100D01*
X595160Y178050D02*
X585160Y178050D01*
X585160Y179000D02*
X595160Y179000D01*
X595160Y179950D02*
X585160Y179950D01*
X585160Y180900D02*
X595160Y180900D01*
X595160Y181850D02*
X585160Y181850D01*
X552224Y76490D02*
X552224Y67490D01*
X548224Y67490D01*
X548224Y76490D01*
X552224Y76490D01*
X552224Y68440D02*
X548224Y68440D01*
X548224Y69390D02*
X552224Y69390D01*
X552224Y70340D02*
X548224Y70340D01*
X548224Y71290D02*
X552224Y71290D01*
X552224Y72240D02*
X548224Y72240D01*
X548224Y73190D02*
X552224Y73190D01*
X552224Y74140D02*
X548224Y74140D01*
X548224Y75090D02*
X552224Y75090D01*
X552224Y76040D02*
X548224Y76040D01*
X563224Y76490D02*
X563224Y67490D01*
X559224Y67490D01*
X559224Y76490D01*
X563224Y76490D01*
X563224Y68440D02*
X559224Y68440D01*
X559224Y69390D02*
X563224Y69390D01*
X563224Y70340D02*
X559224Y70340D01*
X559224Y71290D02*
X563224Y71290D01*
X563224Y72240D02*
X559224Y72240D01*
X559224Y73190D02*
X563224Y73190D01*
X563224Y74140D02*
X559224Y74140D01*
X559224Y75090D02*
X563224Y75090D01*
X563224Y76040D02*
X559224Y76040D01*
X574224Y76490D02*
X574224Y67490D01*
X570224Y67490D01*
X570224Y76490D01*
X574224Y76490D01*
X574224Y68440D02*
X570224Y68440D01*
X570224Y69390D02*
X574224Y69390D01*
X574224Y70340D02*
X570224Y70340D01*
X570224Y71290D02*
X574224Y71290D01*
X574224Y72240D02*
X570224Y72240D01*
X570224Y73190D02*
X574224Y73190D01*
X574224Y74140D02*
X570224Y74140D01*
X570224Y75090D02*
X574224Y75090D01*
X574224Y76040D02*
X570224Y76040D01*
X585224Y76490D02*
X585224Y67490D01*
X581224Y67490D01*
X581224Y76490D01*
X585224Y76490D01*
X585224Y68440D02*
X581224Y68440D01*
X581224Y69390D02*
X585224Y69390D01*
X585224Y70340D02*
X581224Y70340D01*
X581224Y71290D02*
X585224Y71290D01*
X585224Y72240D02*
X581224Y72240D01*
X581224Y73190D02*
X585224Y73190D01*
X585224Y74140D02*
X581224Y74140D01*
X581224Y75090D02*
X585224Y75090D01*
X585224Y76040D02*
X581224Y76040D01*
X596224Y76490D02*
X596224Y67490D01*
X592224Y67490D01*
X592224Y76490D01*
X596224Y76490D01*
X596224Y68440D02*
X592224Y68440D01*
X592224Y69390D02*
X596224Y69390D01*
X596224Y70340D02*
X592224Y70340D01*
X592224Y71290D02*
X596224Y71290D01*
X596224Y72240D02*
X592224Y72240D01*
X592224Y73190D02*
X596224Y73190D01*
X596224Y74140D02*
X592224Y74140D01*
X592224Y75090D02*
X596224Y75090D01*
X596224Y76040D02*
X592224Y76040D01*
X607224Y76490D02*
X607224Y67490D01*
X603224Y67490D01*
X603224Y76490D01*
X607224Y76490D01*
X607224Y68440D02*
X603224Y68440D01*
X603224Y69390D02*
X607224Y69390D01*
X607224Y70340D02*
X603224Y70340D01*
X603224Y71290D02*
X607224Y71290D01*
X607224Y72240D02*
X603224Y72240D01*
X603224Y73190D02*
X607224Y73190D01*
X607224Y74140D02*
X603224Y74140D01*
X603224Y75090D02*
X607224Y75090D01*
X607224Y76040D02*
X603224Y76040D01*
X618224Y76490D02*
X618224Y67490D01*
X614224Y67490D01*
X614224Y76490D01*
X618224Y76490D01*
X618224Y68440D02*
X614224Y68440D01*
X614224Y69390D02*
X618224Y69390D01*
X618224Y70340D02*
X614224Y70340D01*
X614224Y71290D02*
X618224Y71290D01*
X618224Y72240D02*
X614224Y72240D01*
X614224Y73190D02*
X618224Y73190D01*
X618224Y74140D02*
X614224Y74140D01*
X614224Y75090D02*
X618224Y75090D01*
X618224Y76040D02*
X614224Y76040D01*
X629224Y76490D02*
X629224Y67490D01*
X625224Y67490D01*
X625224Y76490D01*
X629224Y76490D01*
X629224Y68440D02*
X625224Y68440D01*
X625224Y69390D02*
X629224Y69390D01*
X629224Y70340D02*
X625224Y70340D01*
X625224Y71290D02*
X629224Y71290D01*
X629224Y72240D02*
X625224Y72240D01*
X625224Y73190D02*
X629224Y73190D01*
X629224Y74140D02*
X625224Y74140D01*
X625224Y75090D02*
X629224Y75090D01*
X629224Y76040D02*
X625224Y76040D01*
D11*
X535320Y95394D02*
X529128Y95394D01*
X529128Y102186D01*
X535320Y102186D01*
X535320Y95394D01*
X535320Y96352D02*
X529128Y96352D01*
X529128Y97310D02*
X535320Y97310D01*
X535320Y98268D02*
X529128Y98268D01*
X529128Y99226D02*
X535320Y99226D01*
X535320Y100184D02*
X529128Y100184D01*
X529128Y101142D02*
X535320Y101142D01*
X535320Y102100D02*
X529128Y102100D01*
D12*
X536949Y106615D02*
X536949Y116365D01*
X536949Y106615D02*
X527499Y106615D01*
X527499Y116365D01*
X536949Y116365D01*
X536949Y107612D02*
X527499Y107612D01*
X527499Y108609D02*
X536949Y108609D01*
X536949Y109606D02*
X527499Y109606D01*
X527499Y110603D02*
X536949Y110603D01*
X536949Y111600D02*
X527499Y111600D01*
X527499Y112597D02*
X536949Y112597D01*
X536949Y113594D02*
X527499Y113594D01*
X527499Y114591D02*
X536949Y114591D01*
X536949Y115588D02*
X527499Y115588D01*
X536949Y132115D02*
X536949Y143065D01*
X536949Y132115D02*
X527499Y132115D01*
X527499Y143065D01*
X536949Y143065D01*
X536949Y133112D02*
X527499Y133112D01*
X527499Y134109D02*
X536949Y134109D01*
X536949Y135106D02*
X527499Y135106D01*
X527499Y136103D02*
X536949Y136103D01*
X536949Y137100D02*
X527499Y137100D01*
X527499Y138097D02*
X536949Y138097D01*
X536949Y139094D02*
X527499Y139094D01*
X527499Y140091D02*
X536949Y140091D01*
X536949Y141088D02*
X527499Y141088D01*
X527499Y142085D02*
X536949Y142085D01*
X643699Y137365D02*
X643699Y126415D01*
X634249Y126415D01*
X634249Y137365D01*
X643699Y137365D01*
X643699Y127412D02*
X634249Y127412D01*
X634249Y128409D02*
X643699Y128409D01*
X643699Y129406D02*
X634249Y129406D01*
X634249Y130403D02*
X643699Y130403D01*
X643699Y131400D02*
X634249Y131400D01*
X634249Y132397D02*
X643699Y132397D01*
X643699Y133394D02*
X634249Y133394D01*
X634249Y134391D02*
X643699Y134391D01*
X643699Y135388D02*
X634249Y135388D01*
X634249Y136385D02*
X643699Y136385D01*
X643699Y111465D02*
X643699Y88615D01*
X634249Y88615D01*
X634249Y111465D01*
X643699Y111465D01*
X643699Y89612D02*
X634249Y89612D01*
X634249Y90609D02*
X643699Y90609D01*
X643699Y91606D02*
X634249Y91606D01*
X634249Y92603D02*
X643699Y92603D01*
X643699Y93600D02*
X634249Y93600D01*
X634249Y94597D02*
X643699Y94597D01*
X643699Y95594D02*
X634249Y95594D01*
X634249Y96591D02*
X643699Y96591D01*
X643699Y97588D02*
X634249Y97588D01*
X634249Y98585D02*
X643699Y98585D01*
X643699Y99582D02*
X634249Y99582D01*
X634249Y100579D02*
X643699Y100579D01*
X643699Y101576D02*
X634249Y101576D01*
X634249Y102573D02*
X643699Y102573D01*
X643699Y103570D02*
X634249Y103570D01*
X634249Y104567D02*
X643699Y104567D01*
X643699Y105564D02*
X634249Y105564D01*
X634249Y106561D02*
X643699Y106561D01*
X643699Y107558D02*
X634249Y107558D01*
X634249Y108555D02*
X643699Y108555D01*
X643699Y109552D02*
X634249Y109552D01*
X634249Y110549D02*
X643699Y110549D01*
D13*
X621229Y146595D02*
X593119Y146595D01*
X621229Y146595D02*
X621229Y142085D01*
X593119Y142085D01*
X593119Y146595D01*
X593119Y143025D02*
X621229Y143025D01*
X621229Y143965D02*
X593119Y143965D01*
X593119Y144905D02*
X621229Y144905D01*
X621229Y145845D02*
X593119Y145845D01*
X579329Y146595D02*
X551219Y146595D01*
X579329Y146595D02*
X579329Y142085D01*
X551219Y142085D01*
X551219Y146595D01*
X551219Y143025D02*
X579329Y143025D01*
X579329Y143965D02*
X551219Y143965D01*
X551219Y144905D02*
X579329Y144905D01*
X579329Y145845D02*
X551219Y145845D01*
D10*
X521010Y478100D02*
X511010Y478100D01*
X511010Y487100D01*
X521010Y487100D01*
X521010Y478100D01*
X521010Y479050D02*
X511010Y479050D01*
X511010Y480000D02*
X521010Y480000D01*
X521010Y480950D02*
X511010Y480950D01*
X511010Y481900D02*
X521010Y481900D01*
X521010Y482850D02*
X511010Y482850D01*
X511010Y483800D02*
X521010Y483800D01*
X521010Y484750D02*
X511010Y484750D01*
X511010Y485700D02*
X521010Y485700D01*
X521010Y486650D02*
X511010Y486650D01*
X528010Y478100D02*
X538010Y478100D01*
X528010Y478100D02*
X528010Y487100D01*
X538010Y487100D01*
X538010Y478100D01*
X538010Y479050D02*
X528010Y479050D01*
X528010Y480000D02*
X538010Y480000D01*
X538010Y480950D02*
X528010Y480950D01*
X528010Y481900D02*
X538010Y481900D01*
X538010Y482850D02*
X528010Y482850D01*
X528010Y483800D02*
X538010Y483800D01*
X538010Y484750D02*
X528010Y484750D01*
X528010Y485700D02*
X538010Y485700D01*
X538010Y486650D02*
X528010Y486650D01*
X528010Y461700D02*
X538010Y461700D01*
X538010Y452700D01*
X528010Y452700D01*
X528010Y461700D01*
X528010Y453650D02*
X538010Y453650D01*
X538010Y454600D02*
X528010Y454600D01*
X528010Y455550D02*
X538010Y455550D01*
X538010Y456500D02*
X528010Y456500D01*
X528010Y457450D02*
X538010Y457450D01*
X538010Y458400D02*
X528010Y458400D01*
X528010Y459350D02*
X538010Y459350D01*
X538010Y460300D02*
X528010Y460300D01*
X528010Y461250D02*
X538010Y461250D01*
X521010Y461700D02*
X511010Y461700D01*
X521010Y461700D02*
X521010Y452700D01*
X511010Y452700D01*
X511010Y461700D01*
X511010Y453650D02*
X521010Y453650D01*
X521010Y454600D02*
X511010Y454600D01*
X511010Y455550D02*
X521010Y455550D01*
X521010Y456500D02*
X511010Y456500D01*
X511010Y457450D02*
X521010Y457450D01*
X521010Y458400D02*
X511010Y458400D01*
X511010Y459350D02*
X521010Y459350D01*
X521010Y460300D02*
X511010Y460300D01*
X511010Y461250D02*
X521010Y461250D01*
X560760Y263200D02*
X560760Y253200D01*
X551760Y253200D01*
X551760Y263200D01*
X560760Y263200D01*
X560760Y254150D02*
X551760Y254150D01*
X551760Y255100D02*
X560760Y255100D01*
X560760Y256050D02*
X551760Y256050D01*
X551760Y257000D02*
X560760Y257000D01*
X560760Y257950D02*
X551760Y257950D01*
X551760Y258900D02*
X560760Y258900D01*
X560760Y259850D02*
X551760Y259850D01*
X551760Y260800D02*
X560760Y260800D01*
X560760Y261750D02*
X551760Y261750D01*
X551760Y262700D02*
X560760Y262700D01*
X560760Y270200D02*
X560760Y280200D01*
X560760Y270200D02*
X551760Y270200D01*
X551760Y280200D01*
X560760Y280200D01*
X560760Y271150D02*
X551760Y271150D01*
X551760Y272100D02*
X560760Y272100D01*
X560760Y273050D02*
X551760Y273050D01*
X551760Y274000D02*
X560760Y274000D01*
X560760Y274950D02*
X551760Y274950D01*
X551760Y275900D02*
X560760Y275900D01*
X560760Y276850D02*
X551760Y276850D01*
X551760Y277800D02*
X560760Y277800D01*
X560760Y278750D02*
X551760Y278750D01*
X551760Y279700D02*
X560760Y279700D01*
X526360Y178600D02*
X526360Y168600D01*
X526360Y178600D02*
X535360Y178600D01*
X535360Y168600D01*
X526360Y168600D01*
X526360Y169550D02*
X535360Y169550D01*
X535360Y170500D02*
X526360Y170500D01*
X526360Y171450D02*
X535360Y171450D01*
X535360Y172400D02*
X526360Y172400D01*
X526360Y173350D02*
X535360Y173350D01*
X535360Y174300D02*
X526360Y174300D01*
X526360Y175250D02*
X535360Y175250D01*
X535360Y176200D02*
X526360Y176200D01*
X526360Y177150D02*
X535360Y177150D01*
X535360Y178100D02*
X526360Y178100D01*
X526360Y161600D02*
X526360Y151600D01*
X526360Y161600D02*
X535360Y161600D01*
X535360Y151600D01*
X526360Y151600D01*
X526360Y152550D02*
X535360Y152550D01*
X535360Y153500D02*
X526360Y153500D01*
X526360Y154450D02*
X535360Y154450D01*
X535360Y155400D02*
X526360Y155400D01*
X526360Y156350D02*
X535360Y156350D01*
X535360Y157300D02*
X526360Y157300D01*
X526360Y158250D02*
X535360Y158250D01*
X535360Y159200D02*
X526360Y159200D01*
X526360Y160150D02*
X535360Y160150D01*
X535360Y161100D02*
X526360Y161100D01*
X545410Y168600D02*
X545410Y178600D01*
X554410Y178600D01*
X554410Y168600D01*
X545410Y168600D01*
X545410Y169550D02*
X554410Y169550D01*
X554410Y170500D02*
X545410Y170500D01*
X545410Y171450D02*
X554410Y171450D01*
X554410Y172400D02*
X545410Y172400D01*
X545410Y173350D02*
X554410Y173350D01*
X554410Y174300D02*
X545410Y174300D01*
X545410Y175250D02*
X554410Y175250D01*
X554410Y176200D02*
X545410Y176200D01*
X545410Y177150D02*
X554410Y177150D01*
X554410Y178100D02*
X545410Y178100D01*
X545410Y161600D02*
X545410Y151600D01*
X545410Y161600D02*
X554410Y161600D01*
X554410Y151600D01*
X545410Y151600D01*
X545410Y152550D02*
X554410Y152550D01*
X554410Y153500D02*
X545410Y153500D01*
X545410Y154450D02*
X554410Y154450D01*
X554410Y155400D02*
X545410Y155400D01*
X545410Y156350D02*
X554410Y156350D01*
X554410Y157300D02*
X545410Y157300D01*
X545410Y158250D02*
X554410Y158250D01*
X554410Y159200D02*
X545410Y159200D01*
X545410Y160150D02*
X554410Y160150D01*
X554410Y161100D02*
X545410Y161100D01*
M02*
